<svg width="303" height="192" viewBox="0 0 303 192" fill="none" xmlns="http://www.w3.org/2000/svg">
<path d="M64.8479 18.15C57.0237 6.50792 47.616 2.67341 43.8901 2.21143L39 18.15C44.3559 48.6412 55.0676 110.178 55.0676 112.396C55.0676 114.613 83.9427 145.197 98.3803 160.211L231.113 150.51L287 65.2728C280.247 44.2524 265.903 2.21143 262.549 2.21143C258.358 2.21143 247.18 2.21143 238.797 18.15C225.524 38.9395 74.6282 32.7027 64.8479 18.15Z" fill="#FB668A"/>
<path d="M150.023 129.206C211.682 129.206 226.141 70.2113 240 15.6545C249.907 -1.51193 271.044 -2.99581 284.5 3.71128C301.8 12.3883 311.349 40.4201 290.5 83.7113C252.598 162.461 213.9 191.211 150.023 191.211C86.1461 191.211 49.2788 159.224 11.3765 80.4271C-9.47231 37.089 1.51888 15.2324 18.8682 6.55535C32.3731 -0.198639 54.6019 -1.5119 64.5088 15.6545C86.7869 54.3023 88.3148 129.206 150.023 129.206Z" fill="#FC95AE"/>
<path d="M88.7861 131.634C89.4761 130.321 91.0041 117.845 85.8288 110.856C80.6536 103.821 72.324 102.273 65.5222 109.778C58.7205 117.282 52.0174 133.229 55.7632 137.45C59.5584 141.578 83.2659 141.765 88.7861 131.634Z" fill="#FC95AE"/>
<path d="M67.3952 141.719C65.0787 141.719 57.2419 141.484 54.4818 138.435C49.553 132.948 57.9812 115.594 64.2408 108.699C67.4938 105.088 71.2889 103.211 75.2813 103.211C79.7664 103.211 84.0052 105.603 87.2089 109.919C92.8277 117.564 91.2012 130.743 90.314 132.385C86.5682 139.233 76.0206 141.719 67.3952 141.719ZM75.2813 106.401C72.324 106.401 69.416 107.902 66.8037 110.81C59.9034 118.455 54.2846 133.276 57.0448 136.372C57.9812 137.45 61.875 138.529 67.3459 138.529C74.5912 138.529 84.1531 136.559 87.2089 130.931C87.7018 129.665 89.1311 118.22 84.3502 111.748C81.8858 108.277 78.6328 106.401 75.2813 106.401Z" fill="white"/>
<path d="M91.0678 164.931C99.841 168.683 112.114 169.809 110.438 163.711C107.136 151.892 110.191 136.695 104.523 133.975C92.99 128.394 87.519 142.324 78.6472 150.11C73.9156 154.284 82.2945 161.179 91.0678 164.931Z" fill="#FC95AE"/>
<path d="M104.622 169.668C100.481 169.668 95.0105 168.449 90.3774 166.432C84.1178 163.759 76.5275 158.834 75.6896 153.815C75.3939 151.939 76.0346 150.251 77.5626 148.937C79.9284 146.874 82.0478 144.294 84.1178 141.808C88.7509 136.274 93.0882 131.114 99.4464 131.114C101.319 131.114 103.291 131.583 105.312 132.568C109.501 134.585 109.846 140.729 110.24 148.468C110.487 153.252 110.783 158.646 112.064 163.383C112.606 165.353 112.015 166.667 111.374 167.464C110.191 168.918 107.924 169.668 104.622 169.668ZM99.4464 134.304C94.7147 134.304 90.8703 138.9 86.7794 143.825C84.6107 146.405 82.3928 149.078 79.8298 151.282C79.1398 151.892 78.8933 152.502 79.0412 153.299C79.5341 156.207 85.005 160.569 91.7575 163.477C95.9469 165.259 100.974 166.432 104.622 166.432C107.677 166.432 108.515 165.682 108.713 165.447C108.811 165.353 109.058 165.025 108.811 164.181C107.382 159.115 107.086 153.534 106.84 148.609C106.544 142.465 106.199 136.649 103.784 135.429C102.256 134.679 100.826 134.304 99.4464 134.304Z" fill="white"/>
<path d="M130.377 179.389C139.593 180.467 151.422 177.935 148.12 172.635C141.713 162.269 142.501 147.119 134.27 145.9C126.089 144.681 123.279 160.158 114.654 168.789C110.267 173.197 121.16 178.31 130.377 179.389Z" fill="#FC95AE"/>
<path d="M134.714 181.218C133.186 181.218 131.658 181.124 130.229 180.983C123.871 180.233 114.062 177.09 112.288 172.447C111.647 170.805 112.091 169.117 113.471 167.71C116.724 164.473 119.188 159.971 121.406 156.031C124.906 149.699 127.961 144.211 133.432 144.211C133.827 144.211 134.221 144.258 134.615 144.305C140.628 145.196 142.551 151.81 144.571 158.751C145.853 163.254 147.233 167.897 149.648 171.79C150.634 173.385 150.683 175.027 149.845 176.481C147.677 179.951 140.628 181.218 134.714 181.218ZM133.383 147.401C129.982 147.401 127.37 152.091 124.363 157.485C122.047 161.612 119.484 166.303 115.886 169.867C115.245 170.524 115.294 170.946 115.393 171.321C116.28 173.666 122.934 176.903 130.524 177.794C131.855 177.934 133.235 178.028 134.615 178.028C141.269 178.028 145.853 176.434 146.74 174.886C146.839 174.698 147.085 174.276 146.543 173.432C143.881 169.117 142.403 164.051 141.121 159.596C139.347 153.404 137.77 148.057 133.925 147.448C133.827 147.448 133.58 147.401 133.383 147.401Z" fill="#FFDE7E"/>
<path d="M46.5225 110.237C38.5616 104.795 26.2542 87.5535 28.9993 76.4077C31.7445 65.2619 51.0062 60.6034 55.4899 61.953C59.9736 63.3027 68.3463 73.6213 71.915 84.68C76.3987 98.6123 54.4834 115.679 46.5225 110.237Z" fill="#FC95AE"/>
<path d="M50.2743 112.762C48.4442 112.762 46.8886 112.327 45.6075 111.456C37.5094 105.927 24.4242 88.2501 27.4438 76.0594C30.006 65.6537 45.7448 60.2114 53.4312 60.2114C54.4377 60.2114 55.2613 60.2985 55.9018 60.5162C60.9345 62.04 69.6275 72.7069 73.3334 84.2446C75.0263 89.5562 73.4707 95.6952 68.9412 101.529C63.9084 108.016 56.039 112.762 50.2743 112.762ZM53.4769 63.172C46.8428 63.172 32.7054 67.9613 30.5093 76.7125C27.9471 87.1181 39.9342 103.88 47.4376 108.974C48.1696 109.497 49.1304 109.714 50.2743 109.714C55.0325 109.714 62.0326 105.404 66.4706 99.6571C68.7582 96.7401 72.2811 90.9495 70.4053 85.0283C66.8823 74.0566 58.7842 64.4346 55.0325 63.3026C54.8037 63.3026 54.3462 63.172 53.4769 63.172Z" fill="white"/>
<path d="M13.7333 42.9083C15.7548 51.696 22.4625 69.796 37.2102 61.7953C41.6208 59.4344 46.1691 57.9917 51.0391 57.0735C62.1114 54.8875 55.9091 35.5634 53.0147 27.6501C51.2688 22.8846 48.9257 17.5071 44.9287 14.4904C40.8397 11.3863 36.2914 13.3974 31.8808 13.616C10.5632 14.8401 11.4361 33.0276 13.7333 42.9083Z" fill="#FC95AE"/>
<path d="M30.2267 65.2929C18.2356 65.2929 13.3656 48.417 12.1711 43.2144C10.8387 37.4434 9.46044 26.732 15.2493 19.4308C18.741 15.0151 24.346 12.523 31.7888 12.0858C32.8455 12.0421 33.9022 11.8672 35.0048 11.6924C36.475 11.4738 37.9452 11.2114 39.5073 11.2114C42.0341 11.2114 44.1016 11.8672 45.9393 13.2663C50.258 16.5453 52.693 22.0977 54.5307 27.1255C59.3547 40.2852 60.2736 49.51 57.2873 54.4941C56.0009 56.6364 54.0253 57.9917 51.4065 58.5163C46.169 59.5219 41.8963 61.0084 38.0371 63.1069C35.3264 64.5497 32.7077 65.2929 30.2267 65.2929ZM39.5073 14.2718C38.2209 14.2718 36.9344 14.4904 35.5562 14.709C34.4076 14.8839 33.2131 15.0588 32.0185 15.1462C25.5405 15.5397 20.7625 17.5945 17.8221 21.267C12.8143 27.6064 14.1007 37.3559 15.2952 42.6023C16.0763 45.8813 20.349 62.32 30.2727 62.32C32.2023 62.32 34.2697 61.7079 36.475 60.5275C40.6558 58.254 45.2042 56.7238 50.7633 55.6308C52.4632 55.2811 53.7037 54.4504 54.5307 53.0513C56.9657 48.9854 55.909 40.1103 51.5444 28.1748C49.8445 23.5842 47.6392 18.4689 43.9637 15.6709C42.6773 14.6653 41.299 14.2718 39.5073 14.2718Z" fill="white"/>
<path d="M216.647 131.634C215.957 130.321 214.43 117.845 219.605 110.856C224.78 103.821 233.11 102.273 239.911 109.778C246.713 117.282 253.416 133.229 249.67 137.45C245.875 141.578 222.168 141.765 216.647 131.634Z" fill="#FC95AE"/>
<path d="M238.038 141.719C240.355 141.719 248.192 141.484 250.952 138.435C255.881 132.948 247.452 115.594 241.193 108.699C237.94 105.088 234.145 103.211 230.152 103.211C225.667 103.211 221.428 105.603 218.225 109.919C212.606 117.564 214.232 130.743 215.12 132.385C218.865 139.233 229.413 141.719 238.038 141.719ZM230.152 106.401C233.11 106.401 236.018 107.902 238.63 110.81C245.53 118.455 251.149 133.276 248.389 136.372C247.452 137.45 243.559 138.529 238.088 138.529C230.842 138.529 221.281 136.559 218.225 130.931C217.732 129.665 216.302 118.22 221.083 111.748C223.548 108.277 226.801 106.401 230.152 106.401Z" fill="white"/>
<path d="M214.366 164.931C205.593 168.683 193.32 169.809 194.996 163.711C198.298 151.892 195.242 136.695 200.91 133.975C212.444 128.394 217.915 142.324 226.786 150.11C231.518 154.284 223.139 161.179 214.366 164.931Z" fill="#FC95AE"/>
<path d="M200.812 169.668C204.952 169.668 210.423 168.449 215.056 166.432C221.316 163.759 228.906 158.834 229.744 153.815C230.04 151.939 229.399 150.251 227.871 148.937C225.505 146.874 223.386 144.294 221.316 141.808C216.683 136.274 212.345 131.114 205.987 131.114C204.114 131.114 202.143 131.583 200.122 132.568C195.932 134.585 195.587 140.729 195.193 148.468C194.947 153.252 194.651 158.646 193.37 163.383C192.827 165.353 193.419 166.667 194.06 167.464C195.242 168.918 197.51 169.668 200.812 169.668ZM205.987 134.304C210.719 134.304 214.563 138.9 218.654 143.825C220.823 146.405 223.041 149.078 225.604 151.282C226.294 151.892 226.54 152.502 226.392 153.299C225.9 156.207 220.429 160.569 213.676 163.477C209.487 165.259 204.459 166.432 200.812 166.432C197.756 166.432 196.918 165.682 196.721 165.447C196.623 165.353 196.376 165.025 196.623 164.181C198.052 159.115 198.348 153.534 198.594 148.609C198.89 142.465 199.235 136.649 201.65 135.429C203.178 134.679 204.607 134.304 205.987 134.304Z" fill="white"/>
<path d="M175.057 179.389C165.84 180.467 154.011 177.935 157.313 172.635C163.721 162.269 162.932 147.119 171.163 145.9C179.345 144.681 182.154 160.158 190.78 168.789C195.166 173.197 184.274 178.31 175.057 179.389Z" fill="#FC95AE"/>
<path d="M170.72 181.218C172.248 181.218 173.776 181.124 175.205 180.983C181.563 180.233 191.371 177.09 193.146 172.447C193.786 170.805 193.343 169.117 191.963 167.71C188.71 164.473 186.245 159.971 184.027 156.031C180.528 149.699 177.472 144.211 172.001 144.211C171.607 144.211 171.213 144.258 170.818 144.305C164.805 145.196 162.883 151.81 160.862 158.751C159.581 163.254 158.201 167.897 155.785 171.79C154.8 173.385 154.75 175.027 155.588 176.481C157.757 179.951 164.805 181.218 170.72 181.218ZM172.05 147.401C175.451 147.401 178.064 152.091 181.07 157.485C183.387 161.612 185.95 166.303 189.548 169.867C190.188 170.524 190.139 170.946 190.041 171.321C189.153 173.666 182.5 176.903 174.909 177.794C173.578 177.934 172.198 178.028 170.818 178.028C164.164 178.028 159.581 176.434 158.693 174.886C158.595 174.698 158.348 174.276 158.891 173.432C161.552 169.117 163.031 164.051 164.312 159.596C166.087 153.404 167.664 148.057 171.508 147.448C171.607 147.448 171.853 147.401 172.05 147.401Z" fill="white"/>
<path d="M258.911 110.237C266.872 104.795 279.179 87.5535 276.434 76.4077C273.689 65.2619 254.427 60.6034 249.944 61.953C245.46 63.3027 237.087 73.6213 233.519 84.68C229.035 98.6123 250.95 115.679 258.911 110.237Z" fill="#FC95AE"/>
<path d="M255.159 112.762C256.989 112.762 258.545 112.327 259.826 111.456C267.924 105.927 281.009 88.2501 277.99 76.0594C275.428 65.6537 259.689 60.2114 252.002 60.2114C250.996 60.2114 250.172 60.2985 249.532 60.5162C244.499 62.04 235.806 72.7069 232.1 84.2446C230.407 89.5562 231.963 95.6952 236.492 101.529C241.525 108.016 249.395 112.762 255.159 112.762ZM251.957 63.172C258.591 63.172 272.728 67.9613 274.924 76.7125C277.486 87.1181 265.499 103.88 257.996 108.974C257.264 109.497 256.303 109.714 255.159 109.714C250.401 109.714 243.401 105.404 238.963 99.6571C236.675 96.7401 233.152 90.9495 235.028 85.0283C238.551 74.0566 246.649 64.4346 250.401 63.3026C250.63 63.3026 251.087 63.172 251.957 63.172Z" fill="white"/>
<path d="M291.7 42.9083C289.679 51.696 282.971 69.796 268.223 61.7953C263.813 59.4344 259.264 57.9917 254.394 57.0735C243.322 54.8875 249.524 35.5634 252.419 27.6501C254.165 22.8846 256.508 17.5071 260.505 14.4904C264.594 11.3863 269.142 13.3974 273.553 13.616C294.87 14.8401 293.997 33.0276 291.7 42.9083Z" fill="#FC95AE"/>
<path d="M275.207 65.2929C287.198 65.2929 292.068 48.417 293.263 43.2144C294.595 37.4434 295.973 26.732 290.184 19.4308C286.693 15.0151 281.088 12.523 273.645 12.0858C272.588 12.0421 271.531 11.8672 270.429 11.6924C268.959 11.4738 267.488 11.2114 265.926 11.2114C263.399 11.2114 261.332 11.8672 259.494 13.2663C255.176 16.5453 252.741 22.0977 250.903 27.1255C246.079 40.2852 245.16 49.51 248.146 54.4941C249.433 56.6364 251.408 57.9917 254.027 58.5163C259.265 59.5219 263.537 61.0084 267.397 63.1069C270.107 64.5497 272.726 65.2929 275.207 65.2929ZM265.926 14.2718C267.213 14.2718 268.499 14.4904 269.877 14.709C271.026 14.8839 272.221 15.0588 273.415 15.1462C279.893 15.5397 284.671 17.5945 287.612 21.267C292.619 27.6064 291.333 37.3559 290.138 42.6023C289.357 45.8813 285.085 62.32 275.161 62.32C273.231 62.32 271.164 61.7079 268.959 60.5275C264.778 58.254 260.229 56.7238 254.67 55.6308C252.97 55.2811 251.73 54.4504 250.903 53.0513C248.468 48.9854 249.525 40.1103 253.889 28.1748C255.589 23.5842 257.794 18.4689 261.47 15.6709C262.756 14.6653 264.135 14.2718 265.926 14.2718Z" fill="white"/>
</svg>
