<svg width="302" height="190" viewBox="0 0 302 190" fill="none" xmlns="http://www.w3.org/2000/svg">
<path d="M237.058 175.557C214.632 136.909 213.094 62.0056 150.974 62.0056C88.8541 62.0056 87.3656 136.909 64.939 175.557C61.6643 181.139 57.0996 184.797 51.9395 186.908C60.5727 187.189 68.4121 185.876 76.45 181.795C85.3313 177.246 91.9224 151.973 102.342 150.05C113.712 142.911 123.894 142.911 137.47 149.815C158.473 156.779 123.215 182.954 150.974 189.168C180.234 182.954 144.656 157.47 161.782 149.815C173.343 149.112 185.449 147.939 196.911 150.05C207.281 151.973 216.666 177.246 225.597 181.795C233.635 185.876 241.474 187.189 250.108 186.908C244.898 184.797 240.333 181.139 237.058 175.557Z" fill="#FB668A"/>
<path d="M206.958 121.509C196.026 95.9646 188.638 69.0393 150.337 69.0393C112.036 69.0393 95.7068 118.057 93.1346 124.271C90.5623 132.555 89.9192 133.91 89.2761 136.678C94.5991 136.83 99.4326 136.119 104.388 133.91C109.864 131.446 114.79 128.22 121.214 127.179C128.281 126.036 135.745 126.671 142.873 127.052C145.351 127.179 147.921 127.458 150.368 127.458C152.846 127.458 155.416 127.179 157.863 127.052C164.991 126.671 172.455 126.036 179.522 127.179C185.916 128.22 190.841 131.446 196.347 133.91C201.303 136.119 206.137 136.83 211.46 136.678C209.53 127.458 208.14 124.271 206.958 121.509Z" fill="#E25D7D"/>
<path d="M151.023 62.0054C213.094 62.0054 214.632 136.909 237.108 175.557C247.081 192.723 269.507 191.363 283.053 184.656C300.468 175.979 311.533 154.122 290.545 110.784C252.39 32.0346 215.326 0 151.023 0C86.7204 0 49.6073 32.0346 11.4523 110.784C-9.53546 154.122 1.52901 175.979 18.994 184.656C32.5889 191.41 54.9659 192.723 64.9388 175.557C87.3655 136.909 88.9036 62.0054 151.023 62.0054Z" fill="#FC95AE"/>
<path d="M171.912 13.039C161.046 11.7257 151.718 14.7275 151.024 19.8399C150.974 20.2151 150.974 20.5903 151.024 20.9655C151.024 21.1063 154.001 48.5443 167.05 48.5443C180.099 48.5443 189.923 25.8903 189.972 25.7496C190.121 25.4213 190.221 25.0461 190.27 24.6709C191.014 19.5585 182.778 14.3523 171.912 13.039Z" fill="#FC95AE"/>
<path d="M167.05 50.0921C152.959 50.0921 149.634 24.0611 149.337 21.1062C149.287 20.5434 149.287 20.0744 149.337 19.6054C150.031 14.5399 157.077 11.116 166.901 11.116C168.637 11.116 170.374 11.2098 172.16 11.4443C184.118 12.8983 192.85 18.808 192.007 24.8585C191.957 25.3275 191.808 25.7965 191.61 26.3124C191.511 26.5001 181.339 50.0921 167.05 50.0921ZM166.901 14.3523C159.26 14.3523 153.157 16.7912 152.71 20.0275C152.661 20.2151 152.661 20.4965 152.71 20.7779C152.76 21.0593 155.737 46.9027 167.05 46.9027C178.809 46.9027 188.285 25.3275 188.385 25.1399C188.484 24.9054 188.534 24.6709 188.583 24.4363C189.079 20.8717 182.232 15.9469 171.664 14.6337C170.076 14.4461 168.488 14.3523 166.901 14.3523Z" fill="white"/>
<path d="M216.319 51.2646C224.158 47.1372 243.558 47.1841 246.783 52.7186C250.008 58.1593 247.23 70.354 244.848 73.8248C239.142 82.1735 220.09 92.9142 209.174 80.9071C203.319 69.2752 208.479 55.392 216.319 51.2646Z" fill="#FC95AE"/>
<path d="M221.479 87.8957C216.12 87.8957 211.407 85.8319 207.884 81.9859C207.785 81.8921 207.686 81.7514 207.636 81.6107C201.533 69.3222 206.842 54.454 215.525 49.8576C219.246 47.8877 225.299 46.7151 231.799 46.7151C234.975 46.7151 245.444 47.0903 248.321 51.9213C251.894 57.9717 249.115 70.6355 246.337 74.716C241.921 81.0479 231.204 87.8957 221.479 87.8957ZM210.563 80.0629C213.441 83.1116 217.113 84.7063 221.429 84.7063C230.509 84.7063 240.036 77.9054 243.36 72.9806C245.593 69.6974 247.974 58.1593 245.245 53.516C244.005 51.4523 238.448 49.9983 231.7 49.9983C225.845 49.9983 220.239 51.0301 217.063 52.7186C209.968 56.4709 205.453 69.4629 210.563 80.0629Z" fill="white"/>
<path d="M212.747 27.9074C203.865 21.7631 193.992 20.356 190.618 24.6711C190.37 24.9994 190.171 25.3277 190.022 25.7029C189.973 25.8436 181.439 51.4994 189.278 58.2534C197.117 65.0074 221.727 47.7941 221.876 47.7003C222.174 47.4658 222.471 47.1844 222.72 46.8561C226.044 42.4941 221.578 34.0516 212.747 27.9074Z" fill="#FC95AE"/>
<path d="M194.289 61.4426C191.709 61.4426 189.625 60.786 188.087 59.4727C179.305 51.8745 188.286 25.3275 188.385 25.093C188.633 24.5771 188.881 24.155 189.179 23.7328C190.766 21.6691 193.495 20.5435 197.018 20.5435C202.079 20.5435 208.132 22.7479 213.689 26.5939C218.204 29.6895 221.777 33.5355 223.761 37.3346C225.944 41.4621 226.044 45.2143 224.009 47.7939C223.712 48.1692 223.364 48.5444 222.918 48.9196C222.819 49.0603 205.205 61.4426 194.289 61.4426ZM191.61 26.2656C189.873 31.1904 184.366 51.7807 190.419 57.0338C191.312 57.7842 192.602 58.2063 194.289 58.2063C203.667 58.2063 219.991 46.9966 220.784 46.4338C221.032 46.2462 221.181 46.0585 221.33 45.8709C222.521 44.3231 222.322 41.6966 220.784 38.7417C218.998 35.4116 215.823 31.9877 211.754 29.1736C206.842 25.7966 201.335 23.7328 197.068 23.7328C195.381 23.7328 193.148 24.0612 192.007 25.562C191.858 25.7966 191.709 26.0311 191.61 26.2656Z" fill="white"/>
<path d="M256.756 76.3576C265.786 81.8921 278.736 99.4338 274.271 110.784C269.756 122.135 246.138 126.872 240.929 125.512C235.669 124.151 226.689 113.645 223.612 102.389C219.594 88.1302 247.726 70.7762 256.756 76.3576Z" fill="#FC95AE"/>
<path d="M243.31 127.341C242.169 127.341 241.177 127.247 240.482 127.059C234.578 125.512 225.2 114.583 221.926 102.811C220.636 98.2142 222.174 93.0549 226.391 87.8956C232.792 80.0629 244.452 73.6841 252.341 73.6841C254.474 73.6841 256.26 74.1062 257.65 74.9974C266.878 80.6726 280.82 98.777 275.809 111.347C271.393 122.604 250.753 127.341 243.31 127.341ZM252.341 76.8735C245.444 76.8735 234.826 82.8301 229.071 89.8186C226.59 92.8204 223.96 97.37 225.2 101.92C228.277 113.035 236.96 122.744 241.326 123.917C241.574 123.964 242.169 124.105 243.261 124.105C251.348 124.105 269.061 119.18 272.634 110.174C276.802 99.7151 264.199 82.8301 255.814 77.6708C254.97 77.1549 253.78 76.8735 252.341 76.8735Z" fill="white"/>
<path d="M288.461 140.333C286.923 131.422 280.82 113.083 262.313 121.197C256.806 123.589 251.199 125.043 245.245 125.981C231.75 128.185 237.158 147.791 239.788 155.811C241.375 160.642 243.608 166.083 248.074 169.178C252.638 172.321 258.295 170.304 263.603 170.022C289.305 168.756 290.148 150.323 288.461 140.333Z" fill="#FC95AE"/>
<path d="M254.424 172.508C251.447 172.508 249.116 171.852 247.081 170.445C242.219 167.114 239.837 161.392 238.15 156.28C233.982 143.616 233.635 134.564 237.059 129.264C238.795 126.591 241.425 124.949 244.948 124.386C251.398 123.354 256.657 121.853 261.569 119.696C264.844 118.242 267.97 117.538 270.848 117.538C285.187 117.538 289.206 134.752 290.099 140.052C290.992 145.399 291.587 155.483 285.286 162.846C280.721 168.193 273.477 171.101 263.703 171.617C262.413 171.664 261.123 171.852 259.783 172.039C257.997 172.274 256.211 172.508 254.424 172.508ZM270.848 120.775C268.466 120.775 265.836 121.384 263.008 122.651C257.798 124.902 252.241 126.497 245.494 127.576C242.963 127.998 241.177 129.076 239.936 130.953C237.952 134.001 236.612 140.708 241.375 155.342C242.913 159.985 244.997 165.051 249.066 167.865C250.505 168.85 252.192 169.319 254.375 169.319C255.913 169.319 257.55 169.084 259.237 168.897C260.627 168.709 262.065 168.522 263.455 168.475C272.237 168.053 278.637 165.52 282.607 160.923C288.114 154.498 287.519 145.492 286.725 140.661C285.981 135.924 282.507 120.775 270.848 120.775Z" fill="white"/>
<path d="M130.085 13.039C140.951 11.7257 150.279 14.7275 150.974 19.8399C151.024 20.2151 151.024 20.5903 150.974 20.9655C150.974 21.1063 147.997 48.5443 134.948 48.5443C121.899 48.5443 112.075 25.8903 112.025 25.7496C111.876 25.4213 111.777 25.0461 111.727 24.6709C110.983 19.5585 119.219 14.3523 130.085 13.039Z" fill="#FC95AE"/>
<path d="M134.898 50.0922C120.609 50.0922 110.487 26.5001 110.388 26.2656C110.189 25.7496 110.04 25.2806 109.991 24.8116C109.147 18.7611 117.88 12.8983 129.837 11.3974C131.574 11.1629 133.36 11.0691 135.097 11.0691C144.921 11.0691 151.966 14.493 152.661 19.5585C152.711 20.0275 152.711 20.4965 152.661 21.0594C152.314 24.0611 149.039 50.0922 134.898 50.0922ZM135.097 14.3523C133.509 14.3523 131.921 14.4461 130.284 14.6337C119.716 15.947 112.869 20.8249 113.365 24.4364C113.414 24.624 113.464 24.8585 113.563 25.1399C113.662 25.3275 123.139 46.9028 134.898 46.9028C146.211 46.9028 149.188 21.0594 149.237 20.778C149.287 20.4965 149.287 20.262 149.237 20.0275C148.841 16.7912 142.738 14.3523 135.097 14.3523Z" fill="white"/>
<path d="M85.6787 51.2649C77.8393 47.1374 58.4393 47.1843 55.2142 52.7188C51.9891 58.1596 54.7677 70.3543 57.1493 73.8251C62.8551 82.1737 81.9079 92.9145 92.8235 80.9074C98.6286 69.2755 93.5181 55.3923 85.6787 51.2649Z" fill="#FC95AE"/>
<path d="M80.519 87.8959C70.7446 87.8959 60.0274 81.0481 55.7108 74.7163C52.9323 70.6826 50.1538 57.972 53.7261 51.9215C56.5543 47.0906 67.073 46.7153 70.2484 46.7153C76.7482 46.7153 82.851 47.8879 86.5226 49.8578C95.2055 54.4543 100.514 69.3224 94.4116 81.611C94.362 81.7517 94.2628 81.8455 94.1635 81.9862C90.5912 85.8322 85.9272 87.8959 80.519 87.8959ZM70.2484 49.9516C63.5006 49.9516 57.9435 51.4056 56.7031 53.4693C53.9742 58.1127 56.3558 69.6508 58.5886 72.9339C61.9625 77.8587 71.4392 84.6596 80.519 84.6596C84.8357 84.6596 88.5073 83.1118 91.385 80.0163C96.4955 69.4632 92.03 56.4242 84.8357 52.6251C81.7098 50.9835 76.1032 49.9516 70.2484 49.9516Z" fill="white"/>
<path d="M89.2516 27.9074C98.1329 21.7631 108.007 20.356 111.381 24.6711C111.629 24.9994 111.827 25.3277 111.976 25.7029C112.026 25.8436 120.56 51.4994 112.72 58.2534C104.881 65.0074 80.271 47.7941 80.1221 47.7003C79.8244 47.4658 79.5267 47.1844 79.2787 46.8561C75.9047 42.4941 80.3702 34.0516 89.2516 27.9074Z" fill="#FC95AE"/>
<path d="M107.709 61.4426C96.7929 61.4426 79.1791 49.0603 79.0302 48.9196C78.5837 48.5444 78.2364 48.1692 77.9387 47.7939C75.9044 45.1674 76.0036 41.4621 78.1868 37.3346C80.1714 33.5355 83.7934 29.7364 88.2589 26.5939C93.8159 22.7479 99.9188 20.5435 104.93 20.5435C108.453 20.5435 111.182 21.6222 112.769 23.7328C113.067 24.1081 113.315 24.5771 113.563 25.093C113.663 25.3275 122.643 51.9214 113.861 59.4727C112.323 60.786 110.239 61.4426 107.709 61.4426ZM81.2134 46.4807C82.0072 47.0435 98.331 58.2532 107.709 58.2532C109.396 58.2532 110.686 57.878 111.579 57.0807C117.681 51.8276 112.124 31.2373 110.388 26.3125C110.289 26.0311 110.14 25.8435 109.991 25.6559C108.8 24.1081 106.567 23.8266 104.93 23.8266C100.663 23.8266 95.2052 25.8435 90.2436 29.2674C86.175 32.0815 82.9499 35.4585 81.2134 38.8355C79.6256 41.7904 79.4272 44.4169 80.6676 45.9647C80.8164 46.1054 80.9653 46.2461 81.2134 46.4807Z" fill="white"/>
<path d="M45.2415 76.3579C36.2113 81.8924 23.2614 99.434 27.7269 110.784C32.1924 122.135 55.8594 126.872 61.0692 125.512C66.3285 124.152 75.3091 113.646 78.3853 102.389C82.3546 88.1305 54.2717 70.7764 45.2415 76.3579Z" fill="#FC95AE"/>
<path d="M58.6879 127.341C51.1958 127.341 30.5553 122.557 26.0899 111.347C21.1282 98.7773 35.0208 80.6728 44.2495 74.9976C45.6884 74.1065 47.4746 73.6843 49.5584 73.6843C57.4971 73.6843 69.1073 80.0631 75.5079 87.8959C79.7252 93.0552 81.2634 98.2145 79.9733 102.811C76.6986 114.584 67.3211 125.559 61.4168 127.06C60.8214 127.247 59.8787 127.341 58.6879 127.341ZM49.6577 76.8737C48.2188 76.8737 47.028 77.1551 46.1845 77.6711C37.7993 82.8304 25.1968 99.7153 29.3645 110.175C32.9369 119.18 50.65 124.105 58.7375 124.105C59.829 124.105 60.4244 124.011 60.6725 123.917C65.0388 122.791 73.7217 113.036 76.7979 101.92C78.0383 97.3702 75.4086 92.8206 72.9278 89.8189C67.1723 82.8304 56.5047 76.8737 49.6577 76.8737Z" fill="white"/>
<path d="M13.5371 140.333C15.0752 131.422 21.178 113.083 39.6849 121.197C45.1923 123.589 50.799 125.043 56.753 125.981C70.2486 128.185 64.8405 147.791 62.2108 155.811C60.6231 160.642 58.3903 166.083 53.9248 169.178C49.3601 172.321 43.7039 170.304 38.3949 170.022C12.6936 168.756 11.8501 150.323 13.5371 140.333Z" fill="#FC95AE"/>
<path d="M47.5733 172.508C45.7871 172.508 44.0009 172.274 42.2148 172.039C40.8255 171.852 39.5355 171.711 38.295 171.617C28.5206 171.148 21.227 168.193 16.7119 162.846C10.4106 155.483 10.9564 145.399 11.8991 140.052C12.7922 134.752 16.8607 117.538 31.1503 117.538C34.028 117.538 37.1539 118.242 40.4286 119.696C45.3406 121.853 50.5999 123.307 57.0501 124.386C60.5728 124.949 63.2025 126.591 64.9391 129.264C68.3626 134.564 68.0153 143.616 63.8475 156.28C62.1606 161.392 59.779 167.114 54.9166 170.445C52.8823 171.852 50.5503 172.508 47.5733 172.508ZM31.1503 120.775C19.54 120.775 16.0669 135.924 15.273 140.568C14.4295 145.399 13.8838 154.404 19.3912 160.83C23.3109 165.426 29.761 167.959 38.5431 168.381C39.982 168.428 41.3713 168.615 42.7605 168.803C44.4475 169.037 46.0848 169.225 47.6229 169.225C49.8557 169.225 51.5426 168.756 52.9319 167.771C57.0005 165.004 59.0843 159.891 60.6224 155.248C65.3856 140.661 64.046 133.954 62.0613 130.859C60.8705 128.983 59.0347 127.904 56.5043 127.482C49.7565 126.403 44.1994 124.808 38.9897 122.557C36.1615 121.384 33.4823 120.775 31.1503 120.775Z" fill="white"/>
</svg>
