<svg width="47" height="53" viewBox="0 0 47 53" fill="none" xmlns="http://www.w3.org/2000/svg">
<path d="M19.5225 50.237C11.5616 44.7947 -0.745787 27.5535 1.99935 16.4077C4.74449 5.26195 24.0062 0.603351 28.49 1.95304C32.9737 3.30272 41.3464 13.6213 44.915 24.68C49.3988 38.6123 27.4834 55.6793 19.5225 50.237Z" fill="white"/>
<path d="M23.2743 52.762C21.4442 52.762 19.8886 52.3267 18.6075 51.4559C10.5094 45.9265 -2.5758 28.25 0.443848 16.0593C3.00598 5.6536 18.7448 0.211304 26.4312 0.211304C27.4377 0.211304 28.2613 0.298386 28.9018 0.516077C33.9345 2.03992 42.6275 12.7068 46.3334 24.2445C48.0263 29.5561 46.4707 35.695 41.9412 41.5292C36.9084 48.0164 29.039 52.762 23.2743 52.762ZM26.4769 3.1719C19.8428 3.1719 5.70536 7.96113 3.50925 16.7123C0.947122 27.118 12.9342 43.8802 20.4376 48.9742C21.1696 49.4967 22.1304 49.7144 23.2743 49.7144C28.0325 49.7144 35.0326 45.4041 39.4706 39.657C41.7582 36.7399 45.2811 30.9493 43.4053 25.0281C39.8823 14.0565 31.7842 4.43451 28.0325 3.30251C27.8037 3.30251 27.3462 3.1719 26.4769 3.1719Z" fill="white"/>
</svg>
