<svg width="24" height="24" viewBox="0 0 24 24" fill="none" xmlns="http://www.w3.org/2000/svg">
<path d="M19 3.75H5C3.89543 3.75 3 4.64543 3 5.75V19.75C3 20.8546 3.89543 21.75 5 21.75H19C20.1046 21.75 21 20.8546 21 19.75V5.75C21 4.64543 20.1046 3.75 19 3.75Z" stroke="white" stroke-width="1.5" stroke-linecap="round" stroke-linejoin="round"/>
<path d="M16 2V6" stroke="white" stroke-width="1.5" stroke-linecap="round" stroke-linejoin="round"/>
<path d="M8 2V6" stroke="white" stroke-width="1.5" stroke-linecap="round" stroke-linejoin="round"/>
<path d="M15.9444 9.35494C15.4541 8.6944 14.939 8.38675 14.3234 8.38675C13.9249 8.38675 13.5381 8.51458 13.1648 8.63794L13.1524 8.64201C12.7541 8.7728 12.3779 8.89641 11.972 8.89641C11.5652 8.89641 11.1665 8.76261 10.7784 8.63247C10.3977 8.50584 10.0042 8.375 9.61018 8.375C8.99152 8.375 8.48855 8.68887 8.02751 9.36242C7.30227 10.4187 7.71404 11.5497 8.04619 12.4619C8.19411 12.8677 8.33379 13.251 8.33379 13.5404C8.33379 15.0264 8.64716 17.5412 9.82173 17.5412C10.6256 17.5412 10.8729 16.6072 11.0917 15.7808C11.324 14.9109 11.5251 14.2952 12.0005 14.2952C12.4106 14.2952 12.5675 14.6939 12.7851 15.6495C12.9733 16.4845 13.2076 17.5236 14.1955 17.5236C15.574 17.5236 15.6811 14.4734 15.6811 13.5385C15.6811 13.2641 15.8162 12.8841 15.9592 12.4816L15.9649 12.4656C16.294 11.5346 16.7036 10.3761 15.9444 9.35494ZM15.2546 12.2144L15.2494 12.2293C15.084 12.6947 14.9278 13.1342 14.9278 13.5385C14.9278 14.4258 14.8344 15.2858 14.6717 15.8981C14.4815 16.6135 14.2635 16.7701 14.1955 16.7701C13.8929 16.7701 13.7477 16.4936 13.5192 15.4802C13.333 14.6621 13.078 13.5417 12.0005 13.5417C10.9099 13.5417 10.5942 14.7234 10.3628 15.5903C10.2365 16.0671 10.0457 16.7876 9.82178 16.7876C9.78703 16.7876 9.56819 16.6366 9.36783 15.9186C9.18952 15.2797 9.08731 14.4128 9.08731 13.5403C9.08731 13.1179 8.92547 12.6739 8.75304 12.2008C8.45314 11.3771 8.14303 10.5253 8.64902 9.7884C9.04698 9.20682 9.35823 9.12841 9.61018 9.12841C9.88221 9.12841 10.2021 9.23474 10.5412 9.3475C10.9635 9.4892 11.4421 9.64982 11.9719 9.64982C12.4984 9.64982 12.9707 9.49472 13.3875 9.35785L13.4005 9.35358C13.7325 9.24383 14.0462 9.14022 14.3234 9.14022C14.5821 9.14022 14.9052 9.21907 15.3396 9.80427C15.8595 10.5034 15.552 11.3733 15.2546 12.2144Z" fill="white" stroke="white" stroke-width="0.75"/>
</svg>
