<svg width="49" height="55" viewBox="0 0 49 55" fill="none" xmlns="http://www.w3.org/2000/svg">
<path d="M45.7004 31.9081C43.6789 40.6958 36.9712 58.7959 22.2235 50.7951C17.8129 48.4342 13.2646 46.9915 8.39459 46.0734C-2.67771 43.8874 3.52461 24.5632 6.41903 16.6499C8.16487 11.8845 10.508 6.50689 14.505 3.49022C18.594 0.38611 23.1423 2.39722 27.5529 2.61582C48.8705 3.83998 47.9976 22.0274 45.7004 31.9081Z" fill="#FC95AE"/>
<path d="M29.2068 54.2928C41.198 54.2928 46.068 37.4169 47.2625 32.2143C48.5949 26.4432 49.9732 15.7319 44.1843 8.43066C40.6926 4.01495 35.0876 1.5229 27.6448 1.0857C26.5881 1.04198 25.5314 0.867118 24.4288 0.692238C22.9586 0.473639 21.4884 0.211304 19.9263 0.211304C17.3995 0.211304 15.332 0.867107 13.4943 2.26614C9.17563 5.54513 6.74064 11.0976 4.90292 16.1253C0.0788841 29.285 -0.839977 38.5099 2.14633 43.494C3.43274 45.6363 5.40829 46.9916 8.02705 47.5162C13.2646 48.5218 17.5373 50.0082 21.3965 52.1068C24.1072 53.5496 26.7259 54.2928 29.2068 54.2928ZM19.9263 3.27169C21.2127 3.27169 22.4991 3.49029 23.8774 3.70889C25.026 3.88377 26.2205 4.05865 27.4151 4.14609C33.8931 4.53957 38.6711 6.59441 41.6115 10.2669C46.6193 16.6063 45.3329 26.3558 44.1384 31.6022C43.3573 34.8812 39.0846 51.3198 29.1609 51.3198C27.2313 51.3198 25.1638 50.7078 22.9586 49.5273C18.7777 47.2539 14.2294 45.7237 8.67025 44.6307C6.97036 44.281 5.72989 43.4503 4.90292 42.0512C2.46793 37.9853 3.52462 29.1102 7.88923 17.1746C9.58912 12.584 11.7944 7.46881 15.4698 4.67074C16.7563 3.66518 18.1345 3.27169 19.9263 3.27169Z" fill="#FFDE7E"/>
</svg>
