<svg width="57" height="56" viewBox="0 0 57 56" fill="none" xmlns="http://www.w3.org/2000/svg">
<path d="M54.4613 23.3331C52.9232 14.4215 46.8204 -3.91743 28.3135 4.19674C22.806 6.58877 17.1994 8.04277 11.2454 8.98082C-2.25027 11.1852 3.15793 30.7906 5.7876 38.8109C7.37532 43.6419 9.60806 49.0826 14.0735 52.1782C18.6383 55.3207 24.2945 53.3039 29.6035 53.0225C55.3048 51.7561 56.1483 33.3233 54.4613 23.3331Z" fill="#FC95AE"/>
<path d="M20.4245 55.5083C17.4475 55.5083 15.1155 54.8517 13.0812 53.4446C8.21882 50.1145 5.83723 44.3924 4.15027 39.28C-0.0175113 26.6162 -0.364818 17.564 3.05872 12.264C4.7953 9.59055 7.42497 7.94896 10.9477 7.38613C17.3979 6.35427 22.6572 4.85338 27.5692 2.69586C30.8439 1.24187 33.9698 0.53833 36.8475 0.53833C51.1867 0.53833 55.2056 17.7516 56.0987 23.0516C56.9918 28.3985 57.5872 38.4826 51.2859 45.8464C46.7212 51.1933 39.4772 54.1012 29.7028 54.6172C28.4127 54.6641 27.1227 54.8517 25.7831 55.0393C23.9969 55.2738 22.2107 55.5083 20.4245 55.5083ZM36.8475 3.77461C34.4659 3.77461 31.8363 4.38435 29.0081 5.65072C23.7984 7.90205 18.2414 9.49675 11.4935 10.5755C8.96308 10.9976 7.17688 12.0764 5.93647 13.9525C3.95181 17.0012 2.61216 23.7083 7.37534 38.3419C8.91346 42.9853 10.9973 48.0508 15.0659 50.8649C16.5048 51.8499 18.1917 52.3189 20.3749 52.3189C21.913 52.3189 23.5503 52.0844 25.2373 51.8968C26.6266 51.7092 28.0654 51.5216 29.4547 51.4747C38.2368 51.0526 44.6373 48.5198 48.6066 43.9233C54.1141 37.4977 53.5187 28.4923 52.7248 23.6614C51.9806 18.9242 48.5074 3.77461 36.8475 3.77461Z" fill="#FFDE7E"/>
</svg>
