<svg width="46" height="42" viewBox="0 0 46 42" fill="none" xmlns="http://www.w3.org/2000/svg">
<path d="M33.6787 5.26479C25.8393 1.13736 6.43928 1.18426 3.21421 6.71878C-0.0108548 12.1595 2.76767 24.3542 5.14926 27.825C10.8551 36.1737 29.9079 46.9144 40.8235 34.9073C46.6286 23.2754 41.5181 9.39223 33.6787 5.26479Z" fill="#FC95AE"/>
<path d="M28.519 41.8958C18.7446 41.8958 8.02743 35.048 3.71079 28.7161C0.932273 24.6825 -1.84625 11.9719 1.72614 5.92141C4.55427 1.09043 15.073 0.71521 18.2484 0.71521C24.7482 0.71521 30.851 1.88778 34.5226 3.85769C43.2055 8.45416 48.5145 23.3223 42.4116 35.6108C42.362 35.7515 42.2628 35.8453 42.1635 35.9861C38.5912 39.8321 33.9272 41.8958 28.519 41.8958ZM18.2484 3.9515C11.5006 3.9515 5.94354 5.40548 4.70312 7.4692C1.97422 12.1126 4.35581 23.6506 6.58855 26.9338C9.96247 31.8586 19.4392 38.6595 28.519 38.6595C32.8357 38.6595 36.5073 37.1117 39.385 34.0161C44.4955 23.463 40.03 10.4241 32.8357 6.62495C29.7098 4.98336 24.1032 3.9515 18.2484 3.9515Z" fill="#FFDE7E"/>
</svg>
