<svg width="37" height="39" viewBox="0 0 37 39" fill="none" xmlns="http://www.w3.org/2000/svg">
<path d="M15.4484 33.8168C24.2216 37.569 36.4943 38.6947 34.8185 32.5973C31.5162 20.7778 34.5721 5.58132 28.904 2.86096C17.3706 -2.72046 11.8997 11.2097 3.02784 18.9955C-1.70379 23.1699 6.67514 30.0646 15.4484 33.8168Z" fill="#FC95AE"/>
<path d="M29.0022 38.554C24.862 38.554 19.3911 37.3345 14.758 35.3177C8.49846 32.6443 0.90813 27.7195 0.0702363 22.7009C-0.225491 20.8248 0.415246 19.1363 1.94317 17.823C4.30899 15.7593 6.42837 13.1797 8.49846 10.6938C13.1315 5.15929 17.4689 0 23.827 0C25.6999 0 27.6714 0.469016 29.6922 1.45397C33.8817 3.47079 34.2267 9.61505 34.621 17.354C34.8675 22.1381 35.1632 27.5319 36.4447 32.2691C36.9869 34.239 36.3954 35.5522 35.7547 36.3496C34.5717 37.8036 32.3045 38.554 29.0022 38.554ZM23.827 3.18938C19.0954 3.18938 15.2509 7.78584 11.16 12.7106C8.99134 15.2903 6.77338 17.9637 4.21041 20.1682C3.52038 20.7779 3.27394 21.3876 3.42181 22.185C3.91469 25.0929 9.38564 29.4549 16.1381 32.3629C20.3276 34.1452 25.3549 35.3177 29.0022 35.3177C32.0581 35.3177 32.896 34.5673 33.0931 34.3328C33.1917 34.239 33.4381 33.9107 33.1917 33.0664C31.7623 28.0009 31.4666 22.4195 31.2202 17.4947C30.9244 11.3504 30.5794 5.53452 28.1643 4.31505C26.6364 3.56461 25.2071 3.18938 23.827 3.18938Z" fill="#FFDE7E"/>
</svg>
