<svg width="39" height="38" viewBox="0 0 39 38" fill="none" xmlns="http://www.w3.org/2000/svg">
<path d="M20.057 35.3884C10.8402 36.4671 -0.988894 33.9344 2.3134 28.6344C8.72082 18.2689 7.93222 3.11931 16.1633 1.89984C24.3451 0.680367 27.1545 16.1583 35.7799 24.7884C40.1665 29.1972 29.2739 34.3096 20.057 35.3884Z" fill="white"/>
<path d="M15.7197 37.2176C17.2477 37.2176 18.7756 37.1238 20.2049 36.983C26.563 36.2326 36.3713 33.0901 38.1457 28.4467C38.7864 26.8051 38.3428 25.1167 36.9628 23.7096C33.7098 20.4733 31.2454 15.9706 29.0274 12.0308C25.528 5.69893 22.4722 0.211304 17.0012 0.211304C16.6069 0.211304 16.2126 0.258212 15.8183 0.305115C9.80518 1.19627 7.88296 7.80954 5.86216 14.7511C4.58067 19.2538 3.2006 23.8972 0.785499 27.7901C-0.200258 29.3848 -0.249543 31.0264 0.58835 32.4804C2.75702 35.9512 9.80519 37.2176 15.7197 37.2176ZM17.0505 3.40071C20.4514 3.40071 23.0636 8.09098 26.0702 13.4848C28.3867 17.6122 30.9497 22.3025 34.5477 25.8671C35.1884 26.5237 35.1391 26.9459 35.0406 27.3211C34.1534 29.6662 27.4995 32.9025 19.9092 33.7937C18.5784 33.9344 17.1984 34.0282 15.8183 34.0282C9.16444 34.0282 4.58066 32.4335 3.69348 30.8857C3.5949 30.6981 3.34848 30.276 3.89064 29.4317C6.55219 25.1167 8.03082 20.0512 9.31231 15.5954C11.0867 9.40426 12.6639 4.05734 16.5083 3.4476C16.6069 3.4476 16.8533 3.40071 17.0505 3.40071Z" fill="white"/>
</svg>
