<svg width="38" height="39" viewBox="0 0 38 39" fill="none" xmlns="http://www.w3.org/2000/svg">
<path d="M16.0678 33.9308C24.841 37.683 37.1137 38.8087 35.4379 32.7113C32.1356 20.8918 35.1915 5.69534 29.5234 2.97499C17.99 -2.60644 12.519 11.3237 3.64723 19.1095C-1.08441 23.2839 7.29453 30.1786 16.0678 33.9308Z" fill="white"/>
<path d="M29.6216 38.668C25.4814 38.668 20.0105 37.4486 15.3774 35.4317C9.11784 32.7583 1.52752 27.8335 0.689621 22.8149C0.393894 20.9388 1.03463 19.2503 2.56255 17.937C4.92837 15.8733 7.04775 13.2937 9.11784 10.8078C13.7509 5.27331 18.0882 0.114014 24.4464 0.114014C26.3193 0.114014 28.2908 0.583029 30.3116 1.56799C34.5011 3.5848 34.8461 9.72907 35.2404 17.468C35.4869 22.2521 35.7826 27.6459 37.0641 32.3831C37.6062 34.353 37.0148 35.6663 36.374 36.4636C35.1911 37.9176 32.9239 38.668 29.6216 38.668ZM24.4464 3.30339C19.7147 3.30339 15.8703 7.89985 11.7794 12.8246C9.61073 15.4043 7.39277 18.0777 4.8298 20.2822C4.13977 20.8919 3.89333 21.5016 4.04119 22.299C4.53407 25.207 10.005 29.5689 16.7575 32.4769C20.9469 34.2592 25.9743 35.4317 29.6216 35.4317C32.6775 35.4317 33.5153 34.6813 33.7125 34.4468C33.8111 34.353 34.0575 34.0247 33.8111 33.1804C32.3817 28.1149 32.086 22.5335 31.8396 17.6087C31.5438 11.4645 31.1988 5.64854 28.7837 4.42907C27.2558 3.67862 25.8264 3.30339 24.4464 3.30339Z" fill="white"/>
</svg>
