<svg width="40" height="40" viewBox="0 0 40 40" fill="none" xmlns="http://www.w3.org/2000/svg">
<circle cx="20" cy="20" r="18" fill="url(#paint0_linear)" stroke="#F5F5F5" stroke-width="4"/>
<ellipse opacity="0.3" cx="20" cy="27.5" rx="8" ry="1.5" fill="#7B3244"/>
<g clip-path="url(#clip0)">
<path d="M23.794 12.0525C23.0321 12.0501 22.3171 12.2497 21.6993 12.6007C20.6462 13.1991 19.3538 13.1991 18.3007 12.6007C17.6829 12.2497 16.9679 12.0501 16.206 12.0525C13.8722 12.0599 11.9879 14.0268 12.0001 16.3605C12.0211 20.3968 13.4764 25.4431 15.4436 27.4103C15.7771 27.7438 16.2383 27.9494 16.7476 27.9474C17.7622 27.9433 18.5691 27.0971 18.5737 26.0824C18.5814 24.4341 19.3037 24.0627 20 24.0627C20.6964 24.0627 21.4186 24.4341 21.4262 26.0824C21.4309 27.0971 22.2378 27.9434 23.2525 27.9474C23.7617 27.9494 24.223 27.7438 24.5564 27.4103C26.5236 25.4431 27.9789 20.3968 27.9999 16.3605C28.0121 14.0268 26.1278 12.0599 23.794 12.0525Z" fill="white"/>
<path opacity="0.05" d="M22.0723 13.4472L22.0503 13.4127C21.8947 13.1678 21.7609 12.9576 21.4962 12.7073C21.3365 12.7845 21.1722 12.8483 21.005 12.8993C21.3496 13.184 21.4828 13.3935 21.6547 13.6641L21.6769 13.699C21.7216 13.7692 21.7974 13.8075 21.8748 13.8075C21.9179 13.8075 21.9615 13.7957 22.0005 13.7708C22.1097 13.7013 22.1418 13.5564 22.0723 13.4472ZM17.9497 13.4126L17.9276 13.4472C17.8581 13.5564 17.8903 13.7013 17.9995 13.7708C18.0385 13.7956 18.0821 13.8075 18.1251 13.8075C18.2026 13.8075 18.2784 13.7691 18.323 13.6989L18.3453 13.664C18.5172 13.3934 18.6504 13.1839 18.9949 12.8993C18.8277 12.8482 18.6634 12.7844 18.5038 12.7073C18.239 12.9576 18.1053 13.1677 17.9497 13.4126Z" fill="black"/>
<path opacity="0.05" d="M22.4623 24.1426C21.6141 23.1373 19.7762 22.6263 17.1787 23.0803C13.4637 23.7295 13.6599 15.0458 14.827 12.2954C13.1733 12.8906 11.9904 14.5102 12.0001 16.3607C12.0211 20.3969 13.4764 25.4433 15.4436 27.4105C15.777 27.7439 16.2383 27.9495 16.7475 27.9475C17.7622 27.9435 18.569 27.0973 18.5737 26.0826C18.5813 24.4343 19.3036 24.0628 20 24.0628C20.6963 24.0628 21.4186 24.4343 21.4262 26.0826C21.4309 27.0973 22.2378 27.9435 23.2525 27.9475C23.7617 27.9495 24.223 27.7439 24.5564 27.4105C25.4897 26.4772 26.3076 24.8507 26.9119 22.968C24.5998 26.5596 23.2415 25.0659 22.4623 24.1426Z" fill="black"/>
<path d="M16.7584 19.1248C17.4191 19.1248 17.9547 18.6983 17.9547 18.1723C17.9547 17.6462 17.4191 17.2197 16.7584 17.2197C16.0978 17.2197 15.5622 17.6462 15.5622 18.1723C15.5622 18.6983 16.0978 19.1248 16.7584 19.1248Z" fill="#F28B74"/>
<path d="M23.2416 19.1248C23.9023 19.1248 24.4378 18.6983 24.4378 18.1723C24.4378 17.6462 23.9023 17.2197 23.2416 17.2197C22.5809 17.2197 22.0453 17.6462 22.0453 18.1723C22.0453 18.6983 22.5809 19.1248 23.2416 19.1248Z" fill="#F28B74"/>
<path d="M16.9583 17.2817C16.8288 17.2817 16.7239 17.1768 16.7239 17.0473V16.5339C16.7239 16.4045 16.8288 16.2996 16.9583 16.2996C17.0877 16.2996 17.1926 16.4045 17.1926 16.5339V17.0473C17.1926 17.1768 17.0877 17.2817 16.9583 17.2817Z" fill="#495059"/>
<path d="M20 18.3067C19.5214 18.3067 19.1334 17.9187 19.1334 17.4401V16.81C19.1334 16.6794 19.2393 16.5735 19.37 16.5735H20.6301C20.7607 16.5735 20.8666 16.6794 20.8666 16.81V17.4401C20.8666 17.9187 20.4786 18.3067 20 18.3067Z" fill="#495059"/>
<path d="M23.0417 17.2817C22.9122 17.2817 22.8073 17.1768 22.8073 17.0473V16.5339C22.8073 16.4045 22.9122 16.2996 23.0417 16.2996C23.1711 16.2996 23.2761 16.4045 23.2761 16.5339V17.0473C23.2761 17.1768 23.1711 17.2817 23.0417 17.2817Z" fill="#495059"/>
<path d="M26.6861 14.6502C26.6007 14.8463 26.3226 14.8463 26.2372 14.6502C26.0695 14.2653 25.7624 13.9581 25.3775 13.7905C25.1814 13.7051 25.1814 13.4269 25.3775 13.3415C25.7624 13.1739 26.0695 12.8667 26.2372 12.4818C26.3226 12.2857 26.6007 12.2857 26.6861 12.4818C26.8538 12.8667 27.1609 13.1738 27.5459 13.3415C27.742 13.4269 27.742 13.7051 27.5459 13.7905C27.1609 13.9581 26.8538 14.2653 26.6861 14.6502Z" fill="#44BAF1"/>
<path d="M24.9173 22.0684C24.8539 22.2139 24.6475 22.2139 24.5842 22.0684C24.4598 21.7828 24.2318 21.5548 23.9462 21.4304C23.8007 21.367 23.8007 21.1606 23.9462 21.0972C24.2318 20.9728 24.4597 20.7449 24.5842 20.4592C24.6475 20.3137 24.8539 20.3137 24.9173 20.4592C25.0417 20.7448 25.2697 20.9728 25.5553 21.0972C25.7008 21.1606 25.7008 21.367 25.5553 21.4304C25.2697 21.5548 25.0418 21.7827 24.9173 22.0684Z" fill="#88D7F7"/>
<path d="M14.1997 24.7913C14.0909 25.0412 13.7365 25.0412 13.6277 24.7913C13.4141 24.3009 13.0228 23.9096 12.5324 23.696C12.2826 23.5872 12.2826 23.2328 12.5324 23.124C13.0228 22.9104 13.4141 22.5191 13.6277 22.0287C13.7365 21.7789 14.0909 21.7789 14.1997 22.0287C14.4133 22.519 14.8046 22.9104 15.295 23.124C15.5449 23.2328 15.5449 23.5872 15.295 23.696C14.8047 23.9096 14.4133 24.3009 14.1997 24.7913Z" fill="#44BAF1"/>
</g>
<defs>
<linearGradient id="paint0_linear" x1="7" y1="4" x2="35.75" y2="42.5" gradientUnits="userSpaceOnUse">
<stop offset="0.0001" stop-color="#FC95AE"/>
<stop offset="0.9998" stop-color="#FB678B"/>
</linearGradient>
<clipPath id="clip0">
<rect width="16" height="16" fill="white" transform="translate(12 12)"/>
</clipPath>
</defs>
</svg>
