<svg width="42" height="42" viewBox="0 0 42 42" fill="none" xmlns="http://www.w3.org/2000/svg">
<path d="M28.7466 7.90724C19.8653 1.76299 9.9916 0.355903 6.61768 4.67095C6.3696 4.99927 6.17113 5.32759 6.02228 5.70281C5.97266 5.84352 -2.56137 31.4993 5.27803 38.2533C13.1174 45.0073 37.7272 27.794 37.8761 27.7002C38.1738 27.4657 38.4714 27.1843 38.7195 26.8559C42.0438 22.494 37.5784 14.0515 28.7466 7.90724Z" fill="#FC95AE"/>
<path d="M10.2892 41.4426C7.70914 41.4426 5.62525 40.7859 4.08714 39.4727C-4.69497 31.8744 4.28561 5.32747 4.38484 5.09296C4.63292 4.57703 4.88101 4.15491 5.17871 3.73278C6.76643 1.66906 9.49533 0.543396 13.0181 0.543396C18.079 0.543396 24.1322 2.74782 29.6892 6.59385C34.2043 9.68943 37.7767 13.5354 39.7614 17.3346C41.9445 21.462 42.0437 25.2142 40.0094 27.7939C39.7117 28.1691 39.3644 28.5443 38.9179 28.9195C38.8187 29.0603 21.2048 41.4426 10.2892 41.4426ZM7.60991 6.26553C5.87333 11.1903 0.365911 31.7806 6.41912 37.0337C7.31221 37.7842 8.60223 38.2063 10.2892 38.2063C19.6667 38.2063 35.9905 26.9965 36.7844 26.4337C37.0325 26.2461 37.1813 26.0585 37.3302 25.8709C38.5209 24.3231 38.3225 21.6965 36.7844 18.7417C34.9982 15.4116 31.8227 11.9877 27.7542 9.1735C22.8422 5.7965 17.3347 3.73278 13.0677 3.73278C11.3808 3.73278 9.14801 4.0611 8.00683 5.56199C7.85799 5.7965 7.70914 6.03102 7.60991 6.26553Z" fill="#FFDE7E"/>
</svg>
