<svg width="44" height="40" viewBox="0 0 44 40" fill="none" xmlns="http://www.w3.org/2000/svg">
<path d="M21.0855 2.03899C31.9514 0.72571 41.2793 3.72748 41.974 8.83988C42.0236 9.2151 42.0236 9.59032 41.974 9.96555C41.974 10.1063 38.997 37.5443 25.9479 37.5443C12.8987 37.5443 3.07469 14.8903 3.02508 14.7496C2.87623 14.4213 2.777 14.0461 2.72738 13.6709C1.98314 8.55846 10.2195 3.35226 21.0855 2.03899Z" fill="#FC95AE"/>
<path d="M25.8983 39.0921C11.6088 39.0921 1.48701 15.5 1.38777 15.2655C1.18931 14.7496 1.04046 14.2806 0.990847 13.8115C0.147368 7.76108 8.87986 1.89824 20.8374 0.39735C22.574 0.162837 24.3602 0.0690308 26.0968 0.0690308C35.9208 0.0690308 42.9664 3.49293 43.661 8.55842C43.7106 9.02745 43.7106 9.49648 43.661 10.0593C43.3137 13.0611 40.039 39.0921 25.8983 39.0921ZM26.0968 3.35222C24.509 3.35222 22.9213 3.44603 21.284 3.63364C10.7157 4.94691 3.86859 9.8248 4.36476 13.4363C4.41438 13.6239 4.464 13.8584 4.56323 14.1398C4.66246 14.3275 14.1392 35.9027 25.8983 35.9027C37.2108 35.9027 40.1878 10.0593 40.2375 9.7779C40.2871 9.49648 40.2871 9.26196 40.2375 9.02745C39.8405 5.79116 33.7377 3.35222 26.0968 3.35222Z" fill="#FFDE7E"/>
</svg>
