<svg width="46" height="42" viewBox="0 0 46 42" fill="none" xmlns="http://www.w3.org/2000/svg">
<path d="M11.3189 5.26473C19.1583 1.1373 38.5583 1.1842 41.7834 6.71872C45.0085 12.1594 42.2299 24.3541 39.8483 27.8249C34.1425 36.1736 15.0897 46.9143 4.17413 34.9072C-1.68061 23.2754 3.47949 9.39217 11.3189 5.26473Z" fill="white"/>
<path d="M16.479 41.8957C11.1204 41.8957 6.40684 39.832 2.88407 35.986C2.78484 35.8922 2.6856 35.7515 2.63599 35.6108C-3.46684 23.3223 1.84212 8.4541 10.525 3.85763C14.2462 1.88772 20.2994 0.715149 26.7992 0.715149C29.9747 0.715149 40.4437 1.09037 43.3215 5.92135C46.8939 11.9718 44.1153 24.6355 41.3368 28.7161C36.921 35.0479 26.2038 41.8957 16.479 41.8957ZM5.56335 34.063C8.44111 37.1117 12.1127 38.7063 16.4294 38.7063C25.5092 38.7063 35.0355 31.9055 38.3598 26.9807C40.5926 23.6975 42.9742 12.1594 40.2453 7.51604C39.0049 5.45232 33.4478 3.99834 26.7 3.99834C20.8452 3.99834 15.2386 5.0302 12.0631 6.7187C4.96796 10.4709 0.45286 23.463 5.56335 34.063Z" fill="white"/>
</svg>
