<svg width="48" height="55" viewBox="0 0 48 55" fill="none" xmlns="http://www.w3.org/2000/svg">
<path d="M2.73315 31.9081C4.75465 40.6958 11.4623 58.7959 26.2101 50.7951C30.6206 48.4343 35.169 46.9915 40.039 46.0734C51.1113 43.8874 44.909 24.5632 42.0146 16.6499C40.2687 11.8845 37.9256 6.5069 33.9286 3.49023C29.8396 0.386118 25.2912 2.39723 20.8807 2.61583C-0.436932 3.83999 0.435989 22.0274 2.73315 31.9081Z" fill="white"/>
<path d="M19.2267 54.2928C7.23558 54.2928 2.36561 37.4169 1.17108 32.2143C-0.161268 26.4432 -1.53956 15.7319 4.24928 8.43066C7.74096 4.01495 13.346 1.5229 20.7888 1.0857C21.8455 1.04198 22.9022 0.867118 24.0048 0.692238C25.475 0.473639 26.9452 0.211304 28.5073 0.211304C31.0341 0.211304 33.1016 0.867107 34.9393 2.26614C39.258 5.54513 41.6929 11.0976 43.5307 16.1253C48.3547 29.285 49.2736 38.5099 46.2873 43.494C45.0009 45.6363 43.0253 46.9916 40.4065 47.5162C35.169 48.5218 30.8963 50.0082 27.0371 52.1068C24.3264 53.5496 21.7077 54.2928 19.2267 54.2928ZM28.5073 3.27169C27.2209 3.27169 25.9344 3.49029 24.5562 3.70889C23.4076 3.88377 22.2131 4.05865 21.0185 4.14609C14.5405 4.53957 9.76246 6.59441 6.82209 10.2669C1.81429 16.6063 3.1007 26.3558 4.29522 31.6022C5.07625 34.8812 9.34897 51.3198 19.2727 51.3198C21.2023 51.3198 23.2697 50.7078 25.475 49.5273C29.6558 47.2539 34.2042 45.7237 39.7633 44.6307C41.4632 44.281 42.7037 43.4503 43.5307 42.0512C45.9657 37.9853 44.909 29.1102 40.5444 17.1746C38.8445 12.584 36.6392 7.46881 32.9637 4.67074C31.6773 3.66518 30.299 3.27169 28.5073 3.27169Z" fill="white"/>
</svg>
