<svg width="56" height="55" viewBox="0 0 56 55" fill="none" xmlns="http://www.w3.org/2000/svg">
<path d="M20.2415 3.35769C11.2113 8.89221 -1.73856 26.4338 2.72692 37.7843C7.1924 49.1347 30.8594 53.8719 36.0692 52.5117C41.3285 51.1516 50.3091 40.6453 53.3853 29.3887C57.3546 15.1303 29.2717 -2.22374 20.2415 3.35769Z" fill="#FC95AE"/>
<path d="M33.6879 54.3409C26.1958 54.3409 5.55534 49.5568 1.08986 38.3471C-3.87178 25.7772 10.0208 7.67271 19.2495 1.99748C20.6884 1.10633 22.4746 0.684204 24.5584 0.684204C32.4971 0.684204 44.1073 7.06298 50.5079 14.8957C54.7252 20.055 56.2634 25.2143 54.9733 29.8108C51.6986 41.5834 42.3211 52.5586 36.4168 54.0595C35.8214 54.2471 34.8787 54.3409 33.6879 54.3409ZM24.6577 3.87359C23.2188 3.87359 22.028 4.15501 21.1845 4.67094C12.7993 9.83023 0.196764 26.7152 4.36455 37.1745C7.93693 46.1798 25.65 51.1046 33.7375 51.1046C34.829 51.1046 35.4244 51.0108 35.6725 50.917C40.0388 49.7914 48.7217 40.0356 51.7979 28.9196C53.0383 24.3701 50.4086 19.8205 47.9278 16.8187C42.1723 9.83023 31.5047 3.87359 24.6577 3.87359Z" fill="#FFDE7E"/>
</svg>
