<svg width="39" height="39" viewBox="0 0 39 39" fill="none" xmlns="http://www.w3.org/2000/svg">
<path d="M2.64748 28.6342C1.95745 27.3209 0.429531 14.8448 5.60476 7.85624C10.78 0.820816 19.1096 -0.72697 25.9114 6.77748C32.7131 14.2819 39.4162 30.2289 35.6703 34.4501C31.8752 38.5776 8.16772 38.7652 2.64748 28.6342Z" fill="#FC95AE"/>
<path d="M24.0384 38.7184C26.3549 38.7184 34.1917 38.4839 36.9518 35.4352C41.8806 29.9476 33.4524 12.5936 27.1928 5.69893C23.9398 2.08742 20.1447 0.211304 16.1523 0.211304C11.6672 0.211304 7.4284 2.60334 4.22469 6.91839C-1.39412 14.5635 0.232372 27.7432 1.11955 29.3848C4.86543 36.2326 15.413 38.7184 24.0384 38.7184ZM16.1523 3.40068C19.1096 3.40068 22.0176 4.90158 24.6298 7.80955C31.5301 15.4547 37.149 30.2759 34.3888 33.3715C33.4524 34.4503 29.5586 35.529 24.0877 35.529C16.8424 35.529 7.28053 33.5591 4.22469 27.9308C3.73181 26.6644 2.30246 15.2202 7.08338 8.7476C9.54777 5.2768 12.8008 3.40068 16.1523 3.40068Z" fill="#FFDE7E"/>
</svg>
