<svg width="37" height="39" viewBox="0 0 37 39" fill="none" xmlns="http://www.w3.org/2000/svg">
<path d="M21.3658 33.9308C12.5926 37.683 0.319905 38.8087 1.99569 32.7113C5.29798 20.8918 2.24213 5.69534 7.91024 2.97499C19.4436 -2.60644 24.9145 11.3237 33.7864 19.1095C38.518 23.2839 30.1391 30.1786 21.3658 33.9308Z" fill="white"/>
<path d="M7.81199 38.668C11.9522 38.668 17.4231 37.4486 22.0562 35.4317C28.3158 32.7583 35.9061 27.8335 36.744 22.8149C37.0397 20.9388 36.399 19.2503 34.871 17.937C32.5052 15.8733 30.3858 13.2937 28.3157 10.8078C23.6827 5.27331 19.3454 0.114014 12.9872 0.114014C11.1143 0.114014 9.14276 0.583029 7.12196 1.56799C2.93249 3.5848 2.58748 9.72907 2.19317 17.468C1.94673 22.2521 1.65101 27.6459 0.369524 32.3831C-0.172643 34.353 0.418809 35.6663 1.05955 36.4636C2.24246 37.9176 4.5097 38.668 7.81199 38.668ZM12.9872 3.30339C17.7189 3.30339 21.5633 7.89985 25.6542 12.8246C27.8229 15.4043 30.0408 18.0777 32.6038 20.2822C33.2938 20.8919 33.5403 21.5016 33.3924 22.299C32.8995 25.207 27.4286 29.5689 20.6761 32.4769C16.4867 34.2592 11.4593 35.4317 7.81199 35.4317C4.75614 35.4317 3.91825 34.6813 3.72109 34.4468C3.62252 34.353 3.37608 34.0247 3.62252 33.1804C5.05187 28.1149 5.3476 22.5335 5.59403 17.6087C5.88976 11.4645 6.23478 5.64854 8.64988 4.42907C10.1778 3.67862 11.6072 3.30339 12.9872 3.30339Z" fill="white"/>
</svg>
