<svg width="47" height="48" viewBox="0 0 47 48" fill="none" xmlns="http://www.w3.org/2000/svg">
<g filter="url(#filter0_d)">
<path d="M31.7466 7.90724C22.8653 1.76299 12.9916 0.355903 9.61768 4.67095C9.3696 4.99927 9.17113 5.32759 9.02228 5.70281C8.97266 5.84352 0.438629 31.4993 8.27803 38.2533C16.1174 45.0073 40.7272 27.794 40.8761 27.7002C41.1738 27.4657 41.4714 27.1843 41.7195 26.8559C45.0438 22.494 40.5784 14.0515 31.7466 7.90724Z" fill="white"/>
</g>
<path d="M13.2892 41.4426C10.7091 41.4426 8.62525 40.7859 7.08714 39.4727C-1.69497 31.8744 7.28561 5.32747 7.38484 5.09296C7.63292 4.57703 7.88101 4.15491 8.17871 3.73278C9.76643 1.66906 12.4953 0.543396 16.0181 0.543396C21.079 0.543396 27.1322 2.74782 32.6892 6.59385C37.2043 9.68943 40.7767 13.5355 42.7614 17.3346C44.9445 21.462 45.0437 25.2142 43.0094 27.7939C42.7117 28.1691 42.3644 28.5443 41.9179 28.9195C41.8187 29.0603 24.2048 41.4426 13.2892 41.4426ZM10.6099 6.26553C8.87333 11.1903 3.36591 31.7806 9.41912 37.0337C10.3122 37.7842 11.6022 38.2063 13.2892 38.2063C22.6667 38.2063 38.9905 26.9965 39.7844 26.4337C40.0325 26.2461 40.1813 26.0585 40.3302 25.8709C41.5209 24.3231 41.3225 21.6965 39.7844 18.7417C37.9982 15.4116 34.8227 11.9877 30.7542 9.1735C25.8422 5.7965 20.3347 3.73278 16.0677 3.73278C14.3808 3.73278 12.148 4.0611 11.0068 5.56199C10.858 5.7965 10.7091 6.03102 10.6099 6.26553Z" fill="white"/>
<defs>
<filter id="filter0_d" x="0.966797" y="2.17493" width="45.8526" height="45.6487" filterUnits="userSpaceOnUse" color-interpolation-filters="sRGB">
<feFlood flood-opacity="0" result="BackgroundImageFix"/>
<feColorMatrix in="SourceAlpha" type="matrix" values="0 0 0 0 0 0 0 0 0 0 0 0 0 0 0 0 0 0 127 0"/>
<feOffset dy="4"/>
<feGaussianBlur stdDeviation="2"/>
<feColorMatrix type="matrix" values="0 0 0 0 0 0 0 0 0 0 0 0 0 0 0 0 0 0 0.25 0"/>
<feBlend mode="normal" in2="BackgroundImageFix" result="effect1_dropShadow"/>
<feBlend mode="normal" in="SourceGraphic" in2="effect1_dropShadow" result="shape"/>
</filter>
</defs>
</svg>
