<svg width="42" height="42" viewBox="0 0 42 42" fill="none" xmlns="http://www.w3.org/2000/svg">
<path d="M13.2516 7.90731C22.1329 1.76305 32.0066 0.355964 35.3805 4.67102C35.6286 4.99934 35.8271 5.32765 35.9759 5.70288C36.0255 5.84358 44.5596 31.4994 36.7201 38.2534C28.8808 45.0074 4.27098 27.7941 4.12213 27.7003C3.82443 27.4657 3.52674 27.1843 3.27865 26.856C-0.0952644 22.4941 4.37022 14.0516 13.2516 7.90731Z" fill="#FC95AE"/>
<path d="M31.7085 41.4426C20.7929 41.4426 3.17909 29.0603 3.03024 28.9196C2.58369 28.5444 2.23638 28.1692 1.93868 27.7939C-0.0955944 25.1674 0.00363836 21.4621 2.18676 17.3346C4.17142 13.5355 7.79342 9.73639 12.2589 6.59391C17.8159 2.74788 23.9188 0.543457 28.93 0.543457C32.4528 0.543457 35.1817 1.62222 36.7694 3.73284C37.0671 4.10806 37.3152 4.57709 37.5633 5.09302C37.6625 5.32753 46.6431 31.9214 37.861 39.4727C36.3229 40.786 34.239 41.4426 31.7085 41.4426ZM5.21337 26.4807C6.00723 27.0435 22.331 38.2532 31.7085 38.2532C33.3955 38.2532 34.6855 37.878 35.5786 37.0807C41.6814 31.8276 36.1244 11.2373 34.3878 6.31249C34.2886 6.03108 34.1398 5.84346 33.9909 5.65585C32.8001 4.10806 30.5674 3.82665 28.93 3.82665C24.663 3.82665 19.2052 5.84347 14.2436 9.26736C10.175 12.0815 6.94994 15.4585 5.21337 18.8355C3.62564 21.7904 3.42717 24.4169 4.66758 25.9647C4.81643 26.1054 4.96529 26.2461 5.21337 26.4807Z" fill="white"/>
</svg>
