<svg width="44" height="40" viewBox="0 0 44 40" fill="none" xmlns="http://www.w3.org/2000/svg">
<path d="M22.9121 2.03905C12.0461 0.725771 2.71817 3.72755 2.02354 8.83994C1.97392 9.21516 1.97392 9.59038 2.02354 9.9656C2.02354 10.1063 5.00054 37.5444 18.0497 37.5444C31.0988 37.5444 40.9228 14.8904 40.9725 14.7497C41.1213 14.4214 41.2205 14.0461 41.2702 13.6709C42.0144 8.55852 33.7781 3.35232 22.9121 2.03905Z" fill="white"/>
<path d="M18.0496 39.0921C3.95854 39.0921 0.634227 13.0611 0.336529 10.1062C0.286912 9.54341 0.286912 9.07439 0.336529 8.60536C1.03116 3.53987 8.07669 0.115967 17.9008 0.115967C19.6373 0.115967 21.3739 0.209772 23.1601 0.444285C35.1177 1.89827 43.8502 7.80801 43.0067 13.8585C42.9571 14.3275 42.8082 14.7965 42.6098 15.3124C42.5105 15.5001 32.3391 39.0921 18.0496 39.0921ZM17.9008 3.35225C10.2598 3.35225 4.157 5.7912 3.71046 9.02748C3.66084 9.21509 3.66084 9.49651 3.71046 9.77793C3.76007 10.0593 6.73706 35.9027 18.0496 35.9027C29.8087 35.9027 39.2854 14.3275 39.3847 14.1399C39.4839 13.9054 39.5335 13.6709 39.5831 13.4363C40.0793 9.87173 33.2322 4.94695 22.6639 3.63367C21.0762 3.44606 19.4885 3.35225 17.9008 3.35225Z" fill="white"/>
</svg>
