<svg width="56" height="55" viewBox="0 0 56 55" fill="none" xmlns="http://www.w3.org/2000/svg">
<path d="M35.7563 3.35775C44.7865 8.89227 57.7364 26.4339 53.2709 37.7843C48.7558 49.1348 25.1384 53.872 19.9286 52.5118C14.6693 51.1516 5.68872 40.6454 2.6125 29.3888C-1.40643 15.1303 26.7261 -2.22368 35.7563 3.35775Z" fill="white"/>
<path d="M22.3105 54.3409C21.1693 54.3409 20.177 54.2471 19.4823 54.0595C13.578 52.5117 4.20046 41.5834 0.925773 29.8108C-0.364254 25.2143 1.17386 20.055 5.39125 14.8957C11.7918 7.06298 23.4516 0.684204 31.3407 0.684204C33.4742 0.684204 35.2604 1.10633 36.6496 1.99748C45.8783 7.67271 59.8205 25.7772 54.8092 38.3471C50.3934 49.6038 29.7529 54.3409 22.3105 54.3409ZM31.3407 3.87359C24.444 3.87359 13.826 9.83023 8.07054 16.8187C5.58972 19.8205 2.96004 24.3701 4.20045 28.9196C7.27667 40.0356 15.9595 49.7445 20.3258 50.917C20.5739 50.9639 21.1693 51.1046 22.2608 51.1046C30.3483 51.1046 48.0614 46.1799 51.6338 37.1745C55.8016 26.7152 43.199 9.83024 34.8138 4.67094C33.9703 4.15501 32.7795 3.87359 31.3407 3.87359Z" fill="white"/>
</svg>
