<svg width="39" height="39" viewBox="0 0 39 39" fill="none" xmlns="http://www.w3.org/2000/svg">
<path d="M14.3952 38.7185C12.0787 38.7185 4.2419 38.484 1.48179 35.4353C-3.447 29.9477 4.98122 12.5937 11.2408 5.69905C14.4938 2.08754 18.2889 0.211426 22.2813 0.211426C26.7664 0.211426 31.0052 2.60346 34.2089 6.91851C39.8277 14.5636 38.2012 27.7433 37.314 29.3849C33.5682 36.2327 23.0206 38.7185 14.3952 38.7185ZM22.2813 3.4008C19.324 3.4008 16.416 4.9017 13.8037 7.80967C6.90345 15.4548 1.28463 30.2761 4.04475 33.3716C4.98122 34.4504 8.87496 35.5292 14.3459 35.5292C21.5912 35.5292 31.1531 33.5592 34.2089 27.9309C34.7018 26.6645 36.1311 15.2203 31.3502 8.74772C28.8858 5.27692 25.6328 3.4008 22.2813 3.4008Z" fill="white"/>
</svg>
