<svg width="39" height="38" viewBox="0 0 39 38" fill="none" xmlns="http://www.w3.org/2000/svg">
<path d="M18.3766 35.3884C27.5934 36.4671 39.4225 33.9344 36.1202 28.6344C29.7128 18.2689 30.5014 3.11931 22.2703 1.89984C14.0885 0.680371 11.2791 16.1583 2.65372 24.7884C-1.73291 29.1972 9.15972 34.3096 18.3766 35.3884Z" fill="#FC95AE"/>
<path d="M22.7139 37.2176C21.1859 37.2176 19.658 37.1237 18.2287 36.983C11.8705 36.2326 2.06226 33.0901 0.2879 28.4467C-0.352842 26.8051 0.0907451 25.1167 1.4708 23.7096C4.7238 20.4733 7.1882 15.9706 9.40615 12.0308C12.9056 5.69893 15.9614 0.211304 21.4324 0.211304C21.8267 0.211304 22.221 0.258212 22.6153 0.305115C28.6284 1.19627 30.5506 7.80954 32.5714 14.7511C33.8529 19.2538 35.233 23.8972 37.6481 27.7901C38.6339 29.3848 38.6831 31.0264 37.8452 32.4804C35.6766 35.9512 28.6284 37.2176 22.7139 37.2176ZM21.3831 3.40071C17.9822 3.40071 15.37 8.09098 12.3634 13.4848C10.0469 17.6122 7.48393 22.3025 3.88591 25.8671C3.24517 26.5237 3.29446 26.9459 3.39304 27.3211C4.28022 29.6662 10.9341 32.9025 18.5244 33.7937C19.8552 33.9344 21.2352 34.0282 22.6153 34.0282C29.2692 34.0282 33.8529 32.4335 34.7401 30.8857C34.8387 30.6981 35.0851 30.276 34.5429 29.4317C31.8814 25.1167 30.4028 20.0512 29.1213 15.5954C27.3469 9.40426 25.7697 4.05734 21.9253 3.4476C21.8267 3.4476 21.5803 3.40071 21.3831 3.40071Z" fill="white"/>
</svg>
