<svg width="57" height="56" viewBox="0 0 57 56" fill="none" xmlns="http://www.w3.org/2000/svg">
<path d="M2.53705 23.333C4.07516 14.4215 10.178 -3.91746 28.6849 4.19671C34.1923 6.58874 39.799 8.04273 45.753 8.98079C59.2486 11.1852 53.8405 30.7906 51.2108 38.8109C49.6231 43.6419 47.3903 49.0826 42.9248 52.1782C38.3601 55.3207 32.7039 53.3039 27.3949 53.0224C1.69358 51.7561 0.850095 33.3233 2.53705 23.333Z" fill="white"/>
<path d="M36.5733 55.5083C34.7871 55.5083 33.0009 55.2738 31.2147 55.0393C29.8255 54.8516 28.5355 54.7109 27.295 54.6171C17.5206 54.1481 10.227 51.1932 5.71189 45.8463C-0.589396 38.4826 -0.0436146 28.3985 0.899098 23.0516C1.79219 17.7516 5.86074 0.5383 20.1503 0.5383C23.028 0.5383 26.1539 1.24184 29.4286 2.69583C34.3406 4.85335 39.5999 6.30734 46.0501 7.3861C49.5728 7.94893 52.2025 9.59052 53.9391 12.264C57.3626 17.564 57.0153 26.6162 52.8475 39.2799C51.1606 44.3923 48.779 50.1145 43.9166 53.4445C41.8823 54.8516 39.5503 55.5083 36.5733 55.5083ZM20.1503 3.77458C8.54003 3.77458 5.06688 18.9242 4.27302 23.5675C3.42954 28.3985 2.88376 37.4038 8.39118 43.8295C12.3109 48.426 18.761 50.9587 27.5431 51.3808C28.982 51.4277 30.3713 51.6153 31.7605 51.803C33.4475 52.0375 35.0848 52.2251 36.6229 52.2251C38.8557 52.2251 40.5426 51.7561 41.9319 50.7711C46.0004 48.0038 48.0843 42.8914 49.6224 38.2481C54.3856 23.6613 53.046 16.9542 51.0613 13.8587C49.8705 11.9826 48.0347 10.9038 45.5043 10.4817C38.7564 9.40292 33.1994 7.80822 27.9897 5.55689C25.1615 4.38433 22.4823 3.77458 20.1503 3.77458Z" fill="white"/>
</svg>
