<svg width="48" height="53" viewBox="0 0 48 53" fill="none" xmlns="http://www.w3.org/2000/svg">
<path d="M27.9111 50.237C35.872 44.7947 48.1794 27.5535 45.4342 16.4077C42.6891 5.26195 23.4274 0.603351 18.9436 1.95304C14.4599 3.30272 6.08724 13.6213 2.51856 24.68C-1.96517 38.6123 19.9502 55.6793 27.9111 50.237Z" fill="white"/>
<path d="M24.1593 52.762C25.9894 52.762 27.545 52.3267 28.8261 51.4559C36.9242 45.9265 50.0094 28.25 46.9897 16.0593C44.4276 5.6536 28.6888 0.211304 21.0024 0.211304C19.9959 0.211304 19.1723 0.298386 18.5318 0.516077C13.4991 2.03992 4.80611 12.7068 1.10017 24.2445C-0.592664 29.5561 0.962918 35.695 5.4924 41.5292C10.5252 48.0164 18.3945 52.762 24.1593 52.762ZM20.9567 3.1719C27.5908 3.1719 41.7282 7.96113 43.9243 16.7123C46.4865 27.118 34.4994 43.8802 26.996 48.9742C26.2639 49.4967 25.3031 49.7144 24.1593 49.7144C19.4011 49.7144 12.401 45.4041 7.96302 39.657C5.6754 36.7399 2.15248 30.9493 4.02832 25.0281C7.55125 14.0565 15.6494 4.43451 19.4011 3.30251C19.6299 3.30251 20.0874 3.1719 20.9567 3.1719Z" fill="white"/>
</svg>
