<svg width="39" height="39" viewBox="0 0 39 39" fill="none" xmlns="http://www.w3.org/2000/svg">
<path d="M35.7861 28.6342C36.4761 27.3209 38.0041 14.8448 32.8288 7.85624C27.6536 0.82082 19.324 -0.726966 12.5222 6.77748C5.72052 14.2819 -0.982627 30.2289 2.76325 34.4501C6.55841 38.5776 30.2659 38.7652 35.7861 28.6342Z" fill="white"/>
<path d="M14.3952 38.7184C12.0787 38.7184 4.2419 38.4839 1.48179 35.4352C-3.447 29.9476 4.98122 12.5936 11.2408 5.69893C14.4938 2.08742 18.2889 0.211304 22.2813 0.211304C26.7664 0.211304 31.0052 2.60334 34.2089 6.91839C39.8277 14.5635 38.2012 27.7432 37.314 29.3848C33.5682 36.2326 23.0206 38.7184 14.3952 38.7184ZM22.2813 3.40068C19.324 3.40068 16.416 4.90158 13.8037 7.80955C6.90345 15.4547 1.28463 30.2759 4.04475 33.3715C4.98122 34.4503 8.87496 35.529 14.3459 35.529C21.5912 35.529 31.1531 33.5591 34.2089 27.9308C34.7018 26.6644 36.1311 15.2202 31.3502 8.7476C28.8858 5.2768 25.6328 3.40068 22.2813 3.40068Z" fill="white"/>
</svg>
