<svg width="49" height="48" viewBox="0 0 49 48" fill="none" xmlns="http://www.w3.org/2000/svg">
    <defs>
        <linearGradient id="paint0_linear" x1="5" y1="6.43311e-07" x2="48.125" y2="57.75" gradientUnits="userSpaceOnUse">
            <stop offset="0.0001" stop-color="#0040D9"/>
            <stop offset="0.9998" stop-color="#4065EA"/>
        </linearGradient>
        <linearGradient id="paint1_linear" x1="1.25" y1="0.375" x2="42.5" y2="48" gradientUnits="userSpaceOnUse">
            <stop stop-color="#44BAF1"/>
            <stop offset="1" stop-color="#267CB8"/>
        </linearGradient>
        <clipPath id="clip0">
            <rect width="30" height="30" fill="white" transform="translate(9.5 9)"/>
        </clipPath>
    </defs>
<rect x="0.5" width="48" height="48" rx="16" fill="url(#paint0_linear)"/>
<mask id="mask0" style="mask-type:alpha" maskUnits="userSpaceOnUse" x="0" y="0" width="49" height="48">
<rect x="0.5" width="48" height="48" rx="16" fill="url(#paint1_linear)"/>
</mask>
<g mask="url(#mask0)">
<circle opacity="0.8" cx="7.25" cy="40.125" r="13.875" fill="#4065EA"/>
<circle opacity="0.8" cx="52.25" cy="19.125" r="10.125" fill="#4065EA"/>
</g>
<g clip-path="url(#clip0)">
<path d="M18.3083 23.866C18.3447 23.9644 18.3828 24.0623 18.4238 24.1584C18.3828 24.0617 18.3447 23.9645 18.3083 23.866Z" fill="white"/>
<path d="M19.315 30.7517L19.0152 30.8875C19.0152 30.8875 17.3064 33.5331 18.0907 35.329C18.875 37.125 20.598 37.2427 20.598 37.2427H21.89L19.315 30.7517Z" fill="white"/>
<path d="M29.5749 30.7517L29.8747 30.8875C29.8747 30.8875 31.5835 33.5331 30.7992 35.329C30.0149 37.125 28.2919 37.2427 28.2919 37.2427H26.9999L29.5749 30.7517Z" fill="white"/>
<path d="M24.5001 39.0001C22.6251 39.0001 22.283 33.4655 22.283 33.4655H26.7152C26.7152 33.4655 26.3751 39.0001 24.5001 39.0001Z" fill="white"/>
<path d="M11.3022 35.2077V39H20.0038C20.0038 39 16.9999 37.7499 16.1441 36.0542C15.2883 34.3585 17.4762 29.6542 17.4762 29.6542L13.8139 31.3128C12.2881 32.004 11.3022 33.5328 11.3022 35.2077Z" fill="white"/>
<path d="M35.1859 31.3128L27.4157 27.7936H27.4041C29.5178 26.6785 30.955 24.4385 30.955 21.8862V21.4567C31.9798 21.432 32.8023 20.5939 32.8023 19.5631C32.8023 18.533 31.9798 17.6948 30.955 17.6696V16.7075H17.7838V17.6696C16.7591 17.6948 15.9365 18.533 15.9365 19.5631C15.9365 20.5939 16.7591 21.432 17.7838 21.4567V21.9576C17.7838 22.7158 17.9201 23.5019 18.1834 24.2219C18.2206 24.3228 18.2596 24.4229 18.3016 24.5213C18.6556 25.3589 19.1782 26.1076 19.8261 26.725C20.2851 27.1623 20.8066 27.535 21.3716 27.8229C21.3951 27.8349 21.419 27.8461 21.4426 27.8577L20.2691 28.3892L21.5855 31.7075H27.4125L28.7289 28.3891L31.5216 29.654C31.5216 29.654 33.8751 34.625 32.8537 36.054C31.8324 37.4831 28.9941 38.9998 28.9941 38.9998H37.6975V35.2077C37.6977 33.5327 36.7118 32.0039 35.1859 31.3128Z" fill="white"/>
<path d="M30.9507 12.2279C30.9465 10.4441 29.4988 9 27.7145 9H21.0199C19.2327 9 17.7837 10.4483 17.7837 12.2357V14.9497H30.9549V14.0602H30.9549L30.9507 12.2279ZM26.4511 12.9986H25.3985V14.0512H23.6407V12.9986H22.5881V11.2408H23.6407V10.1881H25.3985V11.2407H26.4511V12.9986Z" fill="white"/>
</g>
</svg>
