<svg width="40" height="40" viewBox="0 0 40 40" fill="none" xmlns="http://www.w3.org/2000/svg">
<g clip-path="url(#clip0)">
<path d="M21.6417 9.68331C21.5679 9.68331 21.4929 9.66925 21.4203 9.63956C18.7102 8.53218 17.4062 5.42643 18.5136 2.71629C18.9546 1.63703 19.7895 0.794094 20.8643 0.342704C21.9394 -0.108608 23.1258 -0.114389 24.205 0.326689C25.0974 0.691207 25.7944 1.38157 26.1676 2.27045C26.5408 3.15925 26.5456 4.1403 26.1809 5.03262C25.8774 5.77548 25.3027 6.35577 24.5627 6.66639C23.8228 6.977 23.0061 6.98091 22.2633 6.6774C20.9766 6.15172 20.3576 4.67716 20.8832 3.39057C21.0989 2.86293 21.507 2.45099 22.0325 2.23029C22.3309 2.10491 22.6743 2.24529 22.7995 2.54372C22.9248 2.84207 22.7845 3.18549 22.4861 3.31072C22.2491 3.41017 22.0652 3.59595 21.968 3.83383C21.6867 4.52232 22.018 5.31128 22.7065 5.59268C23.6421 5.97493 24.7139 5.52479 25.0961 4.58935C25.3423 3.98672 25.3391 3.32432 25.0871 2.72403C24.8351 2.12373 24.3644 1.65766 23.7617 1.41142C22.9722 1.08869 22.1043 1.09283 21.318 1.42313C20.5316 1.75328 19.9209 2.3699 19.5983 3.15948C18.7354 5.27144 19.7515 7.69182 21.8636 8.55484C22.1631 8.67718 22.3067 9.01919 22.1844 9.31879C22.0916 9.54582 21.8727 9.68331 21.6417 9.68331Z" fill="#FFDF8E"/>
<path d="M31.5088 22.7688C33.089 22.7688 34.37 21.4878 34.37 19.9076C34.37 18.3274 33.089 17.0464 31.5088 17.0464C29.9286 17.0464 28.6476 18.3274 28.6476 19.9076C28.6476 21.4878 29.9286 22.7688 31.5088 22.7688Z" fill="#FFCEBF"/>
<path d="M8.49111 22.7688C10.0713 22.7688 11.3523 21.4878 11.3523 19.9076C11.3523 18.3274 10.0713 17.0464 8.49111 17.0464C6.9109 17.0464 5.62988 18.3274 5.62988 19.9076C5.62988 21.4878 6.9109 22.7688 8.49111 22.7688Z" fill="#F9BCAF"/>
<path d="M23.2275 30.9573C23.0263 30.8851 22.8222 30.8202 22.6153 30.7617C21.7838 30.5255 20.9066 30.3984 20.0001 30.3984C14.707 30.3984 10.3987 34.7077 10.3987 39.9998H29.6014C29.6015 35.8743 26.9702 32.2973 23.2275 30.9573Z" fill="#FFCEBF"/>
<path d="M21.9821 30.6051C21.3425 30.4698 20.6795 30.3984 20.0001 30.3984C14.707 30.3984 10.3987 34.7077 10.3987 39.9998H14.3638C14.3638 35.3873 17.6369 31.5218 21.9821 30.6051Z" fill="#F9BCAF"/>
<path d="M20 31.406C26.3505 31.406 31.4987 26.2579 31.4987 19.9074C31.4987 13.5568 26.3505 8.40869 20 8.40869C13.6495 8.40869 8.50134 13.5568 8.50134 19.9074C8.50134 26.2579 13.6495 31.406 20 31.406Z" fill="#FFDFCF"/>
<path d="M12.4665 19.9074C12.4665 14.233 16.577 9.51912 21.9826 8.57954C21.3385 8.4676 20.6762 8.40869 20.0001 8.40869C13.6496 8.40869 8.50146 13.5568 8.50146 19.9074C8.50146 26.2579 13.6496 31.406 20.0001 31.406C20.6763 31.406 21.3385 31.3471 21.9826 31.2352C16.577 30.2957 12.4665 25.5818 12.4665 19.9074Z" fill="#FFCEBF"/>
<path d="M13.6912 25.6467C14.9768 25.6467 16.0191 24.8167 16.0191 23.7928C16.0191 22.769 14.9768 21.939 13.6912 21.939C12.4055 21.939 11.3633 22.769 11.3633 23.7928C11.3633 24.8167 12.4055 25.6467 13.6912 25.6467Z" fill="#FDA0C1"/>
<path d="M26.3091 25.6467C27.5948 25.6467 28.637 24.8167 28.637 23.7928C28.637 22.769 27.5948 21.939 26.3091 21.939C25.0234 21.939 23.9812 22.769 23.9812 23.7928C23.9812 24.8167 25.0234 25.6467 26.3091 25.6467Z" fill="#FDA0C1"/>
<path d="M15.0479 22.5943C14.7243 22.5943 14.4619 22.332 14.4619 22.0084V21.0566C14.4619 20.733 14.7243 20.4707 15.0479 20.4707C15.3714 20.4707 15.6338 20.733 15.6338 21.0566V22.0084C15.6338 22.332 15.3714 22.5943 15.0479 22.5943Z" fill="#6E6E6E"/>
<path d="M24.9524 22.5943C24.6288 22.5943 24.3665 22.332 24.3665 22.0084V21.0566C24.3665 20.733 24.6288 20.4707 24.9524 20.4707C25.276 20.4707 25.5383 20.733 25.5383 21.0566V22.0084C25.5383 22.332 25.276 22.5943 24.9524 22.5943Z" fill="#6E6E6E"/>
<path d="M20.0001 23.1608C19.3303 23.1608 18.6935 22.8707 18.2527 22.365C18.0401 22.121 18.0655 21.7509 18.3095 21.5383C18.5536 21.3256 18.9236 21.3511 19.1362 21.5951C19.3543 21.8454 19.6692 21.989 20.0002 21.989C20.3311 21.989 20.6459 21.8454 20.8641 21.5951C21.0767 21.3511 21.4468 21.3257 21.6908 21.5383C21.9348 21.7509 21.9602 22.121 21.7476 22.365C21.3068 22.8707 20.6698 23.1608 20.0001 23.1608Z" fill="#6E6E6E"/>
<path d="M25.4543 4.05078C22.55 4.05078 20.0001 9.02818 20.0001 9.02818C20.0001 9.02818 17.4502 4.05078 14.5459 4.05078C13.389 4.05078 12.1809 6.7342 12.1809 9.41755H20.0001H27.8193C27.8193 6.73412 26.6112 4.05078 25.4543 4.05078Z" fill="#FC90B4"/>
<path d="M14.5459 17.524C17.4502 17.524 20.0001 12.5466 20.0001 12.5466C20.0001 12.5466 22.55 17.524 25.4543 17.524C26.6112 17.524 27.8193 14.8406 27.8193 12.1572H20H12.1809C12.1809 14.8407 13.389 17.524 14.5459 17.524Z" fill="#FC90B4"/>
<path d="M27.189 6.01855C24.6941 6.01855 20 9.55319 20 9.55319C20 9.55319 15.3061 6.01855 12.8111 6.01855C10.3161 6.01855 10.3161 15.557 12.8111 15.557C15.306 15.557 20 12.0223 20 12.0223C20 12.0223 24.694 15.557 27.189 15.557C29.684 15.557 29.684 6.01855 27.189 6.01855Z" fill="#FDA0C1"/>
<path d="M19.9999 13.9357C21.7385 13.9357 23.1479 12.5263 23.1479 10.7877C23.1479 9.04906 21.7385 7.63965 19.9999 7.63965C18.2613 7.63965 16.8519 9.04906 16.8519 10.7877C16.8519 12.5263 18.2613 13.9357 19.9999 13.9357Z" fill="#FDB3CD"/>
</g>
<defs>
<clipPath id="clip0">
<rect width="40" height="40" fill="white"/>
</clipPath>
</defs>
</svg>
