<svg width="29" height="40" viewBox="0 0 29 40" fill="none" xmlns="http://www.w3.org/2000/svg">
<path d="M16.0119 9.68332C15.9382 9.68332 15.8631 9.66926 15.7905 9.63957C13.0804 8.53226 11.7763 5.42643 12.8837 2.71629C13.3247 1.63703 14.1595 0.794095 15.2345 0.342704C16.3095 -0.108608 17.4959 -0.114389 18.5752 0.326689C19.4676 0.691208 20.1646 1.38157 20.5377 2.27045C20.9109 3.15925 20.9157 4.14023 20.5511 5.03262C20.2475 5.77548 19.6728 6.35578 18.9328 6.66639C18.1929 6.97701 17.3762 6.98091 16.6334 6.67741C15.3467 6.15172 14.7276 4.67716 15.2534 3.39057C15.469 2.86293 15.8771 2.45091 16.4026 2.23029C16.701 2.10499 17.0444 2.24529 17.1696 2.54372C17.2948 2.84215 17.1546 3.18557 16.8562 3.31073C16.6193 3.41018 16.4353 3.59595 16.3381 3.83375C16.0568 4.52225 16.3881 5.31128 17.0766 5.59268C18.0119 5.9747 19.0839 5.52471 19.4662 4.58935C19.9744 3.34526 19.3759 1.9196 18.1318 1.41142C16.5022 0.745346 14.6343 1.52962 13.9683 3.15948C13.1055 5.27144 14.1217 7.69182 16.2337 8.55484C16.5332 8.67718 16.6769 9.0192 16.5544 9.3188C16.4618 9.54582 16.2428 9.68332 16.0119 9.68332Z" fill="#C4715A"/>
<path d="M25.8791 22.7688C27.4593 22.7688 28.7403 21.4878 28.7403 19.9076C28.7403 18.3274 27.4593 17.0464 25.8791 17.0464C24.2988 17.0464 23.0178 18.3274 23.0178 19.9076C23.0178 21.4878 24.2988 22.7688 25.8791 22.7688Z" fill="#FFCEBF"/>
<path d="M2.86123 22.7688C4.44144 22.7688 5.72246 21.4878 5.72246 19.9076C5.72246 18.3274 4.44144 17.0464 2.86123 17.0464C1.28102 17.0464 0 18.3274 0 19.9076C0 21.4878 1.28102 22.7688 2.86123 22.7688Z" fill="#F9BCAF"/>
<path d="M17.5976 30.9573C17.3964 30.8851 17.1924 30.8202 16.9854 30.7617C16.1539 30.5255 15.2767 30.3984 14.3702 30.3984C9.07717 30.3984 4.7688 34.7077 4.7688 39.9998H23.9716C23.9716 35.8743 21.3403 32.2973 17.5976 30.9573Z" fill="#FFCEBF"/>
<path d="M16.3522 30.6051C15.7126 30.4698 15.0496 30.3984 14.3702 30.3984C9.07717 30.3984 4.7688 34.7077 4.7688 39.9998H8.7339C8.7339 35.3873 12.0071 31.5218 16.3522 30.6051Z" fill="#F9BCAF"/>
<path d="M14.3702 31.406C20.7208 31.406 25.8689 26.2579 25.8689 19.9074C25.8689 13.5568 20.7208 8.40869 14.3702 8.40869C8.01971 8.40869 2.87158 13.5568 2.87158 19.9074C2.87158 26.2579 8.01971 31.406 14.3702 31.406Z" fill="#FFDFCF"/>
<path d="M6.8366 19.9074C6.8366 14.233 10.9471 9.51912 16.3528 8.57954C15.7086 8.4676 15.0463 8.40869 14.3702 8.40869C8.01968 8.40869 2.87158 13.5568 2.87158 19.9074C2.87158 26.2579 8.01968 31.406 14.3702 31.406C15.0464 31.406 15.7086 31.3471 16.3528 31.2352C10.9471 30.2957 6.8366 25.5818 6.8366 19.9074Z" fill="#FFCEBF"/>
<path d="M8.06129 25.6462C9.34694 25.6462 10.3892 24.8162 10.3892 23.7923C10.3892 22.7685 9.34694 21.9385 8.06129 21.9385C6.77563 21.9385 5.7334 22.7685 5.7334 23.7923C5.7334 24.8162 6.77563 25.6462 8.06129 25.6462Z" fill="#FDA0C1"/>
<path d="M20.6792 25.6462C21.9649 25.6462 23.0071 24.8162 23.0071 23.7923C23.0071 22.7685 21.9649 21.9385 20.6792 21.9385C19.3935 21.9385 18.3513 22.7685 18.3513 23.7923C18.3513 24.8162 19.3935 25.6462 20.6792 25.6462Z" fill="#FDA0C1"/>
<path d="M9.41809 22.5938C9.09442 22.5938 8.83215 22.3315 8.83215 22.0079V21.0562C8.83215 20.7325 9.09442 20.4702 9.41809 20.4702C9.74176 20.4702 10.004 20.7325 10.004 21.0562V22.0079C10.004 22.3315 9.74168 22.5938 9.41809 22.5938Z" fill="#6E6E6E"/>
<path d="M19.3225 22.5938C18.9988 22.5938 18.7366 22.3315 18.7366 22.0079V21.0562C18.7366 20.7325 18.9988 20.4702 19.3225 20.4702C19.6462 20.4702 19.9084 20.7325 19.9084 21.0562V22.0079C19.9084 22.3315 19.6462 22.5938 19.3225 22.5938Z" fill="#6E6E6E"/>
<path d="M14.3702 23.1603C13.7005 23.1603 13.0636 22.8702 12.6229 22.3645C12.4102 22.1205 12.4357 21.7504 12.6797 21.5378C12.9236 21.3251 13.2936 21.3506 13.5063 21.5946C13.7245 21.8449 14.0393 21.9885 14.3703 21.9885C14.7013 21.9885 15.0161 21.8449 15.2343 21.5946C15.4467 21.3507 15.8168 21.3252 16.0609 21.5378C16.3048 21.7504 16.3303 22.1205 16.1177 22.3645C15.6769 22.8702 15.04 23.1603 14.3702 23.1603Z" fill="#6E6E6E"/>
</svg>
