<svg width="121" height="82" viewBox="0 0 121 82" fill="none" xmlns="http://www.w3.org/2000/svg">
<g clip-path="url(#clip0)">
<path d="M60.4895 81.5559C93.6208 81.5559 120.479 78.6166 120.479 74.9907C120.479 71.3649 93.6208 68.4255 60.4895 68.4255C27.3582 68.4255 0.5 71.3649 0.5 74.9907C0.5 78.6166 27.3582 81.5559 60.4895 81.5559Z" fill="#EBEBEB"/>
<path d="M113.075 79.8611H106.957V79.9566H113.075V79.8611Z" fill="#EBEBEB"/>
<path d="M11.0786 80.3704H-2.68652V80.4659H11.0786V80.3704Z" fill="#EBEBEB"/>
<path d="M15.922 80.3704H13.9146V80.4659H15.922V80.3704Z" fill="#EBEBEB"/>
<path d="M139.904 77.6648H-19.415V77.7603H139.904V77.6648Z" fill="#EBEBEB"/>
<path d="M27.3842 24L9.69141 35.835L27.1099 61.8749L44.8027 50.04L27.3842 24Z" fill="#F5F5F5"/>
<path d="M35.6559 48.8084L35.4682 50.066L26.6648 48.7896L26.8713 47.5508L35.6559 48.8084Z" fill="#E0E0E0"/>
<path d="M31.2262 44.3784L32.5026 44.5661L31.0948 53.2194L29.8372 53.0317L31.2262 44.3784Z" fill="#E0E0E0"/>
<path d="M19.1886 36.0842C21.3859 34.6144 23.1532 33.4019 23.1359 33.3761C23.1186 33.3502 21.3233 34.5208 19.126 35.9906C16.9287 37.4604 15.1615 38.6728 15.1788 38.6987C15.1961 38.7245 16.9913 37.554 19.1886 36.0842Z" fill="#E0E0E0"/>
<path d="M23.0522 36.2063C26.6971 33.7682 29.6379 31.7708 29.6206 31.7449C29.6033 31.7191 26.6345 33.6746 22.9896 36.1127C19.3447 38.5508 16.4039 40.5483 16.4212 40.5741C16.4385 40.6 19.4073 38.6445 23.0522 36.2063Z" fill="#E0E0E0"/>
<path d="M24.3662 38.1519C28.0111 35.7138 30.9519 33.7163 30.9346 33.6905C30.9173 33.6646 27.9485 35.6202 24.3036 38.0583C20.6586 40.4964 17.7179 42.4939 17.7352 42.5197C17.7525 42.5456 20.7213 40.59 24.3662 38.1519Z" fill="#E0E0E0"/>
<path d="M25.6643 40.1084C29.3092 37.6703 32.25 35.6728 32.2327 35.647C32.2154 35.6211 29.2466 37.5767 25.6017 40.0148C21.9567 42.4529 19.016 44.4504 19.0333 44.4763C19.0506 44.5021 22.0194 42.5466 25.6643 40.1084Z" fill="#E0E0E0"/>
<path d="M26.9782 42.055C30.6231 39.6168 33.5639 37.6194 33.5466 37.5935C33.5293 37.5677 30.5605 39.5232 26.9156 41.9614C23.2707 44.3995 20.3299 46.3969 20.3472 46.4228C20.3645 46.4486 23.3333 44.4931 26.9782 42.055Z" fill="#E0E0E0"/>
<g clip-path="url(#clip1)">
<path d="M69.4363 3.94831L68.6777 7.64189L68.1957 7.16427L67.3659 7.76129L66.7338 6.96526L65.3113 8.00806L64.1023 5.96226L62.7431 6.75829L62.2057 6.01798L60.4909 6.98914L59.9773 5.8747L61.1784 0L67.6346 1.34529L69.4363 3.94831Z" fill="#F5F5F5"/>
<path d="M67.6346 1.34521L69.4363 3.94823L67.2 3.48654L67.6346 1.34521Z" fill="#E0E0E0"/>
<path d="M68.5196 8.37421L67.4054 13.7872L58.7129 11.9802L59.8113 6.61499L60.3329 7.72943L62.0477 6.75032L62.585 7.49858L63.9363 6.70255L65.1533 8.74039L66.5678 7.70555L67.1999 8.49362L68.0297 7.8966L68.5196 8.37421Z" fill="#F5F5F5"/>
</g>
<g clip-path="url(#clip2)">
<path d="M55.6064 28.315L41.3709 31.4017L37.3693 12.7395L47.9365 10.4377L52.3526 13.195L55.6064 28.315Z" fill="#F5F5F5"/>
<path d="M47.9365 10.4377L52.3526 13.195L48.6992 13.9911L47.9365 10.4377Z" fill="#DBDBDB"/>
<path d="M45.8796 23.7263L45.7647 23.3152C45.4905 22.4596 45.57 21.4298 46.1707 20.294C46.7104 19.2746 46.9696 18.5657 46.8178 17.8254C46.6393 16.9955 46.0218 16.5537 45.0158 16.7467C44.4453 16.8735 43.8514 17.1914 43.506 17.5921L42.9045 16.6523C43.3533 16.1556 44.2023 15.7052 45.0526 15.5225C46.8813 15.1375 47.947 16.1139 48.2148 17.3588C48.4478 18.4616 48.0115 19.385 47.4305 20.4776C46.8996 21.4689 46.7952 22.248 47.0229 23.0571L47.127 23.4832L45.8796 23.7263ZM46.001 26.0781C45.8711 25.4818 46.1858 24.9653 46.7454 24.8535C47.3051 24.7417 47.7746 25.0721 47.8937 25.6834C48.0068 26.2554 47.7434 26.7642 47.1473 26.8949C46.6004 27.0048 46.1269 26.6482 46.001 26.0781Z" fill="#DBDBDB"/>
</g>
<path d="M109.777 25.1349L74.3542 6.19043L46.4575 58.3519L81.8799 77.2963L109.777 25.1349Z" fill="#F5F5F5"/>
<path d="M75.8016 60.9875L73.5622 61.7799L67.8777 46.0011L70.117 45.2432L75.8016 60.9875Z" fill="#E0E0E0"/>
<path d="M79.2467 49.6875L80.0736 51.9613L64.4325 57.3013L63.6057 55.0619L79.2467 49.6875Z" fill="#E0E0E0"/>
<path d="M90.3841 26.4152C90.411 26.3648 86.8693 24.4182 82.4734 22.0672C78.0775 19.7162 74.4922 17.8512 74.4652 17.9015C74.4383 17.9519 77.9801 19.8985 82.3759 22.2495C86.7718 24.6005 90.3572 26.4655 90.3841 26.4152Z" fill="#E0E0E0"/>
<path d="M98.8587 35.7909C98.8856 35.7406 92.9909 32.5355 85.6924 28.6322C78.3939 24.7288 72.4555 21.6054 72.4286 21.6557C72.4017 21.706 78.2965 24.9111 85.5949 28.8144C92.8934 32.7178 98.8318 35.8412 98.8587 35.7909Z" fill="#E0E0E0"/>
<path d="M96.8011 39.6874C96.828 39.6371 90.9333 36.432 83.6348 32.5286C76.3363 28.6253 70.3979 25.5018 70.371 25.5522C70.3441 25.6025 76.2388 28.8076 83.5373 32.7109C90.8358 36.6143 96.7742 39.7377 96.8011 39.6874Z" fill="#E0E0E0"/>
<path d="M94.6973 43.5983C94.7243 43.5479 88.8295 40.3429 81.531 36.4395C74.2326 32.5362 68.2942 29.4127 68.2673 29.4631C68.2403 29.5134 74.1351 32.7185 81.4336 36.6218C88.732 40.5251 94.6704 43.6486 94.6973 43.5983Z" fill="#E0E0E0"/>
<path d="M92.5931 47.5094C92.62 47.4591 86.7253 44.254 79.4268 40.3507C72.1283 36.4473 66.1899 33.3239 66.163 33.3742C66.1361 33.4245 72.0308 36.6296 79.3293 40.5329C86.6278 44.4363 92.5662 47.5597 92.5931 47.5094Z" fill="#E0E0E0"/>
</g>
<defs>
<clipPath id="clip0">
<rect width="120" height="81.7021" fill="white" transform="translate(0.5)"/>
</clipPath>
<clipPath id="clip1">
<rect width="10.7234" height="13.7872" fill="white" transform="translate(58.7129)"/>
</clipPath>
<clipPath id="clip2">
<rect width="15.6908" height="19.74" fill="white" transform="translate(37.2659 12.0588) rotate(-8.63864)"/>
</clipPath>
</defs>
</svg>
