<svg id="Capa_1" enable-background="new 0 0 510 510" height="512" viewBox="0 0 510 510" width="512" xmlns="http://www.w3.org/2000/svg" xmlns:xlink="http://www.w3.org/1999/xlink"><linearGradient id="lg1"><stop offset="0" stop-color="#ffe177"/><stop offset="1" stop-color="#fe9738"/></linearGradient><linearGradient id="SVGID_1_" gradientUnits="userSpaceOnUse" x1="91.371" x2="390.866" xlink:href="#lg1" y1="126.584" y2="426.079"/><linearGradient id="SVGID_2_" gradientUnits="userSpaceOnUse" x1="422.553" x2="64.313" xlink:href="#lg1" y1="451.447" y2="93.206"/><linearGradient id="lg2"><stop offset="0" stop-color="#c0272d" stop-opacity="0"/><stop offset="1" stop-color="#c0272d"/></linearGradient><linearGradient id="SVGID_3_" gradientUnits="userSpaceOnUse" x1="255" x2="255" xlink:href="#lg2" y1="418" y2="526.005"/><linearGradient id="SVGID_4_" gradientUnits="userSpaceOnUse" x1="366" x2="245.925" xlink:href="#lg2" y1="386" y2="265.925"/><linearGradient id="lg3"><stop offset="0" stop-color="#d9b1ee"/><stop offset=".5908" stop-color="#af66da"/><stop offset=".6764" stop-color="#a660cf"/><stop offset=".8297" stop-color="#8d51b0"/><stop offset=".984" stop-color="#6f3f8a"/></linearGradient><linearGradient id="SVGID_5_" gradientUnits="userSpaceOnUse" x1="179.615" x2="333.421" xlink:href="#lg3" y1="199.617" y2="353.424"/><linearGradient id="lg4"><stop offset="0" stop-color="#6f3f8a" stop-opacity="0"/><stop offset="1" stop-color="#6f3f8a"/></linearGradient><linearGradient id="SVGID_6_" gradientUnits="userSpaceOnUse" x1="255" x2="255" xlink:href="#lg4" y1="323.425" y2="428.026"/><linearGradient id="SVGID_7_" gradientTransform="matrix(-1 0 0 -1 1574 -3745.996)" gradientUnits="userSpaceOnUse" x1="1254.969" x2="1385.61" xlink:href="#lg3" y1="-4085.029" y2="-3954.388"/><linearGradient id="SVGID_8_" gradientTransform="matrix(-1 0 0 -1 1574 -3745.996)" gradientUnits="userSpaceOnUse" x1="1319" x2="1319" xlink:href="#lg4" y1="-3979.868" y2="-3891.022"/><linearGradient id="SVGID_9_" gradientUnits="userSpaceOnUse" x1="195.278" x2="324.539" y1="215.28" y2="344.541"><stop offset="0" stop-color="#edf5ff"/><stop offset="1" stop-color="#c7e9ff"/></linearGradient><linearGradient id="lg5"><stop offset="0" stop-color="#fff" stop-opacity="0"/><stop offset="1" stop-color="#fff"/></linearGradient><linearGradient id="SVGID_10_" gradientUnits="userSpaceOnUse" x1="268.216" x2="176.202" xlink:href="#lg5" y1="297.325" y2="141.877"/><linearGradient id="SVGID_11_" gradientUnits="userSpaceOnUse" x1="255" x2="255" y1="211.725" y2="134.567"><stop offset="0" stop-color="#7bacdf" stop-opacity="0"/><stop offset="1" stop-color="#7bacdf"/></linearGradient><linearGradient id="SVGID_12_" gradientUnits="userSpaceOnUse" x1="350.314" x2="149.366" xlink:href="#lg5" y1="329.85" y2="274.628"/><linearGradient id="SVGID_13_" gradientUnits="userSpaceOnUse" x1="386.604" x2="324.39" xlink:href="#lg2" y1="440.397" y2="378.183"/><g><path d="m299.762 37.859 40.129 81.311c7.271 14.733 21.326 24.944 37.584 27.306l89.732 13.039c40.943 5.949 57.291 56.264 27.664 85.142l-64.93 63.291c-11.765 11.468-17.133 27.99-14.356 44.183l15.328 89.369c6.994 40.777-35.806 71.873-72.426 52.621l-80.258-42.194c-14.542-7.645-31.915-7.645-46.456 0l-80.258 42.194c-36.62 19.252-79.42-11.844-72.426-52.621l15.328-89.369c2.777-16.193-2.591-32.715-14.356-44.183l-64.93-63.291c-29.626-28.879-13.278-79.193 27.664-85.142l89.732-13.039c16.258-2.362 30.313-12.574 37.584-27.306l40.129-81.311c18.308-37.1 71.212-37.1 89.522 0z" fill="url(#SVGID_1_)"/><g><path d="m291.728 76.831 32.927 66.717c5.966 12.088 17.498 20.467 30.839 22.406l73.627 10.699c33.594 4.882 47.008 46.166 22.699 69.861l-53.277 51.932c-9.653 9.409-14.058 22.966-11.779 36.253l12.577 73.329c5.739 33.459-29.38 58.974-59.428 43.177l-65.854-34.621c-11.932-6.273-26.187-6.273-38.119 0l-65.854 34.621c-30.048 15.797-65.166-9.718-59.427-43.177l12.577-73.329c2.279-13.286-2.126-26.843-11.779-36.253l-53.277-51.932c-24.309-23.695-10.895-64.98 22.699-69.861l73.627-10.699c13.34-1.938 24.873-10.317 30.839-22.406l32.927-66.717c15.024-30.441 58.432-30.441 73.456 0z" fill="url(#SVGID_2_)"/></g><path d="m94.415 352.132-15.328 89.368c-6.994 40.777 35.806 71.873 72.426 52.621l80.258-42.194c14.542-7.645 31.915-7.645 46.457 0l80.258 42.194c36.62 19.252 79.42-11.844 72.426-52.621l-15.328-89.369c-.35-2.042-.569-4.09-.664-6.132h-319.841c-.095 2.043-.314 4.09-.664 6.133z" fill="url(#SVGID_3_)"/><path d="m156.887 418.503 47.71 47.71 27.174-14.286c14.542-7.645 31.915-7.645 46.457 0l80.258 42.194c36.62 19.252 79.42-11.844 72.426-52.621l-15.328-89.369c-2.777-16.193 2.591-32.715 14.356-44.183l50.448-49.175-81.886-81.886z" fill="url(#SVGID_4_)"/><g><g><circle cx="255" cy="275.002" fill="url(#SVGID_5_)" r="173.882"/><path d="m81.501 286.007c5.683 90.9 81.167 162.876 173.499 162.876s167.816-71.977 173.499-162.876z" fill="url(#SVGID_6_)"/></g><g><circle cx="255" cy="275.002" fill="url(#SVGID_7_)" r="147.693"/><path d="m402.368 265.655c-4.827-77.209-68.942-138.345-147.368-138.345s-142.541 61.136-147.368 138.345z" fill="url(#SVGID_8_)"/></g><g><circle cx="255" cy="275.002" fill="url(#SVGID_9_)" r="122.554"/><g><path d="m307.315 164.152-163.165 163.165c17.019 35.997 51.049 62.373 91.719 68.749h38.261c58.597-9.186 103.423-59.888 103.423-121.064.001-48.968-28.723-91.222-70.238-110.85z" fill="url(#SVGID_10_)"/><path d="m145.537 219.846h218.925c-20.184-39.978-61.619-67.397-109.463-67.397s-89.277 27.419-109.462 67.397z" fill="url(#SVGID_11_)"/><path d="m235.869 396.066h38.262c58.597-9.186 103.423-59.888 103.423-121.064 0-13.179-2.089-25.868-5.938-37.764l-154.38 154.379c6.021 1.949 12.244 3.448 18.633 4.449z" fill="url(#SVGID_12_)"/></g></g></g><path d="m430.913 441.5-15.328-89.369c-.496-2.89-.721-5.79-.707-8.671-24.796 57.834-80.049 99.503-145.586 104.835 3.06.915 6.055 2.117 8.936 3.631l80.258 42.194c36.621 19.254 79.421-11.842 72.427-52.62z" fill="url(#SVGID_13_)"/></g></svg>