<svg width="40" height="42" viewBox="0 0 40 42" fill="none" xmlns="http://www.w3.org/2000/svg">
<ellipse cx="20" cy="40" rx="13.5" ry="2" fill="#E25D7D"/>
<path d="M22.3047 39.474L18.03 37.0383L17.1131 30.3358L16.7403 28.967L17.1903 27.8737L18.9224 20.9689C19.0034 20.6459 18.8073 20.3186 18.4844 20.2375C18.1614 20.1564 17.8341 20.3526 17.753 20.6756L16.0164 27.5982C15.9977 27.6728 15.8453 29.9635 15.8557 30.0397L17.0756 38.9574C17.1573 39.5545 17.6675 39.9996 18.2702 39.9996H22.1655C22.4541 39.9997 22.5555 39.6168 22.3047 39.474Z" fill="#FFC250"/>
<path d="M16.9226 28.942L17.1905 27.8741L16.0167 27.5986L15.7249 28.7617C15.7062 28.8363 15.7019 28.9139 15.7124 28.9901L15.856 30.0401L17.1134 30.3361L16.9226 28.942Z" fill="#C38778"/>
<path d="M21.3244 29.4634L12.9925 27.508L14.3774 22.0867C14.4598 21.7641 14.2652 21.4358 13.9426 21.3534C13.62 21.271 13.2917 21.4656 13.2093 21.7882L11.6723 27.8049C11.6323 27.9617 11.6569 28.1281 11.7409 28.2665C11.8247 28.4049 11.9607 28.5038 12.1182 28.5409L19.3243 30.2372L21.7259 34.6073C21.8661 34.8624 22.2537 34.7628 22.2537 34.4718V30.637C22.2538 30.0776 21.869 29.5916 21.3244 29.4634Z" fill="#FFC250"/>
<path d="M25.7489 3.73877L23.7761 4.63178L23.9891 6.78681L31.4675 8.47661L25.7489 3.73877Z" fill="#FFE07D"/>
<path d="M32.7178 9.51295L31.4674 8.47687L23.8777 5.66064L23.989 6.78707L32.4739 9.9355C32.7351 10.0324 32.9324 9.69066 32.7178 9.51295Z" fill="#FFC250"/>
<path d="M25.7488 3.73908C25.7488 3.73908 25.6043 1.8518 23.6081 0.699327C21.5307 -0.500082 19.242 -0.104057 18.3247 1.48487C17.8358 2.33166 17.64 3.73908 17.64 4.76247C17.64 7.1948 21.1358 12.0008 21.1358 12.0008C18.367 12.0008 15.9407 12.4509 13.7838 13.4278C12.0117 14.9165 9.89504 16.0278 9.53125 18.1431L11.5498 22.0251C14.957 22.6563 18.7702 21.2631 21.6259 19.5984C22.4643 18.6139 23.2661 17.4563 24.1157 16.1316C25.2739 14.3259 25.1402 11.9804 23.7845 10.3179L20.8653 6.73809C20.8653 6.73809 23.1644 6.8458 24.0361 5.71953C24.0069 5.39022 23.9333 5.01349 23.776 4.63217C25.0125 4.51659 25.7488 3.73908 25.7488 3.73908Z" fill="#E6F7FE"/>
<path d="M11.5498 22.0251C15.6576 21.841 18.7702 21.2631 21.6259 19.5984C19.3662 22.252 16.8403 23.6456 12.3924 23.6456L11.5498 22.0251ZM18.3247 1.48486C16.721 3.08858 16.1411 5.70217 17.9733 8.01273C18.8438 9.11046 20.4125 11.0887 21.1359 12.0008H21.4779C21.9625 12.0008 22.2331 11.4412 21.9319 11.0614C21.2895 10.2512 20.3026 9.00677 19.2593 7.69113C17.9462 6.03518 18.0732 5.07425 18.0732 5.07425C18.0732 5.07425 18.8118 5.89371 20.8652 6.73809C22.6013 7.45193 23.9889 6.78712 23.9889 6.78712C23.9889 6.78712 24.0906 6.33676 24.036 5.71953C23.5593 5.85207 23.0194 5.9429 22.5507 5.9429C19.922 5.94298 17.3087 3.24459 18.3247 1.48486ZM13.7839 13.4278C11.995 14.2381 10.3913 15.4105 8.93311 16.9926L9.53128 18.1431C10.6307 16.5755 12.0118 14.9164 13.7839 13.4278Z" fill="#D3EFFD"/>
<path d="M6.58789 22.5805C10.0496 22.6493 13.2399 22.711 15.9685 21.5846C17.0678 20.5744 18.0609 19.2167 19.0884 17.3928C19.1941 17.2052 19.0578 16.9727 18.8426 16.9731L10.3821 16.9896C8.12811 19.3399 7.21846 20.4085 6.58789 22.5805Z" fill="#B2E5FB"/>
<path d="M7.68264 22.1034C7.41635 22.1042 7.2482 21.8165 7.38082 21.5856C8.12939 20.2825 9.08895 18.6515 10.3821 16.9897L8.93301 16.9926C7.861 18.1558 6.86728 19.54 5.9357 21.163L2.89754 26.456C2.69821 26.8033 2.94891 27.2364 3.34943 27.2364H5.41444C6.6366 27.2364 7.77717 26.6229 8.45074 25.603L9.34913 24.2428C12.2023 23.9193 14.2198 23.1918 15.9685 21.5848C13.6151 21.9943 10.9322 22.0935 7.68264 22.1034Z" fill="#91DAFA"/>
<path d="M33.1096 24.0087C34.8107 24.0087 36.1306 23.0027 36.8465 21.8213C37.0558 21.3077 37.172 20.7463 37.172 20.1574C37.172 17.674 36.5238 16.2652 33.3011 10.7744C30.0069 15.0266 28.7461 17.3229 28.7461 19.5648C28.7461 21.6639 30.3276 24.0087 33.1096 24.0087Z" fill="#FFCBCE"/>
<path d="M33.3508 23.3657C31.2516 23.3657 29.5499 21.664 29.5499 19.5648C29.5499 17.323 30.1634 16.098 33.3012 10.7745C33.1276 10.4788 32.947 10.1718 32.7581 9.85156C29.0638 16.1172 28.3442 17.5402 28.3442 20.1575C28.3442 22.5952 30.3204 24.5714 32.7581 24.5714C34.607 24.5714 36.1894 23.4342 36.8465 21.8214C36.2022 22.8259 35.0518 23.3657 33.3508 23.3657Z" fill="#FFB3B7"/>
<path d="M36.5029 9.24838C36.1044 8.94817 35.556 8.64844 34.9551 8.64844C34.3542 8.64844 33.8058 8.94817 33.4072 9.24838C33.7492 9.85122 34.3542 10.1512 34.9551 10.1512C35.556 10.1512 36.2618 9.85122 36.5029 9.24838Z" fill="#FFCBCE"/>
<path d="M36.5027 9.24854C36.1041 9.54875 35.5557 9.84848 34.9548 9.84848C34.3539 9.84848 33.8056 9.54875 33.407 9.24854C33.0071 9.54971 32.7581 9.85137 32.7581 9.85137C32.7581 9.85137 33.7511 11.0542 34.9548 11.0542C36.1586 11.0542 37.1516 9.85137 37.1516 9.85137C37.1516 9.85137 36.9025 9.54971 36.5027 9.24854Z" fill="#FFB3B7"/>
<path d="M22.201 4.21027C22.0869 4.21027 21.9714 4.17788 21.869 4.1102C21.5913 3.92654 21.515 3.55254 21.6987 3.27483L22.1278 2.62585C22.3114 2.34814 22.6854 2.27194 22.9631 2.45545C23.2409 2.63911 23.3171 3.01311 23.1335 3.29082L22.7044 3.9398C22.5884 4.11527 22.3966 4.21027 22.201 4.21027Z" fill="#87A0AF"/>
</svg>
