<svg width="48" height="48" viewBox="0 0 48 48" fill="none" xmlns="http://www.w3.org/2000/svg">
    <defs>
        <linearGradient id="paint0_linear" x1="4.5" y1="6.43311e-07" x2="47.625" y2="57.75" gradientUnits="userSpaceOnUse">
            <stop stop-color="#44BAF1"/>
            <stop offset="0.0001" stop-color="#FFC61C"/>
            <stop offset="0.9998" stop-color="#FF9B00"/>
            <stop offset="0.9999" stop-color="#FF9B00"/>
        </linearGradient>
        <linearGradient id="paint1_linear" x1="0.75" y1="0.375" x2="42" y2="48" gradientUnits="userSpaceOnUse">
            <stop stop-color="#44BAF1"/>
            <stop offset="1" stop-color="#267CB8"/>
        </linearGradient>
    </defs>
<rect width="48" height="48" rx="16" fill="url(#paint0_linear)"/>
<mask id="mask0" mask-type="alpha" maskUnits="userSpaceOnUse" x="0" y="0" width="48" height="48">
<rect width="48" height="48" rx="16" fill="url(#paint1_linear)"/>
</mask>
<g mask="url(#mask0)">
<circle opacity="0.8" cx="6.75" cy="40.125" r="13.875" fill="#FFC61C"/>
<circle opacity="0.8" cx="51.75" cy="19.125" r="10.125" fill="#FFC61C"/>
</g>
<path d="M26.6513 22.1C26.4169 21.8656 26.099 21.734 25.7676 21.734C25.4361 21.734 25.1182 21.8656 24.8838 22.1L24.0001 22.9825C23.7695 23.2212 23.4936 23.4117 23.1886 23.5427C22.8836 23.6737 22.5555 23.7427 22.2236 23.7456C21.8916 23.7485 21.5624 23.6852 21.2552 23.5595C20.9479 23.4338 20.6688 23.2482 20.4341 23.0134C20.1994 22.7787 20.0137 22.4996 19.888 22.1923C19.7623 21.8851 19.6991 21.5559 19.7019 21.224C19.7048 20.892 19.7738 20.564 19.9048 20.2589C20.0358 19.9539 20.2263 19.6781 20.4651 19.4475L27.5026 12.4075C29.1687 12.0285 30.912 12.1845 32.4844 12.8532C34.0568 13.5219 35.3784 14.6693 36.2612 16.1323C37.144 17.5953 37.5431 19.2994 37.4017 21.0022C37.2604 22.7051 36.5858 24.32 35.4738 25.6175L32.8388 28.2862L26.6513 22.0987V22.1ZM12.9513 14.585C14.2448 13.2917 15.9366 12.4724 17.7533 12.2597C19.57 12.0469 21.4053 12.453 22.9626 13.4125L18.6963 17.68C17.7723 18.6021 17.2456 19.8491 17.2287 21.1544C17.2119 22.4597 17.7062 23.7199 18.606 24.6656C19.5059 25.6113 20.74 26.1676 22.0445 26.2156C23.3491 26.2636 24.6207 25.7995 25.5876 24.9225L25.7676 24.7512L31.0713 30.0537L25.7676 35.3575C25.2988 35.8261 24.663 36.0894 24.0001 36.0894C23.3372 36.0894 22.7014 35.8261 22.2326 35.3575L12.9501 26.075C11.4265 24.5512 10.5706 22.4847 10.5706 20.33C10.5706 18.1752 11.4265 16.1087 12.9501 14.585H12.9513Z" fill="white"/>
</svg>
