<svg width="18" height="20" viewBox="0 0 18 20" fill="none" xmlns="http://www.w3.org/2000/svg">
<path d="M14 0C13.4696 0 12.9609 0.210714 12.5858 0.585786C12.2107 0.960859 12 1.46957 12 2C12 2.53043 12.2107 3.03914 12.5858 3.41421C12.9609 3.78929 13.4696 4 14 4C14.5304 4 15.0391 3.78929 15.4142 3.41421C15.7893 3.03914 16 2.53043 16 2C16 1.46957 15.7893 0.960859 15.4142 0.585786C15.0391 0.210714 14.5304 0 14 0ZM12 5C10.895 5 10 5.895 10 7V14H11V20H13V14H15V20H17V14H18V7C18 5.895 17.105 5 16 5H12ZM5 12V20H8V12H5ZM0 16V20H3V16H0Z" fill="#FB668A"/>
</svg>
