<svg id="Capa_1" enable-background="new 0 0 512.896 512.896" height="512" viewBox="0 0 512.896 512.896" width="512" xmlns="http://www.w3.org/2000/svg"><g><g><path d="m142.518 282.212 25.795 25.795s36.702 43.025 47.602 32.125c3.975-7.685.001-19.608-12.83-32.438-8.172-8.172-16.849-14.311-24.43-17.585 7.581-3.274 16.258-9.412 24.43-17.585 14.753-14.753 17.803-28.309 10.514-35.599-7.29-7.29-20.846-4.24-35.599 10.513-8.172 8.172-14.311 16.85-17.585 24.43-3.274-7.581-9.412-16.258-17.584-24.43-12.83-12.83-24.753-16.805-32.438-12.83-11.104 11.105 32.125 47.604 32.125 47.604z" fill="#ebb3b8"/><path d="m215.916 340.132c-13.569 0-42.602-37.125-42.602-37.125l-25.795-25.795s-37.125-29.033-37.125-42.602c-1.152.596-2.211 1.366-3.161 2.316-7.29 7.29-4.24 20.846 10.513 35.599 8.172 8.172 16.849 14.311 24.43 17.585-7.581 3.274-16.258 9.412-24.43 17.585-14.753 14.753-17.803 28.309-10.513 35.599s20.846 4.24 35.599-10.513c8.172-8.172 14.31-16.849 17.584-24.43 3.274 7.581 9.412 16.258 17.585 24.43 14.753 14.753 28.309 17.803 35.599 10.513.95-.951 1.72-2.01 2.316-3.162z" fill="#e27f86"/><path d="m173.314 303.007c7.676 3.045 18.151 4.841 29.709 4.841 20.864 0 32.606-7.429 32.606-17.738s-11.742-17.738-32.606-17.738c-11.558 0-22.033 1.795-29.709 4.841 3.045-7.676 4.841-18.151 4.841-29.709 0-20.864-7.429-32.606-17.738-32.606s-17.738 11.742-17.738 32.606c0 11.558 1.795 22.033 4.841 29.709-7.676-3.045-18.151-4.841-29.709-4.841-6.901 0-12.796.817-17.606 2.278-7.651 7.651-1.258 25.199 19.606 25.199 11.558 0 34.709-3.841 34.709-3.841s-3.841 23.151-3.841 34.709c0 20.864 15.996 28.809 25.199 19.606 1.461-4.81 2.278-10.706 2.278-17.606-.002-11.559-1.797-22.035-4.842-29.71z" fill="#f8d3d6"/><path d="m157.678 323.716c0-22.597 1.656-28.894-.159-30.709s-8.112-.159-30.709-.159c-20.864 0-26.606-7.889-26.606-18.199-9.734 2.956-15 8.561-15 15.461 0 10.309 11.742 17.738 32.606 17.738 11.558 0 22.033-1.795 29.709-4.841-3.045 7.676-4.841 18.151-4.841 29.709 0 20.864 7.429 32.606 17.738 32.606 6.9 0 12.505-5.266 15.461-15-10.31 0-18.199-5.742-18.199-26.606z" fill="#ebb3b8"/><path d="m105.711 115.711 25.795 25.795s36.702 43.025 47.602 32.125c3.975-7.685.001-19.608-12.83-32.438-8.172-8.172-16.849-14.311-24.43-17.585 7.581-3.274 16.258-9.412 24.43-17.585 14.753-14.753 17.803-28.309 10.514-35.599-7.29-7.29-20.846-4.24-35.599 10.513-8.172 8.172-14.311 16.849-17.585 24.43-3.274-7.581-9.412-16.258-17.584-24.43-12.83-12.83-24.753-16.805-32.438-12.83-11.104 11.106 32.125 47.604 32.125 47.604z" fill="#ebb3b8"/><path d="m179.108 173.632c-13.569 0-42.602-37.125-42.602-37.125l-25.795-25.795s-37.125-29.033-37.125-42.602c-1.152.596-2.211 1.366-3.161 2.316-7.29 7.29-4.24 20.846 10.513 35.599 8.172 8.172 16.849 14.311 24.43 17.585-7.581 3.274-16.258 9.412-24.43 17.585-14.753 14.753-17.803 28.309-10.513 35.599s20.846 4.24 35.599-10.513c8.172-8.172 14.31-16.849 17.584-24.43 3.274 7.581 9.412 16.258 17.585 24.43 14.753 14.753 28.309 17.803 35.599 10.513.951-.952 1.721-2.011 2.316-3.162z" fill="#e27f86"/><path d="m136.506 136.507c7.676 3.045 18.151 4.841 29.709 4.841 20.864 0 32.606-7.429 32.606-17.738s-11.742-17.738-32.606-17.738c-11.558 0-22.033 1.795-29.709 4.841 3.045-7.676 4.841-18.151 4.841-29.709 0-20.864-7.429-32.606-17.738-32.606s-17.739 11.74-17.739 32.604c0 11.558 1.795 22.033 4.841 29.709-7.676-3.045-18.151-4.841-29.709-4.841-6.901 0-12.796.817-17.606 2.278-7.651 7.651-1.258 25.199 19.606 25.199 11.558 0 34.709-3.841 34.709-3.841s-3.841 23.151-3.841 34.709c0 20.864 15.996 28.809 25.199 19.606 1.461-4.81 2.278-10.706 2.278-17.606 0-11.557-1.796-22.033-4.841-29.708z" fill="#f8d3d6"/><path d="m120.87 157.215c0-22.597 1.656-28.894-.159-30.709s-8.112-.159-30.709-.159c-20.864 0-26.606-7.889-26.606-18.199-9.734 2.956-15 8.561-15 15.461 0 10.309 11.742 17.738 32.606 17.738 11.558 0 22.033-1.795 29.709-4.841-3.045 7.676-4.841 18.151-4.841 29.709 0 20.864 7.429 32.606 17.738 32.606 6.9 0 12.505-5.266 15.461-15-10.309.001-18.199-5.741-18.199-26.606z" fill="#ebb3b8"/><path d="m272.211 152.518 25.795 25.795s36.702 43.025 47.602 32.125c3.975-7.685.001-19.608-12.83-32.438-8.172-8.172-16.849-14.311-24.43-17.585 7.581-3.274 16.258-9.412 24.43-17.585 14.753-14.753 17.803-28.309 10.514-35.599-7.29-7.29-20.846-4.24-35.599 10.513-8.172 8.172-14.311 16.849-17.585 24.43-3.274-7.581-9.412-16.258-17.584-24.43-12.83-12.83-24.753-16.805-32.438-12.83-11.104 11.106 32.125 47.604 32.125 47.604z" fill="#ebb3b8"/><path d="m345.609 210.439c-13.569 0-42.602-37.125-42.602-37.125l-25.795-25.795s-37.125-29.033-37.125-42.602c-1.152.596-2.211 1.366-3.161 2.316-7.29 7.29-4.24 20.846 10.513 35.599 8.172 8.172 16.849 14.311 24.43 17.585-7.581 3.274-16.258 9.412-24.43 17.585-14.753 14.753-17.803 28.309-10.513 35.599s20.846 4.24 35.599-10.513c8.172-8.172 14.31-16.849 17.584-24.43 3.274 7.581 9.412 16.258 17.585 24.43 14.753 14.753 28.309 17.803 35.599 10.513.95-.951 1.72-2.01 2.316-3.162z" fill="#e27f86"/><path d="m303.007 173.314c7.676 3.045 18.151 4.841 29.709 4.841 20.864 0 32.606-7.429 32.606-17.738s-11.742-17.738-32.606-17.738c-11.558 0-22.033 1.795-29.709 4.841 3.045-7.676 4.841-18.151 4.841-29.709 0-20.864-7.429-32.606-17.738-32.606s-17.738 11.742-17.738 32.606c0 11.558 1.795 22.033 4.841 29.709-7.676-3.045-18.151-4.841-29.709-4.841-6.901 0-12.796.817-17.606 2.278-7.651 7.651-1.258 25.199 19.606 25.199 11.558 0 34.709-3.841 34.709-3.841s-3.841 23.151-3.841 34.709c0 20.864 15.996 28.809 25.199 19.606 1.461-4.81 2.278-10.706 2.278-17.606-.002-11.559-1.797-22.035-4.842-29.71z" fill="#f8d3d6"/><path d="m287.371 194.023c0-22.597 1.656-28.894-.159-30.709s-8.112-.159-30.709-.159c-20.864 0-26.606-7.889-26.606-18.199-9.734 2.956-15 8.561-15 15.461 0 10.309 11.742 17.738 32.606 17.738 11.558 0 22.033-1.795 29.709-4.841-3.045 7.676-4.841 18.151-4.841 29.709 0 20.864 7.429 32.606 17.738 32.606 6.9 0 12.505-5.266 15.461-15-10.31 0-18.199-5.742-18.199-26.606z" fill="#ebb3b8"/><path d="m210.977 9.231c-10.064 23.687-5.287 56.276 19.365 67.996 8.329-24.12 1.023-51.775-19.365-67.996z" fill="#abd4b9"/><path d="m210.977 9.231c-.743-.591-1.5-1.17-2.278-1.731-12.478 29.347-5.769 62.338 14.492 84.06 3.068-4.539 5.434-9.362 7.151-14.333-16.621-17.826-24.107-43.237-19.365-67.996z" fill="#7fbd93"/><path d="m77.252 230.368c4.973-1.715 9.812-4.064 14.351-7.132-17.849-16.704-43.311-24.199-68.129-19.409 6.513 17.309 28.962 26.541 53.778 26.541z" fill="#abd4b9"/><path d="m77.252 230.368c-18.875-1.923-39.067-11.787-53.778-26.542-5.383 1.039-10.736 2.645-15.974 4.872 15.928 22.116 44.743 30.293 69.752 21.67z" fill="#7fbd93"/></g><g><path d="m141.194 512.896c-4.143 0-7.5-3.358-7.5-7.5v-40.507c0-4.142 3.357-7.5 7.5-7.5s7.5 3.358 7.5 7.5v40.507c0 4.142-3.358 7.5-7.5 7.5zm0-70.507c-4.143 0-7.5-3.358-7.5-7.5v-85.363c-14.115 8.192-25.262 5.574-31.765-.93-5.541-5.541-7.32-13.363-5.011-22.025 1.102-4.132 3.079-8.351 5.908-12.623-4.925-1.006-9.256-2.543-12.847-4.581-7.917-4.493-12.277-11.333-12.277-19.258s4.36-14.765 12.277-19.258c3.591-2.038 7.922-3.575 12.847-4.581-2.829-4.272-4.807-8.491-5.908-12.623-1.229-4.611-1.3-8.984-.262-12.901-1.894-2.874-3.985-5.566-6.246-8.068-10.421 5.734-21.899 8.502-33.283 8.503-21.429.001-42.537-9.804-55.713-28.099-1.332-1.85-1.751-4.205-1.138-6.4s2.191-3.993 4.289-4.885c36.51-15.526 78.672-4.058 101.682 26.531 2.281-1.296 4.814-2.146 7.509-2.502 4.108-.543 7.876 2.345 8.42 6.451.543 4.106-2.345 7.875-6.451 8.419-1.303.172-2.316.66-3.19 1.533-3.926 3.926-.509 13.073 8.3 22.681 5.581.145 10.979.69 15.983 1.601-1.074-5.905-1.64-12.356-1.64-19.009 0-11.312 2.067-20.935 5.98-27.829 4.492-7.917 11.331-12.278 19.257-12.278s14.766 4.36 19.258 12.277c2.038 3.591 3.575 7.922 4.581 12.847 4.275-2.833 8.499-4.81 12.635-5.911 8.656-2.305 16.476-.525 22.014 5.013 5.541 5.541 7.32 13.363 5.011 22.026-1.102 4.132-3.079 8.351-5.908 12.623 4.925 1.006 9.256 2.543 12.847 4.581 7.917 4.493 12.277 11.333 12.277 19.258s-4.36 14.765-12.277 19.258c-3.591 2.038-7.922 3.575-12.847 4.581 2.829 4.272 4.807 8.491 5.908 12.623 2.31 8.663.53 16.485-5.01 22.025-5.538 5.538-13.356 7.318-22.015 5.013-4.136-1.101-8.359-3.079-12.635-5.911-1.006 4.925-2.543 9.255-4.581 12.846-4.492 7.917-11.331 12.278-19.257 12.278-4.293 0-8.268-1.279-11.723-3.71v65.776c.001 4.143-3.357 7.501-7.499 7.501zm6.322-146.882c1.953 0 3.871.763 5.305 2.196 2.116 2.116 2.772 5.288 1.669 8.069-2.78 7.008-4.312 16.577-4.312 26.943 0 14.548 4.306 25.106 10.238 25.106s10.237-10.559 10.237-25.106c0-10.367-1.531-19.936-4.312-26.943-1.104-2.782-.447-5.953 1.669-8.069 2.117-2.115 5.288-2.771 8.069-1.667 7.007 2.78 16.575 4.312 26.942 4.312 14.548 0 25.106-4.306 25.106-10.238 0-5.933-10.559-10.238-25.106-10.238-10.367 0-19.936 1.531-26.942 4.312-2.783 1.103-5.953.448-8.069-1.667-2.116-2.116-2.772-5.288-1.669-8.069 2.78-7.008 4.312-16.577 4.312-26.943 0-14.548-4.306-25.106-10.238-25.106s-10.237 10.559-10.237 25.106c0 10.367 1.531 19.936 4.312 26.943 1.104 2.782.447 5.953-1.669 8.069-2.115 2.116-5.285 2.772-8.069 1.667-7.007-2.78-16.575-4.312-26.942-4.312-14.548 0-25.106 4.306-25.106 10.238 0 5.933 10.559 10.238 25.106 10.238 10.367 0 19.936-1.531 26.942-4.312.897-.356 1.834-.529 2.764-.529zm38.098 34.183c9.607 8.81 18.753 12.227 22.683 8.299 3.926-3.926.509-13.073-8.3-22.681-5.581-.145-10.979-.69-15.983-1.601.91 5.005 1.456 10.403 1.6 15.983zm-50.396.001c.145-5.58.69-10.978 1.601-15.983-5.005.911-10.402 1.456-15.983 1.601-8.809 9.608-12.226 18.755-8.299 22.682 3.925 3.927 13.075.508 22.681-8.3zm50.396-79.163c-.145 5.58-.69 10.978-1.601 15.983 5.005-.911 10.402-1.456 15.983-1.601 8.809-9.608 12.226-18.755 8.299-22.682-3.925-3.927-13.074-.509-22.681 8.3zm-165.068-38.366c15.333 14.106 38.136 18.004 57.563 9.829-16.456-11.151-37.506-15.017-57.563-9.829zm269.563 30.967c-7.926 0-14.766-4.36-19.258-12.277-2.034-3.585-3.57-7.907-4.575-12.821-15.487 10.331-27.712 7.813-34.654.872-5.54-5.54-7.319-13.362-5.009-22.025 1.101-4.131 3.077-8.351 5.907-12.623-4.925-1.006-9.256-2.543-12.847-4.581-7.917-4.493-12.277-11.333-12.277-19.258s4.36-14.765 12.277-19.258c3.591-2.038 7.922-3.575 12.847-4.581-2.83-4.272-4.807-8.491-5.907-12.623-1.763-6.61-1.145-12.729 1.708-17.72-3.769-2.843-7.281-6.007-10.501-9.447-.078-.08-.154-.162-.229-.245-8.597-9.258-15.102-20.502-18.902-32.92-5.938-19.403-4.835-40.376 3.107-59.056.893-2.098 2.689-3.676 4.886-4.289 2.193-.614 4.551-.194 6.399 1.138 28.008 20.171 36.121 58.943 19.606 88.978 2.492 2.265 5.174 4.357 8.035 6.248 6.761-1.847 15.464-.569 25.553 6.161 1.005-4.914 2.541-9.235 4.575-12.82 4.492-7.917 11.332-12.277 19.258-12.277s14.766 4.36 19.258 12.277c3.912 6.894 5.98 16.518 5.98 27.829 0 6.653-.565 13.104-1.64 19.008 5.006-.911 10.403-1.456 15.984-1.601 8.809-9.608 12.225-18.754 8.298-22.681-.874-.874-1.887-1.361-3.189-1.533-4.106-.543-6.994-4.313-6.451-8.419.544-4.107 4.312-6.997 8.42-6.451 4.548.602 8.638 2.606 11.827 5.797 5.54 5.54 7.319 13.362 5.01 22.025-.853 3.199-2.23 6.451-4.122 9.739h155.912c4.143 0 7.5 3.358 7.5 7.5s-3.357 7.5-7.5 7.5h-136.283c2.431 3.455 3.71 7.429 3.71 11.722 0 7.926-4.36 14.765-12.277 19.258-3.591 2.038-7.922 3.575-12.846 4.58 2.829 4.272 4.807 8.492 5.907 12.624 2.31 8.663.53 16.485-5.011 22.025-5.536 5.538-13.355 7.32-22.013 5.013-4.136-1.101-8.359-3.079-12.635-5.911-1.006 4.925-2.543 9.255-4.581 12.847-4.492 7.916-11.332 12.276-19.257 12.276zm-12.899-77.315c1.953 0 3.87.763 5.304 2.197 2.116 2.116 2.772 5.287 1.669 8.069-2.781 7.01-4.313 16.578-4.313 26.943 0 14.548 4.306 25.106 10.238 25.106s10.238-10.559 10.238-25.106c0-10.367-1.531-19.936-4.312-26.942-1.104-2.782-.449-5.953 1.667-8.069 2.117-2.118 5.29-2.77 8.069-1.669 7.009 2.781 16.578 4.312 26.943 4.312 14.548 0 25.106-4.306 25.106-10.238s-10.559-10.238-25.106-10.238c-10.366 0-19.935 1.531-26.943 4.312-2.783 1.105-5.954.447-8.069-1.668-2.116-2.116-2.771-5.288-1.668-8.069 2.781-7.007 4.313-16.576 4.313-26.943 0-14.548-4.306-25.106-10.238-25.106s-10.238 10.559-10.238 25.106c0 10.365 1.531 19.933 4.313 26.943 1.104 2.782.447 5.953-1.669 8.069-2.115 2.116-5.287 2.772-8.068 1.668-7.009-2.781-16.577-4.312-26.943-4.312-14.548 0-25.106 4.306-25.106 10.238s10.559 10.238 25.106 10.238c10.366 0 19.936-1.531 26.943-4.312.896-.356 1.834-.529 2.764-.529zm38.098 34.183c9.607 8.809 18.755 12.225 22.681 8.299 3.928-3.927.512-13.074-8.298-22.682-5.58-.145-10.978-.69-15.984-1.601.91 5.006 1.455 10.404 1.601 15.984zm-64.78-14.382c-8.81 9.608-12.226 18.754-8.299 22.681 3.922 3.925 13.072.51 22.681-8.298.146-5.581.69-10.978 1.602-15.984-5.007.911-10.404 1.456-15.984 1.601zm-.001-50.398c5.581.145 10.979.69 15.984 1.601-.911-5.006-1.456-10.404-1.602-15.984-9.605-8.806-18.755-12.222-22.681-8.298-3.926 3.926-.51 13.072 8.299 22.681zm-38.351-114.656c-5.085 19.896-1.221 40.984 9.851 57.465 8.124-19.403 4.223-42.154-9.851-57.465zm-88.567 185.761c-7.926 0-14.766-4.36-19.258-12.277-2.034-3.585-3.57-7.907-4.575-12.821-15.486 10.33-27.713 7.814-34.653.873-5.541-5.541-7.32-13.363-5.011-22.025 1.102-4.132 3.078-8.351 5.907-12.624-4.924-1.005-9.255-2.542-12.846-4.58-7.917-4.493-12.277-11.333-12.277-19.258s4.36-14.765 12.277-19.258c3.591-2.038 7.922-3.575 12.846-4.58-2.829-4.272-4.806-8.492-5.907-12.624-2.31-8.663-.53-16.485 5.01-22.025 6.943-6.941 19.17-9.455 34.654.872 1.005-4.914 2.541-9.236 4.575-12.821 4.492-7.917 11.332-12.277 19.258-12.277s14.766 4.36 19.258 12.277c2.034 3.585 3.57 7.907 4.575 12.821 15.485-10.33 27.713-7.813 34.653-.873 5.541 5.541 7.32 13.363 5.011 22.026-1.102 4.131-3.078 8.351-5.907 12.624 4.924 1.005 9.255 2.542 12.846 4.58 7.917 4.493 12.277 11.333 12.277 19.258s-4.36 14.765-12.277 19.258c-3.591 2.038-7.922 3.575-12.846 4.58 2.829 4.272 4.806 8.492 5.907 12.624 2.31 8.663.53 16.485-5.01 22.025-6.941 6.942-19.172 9.455-34.654-.872-1.005 4.914-2.541 9.236-4.575 12.821-4.493 7.916-11.333 12.276-19.258 12.276zm-12.9-77.315c1.954 0 3.872.763 5.306 2.197 2.116 2.116 2.771 5.288 1.667 8.07-2.78 7.007-4.312 16.575-4.312 26.942 0 14.548 4.306 25.106 10.238 25.106s10.238-10.559 10.238-25.106c0-10.367-1.531-19.936-4.312-26.942-1.104-2.782-.449-5.954 1.667-8.07s5.29-2.771 8.069-1.668c7.008 2.78 16.577 4.312 26.943 4.312 14.548 0 25.106-4.306 25.106-10.238 0-5.933-10.559-10.238-25.106-10.238-10.366 0-19.936 1.531-26.943 4.312-2.783 1.105-5.954.447-8.069-1.668-2.116-2.116-2.771-5.288-1.667-8.07 2.78-7.007 4.312-16.575 4.312-26.942 0-14.548-4.306-25.106-10.238-25.106s-10.238 10.556-10.238 25.104c0 10.367 1.531 19.936 4.312 26.942 1.104 2.782.449 5.954-1.667 8.07-2.115 2.116-5.289 2.772-8.069 1.668-7.008-2.78-16.577-4.312-26.943-4.312-14.548 0-25.106 4.306-25.106 10.238 0 5.933 10.559 10.238 25.106 10.238 10.366 0 19.936-1.531 26.943-4.312.896-.354 1.835-.527 2.763-.527zm-26.682 19.801c-8.809 9.608-12.225 18.755-8.298 22.682 3.925 3.927 13.073.509 22.681-8.298.145-5.581.69-10.979 1.601-15.984-5.006.91-10.404 1.455-15.984 1.6zm64.781 14.383c9.608 8.809 18.757 12.225 22.682 8.298 3.926-3.926.51-13.073-8.299-22.681-5.58-.145-10.979-.69-15.983-1.601.909 5.006 1.454 10.403 1.6 15.984zm0-79.164c-.146 5.581-.69 10.979-1.601 15.984 5.005-.911 10.403-1.456 15.983-1.601 8.809-9.608 12.225-18.755 8.298-22.682-3.921-3.923-13.072-.509-22.68 8.299zm-64.781 14.383c5.58.145 10.979.69 15.983 1.601-.91-5.006-1.456-10.403-1.601-15.984-9.606-8.808-18.752-12.224-22.682-8.298-3.925 3.926-.509 13.073 8.3 22.681z"/></g></g></svg>