<svg width="68" height="64" viewBox="0 0 68 64" fill="none" xmlns="http://www.w3.org/2000/svg">
    <defs>
        <linearGradient id="paint0_linear" x1="-5.75527e-07" y1="18.4309" x2="64.5" y2="58.4309" gradientUnits="userSpaceOnUse">
            <stop stop-color="#44BAF1"/>
            <stop offset="1" stop-color="#44BAF1" stop-opacity="0"/>
        </linearGradient>
        <linearGradient id="paint1_linear" x1="12.3273" y1="3" x2="64.051" y2="71.5618" gradientUnits="userSpaceOnUse">
            <stop stop-color="#5EC7F3"/>
            <stop offset="1" stop-color="#34AEEF"/>
        </linearGradient>
        <linearGradient id="paint2_linear" x1="0.511098" y1="7.30691e-08" x2="5.40942" y2="6.55919" gradientUnits="userSpaceOnUse">
            <stop stop-color="#5EC7F3"/>
            <stop offset="1" stop-color="#34AEEF"/>
        </linearGradient>
        <linearGradient id="paint3_linear" x1="1.17416" y1="1.68437e-07" x2="12.4766" y2="15.0831" gradientUnits="userSpaceOnUse">
            <stop stop-color="#5EC7F3"/>
            <stop offset="1" stop-color="#34AEEF"/>
        </linearGradient>
        <linearGradient id="paint4_linear" x1="1.19632" y1="1.71024e-07" x2="12.6611" y2="15.3528" gradientUnits="userSpaceOnUse">
            <stop stop-color="#5EC7F3"/>
            <stop offset="1" stop-color="#34AEEF"/>
        </linearGradient>
        <clipPath id="clip0">
            <rect width="44" height="47" fill="white" transform="translate(14 0.430908)"/>
        </clipPath>
    </defs>
    <path opacity="0.3" d="M51.4965 12.7747C60.6462 25.6533 57.7292 43.5868 44.9813 52.8303C32.2334 62.0738 14.4819 59.127 5.33216 46.2484C-3.81753 33.3698 -0.9006 15.4362 11.8473 6.19274C24.5952 -3.05077 42.3468 -0.103925 51.4965 12.7747Z" fill="url(#paint0_linear)"/>
<ellipse cx="35.4122" cy="31.7035" rx="28.4122" ry="28.7035" fill="url(#paint1_linear)"/>
<ellipse opacity="0.8" rx="2.72586" ry="2.72599" transform="matrix(0.705129 -0.709079 0.70185 0.712325 4.72496 13.8634)" fill="url(#paint2_linear)"/>
<ellipse opacity="0.8" rx="1.75706" ry="1.75866" transform="matrix(-0.734677 0.678417 -0.670918 -0.741531 65.5126 41.1882)" fill="#44BAF1"/>
<ellipse opacity="0.3" rx="6.2622" ry="6.28389" transform="matrix(0.258819 -0.965926 0.963398 0.268076 59.3058 42.9907)" fill="url(#paint3_linear)"/>
<circle r="6.38037" transform="matrix(0.703491 0.710704 -0.703491 0.710704 21.9771 54.5)" fill="url(#paint4_linear)"/>
<g clip-path="url(#clip0)">
<path d="M35.7831 14.5871C31.463 14.5871 27.9482 11.1028 27.9482 6.82004C27.9482 3.29713 30.8395 0.430908 34.3931 0.430908C37.3337 0.430908 39.7261 2.80248 39.7261 5.71773C39.7261 8.14663 37.7328 10.1227 35.2827 10.1227C33.225 10.1227 31.551 8.4631 31.551 6.4232C31.551 5.93861 31.9473 5.54575 32.4361 5.54575C32.9249 5.54575 33.3212 5.93861 33.3212 6.4232C33.3212 7.49545 34.2011 8.36775 35.2827 8.36775C36.7567 8.36775 37.9559 7.17898 37.9559 5.71773C37.9559 3.77026 36.3577 2.18581 34.3931 2.18581C31.8156 2.18581 29.7185 4.26479 29.7185 6.82004C29.7185 10.1352 32.4391 12.8322 35.7831 12.8322C36.2719 12.8322 36.6682 13.2251 36.6682 13.7097C36.6682 14.1943 36.2719 14.5871 35.7831 14.5871Z" fill="#CE857A"/>
<path d="M18.8213 34.0326C21.173 34.0326 23.0794 32.1427 23.0794 29.8113C23.0794 27.48 21.173 25.5901 18.8213 25.5901C16.4696 25.5901 14.5632 27.48 14.5632 29.8113C14.5632 32.1427 16.4696 34.0326 18.8213 34.0326Z" fill="#FFC09D"/>
<path d="M53.0757 34.0326C55.4274 34.0326 57.3338 32.1427 57.3338 29.8113C57.3338 27.48 55.4274 25.5901 53.0757 25.5901C50.724 25.5901 48.8176 27.48 48.8176 29.8113C48.8176 32.1427 50.724 34.0326 53.0757 34.0326Z" fill="#FFD6C0"/>
<path d="M40.7498 46.113C47.8717 44.0549 53.0758 37.5361 53.0758 29.8114C53.0758 21.3928 46.8955 14.4053 38.7873 13.0644C37.8639 12.9117 36.9156 12.8323 35.9484 12.8323C26.4895 12.8323 18.8213 20.4341 18.8213 29.8114C18.8213 37.5361 24.0254 44.0549 31.147 46.113C32.6706 46.5532 34.2815 46.7902 35.9483 46.7902C36.9154 46.7902 37.8638 46.7105 38.7871 46.5574C39.4553 46.4469 40.1103 46.2978 40.7498 46.113Z" fill="#FFE9DD"/>
<path d="M24.4989 29.8114C24.4989 21.3929 30.6795 14.4054 38.7873 13.0644C37.8639 12.9117 36.9156 12.8323 35.9484 12.8323C26.4895 12.8323 18.8213 20.4341 18.8213 29.8114C18.8213 37.5361 24.0254 44.0549 31.147 46.113C32.6706 46.5532 34.2815 46.7902 35.9483 46.7902C36.9154 46.7902 37.8638 46.7105 38.7872 46.5574C30.6795 45.2166 24.4989 38.2297 24.4989 29.8114Z" fill="#FFD6C0"/>
<path d="M27.3035 37.2911C29.0652 37.2911 30.4934 36.1636 30.4934 34.7728C30.4934 33.382 29.0652 32.2545 27.3035 32.2545C25.5417 32.2545 24.1135 33.382 24.1135 34.7728C24.1135 36.1636 25.5417 37.2911 27.3035 37.2911Z" fill="#FF8E9E"/>
<path d="M44.594 37.2911C46.3557 37.2911 47.7839 36.1636 47.7839 34.7728C47.7839 33.382 46.3557 32.2545 44.594 32.2545C42.8322 32.2545 41.4041 33.382 41.4041 34.7728C41.4041 36.1636 42.8322 37.2911 44.594 37.2911Z" fill="#FF8E9E"/>
<path d="M31.3898 30.8234C31.0212 30.505 30.4622 30.543 30.141 30.9084C29.6231 31.4977 28.702 31.4982 28.1838 30.9084C27.8626 30.543 27.3035 30.505 26.935 30.8234C26.5664 31.1418 26.5281 31.696 26.8492 32.0614C28.072 33.4523 30.2515 33.4536 31.4756 32.0614C31.7967 31.696 31.7584 31.1418 31.3898 30.8234Z" fill="#313D40"/>
<path d="M44.9623 30.8234C44.5938 30.505 44.0346 30.543 43.7135 30.9084C43.1956 31.4977 42.2745 31.4982 41.7563 30.9084C41.4352 30.543 40.876 30.505 40.5075 30.8234C40.1389 31.1418 40.1006 31.696 40.4217 32.0614C41.6446 33.4522 43.8239 33.4537 45.0481 32.0614C45.3692 31.696 45.3309 31.1418 44.9623 30.8234Z" fill="#313D40"/>
<path d="M43.019 37.4313C42.889 35.7152 41.5048 34.3221 39.7758 34.1693C39.1251 34.1118 38.506 34.2281 37.9603 34.4765C37.3193 34.7684 36.6339 34.9144 35.9485 34.9144C35.2632 34.9144 34.5778 34.7684 33.9367 34.4765C33.391 34.228 32.7719 34.1117 32.1213 34.1693C30.3923 34.3219 29.0081 35.7152 28.878 37.4313C28.7204 39.5111 30.3827 41.2533 32.4479 41.2533C32.9858 41.2533 33.4962 41.1352 33.9543 40.9235C34.5877 40.6309 35.2681 40.4847 35.9485 40.4847C36.6289 40.4847 37.3094 40.6309 37.9428 40.9235C38.4009 41.1351 38.9113 41.2533 39.4492 41.2533C41.5144 41.2533 43.1767 39.5111 43.019 37.4313Z" fill="#55DAFE"/>
<path d="M35.9486 40.4847C37.5002 40.4847 38.7581 39.2378 38.7581 37.6996C38.7581 36.1614 37.5002 34.9144 35.9486 34.9144C34.397 34.9144 33.1392 36.1614 33.1392 37.6996C33.1392 39.2378 34.397 40.4847 35.9486 40.4847Z" fill="#B9F0FF"/>
</g>
</svg>
