<svg width="161" height="160" viewBox="0 0 161 160" fill="none" xmlns="http://www.w3.org/2000/svg">
<path d="M155.249 95.1238C138.525 67.77 140.303 39.7313 132.241 26.548C124.18 13.3647 100.156 -9.3648 43.3915 30.2418C-13.3728 69.8484 1.0648 112.903 9.93519 127.4C51.4483 195.286 184.871 143.568 155.249 95.1238Z" fill="#EEEEEE"/>
<path d="M130.5 83.3335V112.222C130.5 117.111 126.5 121.111 121.611 121.111H39.3889C34.5 121.111 30.5 117.111 30.5 112.222V83.3335H47.2111C49.1667 83.3335 50.9 84.6224 51.4333 86.489L56.2333 102.4C56.7667 104.267 58.5 105.556 60.4556 105.556H100.544C102.5 105.556 104.233 104.267 104.767 102.4L109.567 86.489C110.1 84.6224 111.833 83.3335 113.789 83.3335H130.5Z" fill="#F3F3F1"/>
<path d="M130.5 83.3336H113.789C111.833 83.3336 110.1 84.6225 109.567 86.4892L104.767 102.4C104.233 104.267 102.5 105.556 100.544 105.556H60.4556C58.5 105.556 56.7667 104.267 56.2333 102.4L51.4333 86.4892C50.9 84.6225 49.1667 83.3336 47.2111 83.3336H30.5L50.5 38.8892H110.5L130.5 83.3336Z" fill="#EBEBEB"/>
<path d="M123.807 28.889C120.131 28.889 117.14 25.8979 117.14 22.2223C117.14 18.5468 120.131 15.5557 123.807 15.5557C127.482 15.5557 130.473 18.5468 130.473 22.2223C130.473 25.8979 127.482 28.889 123.807 28.889ZM123.807 20.0001C122.58 20.0001 121.584 21.0001 121.584 22.2223C121.584 23.4446 122.58 24.4446 123.807 24.4446C125.033 24.4446 126.029 23.4446 126.029 22.2223C126.029 21.0001 125.033 20.0001 123.807 20.0001Z" fill="#E0E0E0"/>
<path d="M31.8025 21.4204L34.9452 18.2777L41.2306 24.5631L38.0879 27.7058L31.8025 21.4204Z" fill="#E0E0E0"/>
<path d="M31.0105 42.6357L37.2959 36.3503L40.4386 39.493L34.1532 45.7784L31.0105 42.6357Z" fill="#E0E0E0"/>
<path d="M49.0847 24.5649L55.3701 18.2795L58.5128 21.4222L52.2274 27.7076L49.0847 24.5649Z" fill="#E0E0E0"/>
<path d="M121.611 124.445H39.389C32.6467 124.445 27.1667 118.965 27.1667 112.222V83.3334C27.1667 82.8623 27.2645 82.3957 27.4601 81.9646L47.4601 37.5201C47.9979 36.3246 49.189 35.5557 50.5001 35.5557H110.5C111.811 35.5557 113.002 36.3246 113.54 37.5201L133.54 81.9646C133.736 82.3957 133.833 82.8623 133.833 83.3334V112.222C133.833 118.965 128.353 124.445 121.611 124.445ZM33.8334 84.049V112.222C33.8334 115.285 36.3267 117.778 39.389 117.778H121.611C124.673 117.778 127.167 115.285 127.167 112.222V84.049L108.345 42.2223H52.6556L33.8334 84.049Z" fill="#E0E0E0"/>
<path d="M100.527 108.889H60.4733C57.0156 108.889 54.02 106.662 53.0244 103.347L48.2556 87.4622C48.1133 86.9956 47.6778 86.6667 47.1933 86.6667H30.5V80H47.1933C50.6511 80 53.6467 82.2267 54.6422 85.5422L59.4111 101.427C59.5533 101.898 59.9889 102.222 60.4733 102.222H100.527C101.011 102.222 101.451 101.898 101.589 101.427L106.358 85.5422C107.353 82.2267 110.344 80 113.807 80H130.5V86.6667H113.807C113.322 86.6667 112.882 86.9911 112.744 87.4622L107.976 103.347C106.98 106.662 103.984 108.889 100.527 108.889Z" fill="#E0E0E0"/>
<path d="M9.38892 117.778H151.611V124.444H9.38892V117.778Z" fill="#E0E0E0"/>
</svg>
