<svg width="18" height="18" viewBox="0 0 18 18" fill="none" xmlns="http://www.w3.org/2000/svg">
<path fill-rule="evenodd" clip-rule="evenodd" d="M5.14771 17.8889H12.8514C15.865 17.8889 17.8889 15.775 17.8889 12.6296V5.37039C17.8889 2.22496 15.865 0.111084 12.8523 0.111084H5.14771C2.13501 0.111084 0.111099 2.22496 0.111099 5.37039V12.6296C0.111099 15.775 2.13501 17.8889 5.14771 17.8889ZM5.88786 8.11108C4.6624 8.11108 3.66665 7.11399 3.66665 5.88886C3.66665 4.66373 4.6624 3.66664 5.88786 3.66664C7.11243 3.66664 8.10907 4.66373 8.10907 5.88886C8.10907 7.11399 7.11243 8.11108 5.88786 8.11108ZM15.9518 11.6079C16.2495 12.3711 16.0948 13.2885 15.7766 14.0443C15.3994 14.9433 14.6772 15.624 13.7673 15.9212C13.3632 16.0533 12.9396 16.1111 12.5168 16.1111H5.02545C4.27998 16.1111 3.62032 15.9322 3.07955 15.5992C2.74078 15.3901 2.68089 14.9075 2.93206 14.5947C3.35217 14.0719 3.76691 13.5472 4.18524 13.0179C4.98255 12.0051 5.51975 11.7116 6.11684 11.9694C6.35907 12.0758 6.60219 12.2354 6.85247 12.4042C7.51928 12.8573 8.4462 13.4802 9.66719 12.8041C10.5027 12.3361 10.9874 11.5334 11.4094 10.8344L11.4164 10.8227C11.4464 10.7737 11.476 10.7246 11.5055 10.6757L11.5056 10.6757C11.6474 10.441 11.7873 10.2095 11.9456 9.99619C12.144 9.72924 12.8797 8.89448 13.8325 9.4889C14.4394 9.86317 14.9498 10.3695 15.496 10.9117C15.7042 11.119 15.8526 11.3547 15.9518 11.6079Z" fill="white"/>
</svg>
