<svg width="16" height="16" viewBox="0 0 16 16" fill="none" xmlns="http://www.w3.org/2000/svg">
<path fill-rule="evenodd" clip-rule="evenodd" d="M14.14 5.26665V10.7C14.14 12.7133 12.88 14.1333 10.8667 14.1333H5.10004C3.08671 14.1333 1.83337 12.7133 1.83337 10.7V5.26665C1.83337 3.25332 3.09337 1.83398 5.10004 1.83398H10.8667C12.88 1.83398 14.14 3.25332 14.14 5.26665Z" stroke="#616161" stroke-linecap="round" stroke-linejoin="round"/>
<path d="M3.52087 10.9549L4.54021 9.87953C4.90754 9.49153 5.52421 9.48953 5.89487 9.8742L6.48487 10.4762C6.88287 10.8822 7.54487 10.8529 7.90554 10.4135L9.39154 8.6062C9.81821 8.08686 10.6009 8.05486 11.0682 8.53686L12.4522 9.96486" stroke="#616161" stroke-linecap="round" stroke-linejoin="round"/>
<path fill-rule="evenodd" clip-rule="evenodd" d="M6.87572 6.0895C6.87572 6.73483 6.35172 7.25883 5.70639 7.25883C5.06105 7.25883 4.53772 6.73483 4.53772 6.0895C4.53772 5.44417 5.06105 4.92017 5.70639 4.92017C6.35172 4.92017 6.87572 5.44417 6.87572 6.0895Z" stroke="#616161" stroke-linecap="round" stroke-linejoin="round"/>
</svg>
