<svg width="20" height="21" viewBox="0 0 20 21" fill="none" xmlns="http://www.w3.org/2000/svg">
<path d="M15 9.46669H14C13.7348 9.46669 13.4804 9.5861 13.2929 9.79864C13.1054 10.0112 13 10.2994 13 10.6C13 10.9006 13.1054 11.1889 13.2929 11.4014C13.4804 11.614 13.7348 11.7334 14 11.7334H15C15.2652 11.7334 15.5196 11.614 15.7071 11.4014C15.8946 11.1889 16 10.9006 16 10.6C16 10.2994 15.8946 10.0112 15.7071 9.79864C15.5196 9.5861 15.2652 9.46669 15 9.46669ZM15 14H14C13.7348 14 13.4804 14.1194 13.2929 14.332C13.1054 14.5445 13 14.8328 13 15.1334C13 15.4339 13.1054 15.7222 13.2929 15.9347C13.4804 16.1473 13.7348 16.2667 14 16.2667H15C15.2652 16.2667 15.5196 16.1473 15.7071 15.9347C15.8946 15.7222 16 15.4339 16 15.1334C16 14.8328 15.8946 14.5445 15.7071 14.332C15.5196 14.1194 15.2652 14 15 14ZM9 7.20003H15C15.2652 7.20003 15.5196 7.08062 15.7071 6.86808C15.8946 6.65554 16 6.36727 16 6.06669C16 5.76611 15.8946 5.47785 15.7071 5.2653C15.5196 5.05276 15.2652 4.93336 15 4.93336H9C8.73478 4.93336 8.48043 5.05276 8.29289 5.2653C8.10536 5.47785 8 5.76611 8 6.06669C8 6.36727 8.10536 6.65554 8.29289 6.86808C8.48043 7.08062 8.73478 7.20003 9 7.20003ZM19 0.400024H5C4.73478 0.400024 4.48043 0.519429 4.29289 0.73197C4.10536 0.944511 4 1.23278 4 1.53336V4.93336H1C0.734784 4.93336 0.48043 5.05276 0.292893 5.2653C0.105357 5.47785 0 5.76611 0 6.06669V17.4C0 18.3018 0.316071 19.1666 0.87868 19.8042C1.44129 20.4418 2.20435 20.8 3 20.8H16C17.0609 20.8 18.0783 20.3224 18.8284 19.4722C19.5786 18.6221 20 17.469 20 16.2667V1.53336C20 1.23278 19.8946 0.944511 19.7071 0.73197C19.5196 0.519429 19.2652 0.400024 19 0.400024ZM4 17.4C4 17.7006 3.89464 17.9889 3.70711 18.2014C3.51957 18.414 3.26522 18.5334 3 18.5334C2.73478 18.5334 2.48043 18.414 2.29289 18.2014C2.10536 17.9889 2 17.7006 2 17.4V7.20003H4V17.4ZM18 16.2667C18 16.8678 17.7893 17.4444 17.4142 17.8695C17.0391 18.2945 16.5304 18.5334 16 18.5334H5.82C5.93642 18.1699 5.9973 17.7867 6 17.4V2.66669H18V16.2667ZM9 11.7334H10C10.2652 11.7334 10.5196 11.614 10.7071 11.4014C10.8946 11.1889 11 10.9006 11 10.6C11 10.2994 10.8946 10.0112 10.7071 9.79864C10.5196 9.5861 10.2652 9.46669 10 9.46669H9C8.73478 9.46669 8.48043 9.5861 8.29289 9.79864C8.10536 10.0112 8 10.2994 8 10.6C8 10.9006 8.10536 11.1889 8.29289 11.4014C8.48043 11.614 8.73478 11.7334 9 11.7334ZM9 16.2667H10C10.2652 16.2667 10.5196 16.1473 10.7071 15.9347C10.8946 15.7222 11 15.4339 11 15.1334C11 14.8328 10.8946 14.5445 10.7071 14.332C10.5196 14.1194 10.2652 14 10 14H9C8.73478 14 8.48043 14.1194 8.29289 14.332C8.10536 14.5445 8 14.8328 8 15.1334C8 15.4339 8.10536 15.7222 8.29289 15.9347C8.48043 16.1473 8.73478 16.2667 9 16.2667Z" fill="#BDBDBD"/>
</svg>
