<svg width="26" height="26" viewBox="0 0 26 26" fill="none" xmlns="http://www.w3.org/2000/svg">
<circle cx="13" cy="13" r="12" fill="#FB678B" stroke="white" stroke-width="2"/>
<path fill-rule="evenodd" clip-rule="evenodd" d="M11.6882 17.014L16.0814 11.3327C16.3202 11.0264 16.405 10.6721 16.3255 10.3115C16.2565 9.98363 16.0549 9.67189 15.7524 9.43539L15.0149 8.84953C14.3729 8.33892 13.5771 8.39267 13.1208 8.97853L12.6273 9.61867C12.5637 9.69876 12.5796 9.81701 12.6592 9.88151C12.6592 9.88151 13.906 10.8812 13.9325 10.9027C14.0174 10.9834 14.0811 11.0909 14.097 11.2198C14.1236 11.4725 13.9485 11.709 13.6885 11.7412C13.5664 11.7573 13.4497 11.7197 13.3648 11.6498L12.0543 10.6071C11.9906 10.5593 11.8951 10.5695 11.8421 10.634L8.72757 14.6651C8.52595 14.9178 8.45697 15.2456 8.52595 15.5627L8.92388 17.2881C8.94511 17.3794 9.02469 17.4439 9.1202 17.4439L10.8711 17.4224C11.1895 17.4171 11.4866 17.2719 11.6882 17.014ZM14.1398 16.4766H16.9949C17.2734 16.4766 17.5 16.7061 17.5 16.9883C17.5 17.271 17.2734 17.5 16.9949 17.5H14.1398C13.8613 17.5 13.6347 17.271 13.6347 16.9883C13.6347 16.7061 13.8613 16.4766 14.1398 16.4766Z" fill="white"/>
</svg>
