<svg width="18" height="24" viewBox="0 0 18 24" fill="none" xmlns="http://www.w3.org/2000/svg">
<path d="M16 2.9988H15V1.96554C15 0.716926 13.8223 -0.259199 12.5532 0.0616134L1.89286 3.00958C0.840469 3.06663 0 3.9325 0 4.99891V21.9999C0 23.103 0.896953 24 2.00002 24H16C17.103 24 18 23.103 18 21.9999V4.99891C18 3.89585 17.103 2.9988 16 2.9988ZM12.8599 14.0015C12.4024 15.7671 10.815 17 9 17C6.79444 17 5.00002 15.2056 5.00002 13.0001C5.00002 11.1851 6.23292 9.59772 7.99856 9.14018C8.16895 9.09574 8.35209 9.14557 8.47758 9.27053C8.60306 9.39602 8.65238 9.57864 8.60794 9.75002C8.5342 10.0327 8.50003 10.271 8.50003 10.5C8.50003 12.1543 9.84572 13.5 11.5 13.5C11.729 13.5 11.9673 13.4658 12.25 13.3921C12.4219 13.3487 12.604 13.3965 12.7295 13.5225C12.855 13.6475 12.9043 13.8301 12.8599 14.0015ZM14 3.00002H5.68397L12.81 1.0293C13.3926 0.877942 14 1.35255 14 1.9668V3.00002H14Z" fill="#4066EA"/>
</svg>
