<svg width="24" height="24" viewBox="0 0 24 24" fill="none" xmlns="http://www.w3.org/2000/svg">
<path d="M21.9673 8.6124C21.351 7.34829 20.2923 6.64051 19.2681 5.95522C18.5049 5.44388 17.7851 4.96103 17.2753 4.26974L17.1808 4.14228C16.8809 3.7389 16.539 3.28154 16.4865 2.89766C16.434 2.50928 16.1281 2.23936 15.6932 2.25136C15.3004 2.27835 14.996 2.60525 14.996 2.99963V16.3605C14.3676 15.9796 13.5939 15.7457 12.7466 15.7457C10.6803 15.7457 8.9978 17.0908 8.9978 18.7448C8.9978 20.3988 10.6803 21.7439 12.7466 21.7439C14.8145 21.7439 16.4955 20.3988 16.4955 18.7448V10.0055C17.6216 10.4358 19.4646 11.532 19.9714 14.0917C19.8769 14.2312 19.787 14.3826 19.682 14.5011C19.4076 14.8115 19.4391 15.2853 19.7495 15.5583C20.0584 15.8342 20.5322 15.8012 20.8067 15.4908C21.7454 14.4246 22.3917 12.7361 22.4921 11.0851C22.5416 10.2709 22.3602 9.41615 21.9673 8.6124Z" fill="#17D0BC"/>
<path d="M2.24977 3.74954H11.247C11.6609 3.74954 11.9968 3.41364 11.9968 2.99977C11.9968 2.5859 11.6609 2.25 11.247 2.25H2.24977C1.8359 2.25 1.5 2.5859 1.5 2.99977C1.5 3.41364 1.8359 3.74954 2.24977 3.74954Z" fill="#17D0BC"/>
<path d="M2.24977 8.24807H11.247C11.6609 8.24807 11.9968 7.91218 11.9968 7.4983C11.9968 7.08443 11.6609 6.74854 11.247 6.74854H2.24977C1.8359 6.74854 1.5 7.08443 1.5 7.4983C1.5 7.91218 1.8359 8.24807 2.24977 8.24807Z" fill="#17D0BC"/>
<path d="M6.74839 11.2471H2.24977C1.8359 11.2471 1.5 11.583 1.5 11.9968C1.5 12.4107 1.8359 12.7466 2.24977 12.7466H6.74839C7.16226 12.7466 7.49816 12.4107 7.49816 11.9968C7.49816 11.583 7.16226 11.2471 6.74839 11.2471Z" fill="#17D0BC"/>
<path d="M6.74839 15.7456H2.24977C1.8359 15.7456 1.5 16.0815 1.5 16.4954C1.5 16.9092 1.8359 17.2451 2.24977 17.2451H6.74839C7.16226 17.2451 7.49816 16.9092 7.49816 16.4954C7.49816 16.0815 7.16226 15.7456 6.74839 15.7456Z" fill="#17D0BC"/>
</svg>
