<svg width="24" height="24" viewBox="0 0 24 24" fill="none" xmlns="http://www.w3.org/2000/svg">
<path d="M2.30941 1.40625C1.03596 1.40625 0 2.44221 0 3.71566V5.22189C0 5.66341 0.360704 6.02502 0.80313 6.02502C1.24594 6.02502 1.60626 5.66474 1.60626 5.22189V3.71566C1.60626 3.32735 1.92105 3.01251 2.30941 3.01251C2.69776 3.01251 3.01256 3.3273 3.01256 3.71566V5.22189C3.01256 6.44013 2.02141 7.43127 0.803178 7.43127H4.61872V3.71566C4.61872 2.44221 3.58276 1.40625 2.30941 1.40625Z" fill="#FF7B1C"/>
<path d="M20.3843 16.5688H16.5686V14.1094H14.2592C13.934 14.1094 13.6258 14.0353 13.3504 13.9032L12.4971 14.7565C12.2225 15.0311 11.7772 15.0311 11.5027 14.7565C11.2281 14.482 11.2281 14.0368 11.5027 13.7622L12.356 12.9089C12.224 12.6335 12.1498 12.3252 12.1498 12V8.98749C12.1498 8.97075 12.1507 8.95415 12.1511 8.93745H8.3343C7.94599 8.93745 7.63115 8.62266 7.63115 8.2343C7.63115 7.84595 7.94594 7.53116 8.3343 7.53116H12.7342C12.7454 7.51939 12.7563 7.50739 12.7678 7.49587L16.5682 3.6955C16.5573 1.65274 14.8984 0 12.853 0H2.30933C4.35816 0 6.02498 1.66683 6.02498 3.71566V20.2844C6.02498 21.5578 7.06095 22.5938 8.33439 22.5938C9.61092 22.5938 10.6438 21.5621 10.6438 20.2844V18.7782C10.6438 18.3367 10.2831 17.975 9.84062 17.975C9.3991 17.975 9.03749 18.3357 9.03749 18.7782V20.2844C9.03749 20.6727 8.7227 20.9875 8.33434 20.9875C7.94599 20.9875 7.6312 20.6727 7.6312 20.2844V18.7782C7.6312 17.5612 8.62286 16.5688 9.84058 16.5688C11.0575 16.5688 12.05 17.5604 12.05 18.7782V20.2844C12.05 22.3373 10.3901 24 8.33434 24H18.8781C20.9268 24 22.5937 22.3332 22.5937 20.2844V18.7782C22.5937 17.5604 21.6013 16.5688 20.3843 16.5688ZM8.3343 4.51874H12.853C13.2413 4.51874 13.5561 4.83353 13.5561 5.22189C13.5561 5.61024 13.2413 5.92504 12.853 5.92504H8.3343C7.94599 5.92504 7.63115 5.61024 7.63115 5.22189C7.63115 4.83353 7.94599 4.51874 8.3343 4.51874ZM9.84053 11.95H8.3343C7.94599 11.95 7.63115 11.6352 7.63115 11.2468C7.63115 10.8585 7.94594 10.5437 8.3343 10.5437H9.84053C10.2288 10.5437 10.5436 10.8585 10.5436 11.2468C10.5436 11.6352 10.2288 11.95 9.84053 11.95Z" fill="#FF7B1C"/>
<path d="M23.2968 2.25928H20.2843C20.0978 2.25928 19.919 2.33341 19.7871 2.46527L13.7621 8.49024C13.6303 8.62209 13.5562 8.8009 13.5562 8.9874V11.9999C13.5562 12.3882 13.8709 12.703 14.2593 12.703H17.2718C17.4583 12.703 17.6371 12.6289 17.769 12.497L23.7939 6.47205C23.9258 6.34019 23.9999 6.16138 23.9999 5.97489V2.96243C23.9999 2.57407 23.6851 2.25928 23.2968 2.25928Z" fill="#FF7B1C"/>
</svg>
