<svg width="20" height="20" viewBox="0 0 20 20" fill="none" xmlns="http://www.w3.org/2000/svg">
    <defs>
        <clipPath id="clip0">
            <rect width="20" height="20" fill="white"/>
        </clipPath>
    </defs>
    <g clip-path="url(#clip0)">
<path d="M1.06323 9.56085V16.4679C1.06323 17.5191 1.91528 18.3713 2.96661 18.3713H16.9553C18.0064 18.3713 18.8586 17.5191 18.8586 16.4679V9.56085C18.8586 7.40417 17.9219 5.40192 16.221 3.92319C14.5567 2.4765 12.3335 1.67969 9.96094 1.67969C7.58835 1.67969 5.36514 2.4765 3.70087 3.92334C1.99997 5.40192 1.06323 7.40417 1.06323 9.56085Z" fill="#495059"/>
<path d="M16.9553 10.0255H2.96661V16.6663C2.96661 17.6079 3.72986 18.3713 4.67148 18.3713H15.2504C16.192 18.3713 16.9554 17.6079 16.9554 16.6663V10.0255H16.9553Z" fill="#41464F"/>
<path d="M4.91959 10.7611C4.91959 12.1303 3.80951 13.2404 2.44034 13.2404C1.07101 13.2404 -0.0390625 12.1303 -0.0390625 10.7611C-0.0390625 9.39181 1.07101 8.28174 2.44034 8.28174C3.80951 8.28174 4.91959 9.39181 4.91959 10.7611Z" fill="#EDC2BB"/>
<path d="M19.9609 10.7611C19.9609 12.1303 18.8509 13.2404 17.4815 13.2404C16.1124 13.2404 15.0023 12.1303 15.0023 10.7611C15.0023 9.39181 16.1124 8.28174 17.4815 8.28174C18.8509 8.28174 19.9609 9.39181 19.9609 10.7611Z" fill="#EDC2BB"/>
<path d="M18.2391 9.56085C18.2391 5.45624 14.5328 2.29919 9.96094 2.29919C5.3891 2.29919 1.68274 5.45624 1.68274 9.56085C1.68274 13.6655 5.3891 16.993 9.96094 16.993C14.5328 16.993 18.2391 13.6655 18.2391 9.56085Z" fill="#F6D0CA"/>
<path d="M9.96094 2.29919C5.3891 2.29919 1.68274 5.45624 1.68274 9.56085C1.68274 9.65408 1.68533 9.7467 1.68915 9.83917C1.69785 9.8378 1.70654 9.83719 1.71509 9.83566C3.30627 9.54697 4.90387 8.7883 6.21353 7.69943C6.92184 7.1106 7.47574 6.48361 7.82471 5.89249C8.55362 6.58737 9.57916 7.18536 10.8504 7.6503C12.5671 8.27835 14.576 8.61038 16.6597 8.61038H16.6602C17.1605 8.61038 17.6649 8.58963 18.1621 8.55042C17.6112 4.94949 14.1498 2.29919 9.96094 2.29919Z" fill="#EDC2BB"/>
<path d="M16.221 3.92334C14.5567 2.4765 12.3335 1.67969 9.96092 1.67969C7.58834 1.67969 5.36513 2.4765 3.70086 3.92334C2.21221 5.21759 1.3092 6.91284 1.10717 8.76175C1.07635 9.04343 1.32568 9.27658 1.60445 9.22607C4.91774 8.62503 7.51998 5.9993 7.62129 4.68597C9.00481 6.87836 13.5312 8.32336 18.2237 7.92465C18.4593 7.90466 18.6134 7.67059 18.5444 7.44431C18.1387 6.11252 17.3478 4.90295 16.221 3.92334Z" fill="#495059"/>
<path d="M16.75 9.00723H16.2094C15.9657 9.00723 15.7681 8.80962 15.7681 8.56594V6.88428C15.7681 6.64059 15.9657 6.44299 16.2094 6.44299H16.75C16.9937 6.44299 17.1913 6.64059 17.1913 6.88428V8.56594C17.1913 8.80962 16.9937 9.00723 16.75 9.00723Z" fill="#7BD0A7"/>
<path d="M7.50595 10.9559C7.50595 10.3245 6.8634 9.81274 6.07056 9.81274C5.27771 9.81274 4.63501 10.3245 4.63501 10.9559C4.63501 11.5872 5.27771 12.099 6.07056 12.099C6.8634 12.099 7.50595 11.5872 7.50595 10.9559Z" fill="#EB8D9A"/>
<path d="M15.2869 10.9559C15.2869 10.3245 14.6442 9.81274 13.8513 9.81274C13.0585 9.81274 12.4159 10.3245 12.4159 10.9559C12.4159 11.5872 13.0585 12.099 13.8513 12.099C14.6442 12.099 15.2869 11.5872 15.2869 10.9559Z" fill="#EB8D9A"/>
<path d="M7.59034 10.0049C7.42859 10.0049 7.29737 9.87383 7.29737 9.71194C7.29737 9.49679 7.12235 9.32177 6.9072 9.32177C6.6919 9.32177 6.51688 9.49679 6.51688 9.71194C6.51688 9.87383 6.38565 10.0049 6.22391 10.0049C6.06216 10.0049 5.93094 9.87383 5.93094 9.71194C5.93094 9.17376 6.36887 8.73584 6.9072 8.73584C7.44538 8.73584 7.88331 9.17376 7.88331 9.71194C7.88331 9.87383 7.75223 10.0049 7.59034 10.0049Z" fill="#495059"/>
<path d="M13.698 10.0049C13.5362 10.0049 13.405 9.87383 13.405 9.71194C13.405 9.49679 13.23 9.32177 13.0147 9.32177C12.7995 9.32177 12.6245 9.49679 12.6245 9.71194C12.6245 9.87383 12.4933 10.0049 12.3315 10.0049C12.1696 10.0049 12.0386 9.87383 12.0386 9.71194C12.0386 9.17376 12.4765 8.73584 13.0147 8.73584C13.553 8.73584 13.9909 9.17376 13.9909 9.71194C13.9909 9.87383 13.8597 10.0049 13.698 10.0049Z" fill="#495059"/>
<path d="M9.96095 11.9108C9.59855 11.9108 9.25386 11.7538 9.01537 11.4801C8.90901 11.3582 8.92168 11.1731 9.04375 11.0667C9.16566 10.9604 9.35075 10.9732 9.4571 11.0951C9.58436 11.2411 9.76792 11.3248 9.96095 11.3248C10.154 11.3248 10.3377 11.2411 10.4648 11.0951C10.5711 10.9732 10.7562 10.9604 10.8781 11.0667C11.0002 11.1731 11.0129 11.3582 10.9065 11.4801C10.668 11.7538 10.3233 11.9108 9.96095 11.9108Z" fill="#495059"/>
<path d="M14.1329 6.44746C14.1204 6.44746 14.1077 6.4467 14.0952 6.44502C12.7916 6.27763 11.7935 5.83833 11.1858 5.49943C10.4755 5.10316 9.92219 4.6367 9.70552 4.25141C9.62632 4.11042 9.67637 3.93174 9.81736 3.8524C9.95836 3.7732 10.137 3.82325 10.2162 3.96424C10.5011 4.47099 11.9988 5.58503 14.1698 5.86396C14.3302 5.88456 14.4437 6.03135 14.4229 6.19188C14.404 6.33973 14.278 6.44746 14.1329 6.44746Z" fill="#41464F"/>
<path d="M16.4798 8.48395C16.3179 8.48395 16.1868 8.35287 16.1868 8.19098V7.25928C16.1868 7.09753 16.3179 6.96631 16.4798 6.96631C16.6415 6.96631 16.7728 7.09753 16.7728 7.25928V8.19098C16.7728 8.35287 16.6415 8.48395 16.4798 8.48395Z" fill="#68BF97"/>
</g>
</svg>
