<svg width="20" height="20" viewBox="0 0 20 20" fill="none" xmlns="http://www.w3.org/2000/svg">
    <defs>
        <clipPath id="clip0">
            <rect width="20" height="20" fill="white"/>
        </clipPath>
    </defs>
    <g clip-path="url(#clip0)">
<path d="M4.91959 11.4305C4.91959 12.7999 3.80951 13.9099 2.44034 13.9099C1.07101 13.9099 -0.0390625 12.7999 -0.0390625 11.4305C-0.0390625 10.0612 1.07101 8.95129 2.44034 8.95129C3.80951 8.95129 4.91959 10.0612 4.91959 11.4305Z" fill="#EDC2BB"/>
<path d="M19.961 11.4305C19.961 12.7999 18.8509 13.9099 17.4816 13.9099C16.1124 13.9099 15.0023 12.7999 15.0023 11.4305C15.0023 10.0612 16.1124 8.95129 17.4816 8.95129C18.8509 8.95129 19.961 10.0612 19.961 11.4305Z" fill="#EDC2BB"/>
<path d="M18.2391 10.2304C18.2391 6.12579 14.5328 2.96875 9.96094 2.96875C5.3891 2.96875 1.68274 6.12579 1.68274 10.2304C1.68274 14.335 5.3891 17.6624 9.96094 17.6624C14.5328 17.6624 18.2391 14.335 18.2391 10.2304Z" fill="#F6D0CA"/>
<path d="M16.1988 4.61808C14.5408 3.17673 12.3254 2.38281 9.9609 2.38281C7.59639 2.38281 5.38097 3.17673 3.72295 4.61823C2.178 5.96131 1.26659 7.73789 1.11858 9.66935C1.09813 9.93593 1.35433 10.138 1.61052 10.0618C3.10314 9.61839 5.34938 8.59056 6.11354 6.65101H13.8084C14.5724 8.59056 16.8188 9.61854 18.3113 10.0618C18.5676 10.138 18.8237 9.93593 18.8032 9.66935C18.6552 7.73789 17.7438 5.96131 16.1988 4.61808Z" fill="#495059"/>
<path d="M7.5059 11.6253C7.5059 10.9941 6.86335 10.4823 6.0705 10.4823C5.27765 10.4823 4.63495 10.9941 4.63495 11.6253C4.63495 12.2567 5.27765 12.7685 6.0705 12.7685C6.86335 12.7685 7.5059 12.2567 7.5059 11.6253Z" fill="#EB8D9A"/>
<path d="M15.2868 11.6253C15.2868 10.9941 14.6441 10.4823 13.8513 10.4823C13.0584 10.4823 12.4159 10.9941 12.4159 11.6253C12.4159 12.2567 13.0584 12.7685 13.8513 12.7685C14.6441 12.7685 15.2868 12.2567 15.2868 11.6253Z" fill="#EB8D9A"/>
<path d="M7.59037 10.6745C7.42862 10.6745 7.2974 10.5433 7.2974 10.3815C7.2974 10.1664 7.12238 9.99122 6.90723 9.99122C6.69193 9.99122 6.51691 10.1664 6.51691 10.3815C6.51691 10.5433 6.38583 10.6745 6.22394 10.6745C6.06204 10.6745 5.93097 10.5433 5.93097 10.3815C5.93097 9.8432 6.3689 9.40527 6.90723 9.40527C7.44541 9.40527 7.88334 9.8432 7.88334 10.3815C7.88334 10.5433 7.75226 10.6745 7.59037 10.6745Z" fill="#495059"/>
<path d="M13.698 10.6745C13.5361 10.6745 13.405 10.5433 13.405 10.3815C13.405 10.1664 13.2298 9.99122 13.0147 9.99122C12.7995 9.99122 12.6245 10.1664 12.6245 10.3815C12.6245 10.5433 12.4933 10.6745 12.3315 10.6745C12.1696 10.6745 12.0386 10.5433 12.0386 10.3815C12.0386 9.8432 12.4765 9.40527 13.0147 9.40527C13.553 9.40527 13.9909 9.8432 13.9909 10.3815C13.9909 10.5433 13.8597 10.6745 13.698 10.6745Z" fill="#495059"/>
<path d="M9.96093 13.3652C9.42428 13.3652 8.98926 12.9302 8.98926 12.3936V11.6871C8.98926 11.5406 9.10797 11.4219 9.25445 11.4219H10.6674C10.8139 11.4219 10.9328 11.5406 10.9328 11.6871V12.3936C10.9326 12.9302 10.4976 13.3652 9.96093 13.3652Z" fill="#495059"/>
<path d="M6.11359 6.65091C7.37656 8.52896 15.9605 9.80643 18.8205 5.2915C19.0631 4.90866 18.8028 4.4068 18.3507 4.37445C16.9598 4.27512 15.3902 3.47922 12.8276 2.7915L6.11359 6.65091Z" fill="#495059"/>
<path d="M12.1576 7.05811C11.3361 7.05811 10.6021 6.91467 10.0737 6.65726C9.92813 6.5863 9.8677 6.41098 9.93866 6.26557C10.0095 6.12015 10.1849 6.05972 10.3304 6.13052C11.4726 6.68732 13.8429 6.61392 15.6802 5.52506C15.8195 5.44266 15.9991 5.48859 16.0817 5.62775C16.1641 5.76706 16.1182 5.94666 15.979 6.02921C14.7685 6.74652 13.3682 7.05811 12.1576 7.05811Z" fill="#41464F"/>
<path d="M11.6145 5.19732C10.7008 5.19732 9.67117 4.94112 8.87435 4.50183C8.73275 4.4237 8.68117 4.24548 8.7593 4.10388C8.83758 3.96213 9.0158 3.91055 9.1574 3.98883C9.79522 4.34054 10.9296 4.70904 12.0262 4.59002C12.1874 4.57247 12.3317 4.6889 12.3491 4.84972C12.3666 5.01055 12.2504 5.15505 12.0895 5.1726C11.9362 5.18923 11.777 5.19732 11.6145 5.19732Z" fill="#41464F"/>
<path d="M15.3846 4.1482C15.1533 4.1482 14.9374 4.12043 14.7529 4.0623C14.5987 4.01347 14.5131 3.84898 14.5617 3.69471C14.6106 3.54045 14.7751 3.45469 14.9295 3.50352C15.4464 3.66679 16.3797 3.48567 16.967 3.10817C17.1031 3.02058 17.2844 3.05995 17.3719 3.19606C17.4594 3.33216 17.42 3.51344 17.2839 3.60102C16.746 3.94679 16.0089 4.1482 15.3846 4.1482Z" fill="#495059"/>
</g>
</svg>
