<svg width="134" height="130" viewBox="0 0 134 130" fill="none" xmlns="http://www.w3.org/2000/svg">
<g clip-path="url(#clip0)">
<path opacity="0.1" d="M35.291 20.0933C39.1226 19.069 39.4625 18.1999 39.2462 17.2376C38.999 16.2133 38.2265 15.5305 33.3134 16.6479C32.9735 16.71 32.6336 16.8031 32.2937 16.8962C32.6027 16.71 32.9117 16.5548 33.1898 16.3685C37.5467 13.8543 37.6394 12.7989 37.145 11.8988C36.6815 11.0918 35.8781 10.6882 32.7572 12.3023C35.1674 9.72601 34.982 8.82585 34.3331 8.17402C33.6842 7.49114 32.7572 7.27386 29.9144 9.85017C31.7993 6.49787 31.3976 5.65979 30.5942 5.16316C29.7908 4.66652 28.8329 4.69756 26.639 8.01882C27.7205 4.16988 27.1025 3.42493 26.1755 3.14557C25.1866 2.83517 24.1669 3.17661 22.7146 7.98778C22.6219 8.29818 22.5292 8.63961 22.4056 9.01209C22.4056 8.63961 22.4056 8.29818 22.4056 7.95674C22.4365 2.92829 21.5713 2.3075 20.5207 2.3075C19.5937 2.3075 18.8212 2.77309 18.6667 6.31163C17.647 2.92829 16.8127 2.64893 15.9166 2.86621C14.9896 3.08349 14.3716 3.76637 15.1441 7.55322C13.1974 4.23196 12.2704 4.16988 11.4361 4.60444C10.6018 5.07004 10.1383 5.90811 11.9305 9.47769C9.14947 6.65307 8.19156 6.80827 7.48086 7.4601C6.70835 8.17402 6.52295 9.19833 9.92197 12.9231C10.1383 13.1714 10.3855 13.4197 10.6327 13.6991C10.3237 13.5129 10.0147 13.3266 9.73657 13.1714C5.37964 10.6572 4.42174 11.0607 3.89644 11.9919C3.43293 12.7989 3.46383 13.6991 6.43025 15.6236C3.03123 14.7855 2.35143 15.3753 2.10423 16.2754C1.85703 17.1756 2.10423 18.0757 5.75045 19.2863C1.91883 19.3173 1.39352 20.0623 1.36262 21.0245C1.33172 21.9867 1.82613 22.7938 5.81225 23.0421C1.98063 24.0664 1.64073 24.9355 1.85703 25.8977C2.10423 26.9221 2.87673 27.6049 7.78986 26.4875C8.12976 26.4254 8.46966 26.3323 8.80956 26.2392C8.50056 26.4254 8.19156 26.5806 7.91346 26.7669C3.52564 29.2811 3.43293 30.3364 3.95824 31.2366C4.42174 32.0436 5.22514 32.4471 8.34606 30.8331C5.93585 33.4094 6.12125 34.3095 6.77015 34.9614C7.41906 35.6442 8.34606 35.8615 11.1889 33.2852C9.30397 36.6375 9.70567 37.4756 10.5091 37.9722C11.3125 38.4689 12.2704 38.4378 14.4643 35.1166C13.4137 38.9655 14.0008 39.7105 14.9278 39.9898C15.9166 40.3002 16.9363 39.9588 18.3886 35.1476C18.4813 34.8372 18.574 34.4958 18.6976 34.1233C18.6976 34.4958 18.6976 34.8372 18.6976 35.1786C18.6976 40.2381 19.5319 40.8589 20.5825 40.8589C21.5095 40.8589 22.282 40.3933 22.4365 36.8548C23.4562 40.2381 24.3214 40.5175 25.1866 40.3002C26.1137 40.0829 26.7317 39.4001 25.9592 35.6132C27.9059 38.9345 28.8329 38.9965 29.6672 38.5309C30.5015 38.0653 30.965 37.2273 29.1728 33.6577C31.9538 36.4823 32.9117 36.3271 33.6224 35.6753C34.3949 34.9614 34.5803 33.9371 31.1813 30.2123C30.965 29.964 30.7178 29.7156 30.4706 29.4363C30.7796 29.6225 31.0886 29.8088 31.3667 29.964C35.7236 32.4782 36.6815 32.0747 37.2068 31.1435C37.6703 30.3364 37.6394 29.4363 34.673 27.5118C38.1029 28.3188 38.7827 27.7291 39.0299 26.8289C39.2771 25.9288 39.0299 25.0286 35.3837 23.8181C39.2153 23.787 39.7406 23.011 39.7715 22.0798C39.7715 21.1487 39.2771 20.3416 35.291 20.0933Z" fill="#3D3544"/>
<path d="M21.572 6.43578C21.572 11.4953 20.7375 19.0379 19.6866 19.0379C18.6358 19.0379 17.8013 11.4642 17.8013 6.43578C17.8013 1.37629 18.6358 0.755493 19.6866 0.755493C20.7375 0.755493 21.572 1.37629 21.572 6.43578Z" fill="white"/>
<path d="M8.90265 11.5884C13.2596 14.1337 19.3778 18.6344 18.8525 19.5656C18.3272 20.4658 11.3747 17.4239 7.04864 14.9096C2.66081 12.3644 2.56811 11.309 3.09342 10.4089C3.61872 9.50872 4.57663 9.07417 8.90265 11.5884Z" fill="#FFEEF2"/>
<path d="M7.04862 25.2149C11.4055 22.7006 18.3581 19.6587 18.8525 20.5589C19.3778 21.4591 13.2904 25.9909 8.93353 28.5051C4.5766 31.0193 3.6187 30.6158 3.09339 29.6846C2.56809 28.7844 2.69169 27.7291 7.04862 25.2149Z" fill="#FFEEF2"/>
<path d="M17.8322 33.6266C17.8322 28.5671 18.6667 21.0245 19.7175 21.0245C20.7684 21.0245 21.6029 28.5982 21.6029 33.6266C21.6029 38.6551 20.7684 39.3069 19.7175 39.3069C18.6976 39.3069 17.8322 38.6861 17.8322 33.6266Z" fill="#FFEEF2"/>
<path d="M30.5012 28.474C26.1443 25.9598 20.057 21.428 20.5823 20.5278C21.1076 19.6277 28.0601 22.6696 32.3861 25.1838C36.743 27.698 36.8357 28.7534 36.3413 29.6535C35.816 30.5537 34.8581 30.9882 30.5012 28.474Z" fill="#FFEEF2"/>
<path d="M32.3861 14.8476C28.0292 17.3618 21.0767 20.4037 20.5823 19.5036C20.057 18.6034 26.1443 14.0716 30.5012 11.5574C34.8581 9.04316 35.816 9.44667 36.3413 10.3779C36.8357 11.278 36.743 12.3334 32.3861 14.8476Z" fill="#FFEEF2"/>
<path d="M25.4954 7.58427C24.0122 12.3954 20.984 19.3794 19.9952 19.069C19.0064 18.7586 20.3969 11.278 21.8801 6.46683C23.3633 1.65566 24.3521 1.31422 25.3409 1.62462C26.3606 1.90398 26.9786 2.7731 25.4954 7.58427Z" fill="#FFEEF2"/>
<path d="M11.8685 8.76374C15.2984 12.4575 19.7789 18.5723 19.0064 19.2862C18.2339 20.0001 12.4865 15.0338 9.08748 11.34C5.65756 7.64631 5.87386 6.59095 6.64637 5.87704C7.41887 5.19416 8.43858 5.07 11.8685 8.76374Z" fill="#FFEEF2"/>
<path d="M6.09017 21.2418C11.0033 20.1243 18.512 19.2552 18.7592 20.2795C19.0064 21.3038 11.8376 23.8181 6.95538 24.9355C2.04225 26.0529 1.23884 25.3701 1.02254 24.3457C0.775342 23.3214 1.17704 22.3592 6.09017 21.2418Z" fill="#FFEEF2"/>
<path d="M13.9388 32.4782C15.422 27.667 18.4502 20.6831 19.439 20.9935C20.4278 21.3039 19.0373 28.7845 17.5541 33.5956C16.0709 38.4068 15.0821 38.7482 14.0933 38.4378C13.0736 38.1585 12.4555 37.3204 13.9388 32.4782Z" fill="white"/>
<path d="M27.5658 31.2986C24.1359 27.5739 19.6244 21.459 20.3969 20.7451C21.1694 20.0312 26.9169 24.9975 30.3159 28.6913C33.7458 32.385 33.5295 33.4404 32.757 34.1543C32.0154 34.8682 30.9648 34.9924 27.5658 31.2986Z" fill="#FFEEF2"/>
<path d="M33.3441 18.8517C28.431 19.9691 20.9223 20.8382 20.675 19.8139C20.4278 18.7896 27.5967 16.2754 32.4789 15.1579C37.392 14.0405 38.1645 14.7234 38.4117 15.7477C38.6589 16.741 38.2263 17.7032 33.3441 18.8517Z" fill="white"/>
<path d="M28.431 9.44664C25.8045 13.7301 21.1077 19.7208 20.2116 19.1621C19.3155 18.6034 22.56 11.7436 25.1865 7.42906C27.8439 3.14557 28.8945 3.05245 29.7906 3.61116C30.6558 4.16988 31.0575 5.16315 28.431 9.44664Z" fill="#FFEEF2"/>
<path d="M14.9275 7.14972C17.3069 11.6195 20.1497 18.6655 19.2227 19.1621C18.2957 19.6588 14.0005 13.4198 11.5903 8.95003C9.21101 4.51134 9.67451 3.54911 10.5706 3.05247C11.5285 2.58687 12.5482 2.71103 14.9275 7.14972Z" fill="#FFEEF2"/>
<path d="M6.21371 17.7343C11.2504 17.8895 18.7283 18.9449 18.6974 20.0002C18.6665 21.0556 11.1268 21.6764 6.09011 21.5212C1.08429 21.397 0.497183 20.5279 0.528083 19.4725C0.558983 18.4172 1.20789 17.6101 6.21371 17.7343Z" fill="#FFEEF2"/>
<path d="M11.0033 30.6158C13.6298 26.3323 18.3266 20.3416 19.2227 20.9003C20.1188 21.459 16.8743 28.3499 14.2478 32.6334C11.6213 36.9168 10.5707 37.01 9.67457 36.4512C8.74757 35.8925 8.34587 34.9303 11.0033 30.6158Z" fill="#FFEEF2"/>
<path d="M24.4757 32.9127C22.0964 28.4741 19.2845 21.397 20.1806 20.9003C21.1076 20.4037 25.4336 26.6427 27.8129 31.1124C30.1923 35.5511 29.7287 36.5134 28.8326 37.01C27.9056 37.5066 26.855 37.3514 24.4757 32.9127Z" fill="#FFEEF2"/>
<path d="M33.1896 22.3281C28.1528 22.1729 20.675 21.1176 20.7059 20.0622C20.7368 19.0069 28.2764 18.3861 33.3132 18.5413C38.3499 18.6965 38.937 19.5656 38.9061 20.6209C38.8752 21.6453 38.2263 22.4523 33.1896 22.3281Z" fill="#FFEEF2"/>
<path d="M30.7794 11.9298C27.164 15.4373 21.1385 20.0933 20.4278 19.3173C19.6862 18.5723 24.5375 12.7058 28.1528 9.19832C31.7682 5.69082 32.8188 5.87706 33.5295 6.62201C34.2402 7.39801 34.3947 8.45336 30.7794 11.9298Z" fill="#FFEEF2"/>
<path d="M18.2647 6.37368C19.4699 11.278 20.4587 18.8206 19.439 19.069C18.4501 19.3173 15.7927 12.1781 14.5876 7.30487C13.3825 2.40058 14.0623 1.59355 15.082 1.31419C16.0708 1.06587 17.0596 1.46939 18.2647 6.37368Z" fill="white"/>
<path d="M7.20273 14.4751C12.0541 15.8719 19.0375 18.7586 18.7594 19.7829C18.4813 20.8072 11.0034 19.5346 6.18302 18.1378C1.3317 16.7099 0.960893 15.7477 1.2699 14.7234C1.548 13.6991 2.3823 13.0783 7.20273 14.4751Z" fill="white"/>
<path d="M8.65482 28.1326C12.2701 24.6251 18.2957 20.0002 19.0064 20.7451C19.7171 21.4901 14.8967 27.3566 11.2813 30.8641C7.66602 34.3716 6.61541 34.1853 5.90471 33.4404C5.194 32.6644 5.0395 31.609 8.65482 28.1326Z" fill="white"/>
<path d="M21.1694 33.6887C19.9643 28.7844 18.9755 21.2417 19.9952 20.9934C21.0149 20.7451 23.6414 27.8843 24.8465 32.7886C26.0516 37.6928 25.3718 38.4999 24.3521 38.7482C23.3324 38.9965 22.3745 38.593 21.1694 33.6887Z" fill="white"/>
<path d="M32.2008 25.6184C27.3804 24.2216 20.366 21.3039 20.675 20.3106C20.9531 19.2863 28.431 20.5589 33.2514 21.9557C38.0718 23.3525 38.4426 24.3458 38.1645 25.339C37.8864 26.3634 37.0521 27.0152 32.2008 25.6184Z" fill="white"/>
<path d="M19.8716 27.1083C23.5748 27.1083 26.5769 24.0926 26.5769 20.3727C26.5769 16.6527 23.5748 13.637 19.8716 13.637C16.1683 13.637 13.1663 16.6527 13.1663 20.3727C13.1663 24.0926 16.1683 27.1083 19.8716 27.1083Z" fill="#FF8092"/>
<g opacity="0.5">
<path opacity="0.3" d="M17.2767 17.8895C17.8229 17.8895 18.2657 17.4448 18.2657 16.8962C18.2657 16.3477 17.8229 15.903 17.2767 15.903C16.7304 15.903 16.2876 16.3477 16.2876 16.8962C16.2876 17.4448 16.7304 17.8895 17.2767 17.8895Z" fill="#EA3943"/>
<path opacity="0.3" d="M22.5292 18.3861C23.0754 18.3861 23.5183 17.9414 23.5183 17.3929C23.5183 16.8443 23.0754 16.3996 22.5292 16.3996C21.983 16.3996 21.5402 16.8443 21.5402 17.3929C21.5402 17.9414 21.983 18.3861 22.5292 18.3861Z" fill="#EA3943"/>
<path opacity="0.3" d="M18.8838 20.3727C19.4301 20.3727 19.8729 19.928 19.8729 19.3794C19.8729 18.8308 19.4301 18.3861 18.8838 18.3861C18.3376 18.3861 17.8948 18.8308 17.8948 19.3794C17.8948 19.928 18.3376 20.3727 18.8838 20.3727Z" fill="#EA3943"/>
<path opacity="0.3" d="M23.1164 23.3214C23.6626 23.3214 24.1054 22.8767 24.1054 22.3282C24.1054 21.7796 23.6626 21.3349 23.1164 21.3349C22.5701 21.3349 22.1273 21.7796 22.1273 22.3282C22.1273 22.8767 22.5701 23.3214 23.1164 23.3214Z" fill="#EA3943"/>
<path opacity="0.3" d="M16.1949 23.3214C16.7411 23.3214 17.1839 22.8767 17.1839 22.3282C17.1839 21.7796 16.7411 21.3349 16.1949 21.3349C15.6486 21.3349 15.2058 21.7796 15.2058 22.3282C15.2058 22.8767 15.6486 23.3214 16.1949 23.3214Z" fill="#EA3943"/>
<path opacity="0.3" d="M19.1001 25.308C19.6464 25.308 20.0892 24.8633 20.0892 24.3147C20.0892 23.7662 19.6464 23.3215 19.1001 23.3215C18.5539 23.3215 18.1111 23.7662 18.1111 24.3147C18.1111 24.8633 18.5539 25.308 19.1001 25.308Z" fill="#EA3943"/>
<path opacity="0.3" d="M24.5994 20.3727C24.9067 20.3727 25.1558 20.1225 25.1558 19.814C25.1558 19.5054 24.9067 19.2552 24.5994 19.2552C24.2922 19.2552 24.0431 19.5054 24.0431 19.814C24.0431 20.1225 24.2922 20.3727 24.5994 20.3727Z" fill="#EA3943"/>
<path opacity="0.3" d="M20.5206 22.142C20.8278 22.142 21.0769 21.8918 21.0769 21.5833C21.0769 21.2747 20.8278 21.0245 20.5206 21.0245C20.2133 21.0245 19.9642 21.2747 19.9642 21.5833C19.9642 21.8918 20.2133 22.142 20.5206 22.142Z" fill="#EA3943"/>
<path opacity="0.3" d="M22.0656 25.3391C22.3729 25.3391 22.622 25.0889 22.622 24.7803C22.622 24.4718 22.3729 24.2216 22.0656 24.2216C21.7584 24.2216 21.5093 24.4718 21.5093 24.7803C21.5093 25.0889 21.7584 25.3391 22.0656 25.3391Z" fill="#EA3943"/>
<path opacity="0.3" d="M19.8718 16.0271C20.179 16.0271 20.4281 15.777 20.4281 15.4684C20.4281 15.1598 20.179 14.9097 19.8718 14.9097C19.5645 14.9097 19.3154 15.1598 19.3154 15.4684C19.3154 15.777 19.5645 16.0271 19.8718 16.0271Z" fill="#EA3943"/>
<path opacity="0.3" d="M15.3603 19.5967C15.6676 19.5967 15.9166 19.3465 15.9166 19.038C15.9166 18.7294 15.6676 18.4792 15.3603 18.4792C15.053 18.4792 14.804 18.7294 14.804 19.038C14.804 19.3465 15.053 19.5967 15.3603 19.5967Z" fill="#EA3943"/>
</g>
<path opacity="0.15" d="M132.905 72.4574C132.287 70.5019 129.475 69.6018 126.138 70.0984C128.27 67.7704 129.073 65.101 127.93 63.518C126.848 62.0591 124.315 61.966 121.657 63.1144C121.008 60.2588 119.463 58.2722 117.64 58.2412C115.601 58.2102 113.87 60.6313 113.314 63.9836C111.769 61.221 109.482 59.638 107.659 60.2588C105.929 60.8485 105.095 63.2386 105.342 66.1253C102.437 65.846 100.089 66.7151 99.5017 68.4533C98.8528 70.3778 100.614 72.7989 103.611 74.3509C100.521 74.9717 98.2966 76.6478 98.3275 78.6033C98.3584 80.4347 100.336 81.9866 103.179 82.6385C102.035 85.3079 102.097 87.8532 103.58 88.9396C105.218 90.1501 108.03 89.2189 110.44 86.8599C110.07 90.026 110.997 92.6333 112.82 93.2231C114.55 93.7818 116.651 92.3539 118.134 89.8397C120.328 91.7642 122.739 92.4781 124.222 91.4227C125.89 90.2432 125.86 87.2634 124.345 84.2215C127.219 85.5562 130 85.4941 131.113 83.9111C132.163 82.4212 131.452 79.9691 129.537 77.7963C132.009 76.3064 133.43 74.2267 132.905 72.4574Z" fill="#3D3544"/>
<path d="M107.041 65.3493C102.901 63.9525 98.9454 64.6975 98.142 67.0255C97.3695 69.3535 100.089 72.3643 104.198 73.7611C108.339 75.1579 112.325 74.413 113.098 72.116C113.87 69.757 111.151 66.7461 107.041 65.3493Z" fill="#F46782"/>
<path d="M106.299 58.7999C103.982 59.5759 103.24 63.58 104.631 67.7394C106.021 71.8987 109.019 74.6302 111.336 73.8232C113.654 73.0472 114.395 69.043 113.005 64.8837C111.614 60.7554 108.617 58.0239 106.299 58.7999Z" fill="#FF8092"/>
<path d="M120.606 64.7906C120.668 60.414 118.721 56.8444 116.28 56.8134C113.839 56.7823 111.831 60.3209 111.769 64.6975C111.707 69.0741 113.654 72.6437 116.095 72.6747C118.536 72.7057 120.575 69.1672 120.606 64.7906Z" fill="#F46782"/>
<path d="M126.57 62.0591C125.118 60.1036 121.101 60.6313 117.609 63.2386C114.118 65.846 112.449 69.5707 113.901 71.5262C115.354 73.4818 119.371 72.9541 122.862 70.3467C126.385 67.7394 128.023 64.0457 126.57 62.0591Z" fill="#FF8092"/>
<path d="M103.364 78.4792C100.768 81.9866 100.243 86.0218 102.19 87.4807C104.136 88.9396 107.844 87.2944 110.44 83.7559C113.036 80.2484 113.561 76.2133 111.614 74.7544C109.668 73.2955 105.96 74.9717 103.364 78.4792Z" fill="#F46782"/>
<path d="M96.9366 77.1445C96.9675 79.5966 100.521 81.5521 104.878 81.49C109.235 81.428 112.758 79.4104 112.727 76.9582C112.696 74.5061 109.142 72.5506 104.785 72.6126C100.428 72.6747 96.9366 74.6923 96.9366 77.1445Z" fill="#FF8092"/>
<path d="M114.674 86.0529C117.208 89.6224 120.854 91.3607 122.832 89.9639C124.81 88.536 124.377 84.5009 121.874 80.9313C119.34 77.3617 115.694 75.6235 113.716 77.0203C111.708 78.4481 112.14 82.4833 114.674 86.0529Z" fill="#F46782"/>
<path d="M111.429 91.7642C113.746 92.5092 116.682 89.6845 118.011 85.5252C119.308 81.3348 118.474 77.3618 116.157 76.6478C113.839 75.9029 110.904 78.7275 109.575 82.8868C108.277 87.0462 109.111 91.0503 111.429 91.7642Z" fill="#FF8092"/>
<path d="M125.335 77.579C129.507 76.2753 132.288 73.3266 131.546 70.9986C130.805 68.6706 126.849 67.8325 122.709 69.1362C118.537 70.4399 115.756 73.3886 116.498 75.7166C117.209 78.0446 121.164 78.8827 125.335 77.579Z" fill="#F46782"/>
<path d="M129.753 82.4523C131.174 80.4657 129.413 76.772 125.859 74.2578C122.306 71.7125 118.289 71.2779 116.867 73.2955C115.446 75.2821 117.207 78.9758 120.761 81.49C124.314 84.0043 128.331 84.4388 129.753 82.4523Z" fill="#FF8092"/>
<path d="M109.328 68.267C106.547 67.3048 103.858 67.8325 103.333 69.3845C102.808 70.9675 104.631 72.9851 107.443 73.9473C110.224 74.9095 112.912 74.3819 113.468 72.8299C113.963 71.2468 112.14 69.1982 109.328 68.267Z" fill="#FFE1E7"/>
<path d="M108.833 63.8284C107.288 64.356 106.763 67.0565 107.721 69.8811C108.648 72.6747 110.687 74.5371 112.263 74.0094C113.839 73.4817 114.333 70.7813 113.376 67.9877C112.449 65.1631 110.409 63.3007 108.833 63.8284Z" fill="#FFE1E7"/>
<path d="M118.505 67.8946C118.536 64.9458 117.238 62.5247 115.6 62.4936C113.963 62.4626 112.603 64.8527 112.541 67.8325C112.51 70.7813 113.808 73.2024 115.446 73.2334C117.115 73.2334 118.474 70.8433 118.505 67.8946Z" fill="#FFE1E7"/>
<path d="M120.058 71.6868C122.427 69.9171 123.547 67.401 122.559 66.0669C121.571 64.7327 118.849 65.0858 116.48 66.8554C114.111 68.6251 112.991 71.1412 113.979 72.4753C114.967 73.8095 117.689 73.4564 120.058 71.6868Z" fill="#FFE1E7"/>
<path d="M111.663 80.7447C113.427 78.3662 113.781 75.6328 112.453 74.6394C111.125 73.646 108.618 74.7688 106.854 77.1473C105.09 79.5258 104.736 82.2593 106.064 83.2527C107.392 84.2461 109.899 83.1232 111.663 80.7447Z" fill="#FFE1E7"/>
<path d="M102.53 76.2443C102.56 77.8894 104.94 79.2241 107.906 79.1931C110.842 79.162 113.221 77.7963 113.221 76.1201C113.19 74.475 110.811 73.1403 107.844 73.1714C104.878 73.2334 102.499 74.5992 102.53 76.2443Z" fill="#FFE1E7"/>
<path d="M114.489 82.266C116.188 84.6871 118.66 85.8666 120.02 84.9044C121.38 83.9421 121.071 81.2106 119.371 78.7895C117.672 76.3684 115.2 75.1889 113.84 76.1512C112.511 77.1134 112.789 79.8449 114.489 82.266Z" fill="#FFE1E7"/>
<path d="M116.754 81.8969C117.635 79.0662 117.068 76.3694 115.488 75.8735C113.908 75.3776 111.913 77.2703 111.032 80.101C110.151 82.9317 110.718 85.6285 112.298 86.1244C113.878 86.6203 115.873 84.7276 116.754 81.8969Z" fill="#FFE1E7"/>
<path d="M121.713 76.5456C124.532 75.6632 126.417 73.661 125.925 72.0735C125.432 70.486 122.747 69.9144 119.929 70.7968C117.11 71.6792 115.225 73.6814 115.717 75.2689C116.21 76.8564 118.894 77.428 121.713 76.5456Z" fill="#FFE1E7"/>
<path d="M124.683 79.8258C125.641 78.4697 124.466 75.9795 122.058 74.2638C119.65 72.5482 116.921 72.2567 115.963 73.6128C115.005 74.9689 116.18 77.4591 118.589 79.1747C120.997 80.8904 123.726 81.1819 124.683 79.8258Z" fill="#FFE1E7"/>
<path d="M119.831 77.1397C121.287 74.001 119.934 70.2708 116.81 68.8081C113.685 67.3454 109.972 68.7041 108.516 71.8428C107.059 74.9815 108.412 78.7117 111.537 80.1744C114.661 81.6371 118.375 80.2784 119.831 77.1397Z" fill="#F46782"/>
<g opacity="0.5">
<path opacity="0.2" d="M114.014 71.9673C114.41 71.1126 114.042 70.0969 113.191 69.6988C112.34 69.3006 111.328 69.6707 110.932 70.5254C110.536 71.3801 110.904 72.3957 111.755 72.7939C112.606 73.192 113.617 72.822 114.014 71.9673Z" fill="#C91B2C"/>
<path opacity="0.2" d="M118.381 77.0554C118.777 76.2008 118.409 75.185 117.558 74.7867C116.707 74.3883 115.696 74.7582 115.299 75.6129C114.903 76.4675 115.271 77.4833 116.122 77.8816C116.973 78.2799 117.984 77.91 118.381 77.0554Z" fill="#C91B2C"/>
<path opacity="0.2" d="M112.311 78.0439C112.527 77.5778 112.326 77.0237 111.862 76.8064C111.398 76.5891 110.846 76.7909 110.63 77.257C110.413 77.7232 110.614 78.2772 111.078 78.4945C111.543 78.7118 112.094 78.51 112.311 78.0439Z" fill="#C91B2C"/>
<path opacity="0.2" d="M117.216 71.4991C117.433 71.0328 117.232 70.4788 116.767 70.2617C116.303 70.0445 115.752 70.2464 115.535 70.7126C115.319 71.1788 115.52 71.7328 115.985 71.95C116.449 72.1672 117 71.9653 117.216 71.4991Z" fill="#C91B2C"/>
<path opacity="0.2" d="M115.544 79.5097C115.76 79.0436 115.559 78.4896 115.095 78.2723C114.631 78.0551 114.079 78.2569 113.863 78.723C113.647 79.1892 113.848 79.7432 114.312 79.9604C114.776 80.1776 115.328 79.9759 115.544 79.5097Z" fill="#C91B2C"/>
<path opacity="0.2" d="M118.815 73.3896C118.931 73.141 118.824 72.8455 118.576 72.7295C118.329 72.6136 118.034 72.7211 117.919 72.9697C117.804 73.2183 117.911 73.5138 118.158 73.6298C118.406 73.7457 118.7 73.6382 118.815 73.3896Z" fill="#C91B2C"/>
<path opacity="0.2" d="M114.619 74.6972C114.734 74.4486 114.627 74.1531 114.38 74.0372C114.132 73.9213 113.838 74.0289 113.723 74.2774C113.607 74.526 113.714 74.8215 113.962 74.9374C114.209 75.0533 114.504 74.9458 114.619 74.6972Z" fill="#C91B2C"/>
<path opacity="0.2" d="M110.839 74.8074C110.954 74.5588 110.847 74.2633 110.6 74.1474C110.352 74.0315 110.058 74.1391 109.943 74.3877C109.827 74.6363 109.934 74.9318 110.182 75.0477C110.429 75.1636 110.724 75.056 110.839 74.8074Z" fill="#C91B2C"/>
</g>
<path d="M8.28406 50.8848C8.28406 50.8848 30.3468 61.5935 29.4198 99.7104" stroke="#07939E" stroke-miterlimit="10" stroke-linecap="round" stroke-linejoin="round"/>
<path d="M20.7371 49.3948C20.7371 49.3948 18.3572 57.0306 20.768 63.3628" stroke="#07939E" stroke-miterlimit="10" stroke-linecap="round" stroke-linejoin="round"/>
<path d="M26.4229 58.6447C26.4229 58.6447 23.5794 64.7285 25.372 72.7368" stroke="#07939E" stroke-miterlimit="10" stroke-linecap="round" stroke-linejoin="round"/>
<path d="M32.6334 65.3493C32.6334 65.3493 26.546 69.788 27.5657 80.0311" stroke="#07939E" stroke-miterlimit="10" stroke-linecap="round" stroke-linejoin="round"/>
<path d="M34.8272 74.6613C34.8272 74.6613 28.1837 78.4791 28.8017 86.922" stroke="#07939E" stroke-miterlimit="10" stroke-linecap="round" stroke-linejoin="round"/>
<path d="M11.0967 62.6489C11.0967 62.6489 19.3779 61.997 22.6224 66.5909" stroke="#07939E" stroke-miterlimit="10" stroke-linecap="round" stroke-linejoin="round"/>
<path d="M15.5765 71.6193C15.5765 71.6193 25.9281 72.5195 27.8748 81.3968" stroke="#07939E" stroke-miterlimit="10" stroke-linecap="round" stroke-linejoin="round"/>
<path d="M20.7059 82.9489C20.7059 82.9489 28.2456 85.8666 29.2962 92.7574" stroke="#07939E" stroke-miterlimit="10" stroke-linecap="round" stroke-linejoin="round"/>
<path d="M8.37678 51.4124C8.19133 51.3193 8.16042 51.071 8.25315 50.9158C8.34587 50.7296 8.59313 50.6985 8.74767 50.7916" fill="#07939E"/>
<path d="M14.9585 70.595C14.7422 70.595 14.5876 70.4398 14.5876 70.2225C14.5876 70.0052 14.7422 69.85 14.9585 69.85" fill="#07939E"/>
<path d="M33.6222 64.8837C33.7767 64.7596 34.024 64.7596 34.1476 64.9458C34.2713 65.101 34.2713 65.3493 34.1167 65.4735" fill="#07939E"/>
<path d="M2.93892 51.5056C2.62992 55.1683 14.99 55.9132 17.2766 58.5206C16.5659 55.6649 15.3917 52.4989 12.0854 50.4502C9.21166 48.681 3.30972 47.5946 2.93892 51.5056Z" fill="#07939E"/>
<path d="M3.09334 65.1631C4.73105 68.4844 15.577 62.711 18.8524 63.7663C16.7512 61.6866 14.0938 59.5449 10.2622 59.4828C6.92496 59.4518 1.39384 61.5935 3.09334 65.1631Z" fill="#07939E"/>
<path d="M25.7117 43.5283C28.4309 46.0426 19.7171 54.7027 19.7789 58.1171C18.3884 55.5407 17.1215 52.3747 18.203 48.6809C19.13 45.5149 22.8071 40.89 25.7117 43.5283Z" fill="#07939E"/>
<path d="M31.8299 52.7161C34.3019 55.4787 24.8774 63.3318 24.6611 66.7461C23.4869 64.0457 22.4981 60.7865 23.8886 57.2169C25.0937 54.1129 29.1416 49.8294 31.8299 52.7161Z" fill="#07939E"/>
<path d="M42.7995 72.6747C43.6029 76.2753 31.4283 78.2929 29.5125 81.1175C29.8524 78.2308 30.594 74.9096 33.6222 72.5506C36.2178 70.5019 41.9034 68.8568 42.7995 72.6747Z" fill="#07939E"/>
<path d="M39.4932 62.2453C40.9455 65.6597 29.3888 69.9121 28.0292 73.0472C27.8129 70.1294 27.9365 66.7461 30.4394 63.8594C32.6333 61.3141 37.8864 58.6447 39.4932 62.2453Z" fill="#07939E"/>
<path d="M8.74748 72.3953C9.42729 76.027 21.4783 73.4507 24.3521 75.3752C22.8998 72.8299 20.9221 70.0363 17.2141 68.9499C14.0005 67.9877 8.06768 68.5154 8.74748 72.3953Z" fill="#07939E"/>
<path d="M12.8572 81.459C12.6409 85.1217 25.0009 85.5563 27.3494 88.1015C26.546 85.2769 25.279 82.1108 21.9418 80.1553C19.0372 78.4792 13.1353 77.579 12.8572 81.459Z" fill="#07939E"/>
<path d="M2.53711 57.5583C2.53711 57.5583 13.9393 56.503 19.7176 61.7797" stroke="#07939E" stroke-miterlimit="10" stroke-linecap="round" stroke-linejoin="round"/>
<path d="M11.9921 66.622C11.9921 66.622 21.0149 65.3183 25.7426 73.6991" stroke="#07939E" stroke-miterlimit="10" stroke-linecap="round" stroke-linejoin="round"/>
<path d="M15.0511 76.4926C15.0511 76.4926 25.5881 76.2443 28.8017 87.1703" stroke="#07939E" stroke-miterlimit="10" stroke-linecap="round" stroke-linejoin="round"/>
<path d="M20.366 88.1946C20.366 88.1946 28.7708 88.5361 29.3888 95.52" stroke="#07939E" stroke-miterlimit="10" stroke-linecap="round" stroke-linejoin="round"/>
<path d="M17.3071 45.0182C17.3071 45.0182 15.5762 53.5852 18.1416 59.669" stroke="#07939E" stroke-miterlimit="10" stroke-linecap="round" stroke-linejoin="round"/>
<path d="M25.8672 50.9468C25.8672 50.9468 20.8601 56.0063 22.1892 65.7528" stroke="#07939E" stroke-miterlimit="10" stroke-linecap="round" stroke-linejoin="round"/>
<path d="M30.285 61.7798C30.285 61.7798 24.7847 65.877 26.1443 74.9096" stroke="#07939E" stroke-miterlimit="10" stroke-linecap="round" stroke-linejoin="round"/>
<path d="M33.8694 70.5019C33.8694 70.5019 27.1949 74.0715 27.9056 81.7383" stroke="#07939E" stroke-miterlimit="10" stroke-linecap="round" stroke-linejoin="round"/>
<path d="M35.9088 81.3658C35.9088 81.3658 28.1838 84.3767 29.1417 90.1501" stroke="#07939E" stroke-miterlimit="10" stroke-linecap="round" stroke-linejoin="round"/>
<path d="M17.374 47.4904C17.9653 47.2675 18.1237 46.2281 17.7278 45.1689C17.3319 44.1096 16.5317 43.4316 15.9404 43.6545C15.3491 43.8774 15.1907 44.9168 15.5866 45.976C15.9825 47.0353 16.7827 47.7133 17.374 47.4904Z" fill="#F46782"/>
<path d="M18.7794 46.3148C19.3782 45.3564 19.4299 44.3061 18.8949 43.969C18.3598 43.6319 17.4407 44.1355 16.8419 45.094C16.2431 46.0524 16.1914 47.1026 16.7264 47.4398C17.2614 47.7769 18.1806 47.2732 18.7794 46.3148Z" fill="#FF8092"/>
<path d="M26.6409 52.4457C27.6539 51.9508 28.2512 51.0873 27.975 50.5169C27.6987 49.9466 26.6535 49.8854 25.6404 50.3803C24.6274 50.8752 24.0301 51.7387 24.3064 52.3091C24.5826 52.8794 25.6278 52.9406 26.6409 52.4457Z" fill="#F46782"/>
<path d="M26.3455 50.9375C26.568 49.8284 26.2464 48.8277 25.6273 48.7024C25.0081 48.5771 24.3258 49.3747 24.1033 50.4839C23.8808 51.593 24.2024 52.5937 24.8215 52.7189C25.4406 52.8442 26.1229 52.0466 26.3455 50.9375Z" fill="#FF8092"/>
<path d="M30.5957 63.7498C31.6087 63.2548 32.206 62.3911 31.9297 61.8208C31.6533 61.2504 30.6081 61.1894 29.595 61.6844C28.582 62.1794 27.9847 63.043 28.2611 63.6133C28.5374 64.1837 29.5826 64.2448 30.5957 63.7498Z" fill="#F46782"/>
<path d="M30.3061 62.2261C30.5287 61.117 30.2073 60.1162 29.5881 59.9909C28.969 59.8656 28.2866 60.6631 28.064 61.7722C27.8414 62.8814 28.1628 63.8821 28.7819 64.0075C29.4011 64.1328 30.0835 63.3353 30.3061 62.2261Z" fill="#FF8092"/>
<path d="M33.5891 72.6507C34.6953 72.4367 35.4952 71.7582 35.3757 71.1354C35.2562 70.5126 34.2625 70.1813 33.1563 70.3954C32.0501 70.6094 31.2502 71.2878 31.3697 71.9106C31.4892 72.5334 32.4828 72.8648 33.5891 72.6507Z" fill="#F46782"/>
<path d="M33.6825 71.1155C34.1835 70.1021 34.131 69.0519 33.5653 68.7698C32.9996 68.4878 32.1348 69.0806 31.6338 70.0941C31.1328 71.1075 31.1853 72.1577 31.751 72.4397C32.3167 72.7218 33.1815 72.1289 33.6825 71.1155Z" fill="#FF8092"/>
<path d="M35.4502 83.5046C36.5746 83.4389 37.4564 82.8723 37.4197 82.2391C37.383 81.6059 36.4417 81.1459 35.3173 81.2116C34.1929 81.2773 33.3111 81.8439 33.3478 82.4771C33.3845 83.1103 34.3258 83.5703 35.4502 83.5046Z" fill="#F46782"/>
<path d="M35.7499 81.98C36.3799 81.042 36.4662 79.9942 35.9426 79.6395C35.419 79.2848 34.4839 79.7576 33.8539 80.6955C33.2239 81.6335 33.1376 82.6814 33.6612 83.0361C34.1848 83.3908 35.1199 82.918 35.7499 81.98Z" fill="#FF8092"/>
<path d="M4.04037 59.128C4.99811 58.5322 5.50488 57.6121 5.17229 57.0729C4.8397 56.5336 3.79368 56.5795 2.83594 57.1753C1.87821 57.7712 1.37143 58.6913 1.70402 59.2305C2.03662 59.7697 3.08264 59.7238 4.04037 59.128Z" fill="#F46782"/>
<path d="M5.23481 57.6951C5.46009 57.1026 4.78952 56.295 3.73704 55.8915C2.68455 55.4879 1.64871 55.6411 1.42342 56.2336C1.19813 56.8262 1.86871 57.6337 2.9212 58.0373C3.97368 58.4408 5.00952 58.2877 5.23481 57.6951Z" fill="#FF8092"/>
<path d="M13.4295 68.2981C14.4378 67.7931 15.0266 66.9236 14.7447 66.356C14.4628 65.7884 13.417 65.7376 12.4088 66.2426C11.4006 66.7475 10.8118 67.617 11.0936 68.1846C11.3755 68.7523 12.4213 68.8031 13.4295 68.2981Z" fill="#F46782"/>
<path d="M14.7323 66.9884C15.0107 66.4191 14.4168 65.5532 13.4057 65.0544C12.3945 64.5555 11.3491 64.6126 11.0706 65.1819C10.7921 65.7512 11.3861 66.617 12.3972 67.1159C13.4084 67.6147 14.4538 67.5576 14.7323 66.9884Z" fill="#FF8092"/>
<path d="M16.4028 78.2562C17.4599 77.8649 18.1398 77.0652 17.9213 76.47C17.7028 75.8749 16.6688 75.7096 15.6117 76.101C14.5546 76.4924 13.8747 77.2921 14.0932 77.8872C14.3117 78.4824 15.3457 78.6476 16.4028 78.2562Z" fill="#F46782"/>
<path d="M17.8544 77.1307C18.1931 76.5954 17.6969 75.6695 16.746 75.0627C15.7952 74.4559 14.7498 74.398 14.411 74.9333C14.0723 75.4687 14.5686 76.3945 15.5194 77.0013C16.4703 77.6081 17.5157 77.666 17.8544 77.1307Z" fill="#FF8092"/>
<path d="M21.7663 89.9812C22.8466 89.6601 23.5771 88.9068 23.3978 88.2986C23.2186 87.6904 22.1975 87.4576 21.1172 87.7787C20.0369 88.0998 19.3064 88.8532 19.4857 89.4614C19.6649 90.0696 20.686 90.3023 21.7663 89.9812Z" fill="#F46782"/>
<path d="M23.2773 88.944C23.6502 88.4321 23.2155 87.4755 22.3064 86.8074C21.3972 86.1393 20.3578 86.0127 19.9849 86.5245C19.6119 87.0364 20.0466 87.993 20.9558 88.6611C21.865 89.3292 22.9043 89.4558 23.2773 88.944Z" fill="#FF8092"/>
<path opacity="0.5" d="M5.19397 50.6985C5.19397 50.6985 10.1998 50.5433 16.1635 56.9065C16.1326 56.9065 10.9414 53.0575 5.19397 50.6985Z" fill="#9BD3F4"/>
<path opacity="0.5" d="M4.32971 63.8905C4.32971 63.8905 8.37763 60.9107 16.8752 62.8041C16.8752 62.8041 10.417 62.5558 4.32971 63.8905Z" fill="#9BD3F4"/>
<path opacity="0.5" d="M9.85986 71.6815C9.85986 71.6815 14.5258 69.8191 22.2817 73.7922C22.2508 73.7922 16.0708 71.9298 9.85986 71.6815Z" fill="#9BD3F4"/>
<path opacity="0.5" d="M14.3713 80.8693C14.3713 80.8693 19.3463 80.2484 25.8662 86.0529C25.8353 86.0529 20.3042 82.7006 14.3713 80.8693Z" fill="#9BD3F4"/>
<path opacity="0.5" d="M41.1309 72.147C41.1309 72.147 36.1251 72.3643 30.6866 79.1931C30.6866 79.1931 35.5689 74.9717 41.1309 72.147Z" fill="#9BD3F4"/>
<path opacity="0.5" d="M37.7936 61.9971C37.7936 61.9971 32.8805 63.0835 28.6781 70.7193C28.709 70.7193 32.7878 65.7218 37.7936 61.9971Z" fill="#9BD3F4"/>
<path opacity="0.5" d="M29.9759 52.9645C29.9759 52.9645 25.8044 55.7891 24.692 64.4492C24.6611 64.4182 26.6387 58.2412 29.9759 52.9645Z" fill="#9BD3F4"/>
<path opacity="0.5" d="M23.734 44.2112C23.734 44.2112 19.8406 47.4083 19.5316 56.1305C19.5316 56.1305 20.9221 49.7984 23.734 44.2112Z" fill="#9BD3F4"/>
<path d="M125.581 12.6438C125.581 12.6438 103.611 23.5077 104.785 61.5936" stroke="#07939E" stroke-miterlimit="10" stroke-linecap="round" stroke-linejoin="round"/>
<path d="M113.097 11.2159C113.097 11.2159 115.539 18.8207 113.159 25.1839" stroke="#07939E" stroke-miterlimit="10" stroke-linecap="round" stroke-linejoin="round"/>
<path d="M107.474 20.5279C107.474 20.5279 110.379 26.5807 108.617 34.62" stroke="#07939E" stroke-miterlimit="10" stroke-linecap="round" stroke-linejoin="round"/>
<path d="M101.325 27.2946C101.325 27.2946 107.443 31.7022 106.485 41.9453" stroke="#07939E" stroke-miterlimit="10" stroke-linecap="round" stroke-linejoin="round"/>
<path d="M99.1923 36.6065C99.1923 36.6065 105.867 40.3623 105.31 48.8051" stroke="#07939E" stroke-miterlimit="10" stroke-linecap="round" stroke-linejoin="round"/>
<path d="M122.8 24.4078C122.8 24.4078 114.519 23.8181 111.305 28.443" stroke="#07939E" stroke-miterlimit="10" stroke-linecap="round" stroke-linejoin="round"/>
<path d="M118.412 33.4404C118.412 33.4404 108.061 34.4027 106.207 43.3111" stroke="#07939E" stroke-miterlimit="10" stroke-linecap="round" stroke-linejoin="round"/>
<path d="M113.344 44.801C113.344 44.801 105.836 47.7808 104.816 54.6717" stroke="#07939E" stroke-miterlimit="10" stroke-linecap="round" stroke-linejoin="round"/>
<path d="M125.458 13.1715C125.643 13.0473 125.674 12.83 125.581 12.6748C125.488 12.4886 125.241 12.4575 125.087 12.5507" fill="#07939E"/>
<path d="M119.03 32.3851C119.247 32.3851 119.401 32.2299 119.401 32.0126C119.401 31.7953 119.247 31.6401 119.03 31.6401" fill="#07939E"/>
<path d="M100.336 26.8289C100.181 26.7048 99.9339 26.7358 99.8103 26.891C99.6866 27.0462 99.6866 27.2945 99.8412 27.4187" fill="#07939E"/>
<path d="M130.927 13.2335C131.267 16.8962 118.907 17.7343 116.651 20.3416C117.362 17.4859 118.505 14.2888 121.78 12.2402C124.623 10.4399 130.494 9.32247 130.927 13.2335Z" fill="#07939E"/>
<path d="M130.834 26.891C129.227 30.2123 118.319 24.532 115.044 25.6184C117.114 23.5387 119.772 21.3659 123.634 21.3038C126.972 21.2107 132.534 23.2904 130.834 26.891Z" fill="#07939E"/>
<path d="M108.061 5.41148C105.372 7.95674 114.148 16.5548 114.086 19.9691C115.446 17.3618 116.713 14.1957 115.6 10.533C114.673 7.36698 110.965 2.74205 108.061 5.41148Z" fill="#07939E"/>
<path d="M102.004 14.6303C99.5321 17.3929 109.018 25.1839 109.266 28.5982C110.409 25.8978 111.398 22.6386 109.976 19.069C108.771 15.9961 104.692 11.7126 102.004 14.6303Z" fill="#07939E"/>
<path d="M91.1891 34.682C90.4166 38.2826 102.591 40.2381 104.538 43.0317C104.167 40.145 103.395 36.8548 100.397 34.4958C97.7709 32.4472 92.0543 30.8331 91.1891 34.682Z" fill="#07939E"/>
<path d="M94.4344 24.2216C93.013 27.636 104.601 31.7953 105.96 34.9303C106.146 32.0126 105.991 28.6292 103.488 25.7425C101.294 23.2593 96.0103 20.5899 94.4344 24.2216Z" fill="#07939E"/>
<path d="M125.241 34.1543C124.592 37.786 112.51 35.3028 109.637 37.2273C111.058 34.6509 113.036 31.8574 116.744 30.7399C119.957 29.7777 125.89 30.2743 125.241 34.1543Z" fill="#07939E"/>
<path d="M121.224 43.249C121.471 46.9117 109.111 47.4083 106.763 49.9846C107.535 47.16 108.771 43.9939 112.109 42.0074C114.982 40.3002 120.915 39.369 121.224 43.249Z" fill="#07939E"/>
<path d="M131.359 19.2552C131.359 19.2552 119.957 18.262 114.21 23.6008" stroke="#07939E" stroke-miterlimit="10" stroke-linecap="round" stroke-linejoin="round"/>
<path d="M121.935 28.412C121.935 28.412 112.912 27.2014 108.246 35.5821" stroke="#07939E" stroke-miterlimit="10" stroke-linecap="round" stroke-linejoin="round"/>
<path d="M118.968 38.3137C118.968 38.3137 108.431 38.1274 105.28 49.0845" stroke="#07939E" stroke-miterlimit="10" stroke-linecap="round" stroke-linejoin="round"/>
<path d="M113.715 50.0467C113.715 50.0467 105.31 50.4502 104.723 57.4342" stroke="#07939E" stroke-miterlimit="10" stroke-linecap="round" stroke-linejoin="round"/>
<path d="M116.497 6.83929C116.497 6.83929 118.289 15.3752 115.755 21.4901" stroke="#07939E" stroke-miterlimit="10" stroke-linecap="round" stroke-linejoin="round"/>
<path d="M107.999 12.799C107.999 12.799 113.037 17.8274 111.77 27.5739" stroke="#07939E" stroke-miterlimit="10" stroke-linecap="round" stroke-linejoin="round"/>
<path d="M103.642 23.6939C103.642 23.6939 109.173 27.7601 107.875 36.7927" stroke="#07939E" stroke-miterlimit="10" stroke-linecap="round" stroke-linejoin="round"/>
<path d="M100.088 32.4161C100.088 32.4161 106.763 35.9546 106.114 43.6215" stroke="#07939E" stroke-miterlimit="10" stroke-linecap="round" stroke-linejoin="round"/>
<path d="M98.1417 43.3111C98.1417 43.3111 105.867 46.2599 104.971 52.0643" stroke="#07939E" stroke-miterlimit="10" stroke-linecap="round" stroke-linejoin="round"/>
<path d="M118.231 7.80143C118.619 6.73936 118.453 5.70109 117.861 5.48239C117.268 5.26369 116.472 5.94738 116.084 7.00945C115.695 8.07152 115.861 9.10979 116.454 9.32849C117.047 9.54719 117.842 8.8635 118.231 7.80143Z" fill="#F46782"/>
<path d="M117.093 9.24998C117.626 8.90924 117.567 7.85945 116.962 6.90521C116.357 5.95097 115.434 5.45362 114.902 5.79435C114.369 6.13509 114.428 7.18488 115.033 8.13913C115.638 9.09337 116.561 9.59071 117.093 9.24998Z" fill="#FF8092"/>
<path d="M109.532 14.1889C109.805 13.6166 109.202 12.7571 108.185 12.2692C107.169 11.7812 106.124 11.8495 105.852 12.4217C105.579 12.994 106.182 13.8535 107.199 14.3415C108.215 14.8294 109.26 14.7611 109.532 14.1889Z" fill="#F46782"/>
<path d="M109.037 14.5845C109.655 14.4548 109.97 13.4519 109.739 12.3443C109.509 11.2368 108.821 10.444 108.203 10.5737C107.585 10.7033 107.27 11.7063 107.5 12.8138C107.731 13.9214 108.419 14.7141 109.037 14.5845Z" fill="#FF8092"/>
<path d="M104.291 23.6008C105.311 24.0974 105.899 24.9355 105.62 25.4942C105.342 26.0529 104.322 26.115 103.302 25.6494C102.282 25.1528 101.695 24.3147 101.973 23.756C102.251 23.1973 103.302 23.1352 104.291 23.6008Z" fill="#F46782"/>
<path d="M105.14 25.9146C105.758 25.785 106.072 24.7821 105.842 23.6746C105.612 22.567 104.924 21.7742 104.306 21.9038C103.688 22.0334 103.373 23.0363 103.603 24.1438C103.834 25.2514 104.521 26.0442 105.14 25.9146Z" fill="#FF8092"/>
<path d="M102.622 33.8488C102.738 33.2251 101.933 32.5524 100.825 32.3461C99.7175 32.1399 98.7262 32.4782 98.6111 33.1018C98.4959 33.7255 99.3005 34.3982 100.408 34.6045C101.516 34.8107 102.507 34.4724 102.622 33.8488Z" fill="#F46782"/>
<path d="M102.25 34.3688C102.814 34.0828 102.859 33.0323 102.351 32.0223C101.843 31.0124 100.974 30.4256 100.41 30.7116C99.8465 30.9976 99.8013 32.0481 100.309 33.058C100.817 34.0679 101.686 34.6548 102.25 34.3688Z" fill="#FF8092"/>
<path d="M98.7288 43.1559C99.8412 43.218 100.737 43.7767 100.706 44.3975C100.676 45.0183 99.7485 45.4839 98.6361 45.4218C97.5237 45.3597 96.6276 44.801 96.6585 44.1802C96.6894 43.5594 97.6164 43.0938 98.7288 43.1559Z" fill="#F46782"/>
<path d="M100.407 44.9662C100.928 44.608 100.835 43.5607 100.198 42.627C99.5622 41.6934 98.6238 41.2269 98.1026 41.5852C97.5814 41.9434 97.6748 42.9907 98.3111 43.9244C98.9474 44.858 99.8857 45.3245 100.407 44.9662Z" fill="#FF8092"/>
<path d="M132.212 20.9319C132.541 20.3904 132.028 19.4738 131.066 18.8847C130.104 18.2955 129.058 18.2569 128.729 18.7984C128.4 19.3399 128.913 20.2565 129.875 20.8456C130.837 21.4347 131.883 21.4733 132.212 20.9319Z" fill="#F46782"/>
<path d="M130.969 19.7593C132.018 19.3484 132.683 18.5362 132.454 17.9452C132.225 17.3542 131.188 17.2083 130.138 17.6192C129.088 18.0302 128.423 18.8424 128.653 19.4333C128.882 20.0243 129.919 20.1702 130.969 19.7593Z" fill="#FF8092"/>
<path d="M122.882 29.9761C123.16 29.4065 122.565 28.5411 121.554 28.043C120.542 27.545 119.497 27.6029 119.219 28.1725C118.941 28.742 119.535 29.6074 120.547 30.1055C121.558 30.6035 122.604 30.5456 122.882 29.9761Z" fill="#F46782"/>
<path d="M121.55 28.9161C122.558 28.4102 123.146 27.5402 122.863 26.9728C122.581 26.4055 121.535 26.3556 120.527 26.8615C119.519 27.3673 118.931 28.2373 119.214 28.8047C119.496 29.3721 120.542 29.4219 121.55 28.9161Z" fill="#FF8092"/>
<path d="M119.935 39.6938C120.149 39.0971 119.464 38.3021 118.404 37.9181C117.344 37.5341 116.311 37.7065 116.097 38.3032C115.883 38.8998 116.568 39.6948 117.628 40.0788C118.687 40.4629 119.72 40.2905 119.935 39.6938Z" fill="#F46782"/>
<path d="M118.511 38.8117C119.458 38.1983 119.948 37.2691 119.605 36.7361C119.263 36.2031 118.218 36.2682 117.271 36.8816C116.325 37.4949 115.835 38.4242 116.177 38.9572C116.519 39.4902 117.564 39.425 118.511 38.8117Z" fill="#FF8092"/>
<path d="M114.619 51.3069C114.794 50.6976 114.059 49.949 112.977 49.6351C111.894 49.3211 110.875 49.5606 110.7 50.1699C110.524 50.7793 111.26 51.5278 112.342 51.8417C113.424 52.1557 114.444 51.9163 114.619 51.3069Z" fill="#F46782"/>
<path d="M113.136 50.5078C114.041 49.8332 114.469 48.8735 114.092 48.3643C113.716 47.855 112.677 47.989 111.773 48.6636C110.868 49.3381 110.44 50.2978 110.817 50.8071C111.193 51.3163 112.232 51.1823 113.136 50.5078Z" fill="#FF8092"/>
<path opacity="0.5" d="M128.64 12.4264C128.64 12.4264 123.634 12.3023 117.732 18.7275C117.732 18.7275 122.893 14.8475 128.64 12.4264Z" fill="#9BD3F4"/>
<path opacity="0.5" d="M129.598 25.6184C129.598 25.6184 125.519 22.6696 117.052 24.5941C117.052 24.6251 123.511 24.3457 129.598 25.6184Z" fill="#9BD3F4"/>
<path opacity="0.5" d="M124.129 33.4404C124.129 33.4404 119.463 31.6091 111.738 35.6442C111.738 35.6753 117.918 33.7508 124.129 33.4404Z" fill="#9BD3F4"/>
<path opacity="0.5" d="M119.679 42.6903C119.679 42.6903 114.704 42.1005 108.246 47.936C108.246 47.936 113.746 44.5526 119.679 42.6903Z" fill="#9BD3F4"/>
<path opacity="0.5" d="M92.8582 34.1543C92.8582 34.1543 97.864 34.3405 103.364 41.1383C103.364 41.1072 98.4511 36.9168 92.8582 34.1543Z" fill="#9BD3F4"/>
<path opacity="0.5" d="M96.1023 23.9733C96.1023 23.9733 101.015 25.0286 105.28 32.6334C105.28 32.6334 101.17 27.636 96.1023 23.9733Z" fill="#9BD3F4"/>
<path opacity="0.5" d="M103.889 14.8786C103.889 14.8786 108.061 17.6722 109.266 26.3012C109.266 26.3012 107.257 20.1243 103.889 14.8786Z" fill="#9BD3F4"/>
<path opacity="0.5" d="M110.069 6.06329C110.069 6.06329 113.963 9.22935 114.364 17.9515C114.364 17.9515 112.912 11.6505 110.069 6.06329Z" fill="#9BD3F4"/>
<path d="M111.645 30.9572C111.645 25.1217 106.948 20.4037 101.139 20.4037H35.2598C29.4506 20.4037 24.7538 25.1217 24.7538 30.9572V95.3338C24.7538 101.169 29.4506 105.887 35.2598 105.887H101.17C106.979 105.887 111.676 101.169 111.676 95.3338V30.9572H111.645Z" fill="#9BD3F4"/>
<path opacity="0.2" d="M110.069 41.5728C110.224 36.2961 106.114 31.9195 100.861 31.7643L41.3784 29.964C36.1254 29.8088 31.7685 33.937 31.614 39.2138L30.0071 92.9437C29.8526 98.2205 33.9624 102.597 39.2154 102.752L98.6982 104.553C103.951 104.708 108.308 100.58 108.463 95.3027L110.069 41.5728Z" fill="#3D3544"/>
<path d="M106.794 38.9345C106.794 33.7198 102.591 29.4984 97.4001 29.4984H38.4426C33.2514 29.4984 29.049 33.7198 29.049 38.9345V92.1677C29.049 97.3824 33.2514 101.604 38.4426 101.604H97.3692C102.56 101.604 106.763 97.3824 106.763 92.1677V38.9345H106.794Z" fill="white"/>
<path d="M97.4001 29.4984H38.4426C33.2514 29.4984 29.049 33.7198 29.049 38.9345V45.3597H106.763V38.9345C106.794 33.7508 102.56 29.4984 97.4001 29.4984Z" fill="#F46782"/>
<path d="M39.7405 40.7037C42.1467 40.7037 44.0974 38.7442 44.0974 36.3271C44.0974 33.91 42.1467 31.9505 39.7405 31.9505C37.3342 31.9505 35.3835 33.91 35.3835 36.3271C35.3835 38.7442 37.3342 40.7037 39.7405 40.7037Z" fill="#DD4368"/>
<path d="M42.2439 36.0167C42.2439 37.4135 41.1315 38.5309 39.7409 38.5309C38.3504 38.5309 37.238 37.4135 37.238 36.0167V28.9086C37.238 27.5118 38.3504 26.3943 39.7409 26.3943C41.1315 26.3943 42.2439 27.5118 42.2439 28.9086V36.0167Z" fill="white"/>
<path d="M58.5278 40.7037C60.9341 40.7037 62.8848 38.7442 62.8848 36.3271C62.8848 33.91 60.9341 31.9505 58.5278 31.9505C56.1216 31.9505 54.1709 33.91 54.1709 36.3271C54.1709 38.7442 56.1216 40.7037 58.5278 40.7037Z" fill="#DD4368"/>
<path d="M61.0312 36.0167C61.0312 37.4135 59.9188 38.5309 58.5283 38.5309C57.1378 38.5309 56.0254 37.4135 56.0254 36.0167V28.9086C56.0254 27.5118 57.1378 26.3943 58.5283 26.3943C59.9188 26.3943 61.0312 27.5118 61.0312 28.9086V36.0167Z" fill="white"/>
<path d="M77.3151 40.7037C79.7213 40.7037 81.672 38.7442 81.672 36.3271C81.672 33.91 79.7213 31.9505 77.3151 31.9505C74.9088 31.9505 72.9581 33.91 72.9581 36.3271C72.9581 38.7442 74.9088 40.7037 77.3151 40.7037Z" fill="#DD4368"/>
<path d="M79.8184 36.0167C79.8184 37.4135 78.706 38.5309 77.3155 38.5309C75.925 38.5309 74.8126 37.4135 74.8126 36.0167V28.9086C74.8126 27.5118 75.925 26.3943 77.3155 26.3943C78.706 26.3943 79.8184 27.5118 79.8184 28.9086V36.0167Z" fill="white"/>
<path d="M96.1024 40.7037C98.5087 40.7037 100.459 38.7442 100.459 36.3271C100.459 33.91 98.5087 31.9505 96.1024 31.9505C93.6961 31.9505 91.7455 33.91 91.7455 36.3271C91.7455 38.7442 93.6961 40.7037 96.1024 40.7037Z" fill="#DD4368"/>
<path d="M98.6058 36.0167C98.6058 37.4135 97.4934 38.5309 96.1029 38.5309C94.7124 38.5309 93.6 37.4135 93.6 36.0167V28.9086C93.6 27.5118 94.7124 26.3943 96.1029 26.3943C97.4934 26.3943 98.6058 27.5118 98.6058 28.9086V36.0167Z" fill="white"/>
<g opacity="0.8">
<g opacity="0.8">
<path opacity="0.8" d="M36.8365 50.4191C36.5892 50.4191 36.4347 50.5123 36.4347 50.6985C36.4347 51.2572 37.8255 50.9468 37.8255 51.878C37.8255 52.3436 37.4237 52.623 36.8674 52.623C36.4656 52.623 36.0947 52.4678 35.8165 52.2194L36.002 51.847C36.2492 52.0953 36.5892 52.2194 36.8674 52.2194C37.1765 52.2194 37.331 52.0953 37.331 51.9091C37.331 51.3503 35.9402 51.6607 35.9402 50.7295C35.9402 50.295 36.3111 50.0156 36.8674 50.0156C37.2074 50.0156 37.5165 50.1087 37.7637 50.295L37.5783 50.6675C37.3001 50.4812 37.0219 50.4191 36.8365 50.4191Z" fill="#3D3544"/>
<path opacity="0.8" d="M46.6005 50.0466L47.435 51.7538L48.2695 50.0466H48.7641V52.6229H48.3623V50.6984L47.5587 52.3435H47.2805L46.4769 50.6984V52.6229H46.0751V50.0466H46.6005Z" fill="#3D3544"/>
<path opacity="0.8" d="M58.7137 50.0466V50.4501H57.9101V52.6229H57.4774V50.4501H56.6738V50.0466H58.7137Z" fill="#3D3544"/>
<path opacity="0.8" d="M66.9946 50.0466L67.6128 52.1262L68.2309 50.0466H68.6637L69.2818 52.1262L69.9 50.0466H70.3327L69.4673 52.6229H69.0345L68.4164 50.6053L67.7982 52.6229H67.3655L66.531 50.0466H66.9946Z" fill="#3D3544"/>
<path opacity="0.8" d="M89.5829 50.0466V50.4501H88.3156V51.195H89.4901V51.5675H88.3156V52.6229H87.8829V50.0466H89.5829Z" fill="#3D3544"/>
<path opacity="0.8" d="M99.3472 50.4191C99.1 50.4191 98.9454 50.5123 98.9454 50.6985C98.9454 51.2572 100.336 50.9468 100.336 51.878C100.336 52.3436 99.9345 52.623 99.3781 52.623C98.9763 52.623 98.6054 52.4678 98.3273 52.2194L98.5127 51.847C98.7909 52.0953 99.1 52.2194 99.3781 52.2194C99.6872 52.2194 99.8417 52.0953 99.8417 51.9091C99.8417 51.3503 98.4509 51.6607 98.4509 50.7295C98.4509 50.295 98.8218 50.0156 99.3781 50.0156C99.7181 50.0156 100.027 50.1087 100.274 50.295L100.089 50.6675C99.8108 50.4812 99.5327 50.4191 99.3472 50.4191Z" fill="#EA3943"/>
<path opacity="0.8" d="M77.5624 50.0467V50.4502H76.759V52.623H76.3264V50.4502H75.5229V50.0467H77.5624ZM78.3349 50.0156V51.1331H79.6945V50.0156H80.1271V52.5919H79.6945V51.5366H78.3349V52.5919H77.9023V50.0156H78.3349Z" fill="#3D3544"/>
</g>
<path opacity="0.8" d="M78.7985 60.0104V62.6488H78.3658V60.414H77.7786V60.0104H78.7985Z" fill="#3D3544"/>
<path opacity="0.8" d="M89.0575 60.7244C89.0575 60.5071 88.872 60.3829 88.5939 60.3829C88.3466 60.3829 88.0684 60.5071 87.8521 60.7244L87.6666 60.3829C87.9448 60.1346 88.3157 60.0104 88.6557 60.0104C89.1811 60.0104 89.5211 60.2588 89.5211 60.6933C89.5211 60.9727 89.3047 61.252 89.0266 61.5624L88.3157 62.3074H89.6756V62.7109H87.7593V62.3695L88.7793 61.3141C88.9338 61.0658 89.0575 60.8796 89.0575 60.7244Z" fill="#3D3544"/>
<path opacity="0.8" d="M100.027 61.8418C100.027 62.3384 99.6254 62.6799 99.0072 62.6799C98.6672 62.6799 98.2963 62.5557 98.0491 62.4005L98.2345 62.028C98.4509 62.2143 98.6981 62.3074 98.9763 62.3074C99.3781 62.3074 99.5945 62.1211 99.5945 61.8418C99.5945 61.5624 99.3472 61.4072 98.9454 61.4072H98.5745V61.1589L99.3472 60.414H98.1727V60.0104H99.9035V60.2898L99.069 61.0968H99.2236C99.6872 61.1589 100.027 61.4072 100.027 61.8418Z" fill="#EA3943"/>
<path opacity="0.8" d="M36.991 66.8392L36.1256 68.4533H36.9292V67.8325H37.331V68.4533H37.7328V68.8568H37.331V69.5086H36.9292V68.8568H35.662V68.5154L36.5892 66.8392H36.991Z" fill="#3D3544"/>
<path opacity="0.8" d="M47.6512 67.8015C48.2384 67.8015 48.6402 68.1429 48.6402 68.6085C48.6402 69.1362 48.2384 69.5086 47.6203 69.5086C47.3112 69.5086 46.9094 69.3845 46.6312 69.1982L46.8167 68.8258C47.033 69.012 47.3112 69.1051 47.5585 69.1051C47.9294 69.1051 48.1457 68.9189 48.1457 68.6395C48.1457 68.3602 47.9294 68.205 47.5585 68.205C47.4039 68.205 47.033 68.205 46.8167 68.236V66.8392H48.4857V67.2427H47.2185V67.8015C47.373 67.8015 47.5276 67.8015 47.6512 67.8015Z" fill="#3D3544"/>
<path opacity="0.8" d="M58.0645 67.1806C57.5391 67.1806 57.3227 67.5531 57.3227 68.1429C57.4773 67.8946 57.7245 67.7704 58.0336 67.7704C58.5591 67.7704 58.8681 68.1118 58.8681 68.6085C58.8681 69.1672 58.4972 69.5086 57.9409 69.5086C57.2609 69.5086 56.8591 69.043 56.8591 68.205C56.8591 67.3669 57.2918 66.8082 58.0027 66.8082C58.25 66.8082 58.5591 66.9013 58.7754 66.9944L58.59 67.3358C58.4663 67.2427 58.25 67.1806 58.0645 67.1806ZM57.3846 68.6395C57.3846 68.8568 57.5391 69.1362 57.9409 69.1362C58.25 69.1362 58.4663 68.9499 58.4663 68.6395C58.4663 68.3291 58.2809 68.1429 57.9409 68.1429C57.6009 68.1118 57.3846 68.3602 57.3846 68.6395Z" fill="#3D3544"/>
<path opacity="0.8" d="M69.2197 66.8392V67.1807L68.107 69.4776H67.6434L68.7252 67.2427H67.6125V67.6152H67.2107V66.8392H69.2197Z" fill="#3D3544"/>
<path opacity="0.8" d="M79.4167 67.491C79.4167 67.7394 79.2622 67.9566 79.0458 68.0498C79.3549 68.1739 79.5713 68.3912 79.5713 68.7326C79.5713 69.1982 79.1695 69.5086 78.5513 69.5086C77.9332 69.5086 77.5314 69.2293 77.5314 68.7637C77.5314 68.4533 77.7477 68.205 78.0568 68.0808C77.8095 67.9566 77.655 67.7704 77.655 67.491C77.655 67.0875 77.995 66.8082 78.5204 66.8082C79.0767 66.8082 79.4167 67.0875 79.4167 67.491ZM77.9641 68.7016C77.9641 68.981 78.1804 69.1672 78.5513 69.1672C78.9222 69.1672 79.1386 69.012 79.1386 68.7016C79.1386 68.4222 78.9222 68.267 78.5513 68.267C78.1804 68.267 77.9641 68.4222 77.9641 68.7016ZM78.0568 67.5221C78.0568 67.7704 78.2422 67.9256 78.5513 67.9256C78.8604 67.9256 79.0458 67.7704 79.0458 67.5221C79.0458 67.2738 78.8604 67.1186 78.5513 67.1186C78.2422 67.1496 78.0568 67.2738 78.0568 67.5221Z" fill="#3D3544"/>
<path opacity="0.8" d="M88.5011 69.1362C88.9956 69.1362 89.2429 68.7637 89.2429 68.1739C89.0884 68.4222 88.872 68.5464 88.532 68.5464C88.0066 68.5464 87.6975 68.205 87.6975 67.7083C87.6975 67.1496 88.0684 66.8082 88.6247 66.8082C89.2738 66.8082 89.7065 67.2738 89.7065 68.1118C89.7065 68.9499 89.2738 69.5086 88.5629 69.5086C88.3157 69.5086 88.0066 69.4155 87.7902 69.3224L87.9757 68.981C88.0993 69.0741 88.3157 69.1362 88.5011 69.1362ZM88.0993 67.7083C88.0993 68.0187 88.2848 68.205 88.6247 68.205C88.9956 68.205 89.1811 67.9566 89.1811 67.7083C89.1811 67.491 89.0266 67.2117 88.6247 67.2117C88.3157 67.2117 88.0993 67.3979 88.0993 67.7083Z" fill="#3D3544"/>
<path opacity="0.8" d="M98.2038 66.8392V69.4776H97.7711V67.2427H97.2147V66.8392H98.2038Z" fill="#EA3943"/>
<path opacity="0.8" d="M101.263 68.1739C101.263 69.043 100.923 69.5086 100.274 69.5086C99.6251 69.5086 99.2852 69.043 99.2852 68.1739C99.2852 67.3048 99.6251 66.8392 100.274 66.8392C100.923 66.8392 101.263 67.3048 101.263 68.1739ZM99.7179 68.1739C99.7179 68.8568 99.9033 69.1672 100.274 69.1672C100.645 69.1672 100.831 68.8568 100.831 68.1739C100.831 67.4911 100.645 67.1807 100.274 67.1807C99.9033 67.1807 99.7179 67.4911 99.7179 68.1739Z" fill="#EA3943"/>
<path opacity="0.8" d="M35.7547 73.668V76.3063H35.322V74.0715H34.7656V73.668H35.7547Z" fill="#3D3544"/>
<path opacity="0.8" d="M38.0728 73.668V76.3063H37.6401V74.0715H37.0837V73.668H38.0728Z" fill="#3D3544"/>
<path opacity="0.8" d="M46.755 73.668V76.3063H46.3223V74.0715H45.766V73.668H46.755Z" fill="#3D3544"/>
<path opacity="0.8" d="M49.1963 74.3819C49.1963 74.1646 49.0108 74.0405 48.7327 74.0405C48.4854 74.0405 48.2072 74.1646 47.9909 74.3819L47.8054 74.0405C48.0836 73.7921 48.4545 73.668 48.7945 73.668C49.3199 73.668 49.6599 73.9163 49.6599 74.3508C49.6599 74.6302 49.4435 74.9096 49.1654 75.22L48.4545 75.9649H49.8144V76.3684H47.8981V76.027L48.9181 74.9716C49.0726 74.7544 49.1963 74.5371 49.1963 74.3819Z" fill="#3D3544"/>
<path opacity="0.8" d="M56.9521 73.668V76.3063H56.5194V74.0715H55.963V73.668H56.9521Z" fill="#3D3544"/>
<path opacity="0.8" d="M59.9188 75.4993C59.9188 75.996 59.517 76.3374 58.8988 76.3374C58.5588 76.3374 58.1879 76.2132 57.9407 76.058L58.1261 75.6856C58.3425 75.8718 58.5897 75.9649 58.8679 75.9649C59.2697 75.9649 59.4861 75.7787 59.4861 75.4993C59.4861 75.22 59.2388 75.0648 58.837 75.0648H58.4661V74.8164L59.2388 74.0715H58.0643V73.668H59.7951V73.9473L58.9606 74.7544H59.1152C59.6097 74.8164 59.9188 75.0648 59.9188 75.4993Z" fill="#3D3544"/>
<path opacity="0.8" d="M67.2727 73.668V76.3063H66.84V74.0715H66.2837V73.668H67.2727Z" fill="#3D3544"/>
<path opacity="0.8" d="M69.6522 73.6679L68.7868 75.251H69.5904V74.6302H69.9922V75.251H70.394V75.6545H69.9922V76.3063H69.5904V75.6545H68.2922V75.313L69.2195 73.6369H69.6522V73.6679Z" fill="#3D3544"/>
<path opacity="0.8" d="M77.6243 73.668V76.3063H77.1916V74.0715H76.6353V73.668H77.6243Z" fill="#3D3544"/>
<path opacity="0.8" d="M79.6947 74.6302C80.2819 74.6302 80.6837 74.9716 80.6837 75.4372C80.6837 75.9649 80.2819 76.3374 79.6637 76.3374C79.3547 76.3374 78.9529 76.2132 78.6747 76.027L78.8601 75.6545C79.0765 75.8408 79.3547 75.9339 79.6019 75.9339C79.9728 75.9339 80.1892 75.7476 80.1892 75.4683C80.1892 75.1889 79.9728 75.0337 79.6019 75.0337C79.4474 75.0337 79.0765 75.0337 78.8601 75.0648V73.668H80.5292V74.0715H79.2619V74.6302C79.4165 74.6302 79.571 74.6302 79.6947 74.6302Z" fill="#3D3544"/>
<path opacity="0.8" d="M87.7904 73.668V76.3063H87.3577V74.0715H86.8014V73.668H87.7904Z" fill="#3D3544"/>
<path opacity="0.8" d="M90.0462 74.0094C89.5208 74.0094 89.3044 74.3819 89.3044 74.9716C89.428 74.7233 89.7062 74.5991 90.0153 74.5991C90.5407 74.5991 90.8807 74.9406 90.8807 75.4372C90.8807 75.9959 90.5098 76.3374 89.9535 76.3374C89.2735 76.3374 88.8717 75.8718 88.8717 75.0337C88.8717 74.1956 89.3044 73.6369 90.0153 73.6369C90.2626 73.6369 90.6025 73.73 90.788 73.8231L90.6025 74.1646C90.4789 74.0715 90.2317 74.0094 90.0462 74.0094ZM89.3971 75.4683C89.3971 75.6855 89.5517 75.9649 89.9535 75.9649C90.2626 75.9649 90.4789 75.7787 90.4789 75.4683C90.4789 75.1579 90.2935 74.9716 89.9535 74.9716C89.5826 74.9406 89.3662 75.1889 89.3971 75.4683Z" fill="#3D3544"/>
<path opacity="0.8" d="M98.2038 73.668V76.3063H97.7711V74.0715H97.2147V73.668H98.2038Z" fill="#EA3943"/>
<path opacity="0.8" d="M101.294 73.668V74.0094L100.181 76.3063H99.7179L100.8 74.0715H99.687V74.444H99.2852V73.668H101.294Z" fill="#EA3943"/>
<path opacity="0.8" d="M35.7547 80.7761V83.4144H35.322V81.1796H34.7656V80.7761H35.7547Z" fill="#3D3544"/>
<path opacity="0.8" d="M38.6909 81.4589C38.6909 81.7073 38.5364 81.9245 38.32 82.0176C38.6291 82.1418 38.8454 82.3591 38.8454 82.7005C38.8454 83.1661 38.4436 83.4765 37.8564 83.4765C37.2382 83.4765 36.8364 83.1972 36.8364 82.7316C36.8364 82.4212 37.0528 82.1728 37.3619 82.0487C37.1146 81.9245 36.9601 81.7383 36.9601 81.4589C36.9601 81.0554 37.3 80.7761 37.8255 80.7761C38.3818 80.7761 38.6909 81.0244 38.6909 81.4589ZM37.2382 82.6384C37.2382 82.9178 37.4546 83.104 37.8255 83.104C38.1964 83.104 38.4127 82.9488 38.4127 82.6695C38.4127 82.3901 38.1964 82.2349 37.8255 82.2349C37.4546 82.2039 37.2382 82.3901 37.2382 82.6384ZM37.331 81.49C37.331 81.7383 37.5164 81.8935 37.8255 81.8935C38.1346 81.8935 38.32 81.7383 38.32 81.49C38.32 81.2417 38.1346 81.0865 37.8255 81.0865C37.5164 81.0865 37.331 81.2417 37.331 81.49Z" fill="#3D3544"/>
<path opacity="0.8" d="M46.755 80.7761V83.4144H46.3223V81.1796H45.766V80.7761H46.755Z" fill="#3D3544"/>
<path opacity="0.8" d="M48.6399 83.073C49.1344 83.073 49.3817 82.7005 49.3817 82.1107C49.2272 82.3591 49.0108 82.4832 48.6708 82.4832C48.1454 82.4832 47.8363 82.1418 47.8363 81.6451C47.8363 81.0864 48.2072 80.745 48.7635 80.745C49.4126 80.745 49.8453 81.2106 49.8453 82.0487C49.8453 82.8867 49.4126 83.4454 48.7017 83.4454C48.4545 83.4454 48.1454 83.3523 47.929 83.2592L48.1145 82.9178C48.2381 83.0109 48.4545 83.073 48.6399 83.073ZM48.2381 81.6762C48.2381 81.9866 48.4236 82.1728 48.7635 82.1728C49.1344 82.1728 49.3199 81.9245 49.3199 81.6762C49.3199 81.4589 49.1653 81.1796 48.7635 81.1796C48.4545 81.1485 48.2381 81.3348 48.2381 81.6762Z" fill="#3D3544"/>
<path opacity="0.8" d="M57.0758 81.49C57.0758 81.2727 56.8903 81.1485 56.6122 81.1485C56.3649 81.1485 56.0867 81.2727 55.8704 81.49L55.6849 81.1485C55.994 80.9002 56.334 80.7761 56.674 80.7761C57.1994 80.7761 57.5394 81.0244 57.5394 81.4589C57.5394 81.7383 57.3231 82.0176 57.0449 82.328L56.334 83.073H57.6939V83.4765H55.7777V83.1351L56.7976 82.0797C56.9522 81.8625 57.0758 81.6452 57.0758 81.49Z" fill="#3D3544"/>
<path opacity="0.8" d="M60.0114 82.1108C60.0114 82.9799 59.6714 83.4455 59.0224 83.4455C58.3733 83.4455 58.0333 82.9799 58.0333 82.1108C58.0333 81.2417 58.3733 80.7761 59.0224 80.7761C59.6714 80.7761 60.0114 81.2417 60.0114 82.1108ZM58.466 82.1108C58.466 82.7937 58.6515 83.104 59.0224 83.104C59.3933 83.104 59.5787 82.7937 59.5787 82.1108C59.5787 81.4279 59.3933 81.1175 59.0224 81.1175C58.6515 81.1175 58.466 81.4279 58.466 82.1108Z" fill="#3D3544"/>
<path opacity="0.8" d="M67.3965 81.49C67.3965 81.2727 67.211 81.1485 66.9329 81.1485C66.6856 81.1485 66.4074 81.2727 66.1911 81.49L66.0056 81.1485C66.2838 80.9002 66.6547 80.7761 66.9947 80.7761C67.5201 80.7761 67.8601 81.0244 67.8601 81.4589C67.8601 81.7383 67.6437 82.0176 67.3656 82.328L66.6547 83.073H68.0146V83.4765H66.0983V83.1351L67.1183 82.0797C67.2728 81.8625 67.3965 81.6452 67.3965 81.49Z" fill="#3D3544"/>
<path opacity="0.8" d="M69.5902 80.7761V83.4144H69.1575V81.1796H68.6012V80.7761H69.5902Z" fill="#3D3544"/>
<path opacity="0.8" d="M77.748 81.49C77.748 81.2727 77.5626 81.1485 77.2844 81.1485C77.0372 81.1485 76.759 81.2727 76.5426 81.49L76.3572 81.1485C76.6663 80.9002 77.0062 80.7761 77.3462 80.7761C77.8717 80.7761 78.2116 81.0244 78.2116 81.4589C78.2116 81.7383 77.9953 82.0176 77.7171 82.328L77.0062 83.073H78.3662V83.4765H76.4499V83.1351L77.4699 82.0797C77.6244 81.8625 77.748 81.6452 77.748 81.49Z" fill="#3D3544"/>
<path opacity="0.8" d="M80.0655 81.49C80.0655 81.2727 79.8801 81.1485 79.6019 81.1485C79.3546 81.1485 79.0765 81.2727 78.8601 81.49L78.7056 81.1485C78.9837 80.9002 79.3546 80.7761 79.6946 80.7761C80.22 80.7761 80.56 81.0244 80.56 81.4589C80.56 81.7383 80.3437 82.0176 80.0655 82.328L79.3546 83.073H80.7146V83.4765H78.7983V83.1351L79.8182 82.0797C79.9419 81.8625 80.0655 81.6452 80.0655 81.49Z" fill="#3D3544"/>
<path opacity="0.8" d="M87.9142 81.49C87.9142 81.2727 87.7287 81.1485 87.4506 81.1485C87.2033 81.1485 86.9251 81.2727 86.7088 81.49L86.5233 81.1485C86.8015 80.9002 87.1724 80.7761 87.5124 80.7761C88.0378 80.7761 88.3778 81.0244 88.3778 81.4589C88.3778 81.7383 88.1614 82.0176 87.8833 82.328L87.1724 83.073H88.5323V83.4765H86.616V83.1351L87.6051 82.0797C87.7596 81.8625 87.9142 81.6452 87.9142 81.49Z" fill="#3D3544"/>
<path opacity="0.8" d="M90.7572 82.6074C90.7572 83.1041 90.3554 83.4455 89.7063 83.4455C89.3663 83.4455 88.9954 83.3213 88.7482 83.1661L88.9336 82.7937C89.15 82.9799 89.3972 83.073 89.6754 83.073C90.0772 83.073 90.2936 82.8868 90.2936 82.6074C90.2936 82.3281 90.0463 82.1729 89.6445 82.1729H89.2736V81.9245L90.0463 81.1796H88.9027V80.7761H90.6336V81.0554L89.799 81.8625H89.9536C90.4172 81.9556 90.7572 82.2039 90.7572 82.6074Z" fill="#3D3544"/>
<path opacity="0.8" d="M98.3275 81.49C98.3275 81.2727 98.1421 81.1485 97.8639 81.1485C97.6166 81.1485 97.3384 81.2727 97.1221 81.49L96.9366 81.1485C97.2148 80.9002 97.5857 80.7761 97.9257 80.7761C98.4511 80.7761 98.7911 81.0244 98.7911 81.4589C98.7911 81.7383 98.5748 82.0176 98.2966 82.328L97.5857 83.073H98.9457V83.4765H97.0294V83.1351L98.0493 82.0797C98.2039 81.8625 98.3275 81.6452 98.3275 81.49Z" fill="#EA3943"/>
<path opacity="0.8" d="M100.614 80.7761L99.7178 82.3901H100.521V81.7693H100.923V82.3901H101.325V82.7937H100.954V83.4455H100.552V82.7937H99.2542V82.4522L100.181 80.7761H100.614Z" fill="#EA3943"/>
<path opacity="0.8" d="M35.8783 88.3498C35.8783 88.1325 35.6928 88.0083 35.4147 88.0083C35.1674 88.0083 34.8892 88.1325 34.6729 88.3498L34.4874 88.0083C34.7965 87.76 35.1365 87.6359 35.4765 87.6359C36.0019 87.6359 36.3419 87.8842 36.3419 88.3187C36.3419 88.5981 36.1255 88.8775 35.8474 89.1878L35.1365 89.9328H36.4964V90.3363H34.5801V89.9949L35.5692 88.9395C35.7547 88.6912 35.8783 88.4739 35.8783 88.3498Z" fill="#3D3544"/>
<path opacity="0.8" d="M37.7946 88.5981C38.3819 88.5981 38.7837 88.9395 38.7837 89.4051C38.7837 89.9328 38.3819 90.3053 37.7637 90.3053C37.4546 90.3053 37.0528 90.1811 36.7747 89.9949L36.9601 89.6224C37.1765 89.8086 37.4546 89.9018 37.7019 89.9018C38.0728 89.9018 38.2891 89.7155 38.2891 89.4362C38.2891 89.1568 38.0728 89.0016 37.7019 89.0016C37.5474 89.0016 37.1765 89.0016 36.9601 89.0327V87.6359H38.6291V88.0394H37.3619V88.6291C37.5474 88.5981 37.7019 88.5981 37.7946 88.5981Z" fill="#3D3544"/>
<path opacity="0.8" d="M46.8788 88.3498C46.8788 88.1325 46.6933 88.0083 46.4152 88.0083C46.1679 88.0083 45.8897 88.1325 45.6734 88.3498L45.4879 88.0083C45.7661 87.76 46.137 87.6359 46.477 87.6359C47.0024 87.6359 47.3424 87.8842 47.3424 88.3187C47.3424 88.5981 47.126 88.8775 46.8479 89.1878L46.137 89.9328H47.4969V90.3363H45.5806V89.9949L46.6006 88.9395C46.7242 88.6912 46.8788 88.4739 46.8788 88.3498Z" fill="#3D3544"/>
<path opacity="0.8" d="M49.0108 87.9773C48.4854 87.9773 48.269 88.3498 48.269 88.9395C48.4235 88.6912 48.6708 88.567 48.9799 88.567C49.5053 88.567 49.8453 88.9085 49.8453 89.4051C49.8453 89.9638 49.4744 90.3053 48.9181 90.3053C48.2381 90.3053 47.8363 89.8397 47.8363 89.0016C47.8363 88.1635 48.269 87.6048 48.9799 87.6048C49.2272 87.6048 49.5671 87.6979 49.7526 87.791L49.5671 88.1325C49.4435 88.0394 49.1962 87.9773 49.0108 87.9773ZM48.3617 89.4051C48.3617 89.6224 48.5163 89.9017 48.9181 89.9017C49.2272 89.9017 49.4435 89.7155 49.4435 89.4051C49.4435 89.0947 49.2581 88.9085 48.9181 88.9085C48.5472 88.9085 48.3308 89.1568 48.3617 89.4051Z" fill="#3D3544"/>
<path opacity="0.8" d="M57.0758 88.3498C57.0758 88.1325 56.8903 88.0083 56.6122 88.0083C56.3649 88.0083 56.0867 88.1325 55.8704 88.3498L55.6849 88.0083C55.994 87.76 56.334 87.6359 56.674 87.6359C57.1994 87.6359 57.5394 87.8842 57.5394 88.3187C57.5394 88.5981 57.3231 88.8775 57.0449 89.1878L56.334 89.9328H57.6939V90.3363H55.7777V89.9949L56.7976 88.9395C56.9522 88.6912 57.0758 88.4739 57.0758 88.3498Z" fill="#3D3544"/>
<path opacity="0.8" d="M60.0423 87.6359V87.9773L58.9297 90.2742H58.466L59.5478 88.0394H58.4351V88.4119H58.0333V87.6359H60.0423Z" fill="#3D3544"/>
<path opacity="0.8" d="M67.3965 88.3498C67.3965 88.1325 67.211 88.0083 66.9329 88.0083C66.6856 88.0083 66.4074 88.1325 66.1911 88.3498L66.0056 88.0083C66.2838 87.76 66.6547 87.6359 66.9947 87.6359C67.5201 87.6359 67.8601 87.8842 67.8601 88.3187C67.8601 88.5981 67.6437 88.8775 67.3656 89.1878L66.6547 89.9328H68.0146V90.3363H66.0983V89.9949L67.1183 88.9395C67.2728 88.6912 67.3965 88.4739 67.3965 88.3498Z" fill="#3D3544"/>
<path opacity="0.8" d="M70.2085 88.2877C70.2085 88.536 70.0539 88.7533 69.8376 88.8464C70.1466 88.9705 70.363 89.1878 70.363 89.5293C70.363 89.9949 69.9612 90.3053 69.374 90.3053C68.7558 90.3053 68.354 90.0259 68.354 89.5603C68.354 89.2499 68.5704 89.0016 68.8794 88.8774C68.6322 88.7533 68.4776 88.567 68.4776 88.2877C68.4776 87.8842 68.8176 87.6048 69.343 87.6048C69.8685 87.6048 70.2085 87.8531 70.2085 88.2877ZM68.7558 89.4982C68.7558 89.7776 68.9722 89.9638 69.343 89.9638C69.7139 89.9638 69.9303 89.8086 69.9303 89.5293C69.9303 89.2499 69.7139 89.0947 69.343 89.0947C68.9722 89.0637 68.7558 89.2189 68.7558 89.4982ZM68.8485 88.3187C68.8485 88.567 69.034 88.7222 69.343 88.7222C69.6521 88.7222 69.8376 88.567 69.8376 88.3187C69.8376 88.0704 69.6521 87.9152 69.343 87.9152C69.034 87.9152 68.8485 88.0704 68.8485 88.3187Z" fill="#3D3544"/>
<path opacity="0.8" d="M77.748 88.3498C77.748 88.1325 77.5626 88.0083 77.2844 88.0083C77.0372 88.0083 76.759 88.1325 76.5426 88.3498L76.3572 88.0083C76.6663 87.76 77.0062 87.6359 77.3462 87.6359C77.8717 87.6359 78.2116 87.8842 78.2116 88.3187C78.2116 88.5981 77.9953 88.8775 77.7171 89.1878L77.0062 89.9328H78.3662V90.3363H76.4499V89.9949L77.4699 88.9395C77.6244 88.6912 77.748 88.4739 77.748 88.3498Z" fill="#3D3544"/>
<path opacity="0.8" d="M79.54 89.9328C80.0346 89.9328 80.2818 89.5603 80.2818 88.9706C80.1582 89.2189 79.9109 89.343 79.571 89.343C79.0455 89.343 78.7365 89.0016 78.7365 88.505C78.7365 87.9462 79.1073 87.6048 79.6637 87.6048C80.3127 87.6048 80.7454 88.0704 80.7454 88.8774C80.7454 89.7155 80.3127 90.2742 79.6019 90.2742C79.3546 90.2742 79.0455 90.1811 78.8292 90.088L79.0146 89.7466C79.1073 89.8707 79.3237 89.9328 79.54 89.9328ZM79.1073 88.505C79.1073 88.8154 79.2928 89.0016 79.6328 89.0016C80.0037 89.0016 80.1891 88.7533 80.1891 88.505C80.1891 88.2877 80.0346 88.0083 79.6328 88.0083C79.3237 87.9773 79.1073 88.1635 79.1073 88.505Z" fill="#3D3544"/>
<path opacity="0.8" d="M88.4397 89.4362C88.4397 89.9328 88.0379 90.2742 87.4197 90.2742C87.0797 90.2742 86.7088 90.1501 86.4615 89.9949L86.647 89.6224C86.8634 89.8086 87.1106 89.9018 87.3888 89.9018C87.7906 89.9018 88.0069 89.7155 88.0069 89.4362C88.0069 89.1568 87.7597 89.0016 87.3579 89.0016H86.987V88.7533L87.7597 88.0083H86.5852V87.6048H88.316V87.8842L87.4815 88.6912H87.636C88.0997 88.7843 88.4397 89.0326 88.4397 89.4362Z" fill="#3D3544"/>
<path opacity="0.8" d="M90.8498 88.9395C90.8498 89.8086 90.5098 90.2742 89.8608 90.2742C89.2117 90.2742 88.8717 89.8086 88.8717 88.9395C88.8717 88.0704 89.2117 87.6048 89.8608 87.6048C90.4789 87.6048 90.8498 88.1014 90.8498 88.9395ZM89.3044 88.9395C89.3044 89.6224 89.4899 89.9328 89.8608 89.9328C90.2317 89.9328 90.4171 89.6224 90.4171 88.9395C90.4171 88.2566 90.2317 87.9462 89.8608 87.9462C89.4899 87.9462 89.3044 88.2877 89.3044 88.9395Z" fill="#3D3544"/>
<path opacity="0.8" d="M98.8839 89.4362C98.8839 89.9328 98.4821 90.2742 97.8639 90.2742C97.5239 90.2742 97.153 90.1501 96.9058 89.9949L97.0912 89.6224C97.3076 89.8086 97.5548 89.9018 97.833 89.9018C98.2348 89.9018 98.4512 89.7155 98.4512 89.4362C98.4512 89.1568 98.2039 89.0016 97.8021 89.0016H97.4312V88.7533L98.2039 88.0083H97.0294V87.6048H98.7602V87.8842L97.9257 88.6912H98.0803C98.5439 88.7843 98.8839 89.0326 98.8839 89.4362Z" fill="#EA3943"/>
<path opacity="0.8" d="M100.521 87.6359V90.2742H100.089V88.0394H99.5322V87.6359H100.521Z" fill="#EA3943"/>
</g>
<path opacity="0.4" d="M53.3057 74.1646C53.3057 72.6747 54.5108 71.4641 55.994 71.4641C56.7047 71.4641 57.3536 71.7435 57.848 72.2091C58.3424 71.7435 58.9913 71.4641 59.702 71.4641C61.1852 71.4641 62.3903 72.6747 62.3903 74.1646C62.3903 75.6545 60.7835 77.0513 57.8171 78.7895C54.8816 77.0513 53.3057 75.6545 53.3057 74.1646ZM68.1377 78.7895C71.1042 77.0513 72.711 75.6545 72.711 74.1646C72.711 72.6747 71.5059 71.4641 70.0226 71.4641C69.3119 71.4641 68.663 71.7435 68.1686 72.2091C67.6742 71.7435 67.0253 71.4641 66.3146 71.4641C64.8314 71.4641 63.6263 72.6747 63.6263 74.1646C63.5954 75.6545 65.1713 77.0513 68.1377 78.7895ZM78.5511 78.7895C81.5175 77.0513 83.0934 75.6545 83.0934 74.1646C83.0934 72.6747 81.8883 71.4641 80.4051 71.4641C79.6944 71.4641 79.0455 71.7435 78.5511 72.2091C78.0567 71.7435 77.4078 71.4641 76.6971 71.4641C75.2139 71.4641 74.0088 72.6747 74.0088 74.1646C73.9779 75.6545 75.5847 77.0513 78.5511 78.7895ZM88.8717 78.7895C91.8382 77.0513 93.4141 75.6545 93.4141 74.1646C93.4141 72.6747 92.209 71.4641 90.7258 71.4641C90.015 71.4641 89.3661 71.7435 88.8717 72.2091C88.3773 71.7435 87.7284 71.4641 87.0177 71.4641C85.5345 71.4641 84.3294 72.6747 84.3294 74.1646C84.3294 75.6545 85.9053 77.0513 88.8717 78.7895Z" fill="#EA3943"/>
<path opacity="0.15" d="M52.3477 97.0409C52.3477 97.0099 52.3477 97.0099 52.3477 96.9789C52.3168 96.8547 52.2859 96.7616 52.255 96.6374C52.255 96.6064 52.2241 96.5753 52.2241 96.5443C52.1932 96.4201 52.1623 96.327 52.1314 96.2339C52.1314 96.2029 52.1005 96.1718 52.1005 96.1408C52.0696 96.0477 52.0387 95.9235 52.0078 95.8304C52.0078 95.7993 51.9769 95.7683 51.9769 95.7373C51.946 95.6441 51.9151 95.52 51.8533 95.4269C51.8533 95.3958 51.8224 95.3648 51.8224 95.3648C51.7915 95.2717 51.7606 95.1785 51.6988 95.0854C51.6988 95.0544 51.6679 95.0544 51.6679 95.0233C51.637 94.9302 51.6061 94.8371 51.5752 94.744C51.5752 94.7129 51.5752 94.7129 51.5443 94.6819C51.5134 94.5888 51.4825 94.4957 51.4516 94.4336C51.4516 94.4025 51.4516 94.4025 51.4207 94.3715C51.3898 94.2784 51.3589 94.2163 51.328 94.1232V94.0922C51.2971 93.999 51.2662 93.9369 51.2353 93.8749V93.8438C51.2044 93.7817 51.1735 93.7197 51.1426 93.6576V93.6266C51.1117 93.5645 51.0808 93.5024 51.0808 93.4403C51.0808 93.4403 51.0808 93.4403 51.0808 93.4093C51.0499 93.3472 51.0499 93.3162 51.019 93.2541C51.019 93.2541 51.019 93.2541 51.019 93.223C50.9881 93.192 50.9881 93.1299 50.9572 93.0989C50.9572 93.0989 50.9572 93.0989 50.9572 93.0678C50.9572 93.0368 50.9263 93.0058 50.9263 92.9747V92.9437V92.9126V92.8816C50.9263 92.8816 41.6872 95.7373 28.74 98.1273C15.7928 100.548 6.18289 101.231 6.18289 101.231C6.18289 101.231 6.12109 101.914 6.12109 102.97C6.12109 104.459 6.18289 106.756 6.6155 108.991C6.9554 110.698 7.4807 112.375 8.37681 113.678C8.37681 113.678 8.43861 113.678 8.59311 113.647L8.40771 113.678C8.40771 113.678 20.0571 117.403 29.049 127.832C29.049 127.832 30.4086 128.608 33.4059 128.236C33.6531 128.205 33.9003 128.174 34.1476 128.112H34.1784C34.2094 128.112 34.2712 128.112 34.3021 128.081C37.9483 127.398 39.1225 125.939 39.1225 125.939C43.7884 112.964 53.3366 105.266 53.3366 105.266L53.1512 105.298C53.2748 105.266 53.3366 105.266 53.3366 105.266C53.8001 102.814 53.1203 99.5862 52.3477 97.0409Z" fill="#3D3544"/>
<path d="M6.98633 113.771C6.98633 113.771 18.8211 116.937 28.3074 126.901L38.2882 124.511C42.367 111.319 51.5135 103.187 51.5135 103.187L6.98633 113.771Z" fill="#79BADB"/>
<path d="M48.4872 90.8951C48.4872 90.8951 39.4025 94.1853 26.6099 97.2272C13.8172 100.269 4.20726 101.418 4.20726 101.418C4.20726 101.418 3.96006 109.674 6.98828 113.74C6.98828 113.74 24.8486 109.084 28.3094 126.87C28.3094 126.87 29.978 127.739 33.5933 126.87C37.1777 126.001 38.321 124.48 38.321 124.48C33.5006 107.067 51.5154 103.187 51.5154 103.187C52.4115 98.1584 48.4872 90.8951 48.4872 90.8951Z" fill="#9BD3F4"/>
<path opacity="0.5" d="M34.2102 105.173C34.272 105.422 34.1175 105.67 33.8703 105.732C33.6231 105.794 33.3759 105.639 33.3141 105.391C33.2523 105.142 33.4068 104.894 33.654 104.832C33.9012 104.77 34.1484 104.925 34.2102 105.173ZM32.2635 98.9965C32.0163 99.0586 31.8618 99.3069 31.9236 99.5552C31.9854 99.8035 32.2326 99.9587 32.4798 99.8966C32.727 99.8346 32.8815 99.5862 32.8197 99.3379C32.7579 99.0896 32.5107 98.9344 32.2635 98.9965ZM33.9321 114.175C33.6849 114.237 33.5304 114.485 33.5922 114.734C33.654 114.982 33.9012 115.137 34.1484 115.075C34.3956 115.013 34.5501 114.765 34.4883 114.516C34.4265 114.268 34.1793 114.113 33.9321 114.175ZM35.3226 120.041C35.0754 120.104 34.9209 120.352 34.9827 120.6C35.0445 120.849 35.2917 121.004 35.5389 120.942C35.7861 120.88 35.9406 120.631 35.8788 120.383C35.817 120.135 35.5698 119.979 35.3226 120.041ZM36.4041 116.565C36.1569 116.627 36.0024 116.875 36.0642 117.124C36.126 117.372 36.3732 117.527 36.6204 117.465C36.8676 117.403 37.0221 117.155 36.9603 116.906C36.8985 116.658 36.6513 116.503 36.4041 116.565ZM32.5725 108.339C32.3253 108.402 32.1708 108.65 32.2326 108.898C32.2944 109.146 32.5416 109.302 32.7888 109.24C33.036 109.178 33.1905 108.929 33.1287 108.681C33.036 108.433 32.7888 108.277 32.5725 108.339ZM33.4995 95.7373C33.2523 95.7994 33.0978 96.0477 33.1596 96.296C33.2214 96.5443 33.4686 96.6995 33.7158 96.6375C33.963 96.5754 34.1175 96.3271 34.0557 96.0787C33.963 95.8304 33.7467 95.6752 33.4995 95.7373ZM34.8591 101.604C34.6119 101.666 34.4574 101.914 34.5192 102.163C34.581 102.411 34.8282 102.566 35.0754 102.504C35.3226 102.442 35.4771 102.194 35.4153 101.945C35.3535 101.697 35.1063 101.542 34.8591 101.604ZM35.0445 110.698C34.7973 110.761 34.6428 111.009 34.7046 111.257C34.7664 111.506 35.0136 111.661 35.2608 111.599C35.508 111.537 35.6625 111.288 35.6007 111.04C35.5389 110.792 35.2917 110.636 35.0445 110.698ZM32.727 117.434C32.4798 117.496 32.3253 117.745 32.3871 117.993C32.4489 118.241 32.6961 118.396 32.9433 118.334C33.1905 118.272 33.345 118.024 33.2832 117.776C33.2214 117.527 32.9742 117.372 32.727 117.434ZM34.3029 124.17C34.5501 124.108 34.7046 123.859 34.6428 123.611C34.581 123.363 34.3338 123.208 34.0866 123.27C33.8394 123.332 33.6849 123.58 33.7467 123.828C33.8394 124.077 34.0866 124.232 34.3029 124.17ZM20.3051 105.98C20.5523 105.918 20.7068 105.67 20.645 105.422C20.5832 105.173 20.336 105.018 20.0888 105.08C19.8416 105.142 19.6871 105.391 19.7489 105.639C19.8416 105.887 20.0888 106.043 20.3051 105.98ZM18.9455 100.145C19.1927 100.083 19.3472 99.8346 19.2854 99.5862C19.2236 99.3379 18.9764 99.1827 18.7292 99.2448C18.482 99.3069 18.3275 99.5552 18.3893 99.8035C18.4511 100.052 18.6983 100.176 18.9455 100.145ZM28.5864 99.8656C28.3392 99.9277 28.1847 100.176 28.2465 100.424C28.3083 100.673 28.5555 100.828 28.8027 100.766C29.0499 100.704 29.2044 100.455 29.1426 100.207C29.0808 99.9587 28.8336 99.8035 28.5864 99.8656ZM29.9769 105.732C29.7297 105.794 29.5752 106.043 29.637 106.291C29.6988 106.539 29.946 106.694 30.1932 106.632C30.4404 106.57 30.5949 106.322 30.5331 106.074C30.4404 105.825 30.2241 105.67 29.9769 105.732ZM29.7915 96.6064C29.5443 96.6685 29.3898 96.9168 29.4516 97.1651C29.5134 97.4135 29.7606 97.5687 30.0078 97.5066C30.255 97.4445 30.4095 97.1962 30.3477 96.9479C30.2859 96.6995 30.0387 96.5443 29.7915 96.6064ZM31.182 102.473C30.9348 102.535 30.7803 102.783 30.8421 103.032C30.9039 103.28 31.1511 103.435 31.3983 103.373C31.6455 103.311 31.8 103.063 31.7382 102.814C31.6764 102.566 31.4292 102.411 31.182 102.473ZM31.3365 111.568C31.0893 111.63 30.9348 111.878 30.9966 112.126C31.0584 112.375 31.3056 112.53 31.5528 112.468C31.8 112.406 31.9545 112.157 31.8927 111.909C31.8309 111.661 31.5837 111.506 31.3365 111.568ZM37.6401 113.306C37.3929 113.368 37.2384 113.616 37.3002 113.865C37.362 114.113 37.6092 114.268 37.8564 114.206C38.1036 114.144 38.2581 113.896 38.1963 113.647C38.1036 113.399 37.8873 113.244 37.6401 113.306ZM43.3567 96.3581C43.1095 96.4202 42.955 96.6685 43.0168 96.9168C43.0786 97.1651 43.3258 97.3203 43.573 97.2583C43.8202 97.1962 43.9747 96.9479 43.9129 96.6995C43.8202 96.4512 43.6039 96.296 43.3567 96.3581ZM45.9523 98.9654C45.7051 99.0275 45.5506 99.2758 45.6124 99.5242C45.6742 99.7725 45.9214 99.9277 46.1686 99.8656C46.4158 99.8035 46.5703 99.5552 46.5085 99.3069C46.4158 99.0586 46.1995 98.9034 45.9523 98.9654ZM21.6957 111.847C21.9429 111.785 22.0974 111.537 22.0356 111.288C21.9738 111.04 21.7266 110.885 21.4794 110.947C21.2322 111.009 21.0777 111.257 21.1395 111.506C21.2013 111.754 21.4485 111.909 21.6957 111.847ZM44.7163 102.194C44.4691 102.256 44.3146 102.504 44.3764 102.752C44.4382 103.001 44.6854 103.156 44.9326 103.094C45.1798 103.032 45.3343 102.783 45.2725 102.535C45.2107 102.287 44.9635 102.163 44.7163 102.194ZM42.2443 99.8346C41.9971 99.8966 41.8426 100.145 41.9044 100.393C41.9662 100.642 42.2134 100.797 42.4606 100.735C42.7078 100.673 42.8623 100.424 42.8005 100.176C42.7387 99.9277 42.4915 99.7725 42.2443 99.8346ZM44.5618 93.0989C44.3146 93.161 44.1601 93.4093 44.2219 93.6576C44.2837 93.906 44.5309 94.0612 44.7781 93.9991C45.0253 93.937 45.1798 93.6887 45.118 93.4404C45.0562 93.192 44.809 93.0368 44.5618 93.0989ZM49.6294 98.0653C49.3822 98.1274 49.2277 98.3757 49.2895 98.624C49.3513 98.8723 49.5985 99.0275 49.8457 98.9654C50.0929 98.9034 50.2474 98.6551 50.1856 98.4067C50.1238 98.1584 49.8766 98.0343 49.6294 98.0653ZM48.2389 92.2298C47.9917 92.2919 47.8372 92.5402 47.899 92.7885C47.9608 93.0368 48.208 93.192 48.4552 93.13C48.7024 93.0679 48.8569 92.8196 48.7951 92.5712C48.7333 92.3229 48.4861 92.1677 48.2389 92.2298ZM43.6348 105.701C43.3876 105.763 43.2331 106.011 43.2949 106.26C43.3567 106.508 43.6039 106.663 43.8511 106.601C44.0983 106.539 44.2528 106.291 44.191 106.043C44.1292 105.794 43.882 105.639 43.6348 105.701ZM47.0338 95.489C46.7866 95.5511 46.6321 95.7994 46.6939 96.0477C46.7557 96.296 47.0029 96.4512 47.2501 96.3891C47.4973 96.3271 47.6518 96.0787 47.59 95.8304C47.5282 95.5821 47.281 95.4269 47.0338 95.489ZM48.4243 101.324C48.1771 101.387 48.0226 101.635 48.0844 101.883C48.1462 102.132 48.3934 102.287 48.6406 102.225C48.8878 102.163 49.0423 101.914 48.9805 101.666C48.9187 101.418 48.6715 101.262 48.4243 101.324ZM37.1766 94.8682C36.9294 94.9303 36.7749 95.1786 36.8367 95.4269C36.8985 95.6752 37.1457 95.8304 37.3929 95.7683C37.6401 95.7063 37.7946 95.4579 37.7328 95.2096C37.671 94.9613 37.4238 94.8061 37.1766 94.8682ZM38.7216 109.829C38.4744 109.891 38.3199 110.14 38.3817 110.388C38.4435 110.636 38.6907 110.792 38.9379 110.73C39.1852 110.667 39.3396 110.419 39.2778 110.171C39.216 109.922 38.9688 109.767 38.7216 109.829ZM37.362 103.963C37.1148 104.025 36.9603 104.273 37.0221 104.522C37.0839 104.77 37.3311 104.925 37.5783 104.863C37.8255 104.801 37.98 104.553 37.9182 104.304C37.8255 104.056 37.5783 103.901 37.362 103.963ZM36.2496 107.439C36.0024 107.501 35.8479 107.75 35.9097 107.998C35.9715 108.246 36.2187 108.402 36.4659 108.339C36.7131 108.277 36.8676 108.029 36.8058 107.781C36.744 107.532 36.4968 107.377 36.2496 107.439ZM35.9715 98.0963C35.7243 98.1584 35.5698 98.4067 35.6316 98.655C35.6934 98.9034 35.9406 99.0586 36.1878 98.9965C36.435 98.9344 36.5895 98.6861 36.5277 98.4378C36.4659 98.1895 36.2187 98.0653 35.9715 98.0963ZM39.6487 97.2272C39.4014 97.2893 39.2469 97.5376 39.3088 97.7859C39.3705 98.0343 39.6178 98.1895 39.865 98.1274C40.1122 98.0653 40.2667 97.817 40.2049 97.5687C40.1431 97.3203 39.8959 97.1651 39.6487 97.2272ZM39.9268 106.57C39.6796 106.632 39.5251 106.881 39.5868 107.129C39.6487 107.377 39.8959 107.532 40.1431 107.47C40.3903 107.408 40.5448 107.16 40.483 106.912C40.4212 106.663 40.174 106.508 39.9268 106.57ZM41.0392 103.094C40.792 103.156 40.6375 103.404 40.6993 103.652C40.7611 103.901 41.0083 104.056 41.2555 103.994C41.5027 103.932 41.6572 103.683 41.5954 103.435C41.5336 103.187 41.2864 103.032 41.0392 103.094ZM40.8847 93.968C40.6375 94.0301 40.483 94.2784 40.5448 94.5268C40.6066 94.7751 40.8538 94.9303 41.101 94.8682C41.3482 94.8061 41.5027 94.5578 41.4409 94.3095C41.3482 94.0612 41.101 93.937 40.8847 93.968ZM38.5671 100.704C38.3199 100.766 38.1654 101.014 38.2272 101.262C38.289 101.511 38.5362 101.666 38.7834 101.604C39.0306 101.542 39.1851 101.293 39.1233 101.045C39.0615 100.797 38.8143 100.642 38.5671 100.704ZM37.4547 122.959C37.5165 123.208 37.7637 123.363 38.0109 123.301C37.9491 122.99 37.8873 122.711 37.8255 122.4H37.7946C37.5474 122.463 37.3929 122.711 37.4547 122.959ZM14.0942 112.716C13.847 112.778 13.6925 113.026 13.7543 113.275V113.306C14.0324 113.337 14.3105 113.368 14.5577 113.399C14.6195 113.306 14.6195 113.182 14.6195 113.058C14.5886 112.809 14.3414 112.654 14.0942 112.716ZM10.3553 105.142C10.6025 105.08 10.757 104.832 10.6952 104.584C10.6334 104.335 10.3862 104.18 10.139 104.242C9.89179 104.304 9.73729 104.553 9.79909 104.801C9.86089 105.049 10.1081 105.204 10.3553 105.142ZM11.5604 101.883C11.8076 101.821 11.9621 101.573 11.9003 101.324C11.8385 101.076 11.5913 100.921 11.3441 100.983C11.0969 101.045 10.9424 101.293 11.0042 101.542C11.066 101.79 11.3132 101.945 11.5604 101.883ZM11.7149 111.009C11.9621 110.947 12.1166 110.698 12.0548 110.45C11.993 110.202 11.7458 110.047 11.4986 110.109C11.2514 110.171 11.0969 110.419 11.1587 110.667C11.2205 110.885 11.4677 111.04 11.7149 111.009ZM12.92 107.75C13.1672 107.688 13.3217 107.439 13.2599 107.191C13.1981 106.943 12.9509 106.787 12.7037 106.85C12.4565 106.912 12.302 107.16 12.3638 107.408C12.4565 107.657 12.7037 107.812 12.92 107.75ZM9.24289 108.619C9.49009 108.557 9.64459 108.308 9.58279 108.06C9.52099 107.812 9.27379 107.657 9.02659 107.719C8.77939 107.781 8.62488 108.029 8.68668 108.277C8.74848 108.526 8.99569 108.681 9.24289 108.619ZM8.03778 111.878C8.28498 111.816 8.43948 111.568 8.37768 111.319C8.31588 111.071 8.06868 110.916 7.82148 110.978C7.57428 111.04 7.41978 111.288 7.48158 111.537C7.54338 111.785 7.79058 111.94 8.03778 111.878ZM7.85238 102.752C8.09958 102.69 8.25408 102.442 8.19228 102.194C8.13048 101.945 7.88328 101.79 7.63608 101.852C7.38888 101.914 7.23438 102.163 7.29618 102.411C7.38888 102.659 7.60518 102.814 7.85238 102.752ZM6.64727 106.011C6.89447 105.949 7.04898 105.701 6.98718 105.453C6.92537 105.204 6.67817 105.049 6.43097 105.111C6.18377 105.173 6.02927 105.422 6.09107 105.67C6.15287 105.918 6.40007 106.074 6.64727 106.011ZM15.4229 110.109C15.6701 110.047 15.8246 109.798 15.7628 109.55C15.701 109.302 15.4538 109.146 15.2066 109.209C14.9594 109.271 14.8049 109.519 14.8667 109.767C14.9285 110.016 15.1757 110.171 15.4229 110.109ZM26.1144 97.5066C25.8672 97.5687 25.7127 97.817 25.7745 98.0653C25.8363 98.3136 26.0835 98.4688 26.3307 98.4067C26.5779 98.3447 26.7324 98.0963 26.6706 97.848C26.6088 97.5997 26.3616 97.4445 26.1144 97.5066ZM14.0324 104.273C14.2796 104.211 14.4341 103.963 14.3723 103.715C14.3105 103.466 14.0633 103.311 13.8161 103.373C13.5689 103.435 13.4144 103.683 13.4762 103.932C13.538 104.18 13.7852 104.304 14.0324 104.273ZM19.1 109.24C19.3472 109.178 19.5017 108.929 19.4399 108.681C19.3781 108.433 19.1309 108.277 18.8837 108.339C18.6365 108.402 18.482 108.65 18.5438 108.898C18.6056 109.146 18.8528 109.302 19.1 109.24ZM4.51516 103.094C4.48426 102.939 4.36066 102.814 4.23706 102.783C4.23706 103.032 4.26796 103.311 4.26796 103.621C4.45336 103.528 4.54606 103.311 4.51516 103.094ZM5.00956 109.178C5.07136 109.426 5.31857 109.55 5.53487 109.519C5.78207 109.457 5.93657 109.209 5.87477 108.96C5.81297 108.712 5.56577 108.557 5.31857 108.619C5.10227 108.681 4.94776 108.898 5.00956 109.178C5.00956 109.146 5.00956 109.178 5.00956 109.178ZM17.5241 102.504C17.2769 102.566 17.1224 102.814 17.1842 103.063C17.246 103.311 17.4932 103.466 17.7404 103.404C17.9876 103.342 18.1421 103.094 18.0803 102.845C17.9876 102.597 17.7713 102.442 17.5241 102.504ZM22.9008 116.813C23.0862 116.969 23.2407 117.124 23.4261 117.279C23.4261 117.248 23.4261 117.217 23.4261 117.155C23.3643 116.906 23.148 116.782 22.9008 116.813ZM16.628 106.85C16.8752 106.787 17.0297 106.539 16.9679 106.291C16.9061 106.043 16.6589 105.887 16.4117 105.949C16.1645 106.011 16.01 106.26 16.0718 106.508C16.1336 106.756 16.3808 106.912 16.628 106.85ZM18.0185 112.716C18.2657 112.654 18.4202 112.406 18.3584 112.157C18.2966 111.909 18.0494 111.754 17.8022 111.816C17.555 111.878 17.4005 112.126 17.4623 112.375C17.5241 112.623 17.7713 112.778 18.0185 112.716ZM20.8304 114.547C20.7686 114.299 20.5214 114.144 20.2742 114.206C20.027 114.268 19.8725 114.516 19.9343 114.765C19.9343 114.827 19.9652 114.889 20.027 114.951C20.1506 115.013 20.2433 115.075 20.3669 115.137C20.3978 115.137 20.4596 115.137 20.4905 115.137C20.7377 115.044 20.8613 114.796 20.8304 114.547ZM15.2375 101.014C15.4847 100.952 15.6392 100.704 15.5774 100.455C15.5156 100.207 15.2684 100.052 15.0212 100.114C14.774 100.176 14.6195 100.424 14.6813 100.673C14.774 100.921 14.9903 101.076 15.2375 101.014ZM28.1538 122.68C28.401 122.618 28.5555 122.369 28.4937 122.121C28.4319 121.873 28.1847 121.718 27.9375 121.78C27.6903 121.842 27.5358 122.09 27.5976 122.338C27.6594 122.587 27.9066 122.742 28.1538 122.68ZM24.0132 105.111C24.2604 105.049 24.4149 104.801 24.3531 104.553C24.2913 104.304 24.0441 104.149 23.7969 104.211C23.5497 104.273 23.3952 104.522 23.457 104.77C23.5188 105.018 23.766 105.173 24.0132 105.111ZM25.3728 110.978C25.62 110.916 25.7745 110.667 25.7127 110.419C25.6509 110.171 25.4037 110.016 25.1565 110.078C24.9093 110.14 24.7548 110.388 24.8166 110.636C24.9093 110.885 25.1565 111.009 25.3728 110.978ZM26.7633 116.813C27.0105 116.751 27.165 116.503 27.1032 116.255C27.0414 116.006 26.7942 115.851 26.547 115.913C26.2998 115.975 26.1453 116.224 26.2071 116.472C26.2689 116.72 26.5161 116.875 26.7633 116.813ZM22.6227 99.2448C22.8699 99.1827 23.0244 98.9344 22.9626 98.6861C22.9008 98.4378 22.6536 98.2826 22.4064 98.3446C22.1592 98.4067 22.0047 98.6551 22.0665 98.9034C22.1283 99.1517 22.3755 99.3069 22.6227 99.2448ZM21.4176 102.504C21.6648 102.442 21.8193 102.194 21.7575 101.945C21.6957 101.697 21.4485 101.542 21.2013 101.604C20.9541 101.666 20.7996 101.914 20.8614 102.163C20.9232 102.411 21.1704 102.566 21.4176 102.504ZM25.8981 119.514C25.8363 119.265 25.5891 119.11 25.3419 119.172C25.2801 119.172 25.2183 119.203 25.1874 119.234C25.3728 119.483 25.5273 119.731 25.6818 119.979C25.8363 119.917 25.929 119.731 25.8981 119.514ZM22.8081 108.371C23.0553 108.308 23.2098 108.06 23.148 107.812C23.0862 107.563 22.839 107.408 22.5918 107.47C22.3446 107.532 22.1901 107.781 22.2519 108.029C22.3137 108.277 22.5609 108.433 22.8081 108.371ZM24.1677 114.206C24.4149 114.144 24.5694 113.896 24.5076 113.647C24.4458 113.399 24.1986 113.244 23.9514 113.306C23.7042 113.368 23.5497 113.616 23.6115 113.865C23.6733 114.113 23.9205 114.268 24.1677 114.206ZM29.0808 110.078C29.328 110.016 29.4825 109.767 29.4207 109.519C29.3589 109.271 29.1117 109.115 28.8645 109.178C28.6173 109.24 28.4628 109.488 28.5246 109.736C28.5864 109.985 28.8336 110.14 29.0808 110.078ZM30.4713 115.944C30.7185 115.882 30.873 115.634 30.8112 115.385C30.7494 115.137 30.5022 114.982 30.255 115.044C30.0078 115.106 29.8533 115.354 29.9151 115.603C29.9769 115.851 30.2241 116.006 30.4713 115.944ZM27.6903 104.242C27.9375 104.18 28.092 103.932 28.0302 103.683C27.9684 103.435 27.7212 103.28 27.474 103.342C27.2268 103.404 27.0723 103.652 27.1341 103.901C27.2268 104.149 27.4431 104.273 27.6903 104.242ZM31.8309 121.811C32.0781 121.749 32.2326 121.5 32.1708 121.252C32.109 121.004 31.8618 120.849 31.6146 120.911C31.3674 120.973 31.2129 121.221 31.2747 121.469C31.3674 121.718 31.5837 121.842 31.8309 121.811ZM33.0051 126.777C32.8506 126.808 32.727 126.932 32.6652 127.088C32.9124 127.056 33.1905 126.994 33.4377 126.932C33.3759 126.808 33.1905 126.715 33.0051 126.777ZM26.4852 107.47C26.7324 107.408 26.8869 107.16 26.8251 106.912C26.7633 106.663 26.5161 106.508 26.2689 106.57C26.0217 106.632 25.8672 106.881 25.929 107.129C25.9908 107.377 26.238 107.532 26.4852 107.47ZM27.8757 113.337C28.1229 113.275 28.2774 113.026 28.2156 112.778C28.1538 112.53 27.9066 112.375 27.6594 112.437C27.4122 112.499 27.2577 112.747 27.3195 112.995C27.3813 113.244 27.6285 113.399 27.8757 113.337ZM25.0947 101.635C25.3419 101.573 25.4964 101.324 25.4346 101.076C25.3728 100.828 25.1256 100.673 24.8784 100.735C24.6312 100.797 24.4767 101.045 24.5385 101.293C24.6312 101.542 24.8475 101.697 25.0947 101.635ZM30.6258 125.039C30.873 124.977 31.0275 124.728 30.9657 124.48C30.9039 124.232 30.6567 124.077 30.4095 124.139C30.1623 124.201 30.0078 124.449 30.0696 124.697C30.1314 124.946 30.3786 125.101 30.6258 125.039ZM29.2353 119.203C29.4825 119.141 29.637 118.893 29.5752 118.645C29.5134 118.396 29.2662 118.241 29.019 118.303C28.7718 118.365 28.6173 118.614 28.6791 118.862C28.7718 119.11 28.9881 119.265 29.2353 119.203Z" fill="white"/>
<path d="M48.4861 90.8951C48.4861 90.8951 39.4015 94.1853 26.6088 97.2272C13.8161 100.269 4.20617 101.418 4.20617 101.418C4.20617 101.418 4.14437 103.342 4.42247 105.794C8.16139 105.267 16.8752 103.901 27.5667 101.356C38.2582 98.8102 46.663 96.1098 50.2474 94.8992C49.4131 92.6023 48.4861 90.8951 48.4861 90.8951Z" fill="#F46782"/>
<path d="M35.4763 97.6928C35.3218 97.2582 35.0746 96.8237 34.7347 96.5133C34.611 96.3891 34.4875 96.296 34.3329 96.2339C34.2093 96.1718 34.0239 96.1098 33.9003 96.0787C32.9424 95.8925 31.9536 96.1098 31.0884 96.5133C30.0996 96.9478 29.358 97.6928 28.8018 98.5929C28.2456 99.4931 27.6585 100.331 27.0714 101.2C27.0714 101.231 27.1332 101.418 27.1332 101.418C27.1641 101.604 27.2259 101.79 27.2568 101.976C27.2568 102.007 27.4113 102.752 27.4422 102.752C28.0293 102.69 28.6164 102.783 29.2344 102.752C29.8833 102.721 30.5322 102.628 31.1502 102.504C32.3862 102.225 33.5604 101.697 34.642 101.107C35.0437 100.89 35.5072 100.642 35.6617 100.176C35.8471 99.5241 35.8162 98.8413 35.6308 98.2205C35.5999 98.0032 35.5381 97.848 35.4763 97.6928ZM33.4059 99.9897C32.4171 100.486 31.3665 100.828 30.285 101.045C29.7597 101.138 29.2344 101.2 28.7091 101.2C28.6473 101.2 28.5546 101.2 28.4928 101.2C28.7091 100.89 28.8945 100.579 29.1108 100.238C29.667 99.3068 30.3777 98.5929 31.3665 98.0963C32.2626 97.6617 33.2823 97.4445 34.2711 97.6307C34.6419 97.7238 34.9201 97.9101 35.1982 98.2205C35.26 98.2825 35.2909 98.3446 35.3527 98.4067C35.1673 99.2448 34.0857 99.6483 33.4059 99.9897Z" fill="white"/>
<path d="M27.4731 101.573C27.2259 102.318 27.4731 103.156 27.7821 103.87C28.1529 104.708 28.8327 105.329 29.6052 105.825C30.4086 106.322 31.1502 106.818 31.7682 107.532C32.4171 108.277 32.8497 109.146 33.2205 110.047C33.3441 110.357 34.5492 109.985 34.4565 109.767C33.7767 108.06 32.7261 106.601 31.1502 105.639C30.3159 105.142 29.5434 104.584 29.1108 103.714C28.7709 103.032 28.4619 102.131 28.7091 101.386C28.7709 101.138 27.5658 101.262 27.4731 101.573Z" fill="white"/>
<path d="M18.9447 102.131C19.0683 102.783 19.3464 103.404 19.8099 103.901C20.1498 104.242 20.6442 104.273 21.1386 104.273C22.4055 104.335 23.6724 104.273 24.9084 103.963C25.5264 103.808 26.1444 103.621 26.7315 103.342C27.2568 103.094 27.7512 102.752 28.3383 102.535C28.3692 102.535 28.1838 101.79 28.1529 101.759C28.122 101.573 28.0602 101.387 28.0293 101.2C28.0293 101.2 27.9984 100.983 27.9675 100.983C27.0405 100.486 26.1444 99.9897 25.2483 99.431C24.3522 98.8723 23.3634 98.5619 22.2819 98.5929C21.324 98.624 20.3661 98.9033 19.5627 99.4931C19.4391 99.5862 19.3155 99.7104 19.2537 99.8345C19.161 99.9587 19.0683 100.114 19.0374 100.269C18.8829 100.704 18.852 101.2 18.9138 101.666C18.8829 101.821 18.9138 101.976 18.9447 102.131ZM19.3155 102.225C19.3155 102.131 19.3464 102.069 19.3464 101.976C19.4391 101.604 19.6245 101.293 19.9026 101.045C20.706 100.455 21.7257 100.176 22.7145 100.145C23.796 100.145 24.7848 100.455 25.6809 101.045C25.9899 101.262 26.3298 101.449 26.6388 101.635C26.577 101.666 26.5152 101.697 26.4225 101.728C25.959 101.945 25.4646 102.131 24.9393 102.287C23.8887 102.597 22.7763 102.721 21.6948 102.752C20.9841 102.752 19.8408 102.876 19.3155 102.225Z" fill="white"/>
<path d="M27.7519 101.511C28.3082 102.069 28.4628 102.938 28.4937 103.714C28.5246 104.646 28.2155 105.484 27.7519 106.291C27.2574 107.098 26.8247 107.874 26.5774 108.805C26.3301 109.767 26.3301 110.729 26.4229 111.723C26.4538 112.064 25.2174 112.281 25.1865 112.002C25.032 110.171 25.3102 108.401 26.2992 106.818C26.8247 106.011 27.2574 105.173 27.2574 104.18C27.2574 103.435 27.1337 102.473 26.5774 101.914C26.3919 101.697 27.5355 101.262 27.7519 101.511Z" fill="white"/>
<path opacity="0.15" d="M132.503 103.094L131.607 101.045C129.691 96.6374 124.592 94.6198 120.204 96.5443L118.505 97.2892C117.547 97.5686 113.963 98.4998 112.727 97.4134C111.954 96.5753 111.12 95.9856 110.378 95.8614C106.485 95.2406 96.9984 99.3689 94.8045 102.659C94.4337 103.218 94.3101 104.025 94.3101 104.956C94.2483 105.36 93.6612 107.812 91.0038 109.271L88.5936 110.326C84.2058 112.25 82.1972 117.372 84.1131 121.78L85.0092 123.828C86.925 128.236 92.0235 130.253 96.4113 128.329L98.2344 127.553C101.695 126.032 104.291 127.863 104.291 127.863C104.94 128.484 105.62 128.919 106.238 129.012C110.131 129.633 119.617 125.504 121.811 122.214C122.213 121.593 122.337 120.662 122.306 119.576C122.213 117.651 126.57 115.168 126.57 115.168L128.022 114.516C132.379 112.623 134.388 107.501 132.503 103.094Z" fill="#3D3544"/>
<path d="M127.002 112.437C127.002 112.437 122.738 115.354 123.016 117.341C123.263 119.328 115.26 123.332 115.26 123.332L105.218 127.429C105.218 127.429 102.375 125.784 98.945 127.646C95.5151 129.509 93.7538 122.959 93.7538 122.959" fill="#79BADB"/>
<path d="M117.454 94.6509C117.454 94.6509 112.696 96.6374 111.182 95.3338C109.667 94.0301 101.942 98.5619 101.942 98.5619L93.0122 104.739C93.0122 104.739 92.8268 108.029 89.3969 109.891C85.9669 111.754 90.4475 116.844 90.4475 116.844" fill="#79BADB"/>
<path d="M99.8103 120.693L120.39 109.55C120.39 109.55 124.221 117.403 122.707 120.104C120.73 123.673 111.336 128.764 107.288 128.453C104.26 128.205 99.8103 120.693 99.8103 120.693ZM95.6388 112.902L116.218 101.759C116.218 101.759 111.8 94.2474 108.74 94.0301C104.693 93.7197 95.2989 98.8102 93.3212 102.38C91.838 105.049 95.6388 112.902 95.6388 112.902Z" fill="#92CDEA"/>
<path d="M97.1529 128.608C92.8268 130.967 87.4193 129.322 85.0709 124.977L83.9894 122.959C81.641 118.614 83.2787 113.182 87.6047 110.823L118.876 93.8438C123.202 91.4848 128.609 93.1299 130.958 97.4755L132.039 99.4931C134.388 103.839 132.75 109.271 128.424 111.63L97.1529 128.608Z" fill="#9BD3F4"/>
<path d="M97.4004 126.932C93.3216 129.136 88.3467 127.895 86.3073 124.108L85.3803 122.369C83.3409 118.583 85.0095 113.74 89.1192 111.505L118.629 95.52C122.708 93.3162 127.683 94.5577 129.691 98.3446L130.618 100.083C132.658 103.87 130.989 108.712 126.879 110.947L97.4004 126.932Z" fill="#E6E7E8"/>
<path d="M111.538 117.759C122.413 111.867 129.658 104.168 127.722 100.562C125.785 96.9562 115.399 98.8095 104.524 104.701C93.6492 110.593 86.4037 118.292 88.3406 121.898C90.2776 125.504 100.663 123.65 111.538 117.759Z" fill="#F1F2F2"/>
<path d="M110.437 115.702C118.863 111.136 124.616 105.429 123.287 102.954C121.958 100.48 114.051 102.176 105.625 106.742C97.1986 111.308 91.4453 117.016 92.7741 119.49C94.103 121.964 102.011 120.268 110.437 115.702Z" fill="white"/>
<path d="M104.414 110.823C104.167 109.55 104.971 108.308 106.268 108.06C106.886 107.936 107.473 108.06 107.968 108.37C108.308 107.905 108.802 107.532 109.42 107.408C110.687 107.16 111.923 107.967 112.17 109.271C112.417 110.543 111.305 112.002 109.08 113.989C106.268 113.026 104.662 112.126 104.414 110.823Z" fill="#F46782"/>
<path opacity="0.15" d="M83.279 106.539L62.9466 98.4688C61.8342 98.0342 60.5673 98.5309 60.0729 99.5862C59.7948 100.176 59.8566 100.797 60.1347 101.324C59.0223 104.335 58.5897 107.563 58.7751 110.574C58.806 110.854 58.806 111.133 58.8369 111.381C58.8369 111.381 58.8369 111.381 58.8369 111.412C58.8678 111.661 58.8987 111.94 58.9296 112.188V112.219C58.9605 112.468 59.0223 112.716 59.0532 112.964C59.0532 112.995 59.0532 112.995 59.0532 113.026C59.115 113.275 59.1459 113.492 59.2077 113.74C59.2077 113.771 59.2077 113.771 59.2077 113.802C59.2695 114.051 59.3313 114.268 59.3931 114.485C59.3931 114.516 59.3931 114.516 59.3931 114.547C59.6094 115.292 59.8875 115.975 60.2274 116.627C60.2892 116.751 60.351 116.875 60.4128 117C59.8875 117.651 59.424 118.365 59.0532 119.172C57.3228 123.021 58.3425 127.118 61.3398 128.329C64.3681 129.509 68.1997 127.367 69.961 123.518C70.3318 122.711 70.579 121.904 70.7026 121.097C70.8262 121.066 70.9807 121.035 71.1043 120.973C73.0201 120.352 74.9359 119.265 76.7281 117.838C79.1693 115.882 81.3632 113.306 82.9391 110.45C83.5262 110.264 84.0515 109.86 84.2987 109.271C84.8858 108.184 84.3605 106.974 83.279 106.539ZM65.6968 125.194C65.1406 126.436 63.5956 127.025 62.2668 126.498C60.9381 125.97 60.3201 124.542 60.8763 123.27C61.4325 122.028 62.9775 121.438 64.3063 121.966C65.635 122.494 66.253 123.952 65.6968 125.194Z" fill="#3D3544"/>
<path d="M66.6547 113.12C63.5647 112.157 60.0421 114.796 58.7443 118.986C57.4774 123.176 58.9297 127.367 62.0197 128.298C65.1097 129.26 68.6323 126.622 69.9301 122.431C71.228 118.241 69.7447 114.051 66.6547 113.12ZM62.6377 126.374C61.2781 125.97 60.5056 124.511 60.9382 123.145C61.3399 121.78 62.7922 121.004 64.1518 121.438C65.5114 121.842 66.2839 123.301 65.8513 124.666C65.4187 126.032 63.9973 126.808 62.6377 126.374Z" fill="#92CDEA"/>
<path d="M81.7337 105.949C79.0762 114.734 70.9804 122.307 64.4605 120.321C57.9405 118.334 55.4685 107.501 58.1568 98.7171" fill="#FF8092"/>
<path d="M82.4136 106.136C82.0737 107.284 80.8686 107.905 79.7253 107.563L58.9295 101.2C57.7862 100.859 57.1682 99.6483 57.5081 98.4998C57.848 97.3513 59.0531 96.7305 60.1964 97.072L81.0231 103.466C82.1046 103.808 82.7535 105.018 82.4136 106.136Z" fill="#92CDEA"/>
<path d="M66.4382 113.896C62.3285 112.623 59.4239 111.257 57.4463 110.078C57.848 112.375 58.5587 114.516 59.6093 116.224C61.1234 116.906 62.9465 117.589 65.1095 118.241C67.2107 118.893 69.0957 119.328 70.7643 119.638C72.5874 118.8 74.3487 117.465 75.9555 115.82C73.5453 115.634 70.3626 115.075 66.4382 113.896Z" fill="#FFE1E7"/>
<path opacity="0.5" d="M63.4722 108.836C63.9048 112.25 64.7082 115.634 62.9778 115.851C61.2474 116.068 59.4552 113.492 59.0226 110.078C58.59 106.663 59.6406 103.714 61.371 103.466C63.1014 103.249 63.0396 105.422 63.4722 108.836Z" fill="white"/>
<path opacity="0.15" d="M100.027 10.6261C100.119 13.3576 97.9874 15.6546 95.2682 15.7167L40.9148 17.4238C38.1956 17.517 35.909 15.3752 35.8472 12.6437C35.7544 9.91222 37.8866 7.61527 40.6058 7.55319L94.9592 5.846C97.6784 5.75288 99.965 7.89463 100.027 10.6261Z" fill="#3D3544"/>
<path d="M99.5013 8.32922C99.6558 11.0607 97.5855 13.3887 94.8663 13.5439L40.5747 16.6479C37.8555 16.8031 35.538 14.7234 35.3835 11.9919C35.229 9.26041 37.2993 6.93243 40.0185 6.77723L94.3101 3.67325C97.0293 3.51805 99.3468 5.59772 99.5013 8.32922Z" fill="white"/>
<path d="M35.3835 11.9919C35.538 14.7234 37.8555 16.8031 40.5747 16.6479L56.0557 15.7788C58.3732 14.1958 59.6401 12.4265 59.5474 10.6262C59.4547 8.82588 57.9715 7.21181 55.4995 5.90814L40.0185 6.77726C37.2993 6.90142 35.229 9.26044 35.3835 11.9919Z" fill="#F46782"/>
<path d="M79.6634 9.44664C79.7252 10.6262 78.8291 11.6194 77.6548 11.7125L66.8398 12.3333C65.6656 12.3954 64.6768 11.4953 64.5841 10.3158C64.5223 9.13624 65.4184 8.14297 66.5926 8.04985L77.4076 7.42905C78.6128 7.36697 79.6016 8.26713 79.6634 9.44664Z" fill="#F1F2F2"/>
<path d="M88.9643 11.278C88.9952 11.6505 88.6862 11.9919 88.3154 12.023C87.9446 12.054 87.6047 11.7436 87.5738 11.3711L87.2957 6.65308C87.2648 6.2806 87.5738 5.93916 87.9446 5.90812C88.3463 5.87708 88.6553 6.18748 88.6862 6.55996L88.9643 11.278ZM91.6217 6.40476C91.5908 6.00124 91.2818 5.72188 90.8801 5.75292C90.5093 5.78396 90.2003 6.09436 90.2312 6.49788L90.5093 11.1849C90.5402 11.5574 90.8492 11.8678 91.2509 11.8367C91.6217 11.8057 91.9307 11.4953 91.8998 11.0918L91.6217 6.40476ZM94.5881 6.24956C94.5572 5.87708 94.2482 5.56668 93.8465 5.59772C93.4757 5.62876 93.1667 5.93916 93.1976 6.34268L93.4757 11.0607C93.5066 11.4332 93.8156 11.7436 94.2173 11.7126C94.5881 11.6815 94.8971 11.3711 94.8662 10.9676L94.5881 6.24956Z" fill="#DD4368"/>
<path d="M40.6996 14.0406C40.7305 14.4131 40.4214 14.7545 40.0505 14.7855C39.6796 14.8166 39.3397 14.5062 39.3087 14.1337L39.0306 9.44668C38.9997 9.04317 39.3087 8.73277 39.6796 8.70173C40.0505 8.67069 40.3905 8.98109 40.4214 9.35356L40.6996 14.0406Z" fill="white"/>
<path d="M69.8374 11.247C69.8374 11.4642 69.6828 11.6194 69.4974 11.6505C69.281 11.6505 69.1265 11.4953 69.0956 11.309L68.941 8.85689C68.941 8.63961 69.0956 8.48441 69.281 8.45337C69.4974 8.45337 69.6519 8.60857 69.6828 8.79481L69.8374 11.247Z" fill="#DD4368"/>
</g>
<defs>
<clipPath id="clip0">
<rect width="132.685" height="128.908" fill="white" transform="translate(0.528076 0.755493)"/>
</clipPath>
</defs>
</svg>
