<svg width="18" height="24" viewBox="0 0 18 24" fill="none" xmlns="http://www.w3.org/2000/svg">
<path d="M2.37976 2.0481H3.02882V4.8606H6.92313V2.0481H7.57218C7.93061 2.0481 8.22123 1.75748 8.22123 1.39905C8.22123 1.04062 7.93061 0.75 7.57218 0.75H2.37976C2.02134 0.75 1.73071 1.04062 1.73071 1.39905C1.73071 1.75748 2.02134 2.0481 2.37976 2.0481Z" fill="#34AEEF"/>
<path d="M9.30285 6.15869H0.649052C0.290623 6.15869 0 6.44931 0 6.80774C0 7.16617 0.290623 7.45679 0.649052 7.45679H1.73069V8.75473H4.1106C4.46903 8.75473 4.75965 9.04535 4.75965 9.40378C4.75965 9.76221 4.46903 10.0528 4.1106 10.0528H1.73069V11.3509H4.1106C4.46903 11.3509 4.75965 11.6416 4.75965 12C4.75965 12.3584 4.46903 12.649 4.1106 12.649H1.73069V14.1742C1.73069 14.4019 1.77086 14.6201 1.84296 14.8233H8.10894C8.18104 14.6201 8.22121 14.4019 8.22121 14.1742V7.45679H9.30285C9.66127 7.45679 9.9519 7.16617 9.9519 6.80774C9.9519 6.44931 9.66127 6.15869 9.30285 6.15869Z" fill="#34AEEF"/>
<path d="M2.59619 17.1924C2.59619 18.0275 3.27546 18.707 4.11059 18.707H4.32688V22.6011C4.32688 22.9595 4.6175 23.2502 4.97593 23.2502C5.33436 23.2502 5.62498 22.9595 5.62498 22.6011V18.707H5.84128C6.67641 18.707 7.35567 18.0275 7.35567 17.1924V16.1216H2.59619V17.1924Z" fill="#34AEEF"/>
<path d="M12.1153 14.3579C12.1169 14.3581 12.1183 14.3583 12.1198 14.3586C12.1535 14.3653 12.1874 14.3706 12.2219 14.374C12.2228 14.374 12.2237 14.3742 12.2243 14.3742C12.2415 14.3759 12.259 14.3773 12.2764 14.3782C12.2947 14.3792 12.3131 14.3795 12.3318 14.3795H15.7932C15.8119 14.3795 15.8303 14.3792 15.8486 14.3782C15.866 14.3773 15.8835 14.3759 15.9007 14.3742C15.9013 14.3742 15.9022 14.3742 15.9031 14.374C15.9376 14.3706 15.9717 14.3653 16.0052 14.3586C16.0067 14.3583 16.0081 14.3581 16.0097 14.3579C16.5028 14.2573 16.875 13.8203 16.875 13.2979V11.5725C16.875 10.976 16.3897 10.4907 15.7932 10.4907H12.3318C11.7353 10.4907 11.25 10.976 11.25 11.5725V13.2979C11.25 13.8203 11.6222 14.2573 12.1153 14.3579Z" fill="#34AEEF"/>
<path d="M17.079 15.2993C16.7079 15.5386 16.2667 15.678 15.7933 15.678H12.3319C11.8585 15.678 11.4173 15.5386 11.0462 15.2993C10.6411 15.6564 10.3848 16.1786 10.3848 16.7598V17.8492C11.0927 17.8955 11.4968 18.1635 11.8264 18.3832C12.1187 18.578 12.312 18.7068 12.7645 18.7068C13.217 18.7068 13.4101 18.578 13.7026 18.3832C14.0645 18.1419 14.5151 17.8414 15.3607 17.8414C16.2061 17.8414 16.6568 18.1419 17.0188 18.3832C17.2598 18.5439 17.4337 18.6592 17.7405 18.695V16.7598C17.7405 16.1786 17.4842 15.6564 17.079 15.2993Z" fill="#34AEEF"/>
<path d="M15.3607 19.1396C14.9082 19.1396 14.7149 19.2684 14.4226 19.4634C14.0606 19.7048 13.6099 20.005 12.7645 20.005C11.9189 20.005 11.4685 19.7048 11.1064 19.4634C10.8654 19.3027 10.6915 19.1872 10.3848 19.1515V22.6012C10.3848 22.9596 10.6754 23.2503 11.0338 23.2503H17.0914C17.4498 23.2503 17.7405 22.9596 17.7405 22.6012V19.9974C17.0325 19.9511 16.6284 19.6831 16.2988 19.4634C16.0063 19.2684 15.8132 19.1396 15.3607 19.1396Z" fill="#34AEEF"/>
</svg>
