<svg width="311" height="195" viewBox="0 0 311 195" fill="none" xmlns="http://www.w3.org/2000/svg">
<g clip-path="url(#clip0)">
<path d="M277.24 194.838C269.968 194.695 262.999 194.551 255.727 194.265C248.758 193.978 241.789 193.691 234.821 193.691C180.888 195.412 125.137 195.412 71.8096 193.835C66.0527 193.835 60.5989 193.835 55.7509 193.691C41.5102 193.691 32.4204 193.691 32.4204 193.691C18.7856 193.691 7.27186 189.964 2.42395 184.517C0.908983 182.653 0 180.789 0 178.639C3.63593 153.122 1.81797 127.461 2.12096 101.227C2.42395 98.5036 2.72695 95.9232 3.02994 93.1994C4.84791 74.4199 5.1509 55.3537 0.302994 36.7176C0.302994 33.4204 0.302994 31.7001 0.302994 31.7001C0.302994 23.3855 14.8467 16.6479 33.0264 16.6479C33.0264 16.6479 43.9342 16.6479 61.2048 16.6479C66.9617 16.6479 73.3246 16.6479 80.2935 16.5045C133.923 13.494 189.977 15.7877 243.91 16.6479C249.667 16.6479 254.818 16.6479 259.06 16.6479C267.544 16.6479 272.392 16.6479 272.392 16.6479C276.937 16.6479 281.179 17.0779 285.118 17.7947C289.056 18.5115 292.692 19.6583 295.419 21.0919C319.356 41.735 305.115 67.8256 304.509 91.3358C304.509 93.9162 304.509 96.4966 304.812 99.077C305.418 109.542 305.721 119.863 305.721 130.185C305.721 132.765 305.721 135.346 305.721 137.926C304.812 140.077 304.812 142.514 304.812 144.807C304.812 147.244 305.115 149.681 305.721 152.262C309.963 165.737 320.265 184.517 291.177 193.978C286.633 194.551 282.088 194.838 277.24 194.838Z" stroke="#BC4D68" stroke-width="0.5" stroke-miterlimit="10" stroke-linecap="round" stroke-linejoin="round"/>
<path d="M3.01465 95.7896C101.409 97.7938 201.049 94.9306 300.066 96.219" stroke="#D7E2ED" stroke-width="0.3782" stroke-miterlimit="10" stroke-linecap="round" stroke-linejoin="round"/>
<path d="M3.32605 119.268C101.72 121.272 201.36 118.409 300.377 119.698" stroke="#D7E2ED" stroke-width="0.3782" stroke-miterlimit="10" stroke-linecap="round" stroke-linejoin="round"/>
<path d="M3.63745 142.889C102.032 144.894 201.672 142.03 300.689 143.319" stroke="#D7E2ED" stroke-width="0.3782" stroke-miterlimit="10" stroke-linecap="round" stroke-linejoin="round"/>
<path d="M3.94885 166.511C102.343 168.515 201.983 165.652 301 166.94" stroke="#D7E2ED" stroke-width="0.3782" stroke-miterlimit="10" stroke-linecap="round" stroke-linejoin="round"/>
<path d="M3.01465 72.168C101.409 74.1722 201.049 71.309 300.066 72.5974" stroke="#D7E2ED" stroke-width="0.3782" stroke-miterlimit="10" stroke-linecap="round" stroke-linejoin="round"/>
<path d="M16.0775 19.1984C16.3646 38.6683 15.5033 58.1382 15.2162 77.6081C14.7856 107.386 14.3549 137.306 13.7807 167.084C13.6372 175.387 13.6372 183.833 13.2065 192.137C13.2065 192.423 13.6372 192.423 13.6372 192.137C14.642 171.665 14.642 151.05 14.9291 130.578C15.5033 101.086 15.7904 71.4522 16.0775 41.961C16.2211 34.3735 16.3646 26.786 16.2211 19.1984C16.3646 19.0553 16.0775 19.0553 16.0775 19.1984Z" fill="#D7E2ED"/>
<path d="M34.4592 29.0969C35.542 28.9769 36.6247 28.7369 37.7075 28.6169C44.6855 27.5371 51.5431 26.4572 58.521 25.4974C67.4239 24.1776 76.3268 22.7378 85.35 21.418C88.839 20.938 92.4483 20.3381 95.9372 19.8582C97.1403 19.6182 98.4637 19.4982 99.6668 19.2583C101.832 18.8983 103.517 18.0584 105.442 17.0986C105.081 16.7386 104.479 16.6186 103.998 16.3787C103.637 16.1387 103.396 15.7787 103.035 15.6588C102.915 15.6588 102.795 15.6588 102.675 15.5388C102.554 15.4188 102.434 15.2988 102.554 15.1788C102.554 15.0588 102.675 15.0588 102.795 15.0588C103.156 14.9389 103.517 14.6989 103.878 14.5789C104.118 14.4589 104.359 14.3389 104.599 14.099C105.682 12.8991 103.035 11.9393 102.193 11.8193C102.915 11.3394 103.637 10.7394 104.479 10.2595C103.998 9.89957 103.396 9.77958 102.915 9.89957C103.035 9.29965 103.276 8.69973 103.276 7.97983C103.276 7.37992 103.035 6.54004 102.434 6.42005C102.193 6.30007 101.953 6.42005 101.712 6.42005C101.471 6.42005 101.231 6.18009 101.231 5.94012C101.231 5.70015 101.592 5.58017 101.832 5.3402C102.434 4.86027 102.314 3.90041 101.832 3.30049C101.351 2.70057 100.629 2.46061 99.9074 2.22064C100.629 1.74071 101.111 1.02081 101.231 0.180926C99.6668 -0.299007 97.3809 0.300909 95.8169 0.540875C88.7187 1.62072 81.5001 2.70057 74.4019 3.78042C62.6116 5.58017 50.8212 7.25993 38.9106 9.05968C34.8201 9.41963 31.0905 9.89957 27.4812 11.2194C27.3609 11.2194 27.2406 11.3394 27.2406 11.4593C27.2406 11.5793 27.3609 11.6993 27.6015 11.8193C28.2031 11.9393 28.8046 12.1792 29.4062 12.2992C29.7671 12.7792 29.4062 13.3791 28.9249 13.859C28.3234 14.5789 27.6015 15.2988 27 16.0187C27.7219 16.1387 28.564 16.2587 29.2859 16.3787C29.5265 16.3787 30.0077 16.6186 29.8874 16.8586C29.8874 16.9786 29.7671 16.9786 29.6468 17.0986C29.2859 17.4585 28.9249 17.6985 28.564 18.0584C28.0828 18.5384 27.4812 19.1383 27.8422 19.7382C27.9625 20.0981 28.3234 20.2181 28.6843 20.3381C29.2859 20.5781 29.8874 20.938 29.6468 21.5379C29.4062 22.0179 28.2031 22.3778 28.4437 22.8578C28.4437 22.9777 28.6843 23.0977 28.8046 23.2177C29.8874 23.9376 30.9702 24.5375 31.9327 25.2574C32.053 25.3774 32.1733 25.4974 32.2936 25.6174C32.4139 25.8573 32.1733 26.2173 31.9327 26.4572C31.3311 26.9372 30.6093 27.1771 30.128 27.7771C30.128 27.897 30.0077 27.897 30.128 28.017L30.2483 28.137C31.5718 28.7369 33.0155 29.3368 34.4592 29.0969Z" fill="#FFCDCE"/>
<path d="M44.4448 17.5786C43.9636 16.8587 42.7605 17.4586 43.3621 18.2985C43.6027 18.6585 44.2042 18.8984 44.5652 19.0184C44.9261 19.1384 45.6479 19.6183 46.0089 19.3784C46.0089 19.3784 46.1292 19.2584 46.1292 19.1384C46.1292 18.2985 45.5276 16.8587 44.6855 16.6188C43.9636 16.3788 43.6027 17.3387 44.3245 17.5786C44.4448 17.6986 44.5652 17.4586 44.4448 17.3387C44.6855 17.0987 44.9261 17.0987 45.0464 17.4586L45.1667 17.5786C45.287 17.8186 45.4073 18.0586 45.5276 18.1785C45.6479 18.4185 45.6479 18.5385 45.6479 18.7785C45.7682 19.0184 45.8886 19.0184 45.6479 18.8984C45.287 18.7785 44.8058 18.6585 44.4448 18.4185C44.2042 18.2985 43.9636 18.2985 44.0839 17.9386C44.0839 17.5786 44.2042 17.6986 44.4448 17.6986C44.4448 17.8186 44.5652 17.6986 44.4448 17.5786Z" fill="#C95623"/>
<path d="M61.5288 15.4189C61.5288 14.699 61.1679 13.6192 60.3257 13.6192C59.6038 13.6192 59.3632 14.2191 59.4835 14.819C59.4835 15.8989 60.3257 16.9787 60.9272 17.8186C61.2882 18.2985 62.01 19.6183 62.7319 19.2584C63.4537 18.8984 63.6943 17.0987 63.8147 16.4988C64.0553 15.6589 64.2959 14.4591 63.6943 13.7392C62.4913 12.1794 60.5663 14.2191 61.0475 15.6589C61.1679 15.8989 61.5288 15.8989 61.6491 15.6589C61.7694 15.4189 61.7694 15.2989 61.7694 15.059C61.7694 14.4591 62.1303 14.3391 62.7319 14.699C63.4537 14.579 63.6943 14.939 63.3334 15.5389C63.3334 15.7789 63.2131 15.8989 63.2131 16.1388C63.2131 16.3788 62.7319 18.5385 62.3709 18.5385C62.2506 18.5385 61.4085 17.3387 61.4085 17.4586C61.1679 17.0987 60.9272 16.8587 60.6866 16.4988C60.446 16.1388 60.0851 15.5389 60.0851 15.059C60.2054 14.3391 60.6866 15.6589 60.8069 15.8989C61.1679 15.7789 61.5288 15.6589 61.5288 15.4189Z" fill="#C95623"/>
<path d="M74.1613 7.97994C74.4019 7.61999 74.5222 6.90009 74.1613 6.66013C73.8003 6.42016 73.4394 6.90009 73.3191 7.14006C73.0785 7.73998 73.0785 8.57986 73.1988 9.17978C73.1988 9.41974 73.1988 10.1396 73.68 10.1396C74.1613 10.1396 74.7628 9.41974 75.1237 9.05979C75.4847 8.69984 75.9659 8.33989 75.9659 7.73998C75.8456 6.54014 74.2816 6.90009 74.0409 7.73998C73.8003 8.09993 74.0409 8.09993 74.1613 7.97994C74.2816 7.97994 74.2816 7.85996 74.4019 7.85996C74.7628 7.50001 75.1237 7.61999 75.244 8.33989C75.244 8.45988 75.0034 8.69984 74.8831 8.81983C74.6425 9.05979 73.9206 9.77969 73.68 9.65971C73.4394 9.53972 73.5597 8.57986 73.5597 8.21991C73.5597 7.97994 73.5597 7.61999 73.68 7.50001C74.0409 7.14006 73.8003 7.85996 73.8003 7.97994C73.8003 8.09993 74.0409 8.09993 74.1613 7.97994Z" fill="#C95623"/>
<path d="M90.8842 9.53975C91.2451 8.93984 91.4857 8.09995 91.0045 7.50004C90.6436 7.02011 90.042 6.90012 89.5608 7.26007C88.9592 7.62002 88.7186 8.57989 88.478 9.29979C88.2374 10.3796 88.1171 11.4595 88.1171 12.5393C88.1171 12.8993 88.3577 13.0193 88.7186 13.0193C90.4029 12.7793 93.0497 11.5795 93.2904 9.65974C93.4107 8.93984 92.9294 8.21994 92.2076 8.21994C91.4857 8.09995 90.8842 8.69987 90.4029 9.29979C90.1623 9.65974 90.7639 10.1397 91.0045 9.77972C91.2451 9.53975 91.3654 9.41977 91.4857 9.29979C92.3279 9.53975 92.5685 9.8997 91.967 10.3796C91.7263 10.7396 91.3654 10.9796 91.0045 11.2195C90.2826 11.6995 89.4405 11.9394 88.5983 12.0594C88.8389 12.1794 88.9592 12.2994 89.1999 12.5393C89.1999 11.6995 89.1998 10.7396 89.3202 9.8997C89.4405 9.41977 89.4405 8.81985 89.8014 8.4599C89.9217 7.97997 90.1623 8.09995 90.6436 8.69987C90.5232 8.93984 90.5233 9.05982 90.5233 9.29979C90.2826 9.65974 90.7639 9.8997 90.8842 9.53975Z" fill="#C95623"/>
<path d="M36.7451 13.8592C36.8654 13.3793 36.6248 12.8994 36.1435 12.6594C35.7826 12.5394 35.3014 12.5394 35.0608 12.8994C34.3389 13.8592 35.4217 15.659 35.9029 16.4989C36.0232 16.6188 36.1435 16.7388 36.3842 16.6188C37.4669 16.0189 38.7903 14.8191 38.67 13.4993C38.5497 12.8994 38.0685 12.5394 37.5873 12.6594C36.9857 12.6594 36.5045 13.2593 36.3842 13.8592C36.2639 14.2192 36.7451 14.4592 36.9857 14.0992C36.9857 13.9792 37.106 13.8592 37.106 13.7393C37.106 13.6193 37.2263 13.6193 37.2263 13.4993C37.4669 13.6193 37.7076 13.8592 37.9482 13.9792C37.9482 14.2192 37.7076 14.6991 37.5873 14.8191C37.2263 15.419 36.7451 15.779 36.1435 16.1389C36.2639 16.1389 36.3842 16.2589 36.6248 16.2589C36.2639 15.779 35.9029 15.1791 35.6623 14.5791C35.542 14.3392 35.4217 13.9792 35.542 13.7393C35.7826 12.6594 36.2639 13.6193 36.3842 14.0992C36.3842 14.2192 36.7451 14.0992 36.7451 13.8592Z" fill="#C95623"/>
<path d="M39.1512 23.4578C38.9106 22.9779 38.4294 22.7379 37.8278 22.8579C37.4669 23.0978 37.106 23.4578 37.106 23.8177C37.2263 25.0176 39.1512 25.4975 40.1137 25.8575C40.234 25.8575 40.4746 25.7375 40.4746 25.6175C40.8355 24.5376 41.0762 22.258 39.7528 21.658C39.2715 21.4181 38.7903 21.5381 38.5497 21.898C38.1887 22.3779 38.1887 22.9779 38.5497 23.5778C38.7903 23.9377 39.2715 23.6978 39.1512 23.4578C39.1512 23.2178 39.1512 22.9779 39.1512 22.7379C39.1512 22.258 39.5121 22.258 39.9934 22.6179C40.1137 22.8579 40.234 23.2178 40.234 23.4578C40.3543 24.1777 40.234 24.8976 39.9934 25.4975C40.1137 25.3775 40.234 25.3775 40.3543 25.2575C39.7528 25.1376 39.1512 25.0176 38.67 24.6576C38.4294 24.5376 37.9481 24.2977 37.8278 23.9377C37.5872 23.0978 38.4294 23.5778 38.7903 23.6978C38.9106 23.9377 39.2715 23.6978 39.1512 23.4578Z" fill="#C95623"/>
<path d="M75.9659 17.9385C75.7253 17.4586 75.2441 17.2186 74.6425 17.3386C74.2816 17.4586 73.9207 17.8185 73.9207 18.2985C74.041 19.4983 75.9659 19.9782 76.9284 20.3382C77.0487 20.3382 77.2893 20.2182 77.2893 20.0982C77.6502 19.0184 77.8909 16.7387 76.5675 16.1388C76.0862 15.8988 75.605 16.0188 75.3644 16.3787C75.0034 16.8587 75.0034 17.4586 75.3644 18.0585C75.7253 18.4184 76.2065 18.1785 75.9659 17.9385C75.9659 17.6985 75.9659 17.4586 75.9659 17.2186C75.9659 16.7387 76.3268 16.7387 76.8081 17.0986C76.9284 17.3386 77.0487 17.6985 77.0487 17.9385C77.169 18.6584 77.0487 19.3783 76.8081 19.9782C76.9284 19.8582 77.0487 19.8582 77.169 19.7383C76.5675 19.6183 75.9659 19.4983 75.4847 19.1383C75.2441 19.0184 74.7628 18.7784 74.6425 18.4184C74.4019 17.5786 75.2441 18.0585 75.605 18.1785C75.8456 18.4184 76.0862 18.1785 75.9659 17.9385Z" fill="#C95623"/>
<path d="M86.7937 19.6182C87.0343 19.2583 87.0343 18.6584 86.6734 18.2984C86.3125 17.9385 85.8312 17.8185 85.4703 18.0584C84.5078 18.7783 84.9891 20.8181 85.2297 21.7779C85.2297 21.8979 85.4703 22.0179 85.5906 22.0179C86.7937 21.7779 88.3577 20.938 88.5984 19.6182C88.7187 19.0183 88.3577 18.5384 87.7562 18.4184C87.1546 18.2984 86.5531 18.6584 86.3125 19.2583C86.1922 19.4982 86.5531 19.8582 86.7937 19.6182C86.914 19.4982 86.914 19.3783 87.0343 19.3783C87.1547 19.2583 87.1546 19.2583 87.275 19.1383C87.5156 19.3783 87.6359 19.6182 87.8765 19.8582C87.8765 20.0982 87.3953 20.4581 87.1546 20.5781C86.6734 20.938 86.0719 21.178 85.35 21.298C85.4703 21.418 85.5906 21.418 85.7109 21.538C85.5906 20.938 85.35 20.4581 85.35 19.8582C85.35 19.6182 85.2297 19.2583 85.4703 19.0183C85.4703 18.6584 85.8313 18.6584 86.1922 19.0183C86.1922 19.1383 86.1922 19.2583 86.1922 19.3783C86.3125 19.7382 86.6734 19.8582 86.7937 19.6182Z" fill="#C95623"/>
<path d="M52.8665 10.0196C52.6259 9.53963 52.1447 9.29966 51.5431 9.41965C51.1822 9.53963 50.8213 9.89958 50.8213 10.3795C50.9416 11.5793 52.8665 12.0593 53.829 12.4192C53.9493 12.4192 54.1899 12.2992 54.1899 12.1793C54.5509 11.0994 54.7915 8.81973 53.4681 8.21982C52.9869 7.97985 52.5056 8.09983 52.265 8.45978C51.9041 8.93971 51.9041 9.53963 52.265 10.1395C52.6259 10.4995 53.1072 10.2595 52.8665 10.0196C52.8665 9.7796 52.8665 9.53963 52.8665 9.29966C52.8665 8.81973 53.2275 8.81973 53.7087 9.17968C53.829 9.41965 53.9493 9.7796 53.9493 10.0196C54.0696 10.7395 53.9493 11.4594 53.7087 12.0593C53.829 11.9393 53.9493 11.9393 54.0696 11.8193C53.4681 11.6993 52.8665 11.5793 52.3853 11.2194C52.1447 11.0994 51.6635 10.8594 51.5431 10.4995C51.3025 9.65961 52.1447 10.1395 52.5056 10.2595C52.7462 10.4995 52.9869 10.2595 52.8665 10.0196Z" fill="#C95623"/>
<path d="M55.3931 21.418C55.3931 21.1781 55.5134 20.8181 55.2728 20.5781C55.1525 20.3382 54.7916 20.0982 54.4307 20.2182C54.19 20.3382 54.19 20.4582 54.0697 20.5781C53.7088 21.538 54.19 22.6179 54.551 23.5777C55.6337 23.2178 56.5962 22.4979 56.9571 21.658C57.0775 21.418 57.0775 21.298 57.0775 21.0581C57.0775 20.8181 56.8368 20.5781 56.5962 20.5781C56.3556 20.4582 55.9947 20.5781 55.7541 20.6981C55.7541 20.9381 55.6337 21.1781 55.3931 21.418Z" fill="#C95623"/>
<path d="M83.1844 4.38043C83.1844 4.14046 83.3047 3.78051 83.0641 3.54055C82.9438 3.30058 82.5828 3.06061 82.2219 3.1806C81.9813 3.30058 81.9813 3.42056 81.861 3.54055C81.5001 4.50041 81.9813 5.58026 82.3422 6.54013C83.425 6.18018 84.3875 5.46028 84.7484 4.62039C84.8687 4.38043 84.8687 4.26044 84.8687 4.02048C84.8687 3.78051 84.6281 3.54055 84.3875 3.54055C84.1469 3.42056 83.7859 3.54055 83.5453 3.66053C83.3047 3.78051 83.425 4.14046 83.1844 4.38043Z" fill="#C95623"/>
<path d="M96.0574 15.5389C96.0574 15.2989 96.1777 14.939 95.9371 14.699C95.8168 14.459 95.4559 14.2191 95.095 14.339C94.8543 14.459 94.8543 14.579 94.734 14.699C94.3731 15.6589 94.8543 16.7387 95.2153 17.6986C96.2981 17.3386 97.2605 16.6187 97.6215 15.7788C97.7418 15.5389 97.7418 15.4189 97.7418 15.1789C97.7418 14.939 97.5011 14.699 97.2605 14.699C97.0199 14.579 96.659 14.699 96.4184 14.819C96.4184 15.0589 96.2981 15.1789 96.0574 15.5389Z" fill="#C95623"/>
<path d="M83.3048 13.4991C84.147 13.4991 84.147 12.2993 83.3048 12.2993C82.4627 12.2993 82.4627 13.4991 83.3048 13.4991Z" fill="white"/>
<path d="M94.1326 4.3805C94.9748 4.3805 94.9748 3.18066 94.1326 3.18066C93.2904 3.18066 93.2904 4.3805 94.1326 4.3805Z" fill="white"/>
<path d="M99.4262 11.4596C100.268 11.4596 100.268 10.2598 99.4262 10.2598C98.7043 10.2598 98.7043 11.4596 99.4262 11.4596Z" fill="white"/>
<path d="M65.0178 9.17981C65.86 9.17981 65.86 7.97998 65.0178 7.97998C64.1757 7.97998 64.1757 9.17981 65.0178 9.17981Z" fill="white"/>
<path d="M69.1082 16.7387C69.9504 16.7387 69.9504 15.5388 69.1082 15.5388C68.266 15.5388 68.266 16.7387 69.1082 16.7387Z" fill="white"/>
<path d="M64.7773 23.0978C65.6194 23.0978 65.6194 21.8979 64.7773 21.8979C63.9351 21.8979 63.9351 23.0978 64.7773 23.0978Z" fill="white"/>
<path d="M54.5508 17.6985C55.393 17.6985 55.393 16.4987 54.5508 16.4987C53.7086 16.3787 53.7086 17.6985 54.5508 17.6985Z" fill="white"/>
<path d="M43.7229 12.0595C44.5651 12.0595 44.5651 10.8596 43.7229 10.8596C43.0011 10.8596 43.0011 12.0595 43.7229 12.0595Z" fill="white"/>
<path d="M37.8279 18.8983C38.6701 18.8983 38.6701 17.6985 37.8279 17.6985C36.9857 17.6985 36.9857 18.8983 37.8279 18.8983Z" fill="white"/>
<path d="M32.7749 21.0582C33.6171 21.0582 33.6171 19.8584 32.7749 19.8584C32.0531 19.8584 32.0531 21.0582 32.7749 21.0582Z" fill="white"/>
<path d="M31.0905 14.0992C31.9326 14.0992 31.9326 12.8994 31.0905 12.8994C30.3686 12.8994 30.3686 14.0992 31.0905 14.0992Z" fill="white"/>
<path d="M33.9779 27.6572C34.8201 27.6572 34.8201 26.4574 33.9779 26.4574C33.2561 26.3374 33.2561 27.6572 33.9779 27.6572Z" fill="white"/>
<path d="M47.8134 25.3776C48.6556 25.3776 48.6556 24.1777 47.8134 24.1777C46.9712 24.1777 46.9712 25.3776 47.8134 25.3776Z" fill="white"/>
<path d="M77.8906 12.4193C78.7328 12.4193 78.7328 11.2195 77.8906 11.2195C77.1688 11.2195 77.1688 12.4193 77.8906 12.4193Z" fill="white"/>
<path d="M75.605 5.10047C76.4472 5.10047 76.4472 3.90063 75.605 3.90063C74.8831 3.90063 74.8831 5.10047 75.605 5.10047Z" fill="white"/>
<path d="M72.7174 22.6178C73.5596 22.6178 73.5596 21.418 72.7174 21.418C71.8753 21.418 71.8753 22.6178 72.7174 22.6178Z" fill="white"/>
<path d="M91.245 16.9786C92.0872 16.9786 92.0872 15.7788 91.245 15.7788C90.4029 15.7788 90.4029 16.9786 91.245 16.9786Z" fill="white"/>
</g>
<defs>
<clipPath id="clip0">
<rect width="311" height="195" fill="white"/>
</clipPath>
</defs>
</svg>
