<svg width="49" height="48" viewBox="0 0 49 48" fill="none" xmlns="http://www.w3.org/2000/svg">
<rect x="0.5" width="48" height="48" rx="16" fill="url(#paint0_linear)"/>
<mask id="mask0" mask-type="alpha" maskUnits="userSpaceOnUse" x="0" y="0" width="49" height="48">
<rect x="0.5" width="48" height="48" rx="16" fill="url(#paint1_linear)"/>
</mask>
<g mask="url(#mask0)">
<circle opacity="0.8" cx="7.25" cy="40.125" r="13.875" fill="#FFC61C"/>
<circle opacity="0.8" cx="52.25" cy="19.125" r="10.125" fill="#FFC61C"/>
</g>
<path d="M33.4063 9.9375H17C15.708 9.9375 14.6563 10.9886 14.6563 12.2813V12.8672C14.6563 13.191 14.9183 13.4531 15.2422 13.4531H18.1719C18.8185 13.4531 19.3438 13.979 19.3438 14.625C19.3438 15.271 18.8184 15.7968 18.1719 15.7968C17.6821 15.7968 17.2404 15.4821 17.0733 15.0141C16.9909 14.7806 16.7689 14.625 16.5217 14.625H12.8985C12.5746 14.625 12.3125 14.8871 12.3125 15.2109C12.3125 15.5348 12.5746 15.7969 12.8985 15.7969H14.6563V19.3125C14.6563 19.6364 14.9183 19.8985 15.2422 19.8985H18.1719C18.8185 19.8985 19.3438 20.4243 19.3438 21.0703C19.3438 21.7163 18.8184 22.2422 18.1719 22.2422C17.6821 22.2422 17.2404 21.9275 17.0733 21.4594C16.9909 21.226 16.7689 21.0703 16.5217 21.0703H12.8985C12.5746 21.0703 12.3125 21.3324 12.3125 21.6563C12.3125 21.9802 12.5746 22.2422 12.8985 22.2422H14.6563V25.1719C14.6563 25.4957 14.9183 25.7578 15.2422 25.7578H18.1719C18.8185 25.7578 19.3438 26.2837 19.3438 26.9297C19.3438 27.5757 18.8184 28.1015 18.1719 28.1015C17.6821 28.1015 17.2404 27.7868 17.0733 27.3187C16.9909 27.0853 16.7689 26.9297 16.5217 26.9297H12.8985C12.5746 26.9297 12.3125 27.1917 12.3125 27.5156C12.3125 27.8395 12.5746 28.1016 12.8985 28.1016H14.6563V31.6172C14.6563 31.9411 14.9183 32.2032 15.2422 32.2032H18.1719C18.8185 32.2032 19.3438 32.729 19.3438 33.375C19.3438 34.021 18.8185 34.5469 18.1719 34.5469C17.6821 34.5469 17.2404 34.2322 17.0733 33.7641C16.9909 33.5306 16.7689 33.375 16.5217 33.375H12.8985C12.5746 33.375 12.3125 33.6371 12.3125 33.961C12.3125 34.2849 12.5746 34.5469 12.8985 34.5469H14.6563V35.7188C14.6563 37.0114 15.708 38.0625 17 38.0625H33.4063C34.6984 38.0625 35.7501 37.0114 35.7501 35.7187V12.2813C35.75 10.9886 34.6984 9.9375 33.4063 9.9375ZM32.2344 18.7266C32.2344 18.9297 32.1291 19.118 31.9563 19.225C31.8625 19.2833 31.756 19.3125 31.6484 19.3125C31.5592 19.3125 31.4688 19.2919 31.3864 19.2507L29.3047 18.2099L27.223 19.2507C27.041 19.3405 26.8248 19.3308 26.6531 19.225C26.4803 19.118 26.375 18.9297 26.375 18.7266V11.1094H32.2344V18.7266Z" fill="white"/>
<defs>
<linearGradient id="paint0_linear" x1="5" y1="6.43311e-07" x2="48.125" y2="57.75" gradientUnits="userSpaceOnUse">
<stop stop-color="#44BAF1"/>
<stop offset="0.0001" stop-color="#FFC61C"/>
<stop offset="0.9998" stop-color="#FF9B00"/>
<stop offset="0.9999" stop-color="#FF9B00"/>
</linearGradient>
<linearGradient id="paint1_linear" x1="1.25" y1="0.375" x2="42.5" y2="48" gradientUnits="userSpaceOnUse">
<stop stop-color="#44BAF1"/>
<stop offset="1" stop-color="#267CB8"/>
</linearGradient>
</defs>
</svg>
