<svg width="192" height="192" viewBox="0 0 192 192" fill="none" xmlns="http://www.w3.org/2000/svg">
    <defs>
        <linearGradient id="paint0_linear" x1="18" y1="2.57324e-06" x2="190.5" y2="231" gradientUnits="userSpaceOnUse">
            <stop offset="0.0001" stop-color="#FC95AE"/>
            <stop offset="0.9998" stop-color="#FB678B"/>
        </linearGradient>
        <linearGradient id="paint1_linear" x1="169" y1="-49" x2="86" y2="128.5" gradientUnits="userSpaceOnUse">
            <stop stop-color="#FB668A"/>
            <stop offset="1" stop-color="white"/>
        </linearGradient>
        <linearGradient id="paint2_linear" x1="107.5" y1="32" x2="1.49999" y2="187.5" gradientUnits="userSpaceOnUse">
            <stop offset="0.552083" stop-color="white"/>
            <stop offset="1" stop-color="#FB668A"/>
        </linearGradient>
    </defs>
    <rect width="192" height="192" rx="32" fill="url(#paint0_linear)"/>
<path fill-rule="evenodd" clip-rule="evenodd" d="M126.783 71.5062C126.783 76.9242 125.654 82.1164 123.622 87.0829C134.909 94.0811 141.907 106.497 142.133 120.042C142.359 141.94 123.397 160 101.5 160H66.2848C56.3523 160 48.2257 151.873 48.2257 141.94L48 71.5062C48 49.8342 65.6076 32 87.2785 32C109.175 32 126.783 49.8342 126.783 71.5062ZM60.1903 123.428C55.4498 93.1778 95.4055 56.8321 98.5658 54.5746C99.2726 54.1034 99.5082 53.8313 99.6894 53.8637C99.8555 53.8933 99.976 54.1785 100.372 54.8004C105.293 62.5347 101.182 70.6796 98.9075 75.1853C98.2609 76.4662 97.7628 77.4529 97.6629 78.0526C97.251 79.7 98.175 83.3514 98.8608 86.0615C99.3027 87.8077 99.6457 89.1631 99.4688 89.34C99.2244 89.5845 98.3183 89.6966 97.3237 89.8196C96.4812 89.9239 95.5752 90.036 94.954 90.243C93.8253 90.6945 94.2768 94.758 94.2768 94.758L92.6966 95.4353C92.6966 95.4353 92.6966 97.0155 92.0194 97.467C90.4393 97.6928 89.5363 99.0473 88.8591 101.756C87.7304 107.626 77.7979 101.756 76.4434 100.628C75.089 99.4988 69.897 98.1443 67.6396 103.562C67.6396 122.299 77.7979 125.008 85.473 125.911C93.1481 126.814 96.9857 120.493 93.3738 119.816C89.762 119.365 91.1165 115.527 91.7937 114.624C92.2473 114.019 91.8906 113.515 91.6057 113.113C91.4652 112.915 91.3422 112.741 91.3422 112.592C91.3422 112.449 91.4101 112.306 91.4814 112.156C91.6353 111.832 91.805 111.475 91.3422 111.012C91.5679 109.883 92.6966 108.98 92.6966 108.98C92.6966 108.98 92.2451 106.497 92.2451 105.82C92.2451 105.193 92.2452 105.193 92.9806 105.2C93.5689 105.207 94.628 105.218 96.5342 104.917C97.914 104.673 98.0389 103.613 98.1996 102.249C98.4858 99.82 98.8853 96.4296 106.692 94.9838C108.047 94.758 109.401 94.758 110.756 94.9838C139.876 101.756 122.494 124.331 116.399 124.105C115.944 124.257 115.16 124.398 114.212 124.567C110.931 125.155 105.688 126.094 105.338 129.072C105.789 160.225 64.9308 153.679 60.1903 123.428Z" fill="white"/>
<path fill-rule="evenodd" clip-rule="evenodd" d="M126.783 71.5062C126.783 76.9242 125.654 82.1164 123.622 87.0829C134.909 94.0811 141.907 106.497 142.133 120.042C142.359 141.94 123.397 160 101.5 160H66.2848C56.3523 160 48.2257 151.873 48.2257 141.94L48 71.5062C48 49.8342 65.6076 32 87.2785 32C109.175 32 126.783 49.8342 126.783 71.5062ZM60.1903 123.428C55.4498 93.1778 95.4055 56.8321 98.5658 54.5746C99.2726 54.1034 99.5082 53.8313 99.6894 53.8637C99.8555 53.8933 99.976 54.1785 100.372 54.8004C105.293 62.5347 101.182 70.6796 98.9075 75.1853C98.2609 76.4662 97.7628 77.4529 97.6629 78.0526C97.251 79.7 98.175 83.3514 98.8608 86.0615C99.3027 87.8077 99.6457 89.1631 99.4688 89.34C99.2244 89.5845 98.3183 89.6966 97.3237 89.8196C96.4812 89.9239 95.5752 90.036 94.954 90.243C93.8253 90.6945 94.2768 94.758 94.2768 94.758L92.6966 95.4353C92.6966 95.4353 92.6966 97.0155 92.0194 97.467C90.4393 97.6928 89.5363 99.0473 88.8591 101.756C87.7304 107.626 77.7979 101.756 76.4434 100.628C75.089 99.4988 69.897 98.1443 67.6396 103.562C67.6396 122.299 77.7979 125.008 85.473 125.911C93.1481 126.814 96.9857 120.493 93.3738 119.816C89.762 119.365 91.1165 115.527 91.7937 114.624C92.2473 114.019 91.8906 113.515 91.6057 113.113C91.4652 112.915 91.3422 112.741 91.3422 112.592C91.3422 112.449 91.4101 112.306 91.4814 112.156C91.6353 111.832 91.805 111.475 91.3422 111.012C91.5679 109.883 92.6966 108.98 92.6966 108.98C92.6966 108.98 92.2451 106.497 92.2451 105.82C92.2451 105.193 92.2452 105.193 92.9806 105.2C93.5689 105.207 94.628 105.218 96.5342 104.917C97.914 104.673 98.0389 103.613 98.1996 102.249C98.4858 99.82 98.8853 96.4296 106.692 94.9838C108.047 94.758 109.401 94.758 110.756 94.9838C139.876 101.756 122.494 124.331 116.399 124.105C115.944 124.257 115.16 124.398 114.212 124.567C110.931 125.155 105.688 126.094 105.338 129.072C105.789 160.225 64.9308 153.679 60.1903 123.428Z" fill="url(#paint1_linear)"/>
<path d="M101.736 34.735C105.645 40.2021 106.912 47.1392 99.6894 53.8637C99.5744 53.8432 99.4376 53.9452 99.1724 54.1428C99.0196 54.2567 98.8242 54.4023 98.5658 54.5746C96.5163 56.0387 78.9906 71.8401 68.2176 91.0181C62.3265 101.136 59.1136 112.107 60.5 123C61.1362 127.998 62.346 132.287 64.8444 135.948C68.4039 141.552 73.4569 145.534 78.7917 147.675C91.7087 154.275 108.538 155.854 120.5 155C120.67 154.988 120.835 154.977 120.996 154.968C115.144 158.17 108.471 160 101.5 160H66.2848C56.3523 160 48.2257 151.873 48.2257 141.94L48 71.5062C48 49.8342 65.6076 32 87.2785 32C92.3876 32 97.2631 32.9709 101.736 34.735Z" fill="url(#paint2_linear)"/>

</svg>
