<svg id="Capa_1" enable-background="new 0 0 512 512" height="512" viewBox="0 0 512 512" width="512" xmlns="http://www.w3.org/2000/svg"><g><g><path d="m380.515 57.038v17.582l-36.741-17.107c-21.74 3.117-41.878 11.178-59.213 23.037-8.626 5.901-18.594 8.852-28.56 8.852h-33.616v353.934h76.944c43.615-28.044 67.971-44.174 99.979-70.476 48.976-40.246 105.192-96.677 105.192-176.483 0-71.949-54.237-131.146-123.985-139.339z" fill="#ff8e9e"/><g fill="#ea5b70"><path d="m376.027 162.981c-4.94 45.406-31.804 85.617-71.86 107.563l-13.154 7.208 14.415 26.31 13.155-7.207c48.645-26.653 81.269-75.486 87.269-130.628 4.206-38.654-5.047-77.086-25.337-109.188-11.908-1.398-24.047-1.345-36.741.475 24.526 29.018 36.426 67.115 32.253 105.467z"/><path d="m256 89.401c-9.967 0-19.933-2.951-28.559-8.852-22.585-15.451-49.919-24.489-79.37-24.489-77.635.001-140.571 62.823-140.571 140.317 0 79.806 56.217 136.236 105.194 176.481 31.942 26.247 57.319 43.053 99.986 70.486 26.38 16.961 60.268 16.952 86.648-.01-88.817-96.492-106.246-238.864-43.328-353.933z"/></g></g><g><path d="m349.035 299.288c-9.564-9.564-22.535-14.937-36.06-14.937h-2.551l-39.72-22.605c8.753-15.48 13.759-33.366 13.759-52.442 0-54.119-40.281-98.824-92.497-105.784l-55.947 31.985v192.885l152.196 66.715c15.763-2.454 30.878-6.865 45.088-12.979 33.041-14.215 41.165-57.405 15.732-82.838z" fill="#ffddcf"/><path d="m310.423 284.351c5.07-8.929 3.522-20.152-3.738-27.412-10.648-10.648-28.573-8.303-35.982 4.807-16.101 28.488-44.915 48.832-78.738 53.341-30.425-25.17-49.811-63.212-49.811-105.783s19.387-80.614 49.812-105.784c-4.658-.621-9.408-.947-14.235-.947-58.946-.001-106.731 47.784-106.731 106.73 0 1.022.018 2.039.046 3.054 0-.018-.002-.035-.002-.053.929 59.259 29.254 111.861 72.882 145.689 31.814 24.668 71.75 39.36 115.124 39.36 9.92 0 19.66-.769 29.164-2.249-19.301-11.28-35.009-28.033-45-48.132 28.289-13.51 51.796-35.476 67.209-62.621z" fill="#ffcbbe"/></g><g fill="#ff8e9e"><ellipse cx="242.219" cy="246.793" rx="23.767" ry="18.927"/><ellipse cx="110.98" cy="246.793" rx="23.767" ry="18.927"/></g><g><path d="m477.439 101.455c-2.664-3.17-7.394-3.582-10.567-.919-3.171 2.664-3.583 7.396-.919 10.567 20.022 23.835 31.047 54.119 31.047 85.274 0 107.868-110.275 181.856-201.735 240.659-23.903 15.368-54.605 15.377-78.536-.011-93.452-60.088-201.729-133.624-201.729-240.648 0-106.894 120.569-169.589 208.206-109.637 19.816 13.557 45.771 13.553 65.588.001 46.747-31.98 110.226-31.372 156.731 4.711 3.271 2.537 7.983 1.945 10.523-1.328 2.539-3.272 1.944-7.984-1.328-10.523-51.723-40.129-122.332-40.859-174.396-5.24-14.706 10.059-33.945 10.061-48.65-.001-97.621-66.78-231.674 3.142-231.674 122.017 0 114.563 111.182 190.614 208.615 253.266 28.844 18.545 65.884 18.578 94.761.011 97.172-62.476 208.624-138.725 208.624-253.277 0-34.678-12.274-68.388-34.561-94.922z"/><path d="m246.285 232.045c2.722-3.123 2.396-7.86-.727-10.582-3.124-2.721-7.862-2.396-10.582.727-3.5 4.018-9.718 4.016-13.217 0-2.723-3.124-7.46-3.448-10.582-.727s-3.448 7.459-.727 10.582c9.481 10.879 26.364 10.868 35.835 0z"/><path d="m131.439 222.19c-3.5 4.018-9.718 4.016-13.217 0-2.723-3.124-7.46-3.448-10.582-.727s-3.448 7.459-.727 10.582c9.479 10.879 26.363 10.869 35.834 0 2.722-3.123 2.396-7.86-.727-10.582-3.124-2.721-7.861-2.396-10.581.727z"/><path d="m186.081 243.857c0-5.585-4.245-10.112-9.481-10.112-5.237 0-9.481 4.527-9.481 10.112 0 5.584 4.245 10.112 9.481 10.112s9.481-4.528 9.481-10.112z"/><path d="m404.131 88.616c-1.383-3.903-5.67-5.943-9.575-4.562-3.903 1.384-5.946 5.671-4.562 9.575 23.985 67.643.79 143.198-57.67 185.641-3.403-1.069-7.018-1.876-10.841-2.394.405-2.78.44-5.593.077-8.359 59.558-41.76 79.689-120.544 47.626-185.74-1.828-3.719-6.323-5.249-10.04-3.421-3.718 1.828-5.249 6.323-3.421 10.04 28.264 57.466 11.422 126.774-39.993 164.835-6.611-8.815-17.119-13.199-27.85-11.93 22.287-71.907-30.969-147.896-109.361-147.896-58.701 0-114.224 45.321-114.224 119.89 0 9.218 2.132 91.707 75.986 148.973 4.694 3.641 9.607 7.105 14.604 10.298 3.494 2.231 8.128 1.207 10.358-2.282 2.229-3.49 1.209-8.128-2.282-10.358-4.613-2.948-9.151-6.147-13.488-9.511-68.208-52.889-70.178-128.654-70.178-137.119 0-1.578.238-1.422.199-2.796-1.543-56.29 43.659-102.094 99.024-102.094 75.823 0 123.881 82.073 86.611 147.989-.001.003-.003.005-.005.008-15.248 26.979-42.612 45.52-73.2 49.597-4.105.548-6.99 4.319-6.443 8.426.548 4.106 4.318 6.996 8.426 6.443 35.223-4.695 66.728-26.036 84.276-57.085 4.962-8.779 16.989-10.354 24.148-3.194 4.871 4.871 5.907 12.439 2.519 18.406-14.795 26.059-36.897 46.652-63.917 59.557-3.737 1.785-5.32 6.262-3.535 10 1.785 3.736 6.259 5.321 10 3.535 28.418-13.572 51.885-34.869 68.154-61.735 48.855 3.261 56.077 65.878 15.738 83.231-22.362 9.62-46.603 14.627-71.31 14.627-24.844 0-48.939-4.974-71.616-14.784-3.8-1.646-8.218.104-9.861 3.906-1.645 3.802.104 8.217 3.906 9.861 24.567 10.628 50.667 16.017 77.571 16.017 25.828 0 52.171-5.064 77.237-15.848 44.043-18.949 45.789-77.633 10.271-101.794 58.788-46.872 82.097-126.163 56.641-197.953z"/></g></g></svg>