<svg width="49" height="48" viewBox="0 0 49 48" fill="none" xmlns="http://www.w3.org/2000/svg">
    <defs>
        <linearGradient id="paint0_linear" x1="5" y1="6.43311e-07" x2="48.125" y2="57.75" gradientUnits="userSpaceOnUse">
            <stop offset="0.0001" stop-color="#FC95AE"/>
            <stop offset="0.9998" stop-color="#FB678B"/>
        </linearGradient>
        <linearGradient id="paint1_linear" x1="1.25" y1="0.375" x2="42.5" y2="48" gradientUnits="userSpaceOnUse">
            <stop stop-color="#44BAF1"/>
            <stop offset="1" stop-color="#267CB8"/>
        </linearGradient>
    </defs>
<rect x="0.5" width="48" height="48" rx="16" fill="url(#paint0_linear)"/>
<mask id="mask0" mask-type="alpha" maskUnits="userSpaceOnUse" x="0" y="0" width="49" height="48">
<rect x="0.5" width="48" height="48" rx="16" fill="url(#paint1_linear)"/>
</mask>
<g mask="url(#mask0)">
<circle opacity="0.8" cx="7.25" cy="40.125" r="13.875" fill="#FC95AE"/>
<circle opacity="0.8" cx="52.25" cy="19.125" r="10.125" fill="#FC95AE"/>
</g>
<path d="M13.9532 22.5939C13.6532 22.5939 13.3532 22.479 13.1247 22.2505C12.6665 21.7923 12.6665 21.0517 13.1247 20.5935L21.2176 12.5005C21.6758 12.0423 22.4165 12.0423 22.8747 12.5005C23.3329 12.9587 23.3329 13.6993 22.8747 14.1575L14.7817 22.2505C14.5532 22.479 14.2532 22.5939 13.9532 22.5939Z" fill="white"/>
<path d="M23.6212 16.7344C23.3927 16.7344 23.1677 16.6453 23.0001 16.4766L18.8985 12.375C18.6466 12.1242 18.5716 11.7457 18.7075 11.4176C18.8434 11.0895 19.1645 10.875 19.5196 10.875H23.6212C24.1063 10.875 24.5001 11.2688 24.5001 11.7539V15.8555C24.5001 16.2105 24.2856 16.5316 23.9575 16.6676C23.8485 16.7121 23.7349 16.7344 23.6212 16.7344Z" fill="white"/>
<path d="M18.6409 27.5743V34.3126H11.6096V27.5743C11.6096 26.7657 12.2659 26.1095 13.0745 26.1095H17.176C17.9846 26.1095 18.6409 26.7657 18.6409 27.5743Z" fill="white"/>
<path d="M28.0156 22.8868V34.3126H20.9844V22.8868C20.9844 22.0782 21.6406 21.422 22.4492 21.422H26.5508C27.3594 21.422 28.0156 22.0782 28.0156 22.8868Z" fill="white"/>
<path d="M37.3904 18.1993V34.3126H30.3591V18.1993C30.3591 17.3907 31.0154 16.7345 31.824 16.7345H35.9255C36.7341 16.7345 37.3904 17.3907 37.3904 18.1993Z" fill="white"/>
<path d="M37.6836 37.8282H11.3164C10.8312 37.8282 10.4375 37.4345 10.4375 36.9493C10.4375 36.4642 10.8312 36.0704 11.3164 36.0704H37.6836C38.1688 36.0704 38.5625 36.4642 38.5625 36.9493C38.5625 37.4345 38.1688 37.8282 37.6836 37.8282Z" fill="white"/>
</svg>
