<svg width="40" height="40" viewBox="0 0 40 40" fill="none" xmlns="http://www.w3.org/2000/svg">
<circle cx="20" cy="20" r="20" fill="white"/>
<g clip-path="url(#clip0)">
<path d="M8.3568 31.9999C8.26549 31.9999 8.17418 31.965 8.10452 31.8954C7.96516 31.7561 7.96516 31.5301 8.10452 31.3908L11.3948 28.1006C11.5341 27.9613 11.76 27.9613 11.8993 28.1006C12.0387 28.2399 12.0387 28.4658 11.8993 28.6051L8.60908 31.8954C8.53943 31.965 8.44811 31.9999 8.3568 31.9999Z" fill="#D9E7EB"/>
<path d="M11.5432 28.9612L11.8993 28.6051C12.0387 28.4658 12.0387 28.2399 11.8993 28.1006C11.76 27.9613 11.5341 27.9613 11.3947 28.1006L11.0386 28.4567L11.5432 28.9612Z" fill="#C5D3DD"/>
<path d="M13.1696 25.2354L14.7646 26.8303L13.0044 28.5904C12.6999 28.895 12.2061 28.895 11.9015 28.5904L11.4095 28.0984C11.1049 27.7938 11.1049 27.3001 11.4095 26.9955L13.1696 25.2354Z" fill="#C9F0FD"/>
<path d="M14.7648 26.8304L13.0043 28.5904C12.6999 28.8948 12.2061 28.8948 11.9016 28.5904L11.4093 28.0985C11.3687 28.0578 11.3334 28.0138 11.3036 27.9668C11.6051 28.1611 12.0118 28.1259 12.2761 27.8616L14.036 26.1016L14.7648 26.8304Z" fill="#9CE6FB"/>
<path d="M19.7365 16.1694L23.6924 12.2135L27.7846 16.3057L23.8287 20.2616L19.7365 16.1694Z" fill="#C9F0FD"/>
<path d="M26.6827 17.4103L27.7877 16.3052L23.6949 12.2124L22.5898 13.3174C23.9541 14.6817 25.3184 16.046 26.6827 17.4103Z" fill="#9CE6FB"/>
<path d="M22.8955 19.3291L26.8515 15.3731L27.7845 16.3061L23.8285 20.2621L22.8955 19.3291Z" fill="#9CE6FB"/>
<path d="M19.7025 16.2046L12.711 23.196C11.9687 23.9383 11.9687 25.1418 12.711 25.8841L14.1158 27.2889C14.8581 28.0312 16.0615 28.0312 16.8038 27.2889L23.7953 20.2974L19.7025 16.2046Z" fill="#31A7FB"/>
<path d="M19.4852 16.4219L23.578 20.5147L22.7368 21.3559C22.4648 21.6278 22.024 21.6278 21.7521 21.3559L18.644 18.2478C18.3721 17.9759 18.3721 17.535 18.644 17.263L19.4852 16.4219Z" fill="#1C96F9"/>
<path d="M23.7952 20.2975L16.8037 27.2891C16.0613 28.0311 14.8583 28.0311 14.1158 27.2891L13.1824 26.3558C13.9249 27.0982 15.1284 27.0982 15.8704 26.3558L22.8618 19.3643L23.7952 20.2975Z" fill="#1C96F9"/>
<path d="M20.2994 15.6074L24.3922 19.7002L23.551 20.5414C23.2791 20.8134 22.8382 20.8134 22.5663 20.5414L19.4583 17.4333C19.1864 17.1614 19.1864 16.7206 19.4583 16.4486L20.2994 15.6074Z" fill="#596D76"/>
<path d="M24.3923 19.7005L23.551 20.5418C23.2794 20.8134 22.8384 20.8134 22.5663 20.5418L22.1254 20.1008L23.4591 18.7671L24.3923 19.7005Z" fill="#475A61"/>
<path d="M21.5287 16.8398L27.9847 10.3838L29.6146 12.0136L23.1585 18.4697L21.5287 16.8398Z" fill="#D9E7EB"/>
<path d="M26.7125 13.7918L27.8074 12.6969C27.9467 12.5576 27.9467 12.3317 27.8074 12.1924C27.6681 12.0531 27.4422 12.0531 27.3028 12.1924L26.2094 13.2858C26.3771 13.4545 26.5448 13.6232 26.7125 13.7918Z" fill="#8D9DA7"/>
<path d="M26.5563 15.0737L23.1607 18.4693L22.5984 17.9066L21.5309 16.839L24.9261 13.4434L26.5563 15.0737Z" fill="#C5D3DD"/>
<path d="M26.5564 15.0734L25.4512 16.1786C24.9082 15.6355 24.3644 15.0922 23.8212 14.5485L24.9263 13.4434L26.5564 15.0734Z" fill="#B7C4CE"/>
<path d="M22.0911 17.4014L25.4861 14.0064L25.9907 14.5111L22.5958 17.906L22.0911 17.4014Z" fill="#8D9DA7"/>
<path d="M28.8084 12.8219L29.6181 12.0121L27.9879 10.3818L27.1812 11.1885C27.7231 11.7335 28.2652 12.2781 28.8084 12.8219Z" fill="#C5D3DD"/>
<path d="M23.8585 10.6885L29.3117 16.1417C29.4719 16.3019 29.4719 16.5617 29.3117 16.7219L28.8839 17.1496C28.7237 17.3098 28.464 17.3098 28.3038 17.1496L22.8506 11.6964C22.6904 11.5362 22.6904 11.2764 22.8506 11.1163L23.2784 10.6885C23.4385 10.5283 23.6983 10.5283 23.8585 10.6885Z" fill="#F1FAFF"/>
<path d="M29.3117 16.7219L28.8839 17.1497C28.7239 17.3097 28.4639 17.3097 28.3039 17.1497L27.537 16.3828C27.697 16.5428 27.9569 16.5428 28.117 16.3828L28.5448 15.955C28.7048 15.795 28.7048 15.535 28.5448 15.375L29.3117 16.1419C29.4717 16.302 29.4717 16.5619 29.3117 16.7219Z" fill="#C9F0FD"/>
<path d="M27.3639 8.12012L31.8797 12.6359C32.0399 12.7961 32.0399 13.0559 31.8797 13.216L31.4519 13.6438C31.2917 13.804 31.032 13.804 30.8718 13.6438L26.3561 9.12803C26.1958 8.96781 26.1958 8.70808 26.3561 8.5479L26.7838 8.12017C26.944 7.95995 27.2037 7.95995 27.3639 8.12012Z" fill="#F1FAFF"/>
<path d="M31.8795 13.216L31.4518 13.6438C31.2917 13.8039 31.0319 13.8039 30.8718 13.6438L30.1049 12.8769C30.2649 13.0369 30.5248 13.0369 30.6848 12.8769L31.1126 12.4491C31.2732 12.2891 31.2732 12.0292 31.1126 11.8691L31.8795 12.6361C32.04 12.7961 32.04 13.056 31.8795 13.216Z" fill="#C9F0FD"/>
<path d="M13.0713 28.5028L11.4974 26.9289C11.3581 26.7896 11.3581 26.5636 11.4974 26.4243C11.6367 26.285 11.8626 26.285 12.0019 26.4243L13.5759 27.9983C13.7152 28.1376 13.7152 28.3635 13.5759 28.5028C13.4366 28.6422 13.2107 28.6422 13.0713 28.5028Z" fill="#F1FAFF"/>
<path d="M13.576 28.5027C13.506 28.5722 13.4147 28.6074 13.3233 28.6074C13.232 28.6074 13.1407 28.5722 13.0712 28.5027L12.5636 27.9951C12.6335 28.065 12.7248 28.0998 12.8162 28.0998C12.9076 28.0998 12.9989 28.065 13.0683 27.9951C13.2063 27.8571 13.2078 27.6345 13.0726 27.4951L13.5759 27.9984C13.7153 28.1374 13.7153 28.3633 13.576 28.5027Z" fill="#C9F0FD"/>
<path d="M14.889 24.3799C14.7977 24.3799 14.7064 24.3451 14.6367 24.2754L14.1295 23.7682C13.9902 23.6289 13.9902 23.403 14.1295 23.2637C14.2689 23.1244 14.4948 23.1244 14.6341 23.2637L15.1413 23.7708C15.2806 23.9102 15.2806 24.1361 15.1413 24.2754C15.0716 24.3451 14.9803 24.3799 14.889 24.3799Z" fill="#B5DBFD"/>
<path d="M16.2127 23.0562C16.1214 23.0562 16.0301 23.0213 15.9604 22.9517L15.4532 22.4445C15.3139 22.3052 15.3139 22.0792 15.4532 21.9399C15.5925 21.8006 15.8185 21.8006 15.9578 21.9399L16.465 22.4471C16.6043 22.5864 16.6043 22.8124 16.465 22.9517C16.3953 23.0213 16.304 23.0562 16.2127 23.0562Z" fill="#B5DBFD"/>
<path d="M17.5363 21.7325C17.445 21.7325 17.3537 21.6976 17.2841 21.628L16.7769 21.1208C16.6376 20.9814 16.6376 20.7556 16.7769 20.6162C16.9163 20.4769 17.1422 20.4769 17.2815 20.6162L17.7886 21.1234C17.928 21.2628 17.928 21.4887 17.7886 21.628C17.719 21.6976 17.6277 21.7325 17.5363 21.7325Z" fill="#B5DBFD"/>
<path d="M18.86 20.4087C18.7686 20.4087 18.6773 20.3739 18.6077 20.3042L18.1005 19.797C17.9611 19.6577 17.9611 19.4318 18.1005 19.2925C18.2398 19.1532 18.4657 19.1532 18.6051 19.2925L19.1122 19.7997C19.2516 19.939 19.2516 20.1649 19.1122 20.3042C19.0426 20.3739 18.9513 20.4087 18.86 20.4087Z" fill="#B5DBFD"/>
<path d="M15.7551 26.7897C15.6652 26.7897 15.5752 26.7554 15.5065 26.6867C15.3692 26.5494 15.3692 26.3268 15.5065 26.1896L21.6698 20.0263C21.8071 19.8891 22.0296 19.889 22.167 20.0263C22.3043 20.1636 22.3043 20.3862 22.167 20.5235L16.0037 26.6867C15.9351 26.7554 15.8451 26.7897 15.7551 26.7897Z" fill="#B5DBFD"/>
</g>
<defs>
<clipPath id="clip0">
<rect width="24" height="24" fill="white" transform="translate(8 8)"/>
</clipPath>
</defs>
</svg>
