<svg width="160" height="160" viewBox="0 0 160 160" fill="none" xmlns="http://www.w3.org/2000/svg">
<path d="M155.695 91.7093C138.759 62.9158 140.559 33.4014 132.396 19.5242C124.233 5.64706 99.9046 -18.2787 42.4218 23.4124C-15.0611 65.1035 -0.440711 110.424 8.54196 125.684C50.5805 197.143 185.692 142.703 155.695 91.7093Z" fill="white"/>
<g clip-path="url(#clip0)">
<path d="M79.9895 128.556C113.121 128.556 139.979 125.616 139.979 121.99C139.979 118.365 113.121 115.425 79.9895 115.425C46.8582 115.425 20 118.365 20 121.99C20 125.616 46.8582 128.556 79.9895 128.556Z" fill="#F5F5F5"/>
<path d="M143.44 120.79H132.894V120.886H143.44V120.79Z" fill="#EBEBEB"/>
<path d="M105.618 121.681H102.846V121.777H105.618V121.681Z" fill="#EBEBEB"/>
<path d="M132.575 117.861H126.457V117.957H132.575V117.861Z" fill="#EBEBEB"/>
<path d="M30.5786 118.371H16.8135V118.466H30.5786V118.371Z" fill="#EBEBEB"/>
<path d="M35.422 118.371H33.4146V118.466H35.422V118.371Z" fill="#EBEBEB"/>
<path d="M71.8422 119.739H41.9858V119.835H71.8422V119.739Z" fill="#EBEBEB"/>
<path d="M159.404 115.665H0.0849609V115.761H159.404V115.665Z" fill="#EBEBEB"/>
<path d="M41.7065 51.0307L14 69.564L41.2768 110.342L68.9833 91.8086L41.7065 51.0307Z" fill="#F5F5F5"/>
<path d="M54.6599 89.8796L54.366 91.849L40.5801 89.8502L40.9034 87.9102L54.6599 89.8796Z" fill="#E0E0E0"/>
<path d="M47.723 82.9424L49.7218 83.2363L47.5173 96.7871L45.5479 96.4931L47.723 82.9424Z" fill="#E0E0E0"/>
<path d="M28.8723 69.9542C32.3132 67.6525 35.0806 65.7538 35.0536 65.7134C35.0265 65.6729 32.2151 67.5059 28.7742 69.8076C25.3333 72.1092 22.5659 74.0079 22.593 74.0484C22.6201 74.0889 25.4314 72.2558 28.8723 69.9542Z" fill="#E0E0E0"/>
<path d="M34.9218 70.1455C40.6296 66.3275 45.2348 63.1995 45.2077 63.159C45.1806 63.1186 40.5316 66.1809 34.8237 69.9989C29.1159 73.817 24.5107 76.9449 24.5378 76.9854C24.5649 77.0259 29.2139 73.9636 34.9218 70.1455Z" fill="#E0E0E0"/>
<path d="M36.9804 73.1929C42.6882 69.3748 47.2934 66.2469 47.2663 66.2064C47.2392 66.1659 42.5902 69.2282 36.8823 73.0463C31.1745 76.8643 26.5693 79.9923 26.5964 80.0328C26.6235 80.0733 31.2725 77.0109 36.9804 73.1929Z" fill="#E0E0E0"/>
<path d="M39.0131 76.2554C44.7209 72.4373 49.3261 69.3094 49.299 69.2689C49.272 69.2284 44.6229 72.2907 38.915 76.1088C33.2072 79.9268 28.602 83.0548 28.6291 83.0953C28.6562 83.1358 33.3053 80.0734 39.0131 76.2554Z" fill="#E0E0E0"/>
<path d="M41.0707 79.3047C46.7785 75.4866 51.3837 72.3587 51.3566 72.3182C51.3296 72.2777 46.6805 75.3401 40.9726 79.1581C35.2648 82.9761 30.6596 86.1041 30.6867 86.1446C30.7138 86.1851 35.3629 83.1227 41.0707 79.3047Z" fill="#E0E0E0"/>
<path d="M114 41.1547L113.01 45.9769L112.38 45.3533L111.297 46.1328L110.472 45.0935L108.615 46.455L107.036 43.7841L105.262 44.8233L104.56 43.8568L102.321 45.1247L101.651 43.6697L103.219 36L111.648 37.7564L114 41.1547Z" fill="#F5F5F5"/>
<path d="M111.648 37.7563L114 41.1547L111.08 40.552L111.648 37.7563Z" fill="#E0E0E0"/>
<path d="M112.803 46.933L111.349 54L100 51.6408L101.434 44.6362L102.115 46.0912L104.354 44.8129L105.055 45.7898L106.819 44.7505L108.408 47.4111L110.255 46.06L111.08 47.0889L112.164 46.3094L112.803 46.933Z" fill="#F5F5F5"/>
<g clip-path="url(#clip1)">
<path d="M95.3421 68.2771L70.8124 73.596L63.917 41.4385L82.1257 37.4722L89.7353 42.2233L95.3421 68.2771Z" fill="#F5F5F5"/>
<path d="M82.1255 37.4722L89.735 42.2233L83.4396 43.5951L82.1255 37.4722Z" fill="#DBDBDB"/>
<path d="M78.5813 60.3704L78.3834 59.6621C77.911 58.1878 78.0479 56.4133 79.0829 54.4562C80.0129 52.6996 80.4597 51.478 80.1981 50.2024C79.8905 48.7724 78.8264 48.011 77.0929 48.3436C76.1099 48.5622 75.0865 49.1099 74.4914 49.8003L73.4549 48.181C74.2282 47.3251 75.6911 46.549 77.1563 46.2341C80.3074 45.5708 82.1438 47.2532 82.6052 49.3983C83.0068 51.2987 82.2549 52.8897 81.2537 54.7725C80.3389 56.4806 80.159 57.8232 80.5515 59.2173L80.7308 59.9515L78.5813 60.3704ZM78.7905 64.4229C78.5667 63.3955 79.1089 62.5055 80.0733 62.3128C81.0377 62.1201 81.8468 62.6895 82.052 63.7428C82.2469 64.7285 81.7929 65.6051 80.7658 65.8304C79.8235 66.0197 79.0075 65.4053 78.7905 64.4229Z" fill="#DBDBDB"/>
</g>
<g clip-path="url(#clip2)">
<path d="M122.762 59.9609C122.708 59.9707 122.653 59.9855 122.604 60.0002C122.132 60.0839 121.753 60.4284 121.62 60.8862C121.487 61.3488 121.625 61.841 121.974 62.1658L123.589 63.7802L115.714 71.6552L125.085 81.0265L132.96 73.1515L134.574 74.7658C135.076 75.2679 135.883 75.2679 136.385 74.7658C136.887 74.2638 136.887 73.4566 136.385 72.9546L123.785 60.3546C123.525 60.0741 123.146 59.9313 122.762 59.9609ZM107.642 67.5208C107.588 67.5307 107.533 67.5455 107.484 67.5602C107.012 67.6439 106.633 67.9884 106.5 68.4462C106.367 68.9088 106.505 69.401 106.854 69.7258L109.768 72.6396L82.9535 99.454C82.7025 99.705 82.5598 100.177 82.5598 100.556L84.7648 109.455L76.2598 117.96V123L87.3635 111.896L96.026 114.062H96.3016C96.6806 114.062 96.9169 113.919 97.1679 113.668L123.982 86.854L127.014 89.8858C127.516 90.3879 128.323 90.3879 128.825 89.8858C129.327 89.3838 129.327 88.5766 128.825 88.0746L108.665 67.9146C108.405 67.6341 108.026 67.4913 107.642 67.5208ZM108.902 77.0102L113.548 81.814C114.05 82.316 114.05 83.0444 113.548 83.5465C113.297 83.7975 112.933 83.9402 112.682 83.9402C112.431 83.9402 112.027 83.7975 111.776 83.5465L107.13 78.9002V78.7821L108.902 77.0102ZM103.862 82.1683H103.98L106.106 84.334C106.608 84.836 106.608 85.5644 106.106 86.0665C105.855 86.3175 105.491 86.4602 105.24 86.4602C104.989 86.4602 104.625 86.3175 104.374 86.0665L102.208 83.9402L103.862 82.1683ZM98.8216 87.2083H98.9398L103.586 91.894C104.088 92.396 104.088 93.1244 103.586 93.6265C103.335 93.8775 102.971 94.0202 102.72 94.0202C102.469 94.0202 102.105 93.8775 101.854 93.6265L97.0498 89.0983V88.9802L98.8216 87.2083ZM93.7816 92.2483H93.8998L96.026 94.414C96.528 94.916 96.528 95.6444 96.026 96.1465C95.775 96.3975 95.4108 96.5402 95.1598 96.5402C94.9088 96.5402 94.5445 96.3975 94.2935 96.1465L92.1279 94.0202L93.7816 92.2483ZM88.7416 97.2883H88.8598L93.506 101.974C94.008 102.476 94.008 103.204 93.506 103.706C93.255 103.957 92.8908 104.1 92.6398 104.1C92.3888 104.1 92.0245 103.957 91.7735 103.706L86.9698 99.1783V99.0602L88.7416 97.2883Z" fill="#EBEBEB"/>
</g>
</g>
<defs>
<clipPath id="clip0">
<rect width="120" height="94" fill="white" transform="translate(20 38)"/>
</clipPath>
<clipPath id="clip1">
<rect width="27.0374" height="34.0147" fill="white" transform="translate(63.7388 40.2656) rotate(-8.63864)"/>
</clipPath>
<clipPath id="clip2">
<rect width="63" height="63" fill="white" transform="translate(75 60)"/>
</clipPath>
</defs>
</svg>
