<svg id="Capa_1" enable-background="new 0 0 511.996 511.996" height="512" viewBox="0 0 511.996 511.996" width="512" xmlns="http://www.w3.org/2000/svg"><g><g><path d="m496.507 400.624c-6.342-6.342-15.028-8.907-23.269-7.7v-192.669c8.24 1.207 16.927-1.358 23.269-7.7 10.654-10.654 10.654-27.929 0-38.583l-8.574-8.574 6.944-6.944c11.555-11.555 12.285-29.559 1.63-40.213s-28.659-9.924-40.213 1.63l-6.944 6.944-8.574-8.574c-10.654-10.654-27.929-10.654-38.583 0-6.519 6.519-9.041 15.514-7.583 23.957h-277.224c1.458-8.442-1.065-17.438-7.583-23.957-10.654-10.654-27.929-10.654-38.583 0l-8.574 8.574-6.944-6.944c-11.555-11.555-29.559-12.285-40.213-1.63s-9.924 28.659 1.63 40.213l6.944 6.944-8.574 8.574c-10.654 10.654-10.654 27.929 0 38.583 6.342 6.342 15.028 8.907 23.269 7.7v192.669c-8.24-1.208-16.927 1.358-23.269 7.7-10.654 10.654-10.654 27.929 0 38.583l8.574 8.574-6.944 6.943c-11.555 11.555-12.285 29.559-1.63 40.214 10.654 10.654 28.659 9.924 40.213-1.631l6.944-6.943 8.574 8.574c10.654 10.654 27.929 10.654 38.583 0 6.519-6.519 9.041-15.514 7.583-23.957h277.224c-1.458 8.442 1.065 17.438 7.583 23.957 10.654 10.654 27.929 10.654 38.583 0l8.574-8.574 6.944 6.943c11.555 11.555 29.559 12.285 40.213 1.631s9.924-28.659-1.63-40.214l-6.944-6.943 8.574-8.574c10.655-10.654 10.655-27.929 0-38.583z" fill="#c19d8e"/><g fill="#b78b7a"><path d="m420.548 122.198c-1.458-8.442 1.065-17.438 7.583-23.957 1.918-1.918 4.053-3.485 6.323-4.712-10.339-5.591-23.524-4.024-32.261 4.712-6.519 6.519-9.041 15.514-7.583 23.957z"/><path d="m428.132 494.938c-6.519-6.519-9.041-15.514-7.583-23.957h-25.939c-1.458 8.443 1.065 17.438 7.583 23.957 8.737 8.736 21.922 10.303 32.261 4.712-2.27-1.227-4.404-2.794-6.322-4.712z"/><path d="m41.427 494.938c-10.654-10.654-9.924-28.659 1.63-40.214l6.944-6.943-8.574-8.574c-10.654-10.654-10.654-27.929 0-38.583 6.342-6.342 15.028-8.907 23.269-7.7v-192.669c-8.24 1.208-16.927-1.358-23.269-7.7-10.654-10.654-10.654-27.929 0-38.583l8.574-8.574-6.944-6.944c-11.555-11.555-12.285-29.559-1.63-40.213 1.785-1.785 3.78-3.243 5.913-4.392-10.716-5.307-23.527-3.933-31.851 4.392-10.654 10.654-9.924 28.659 1.63 40.213l6.943 6.944-8.574 8.574c-10.654 10.654-10.654 27.929 0 38.583 6.342 6.342 15.028 8.907 23.269 7.7v192.669c-8.24-1.208-16.927 1.358-23.269 7.7-10.654 10.654-10.654 27.929 0 38.583l8.574 8.574-6.943 6.943c-11.555 11.555-12.285 29.559-1.63 40.214 8.324 8.324 21.135 9.699 31.851 4.391-2.133-1.148-4.128-2.606-5.913-4.391z"/></g><path d="m79.268 162.708h353.46v267.76h-353.46z" fill="#f1f4f6"/><path d="m308.088 404.958c0 8.74-.89 17.27-2.58 25.51h-226.24v-99.49c22.96-31.74 60.3-52.38 102.46-52.38 69.79 0 126.36 56.571 126.36 126.36z" fill="#b3e59f"/><path d="m131.098 404.958c0 8.74.89 17.27 2.58 25.51h-54.41v-99.49c22.96-31.74 60.3-52.38 102.46-52.38 13.19 0 25.92 2.02 37.87 5.77-51.29 16.09-88.5 63.99-88.5 120.59z" fill="#95d6a4"/><path d="m432.728 359.009v71.46h-216.87c7.74-62.37 60.93-110.64 125.39-110.64 35.99-.001 68.46 15.039 91.48 39.18z" fill="#b3e59f"/><path d="m374.138 324.149c-48.94 13.15-86.14 54.95-92.52 106.32h-65.76c7.74-62.37 60.94-110.64 125.4-110.64 11.38-.001 22.4 1.499 32.88 4.32z" fill="#95d6a4"/><circle cx="360.288" cy="235.712" fill="#ffe07d" r="41.235"/><circle cx="255.998" cy="39.493" fill="#d0cee7" r="30.428"/><path d="m268.521 67.233c-3.82 1.73-8.06 2.69-12.52 2.69-16.8 0-30.43-13.63-30.43-30.43 0-16.81 13.63-30.43 30.43-30.43 4.46 0 8.7.96 12.52 2.7-10.56 4.75-17.92 15.38-17.92 27.73 0 12.34 7.359 22.97 17.92 27.74z" fill="#beb9dd"/></g><g><path d="m511.996 419.916c0-9.292-3.617-18.026-10.185-24.593-5.69-5.69-13.192-9.181-21.073-9.997v-17.58c0-4.142-3.357-7.5-7.5-7.5s-7.5 3.358-7.5 7.5v25.18c0 2.179.948 4.251 2.597 5.675 1.65 1.425 3.837 2.062 5.993 1.745 6.261-.919 12.41 1.117 16.877 5.583 3.733 3.734 5.791 8.702 5.791 13.987s-2.058 10.252-5.795 13.99l-8.569 8.58c-2.926 2.929-2.924 7.675.003 10.603l6.939 6.94c4.25 4.25 6.719 9.734 6.95 15.443.222 5.479-1.667 10.508-5.32 14.161-3.657 3.657-8.686 5.544-14.164 5.327-5.704-.231-11.187-2.701-15.442-6.961l-6.95-6.94c-2.931-2.925-7.675-2.923-10.604.004l-8.569 8.57c-3.738 3.739-8.707 5.798-13.99 5.798-5.281 0-10.246-2.058-13.983-5.799-4.541-4.541-6.598-11.033-5.502-17.368.377-2.18-.229-4.416-1.653-6.108-1.425-1.693-3.524-2.67-5.737-2.67h-277.222c-2.213 0-4.312.977-5.737 2.67-1.425 1.692-2.03 3.928-1.653 6.108 1.096 6.334-.961 12.827-5.505 17.371-3.734 3.738-8.699 5.796-13.98 5.796-5.283 0-10.252-2.059-13.99-5.798l-8.569-8.57c-2.928-2.928-7.674-2.93-10.604-.004l-6.956 6.946c-4.25 4.253-9.732 6.723-15.437 6.955-5.459.218-10.507-1.669-14.165-5.327-3.652-3.652-5.541-8.681-5.319-14.161.231-5.708 2.7-11.193 6.95-15.443l6.939-6.94c2.927-2.928 2.929-7.674.003-10.603l-8.573-8.583c-3.734-3.735-5.792-8.702-5.792-13.987s2.058-10.252 5.792-13.987c4.467-4.467 10.618-6.501 16.876-5.583 2.156.316 4.343-.32 5.993-1.745 1.648-1.424 2.597-3.496 2.597-5.675v-192.67c0-2.179-.948-4.251-2.598-5.676-1.648-1.424-3.836-2.06-5.992-1.745-6.261.918-12.409-1.116-16.877-5.583-3.733-3.734-5.791-8.701-5.791-13.986s2.058-10.252 5.795-13.99l8.569-8.58c2.926-2.929 2.924-7.676-.003-10.603l-6.938-6.938c-8.608-8.616-9.341-21.897-1.632-29.605 3.657-3.658 8.706-5.547 14.164-5.327 5.705.231 11.187 2.701 15.442 6.961l6.95 6.94c2.932 2.925 7.676 2.924 10.604-.004l8.569-8.57c3.738-3.739 8.707-5.798 13.99-5.798 5.281 0 10.246 2.058 13.987 5.802 4.54 4.532 6.595 11.024 5.498 17.364-.377 2.18.229 4.416 1.653 6.109 1.425 1.693 3.524 2.67 5.737 2.67h277.221c2.213 0 4.312-.977 5.737-2.67s2.03-3.928 1.653-6.109c-1.097-6.34.958-12.832 5.505-17.371 3.734-3.738 8.699-5.796 13.98-5.796 5.283 0 10.252 2.059 13.99 5.798l8.569 8.57c2.929 2.928 7.675 2.929 10.604.004l6.956-6.946c4.25-4.253 9.731-6.723 15.437-6.955 5.459-.222 10.506 1.67 14.165 5.327 7.708 7.708 6.976 20.989-1.631 29.604l-6.939 6.94c-2.927 2.928-2.929 7.674-.003 10.603l8.573 8.583c3.733 3.734 5.791 8.702 5.791 13.987s-2.058 10.252-5.792 13.987c-4.466 4.467-10.619 6.5-16.876 5.583-2.156-.315-4.343.32-5.992 1.745s-2.598 3.497-2.598 5.676v137.51c0 4.142 3.357 7.5 7.5 7.5s7.5-3.358 7.5-7.5v-129.91c7.88-.816 15.383-4.307 21.072-9.997 6.568-6.567 10.186-15.301 10.186-24.593s-3.617-18.026-10.182-24.59l-3.272-3.277 1.642-1.642c14.452-14.465 15.183-37.26 1.628-50.814-6.655-6.654-15.67-10.103-25.379-9.708-9.483.384-18.518 4.412-25.435 11.334l-1.646 1.644-3.27-3.271c-6.572-6.572-15.309-10.191-24.598-10.191-9.291 0-18.024 3.62-24.585 10.187-5.889 5.879-9.403 13.628-10.073 21.758h-58.686l-42.644-51.397c5.268-6.514 8.433-14.797 8.433-23.808 0-20.913-17.015-37.927-37.928-37.927s-37.928 17.014-37.928 37.928c0 9.011 3.164 17.294 8.433 23.808l-42.648 51.395h-58.685c-.669-8.129-4.183-15.876-10.066-21.751-6.567-6.574-15.301-10.194-24.592-10.194-9.289 0-18.025 3.619-24.598 10.192l-3.27 3.27-1.641-1.638c-6.923-6.928-15.957-10.956-25.44-11.34-9.691-.395-18.725 3.053-25.378 9.708-13.556 13.554-12.825 36.349 1.629 50.816l1.64 1.64-3.269 3.273c-6.568 6.567-10.185 15.302-10.185 24.594s3.617 18.026 10.185 24.593c5.691 5.691 13.192 9.181 21.073 9.997v177.47c-7.88.816-15.383 4.307-21.072 9.997-6.569 6.566-10.186 15.301-10.186 24.593s3.617 18.026 10.182 24.59l3.272 3.277-1.64 1.64c-6.922 6.922-10.945 15.958-11.33 25.442-.394 9.714 3.051 18.726 9.7 25.375 6.654 6.654 15.649 10.095 25.379 9.708 9.483-.385 18.519-4.412 25.435-11.334l1.646-1.644 3.27 3.27c6.572 6.572 15.309 10.192 24.598 10.192 9.291 0 18.024-3.621 24.589-10.191 5.885-5.884 9.397-13.63 10.067-21.753h261.66c.67 8.123 4.182 15.869 10.064 21.75 6.567 6.574 15.301 10.194 24.592 10.194 9.289 0 18.025-3.62 24.598-10.192l3.27-3.27 1.641 1.638c6.922 6.929 15.957 10.956 25.44 11.341 9.707.396 18.726-3.054 25.378-9.708 6.65-6.649 10.095-15.661 9.701-25.375-.385-9.484-4.408-18.52-11.33-25.442l-1.64-1.64 3.269-3.274c6.568-6.568 10.185-15.302 10.185-24.594zm-255.998-403.351c12.643 0 22.928 10.285 22.928 22.927s-10.285 22.928-22.928 22.928-22.928-10.285-22.928-22.927 10.285-22.928 22.928-22.928zm-17.96 56.324c5.35 2.888 11.466 4.531 17.96 4.531s12.611-1.643 17.96-4.531l34.691 41.807h-105.302z"/><path d="m360.288 284.447c26.872 0 48.734-21.862 48.734-48.735s-21.862-48.735-48.734-48.735c-26.873 0-48.735 21.863-48.735 48.735s21.862 48.735 48.735 48.735zm0-82.47c18.602 0 33.734 15.134 33.734 33.735s-15.133 33.735-33.734 33.735-33.735-15.133-33.735-33.735 15.134-33.735 33.735-33.735z"/><path d="m79.268 155.209c-4.143 0-7.5 3.358-7.5 7.5v267.76c0 4.142 3.357 7.5 7.5 7.5h353.46c4.143 0 7.5-3.358 7.5-7.5v-267.76c0-4.142-3.357-7.5-7.5-7.5zm7.5 178.257c22.41-29.701 57.722-47.37 94.961-47.37 12.368 0 24.56 1.892 36.236 5.624 3.941 1.26 8.166-.915 9.427-4.861 1.262-3.945-.915-8.166-4.86-9.427-13.154-4.204-26.883-6.336-40.803-6.336-35.798 0-70.014 14.499-94.961 39.543v-140.43h338.46v171.701c-23.69-19.183-52.933-29.582-83.979-29.582-18.875 0-36.94 3.95-53.353 11.102-10.078-13.133-22.333-24.154-36.51-32.806-3.534-2.158-8.15-1.041-10.31 2.495-2.157 3.536-1.04 8.151 2.495 10.309 11.778 7.188 22.06 16.22 30.669 26.904-33.391 19.348-57.871 52.759-64.839 92.637h-122.633zm137.889 89.502c10.889-55.086 59.582-95.64 116.591-95.64 31.837 0 61.542 12.312 83.979 34.736v60.904z"/><path d="m206.518 208.766c0-4.142-3.357-7.5-7.5-7.5-5.329 0-10.21 1.951-13.967 5.177-3.757-3.226-8.638-5.177-13.967-5.177-4.143 0-7.5 3.358-7.5 7.5s3.357 7.5 7.5 7.5c3.565 0 6.467 2.901 6.467 6.467 0 4.142 3.357 7.5 7.5 7.5s7.5-3.358 7.5-7.5c0-3.566 2.901-6.467 6.467-6.467 4.142 0 7.5-3.358 7.5-7.5z"/><path d="m233.121 243.35c0-3.566 2.901-6.467 6.467-6.467 4.143 0 7.5-3.358 7.5-7.5s-3.357-7.5-7.5-7.5c-5.329 0-10.21 1.951-13.967 5.177-3.757-3.226-8.638-5.177-13.967-5.177-4.143 0-7.5 3.358-7.5 7.5s3.357 7.5 7.5 7.5c3.565 0 6.467 2.901 6.467 6.467 0 4.142 3.357 7.5 7.5 7.5s7.5-3.358 7.5-7.5z"/></g></g></svg>