<svg width="16" height="16" viewBox="0 0 16 16" fill="none" xmlns="http://www.w3.org/2000/svg">
<circle cx="8" cy="8" r="8" fill="white"/>
<path d="M11.6342 6.1444C11.5842 6.21365 11.4694 6.32532 11.4694 6.32532C11.0631 6.75882 10.0525 7.41177 9.53982 7.62145C9.53982 7.62584 9.23497 7.75019 9.08996 7.75506H9.07066C8.84846 7.75506 8.6406 7.63072 8.5342 7.43079C8.49033 7.34837 8.44954 7.1479 8.42985 7.05118C8.42334 7.01914 8.41913 6.99849 8.4179 6.99728C8.37435 6.71152 8.34565 6.27314 8.34565 5.79184C8.34565 5.28665 8.37435 4.82925 8.4278 4.54788C8.4278 4.54301 8.48075 4.28602 8.5149 4.2002C8.56785 4.07634 8.66485 3.9715 8.7856 3.90469C8.88211 3.8569 8.98406 3.8335 9.08996 3.8335C9.20131 3.83788 9.40917 3.90957 9.49132 3.94273C10.0332 4.15241 11.068 4.83851 11.4644 5.25788C11.5087 5.30144 11.555 5.35102 11.5872 5.38552C11.6044 5.40392 11.6176 5.41804 11.6243 5.42465C11.7064 5.52949 11.75 5.65823 11.75 5.79672C11.75 5.92009 11.7114 6.04395 11.6342 6.1444Z" fill="#00C4AD"/>
<path d="M8.76592 10.5954C8.54767 10.5954 8.37099 10.4213 8.37099 10.2063C8.37099 9.99124 8.54767 9.81716 8.76592 9.81716L10.6738 9.70988C10.9519 9.70988 11.1771 9.93224 11.1771 10.2063C11.1771 10.4803 10.9519 10.7022 10.6738 10.7022L8.76592 10.5954Z" fill="#00C4AD"/>
<path d="M7.48517 11.8001C7.43172 11.924 7.33521 12.0288 7.21446 12.0956C7.11795 12.1434 7.016 12.1668 6.9096 12.1668C6.79874 12.1624 6.59039 12.0908 6.50823 12.0571C5.96681 11.8479 4.93197 11.1613 4.53506 10.7424C4.4919 10.6996 4.4465 10.6509 4.41439 10.6165C4.39644 10.5973 4.38263 10.5825 4.37571 10.5757C4.29355 10.4703 4.25 10.3421 4.25 10.2041C4.25 10.0797 4.2886 9.95589 4.3663 9.85592C4.41579 9.78668 4.53061 9.67501 4.53061 9.67501C4.93643 9.24101 5.94751 8.58856 6.46023 8.37887C6.46023 8.374 6.76459 8.25014 6.9096 8.24526H6.9289C7.15161 8.24526 7.35946 8.36912 7.46587 8.56954C7.50928 8.65179 7.55018 8.85163 7.57003 8.94857C7.57665 8.98093 7.58093 9.00183 7.58217 9.00305C7.62572 9.2888 7.65443 9.72719 7.65443 10.2085C7.65443 10.7137 7.62572 11.1711 7.57227 11.4524C7.57227 11.4568 7.51932 11.7143 7.48517 11.8001Z" fill="#00C4AD"/>
<path d="M7.62895 5.79413C7.62895 5.57909 7.45227 5.405 7.23402 5.405L5.32622 5.29772C5.04809 5.29772 4.82292 5.52008 4.82292 5.79413C4.82292 6.06819 5.04809 6.29006 5.32622 6.29006L7.23402 6.18327C7.45227 6.18327 7.62895 6.00918 7.62895 5.79413Z" fill="#00C4AD"/>
</svg>
