<svg width="18" height="19" viewBox="0 0 18 19" fill="none" xmlns="http://www.w3.org/2000/svg">
<path d="M16.1635 1.5145C15.3115 0.51 13.9105 0 12 0C11.195 0 10.434 0.2405 9.78801 0.6735C10.6455 1.931 10.965 3.286 10.9885 3.3915C11.048 3.6605 10.8785 3.927 10.609 3.9875C10.5725 3.9955 10.5355 4 10.4995 4C10.271 4 10.0645 3.842 10.012 3.609C10.007 3.587 9.73101 2.425 9.01751 1.342C9.01201 1.348 9.00551 1.3535 9.00001 1.36C8.23951 0.4915 7.16251 0 6.00001 0C4.08951 0 2.68851 0.51 1.83651 1.5145C0.744509 2.8015 0.846009 4.5895 1.00351 5.541C1.41201 8.01 3.71001 14.968 4.67951 17.8445C4.91151 18.5355 5.55901 19 6.29051 19C6.74651 19 7.17501 18.822 7.49651 18.4985C7.81851 18.175 7.99401 17.7455 7.99151 17.289L7.96051 11.0075C7.97851 10.4425 8.43501 10 9.00001 10C9.56501 10 10.0215 10.4425 10.039 10.998L10.008 17.289C10.0055 17.7455 10.1815 18.1745 10.503 18.4985C10.825 18.822 11.2535 19 11.7095 19C12.441 19 13.0885 18.5355 13.321 17.8445C14.29 14.9675 16.588 8.0095 16.997 5.541C17.1545 4.59 17.2555 2.802 16.1635 1.5145Z" fill="#FF7B1C"/>
</svg>
