<svg width="160" height="42" viewBox="0 0 160 42" fill="none" xmlns="http://www.w3.org/2000/svg">
<path d="M29.714 8.6001C26.5803 8.6001 23.6651 9.83909 21.4059 11.9527C19.1467 9.83909 16.1587 8.6001 13.0978 8.6001C6.39299 8.6001 1 14.0662 1 20.6985V37.6799C1 39.7935 2.6762 41.4698 4.78967 41.4698C6.90314 41.4698 8.57933 39.7935 8.57933 37.6799V20.9171C8.57933 18.512 10.4742 16.3256 12.8791 16.3256C15.4299 16.2527 17.4705 18.2934 17.4705 20.7714V37.7528C17.4705 39.8664 19.1467 41.5427 21.2601 41.5427H21.4059C23.5194 41.5427 25.1956 39.8664 25.1956 37.7528V20.6985C25.1956 18.2205 27.309 16.1798 29.7869 16.2527C32.1919 16.3256 34.0867 18.4391 34.0867 20.8442V37.607C34.0867 39.7206 35.7629 41.3969 37.8764 41.3969C39.9898 41.3969 41.666 39.7206 41.666 37.607V20.6985C41.8118 14.0662 36.3459 8.6001 29.714 8.6001Z" fill="white"/>
<path d="M66.0075 9.76624C63.894 9.76624 62.2178 11.4425 62.2178 13.5561V29.2257C62.2178 31.7036 60.1772 33.6715 57.6994 33.6715C55.2215 33.6715 53.1809 31.7036 53.1809 29.2257V13.5561C53.1809 11.4425 51.5047 9.76624 49.3912 9.76624C47.2778 9.76624 45.6016 11.4425 45.6016 13.5561V31.3392C45.6016 33.963 46.8405 36.5138 48.954 38.1172C58.8654 45.6241 69.7971 38.7003 69.7971 29.2257V13.5561C69.7971 11.4425 68.1209 9.76624 66.0075 9.76624Z" fill="white"/>
<path d="M102.228 8.45422C99.0939 8.45422 96.1788 9.69321 93.9196 11.8068C91.6603 9.69321 88.6723 8.45422 85.6115 8.45422C78.9795 8.45422 73.5137 13.8475 73.5137 20.5526V37.534C73.5137 39.6476 75.1899 41.3239 77.3033 41.3239C79.4168 41.3239 81.093 39.6476 81.093 37.534V20.7712C81.093 18.3661 82.9878 16.1797 85.3928 16.1797C87.9436 16.1068 89.9841 18.1475 89.9841 20.6255V37.6069C89.9841 39.7205 91.6604 41.3968 93.7738 41.3968H93.8467C95.9602 41.3968 97.6364 39.7205 97.6364 37.6069V20.5526C97.6364 18.0746 99.7498 16.0339 102.228 16.1068C104.633 16.1797 106.528 18.2933 106.528 20.6984V37.4612C106.528 39.5747 108.204 41.251 110.317 41.251C112.431 41.251 114.107 39.5747 114.107 37.4612V20.5526C114.253 13.8475 108.86 8.45422 102.228 8.45422Z" fill="white"/>
<path d="M151.421 12.2441V37.4612C151.421 39.5747 153.097 41.251 155.21 41.251C157.324 41.251 159 39.5747 159 37.4612V12.2441C159 10.1305 157.324 8.45422 155.21 8.45422C153.17 8.45422 151.421 10.2034 151.421 12.2441Z" fill="white"/>
<path fill-rule="evenodd" clip-rule="evenodd" d="M143.477 12.7543C143.477 14.5035 143.113 16.1798 142.457 17.7832C146.101 20.0425 148.36 24.051 148.433 28.4239C148.506 35.4934 142.384 41.324 135.315 41.324H123.946C120.739 41.324 118.115 38.7002 118.115 35.4934L118.042 12.7543C118.042 5.75766 123.727 0 130.723 0C137.792 0 143.477 5.75766 143.477 12.7543ZM121.978 29.5171C120.448 19.7509 133.347 8.01697 134.367 7.28815C134.805 6.99663 135.023 7.14239 134.95 7.36104C136.539 9.85801 135.212 12.4875 134.478 13.9422C134.269 14.3557 134.108 14.6743 134.076 14.8679C133.943 15.3997 134.241 16.5786 134.463 17.4535C134.605 18.0172 134.716 18.4548 134.659 18.5119C134.58 18.5909 134.287 18.6271 133.966 18.6668C133.694 18.7004 133.402 18.7366 133.201 18.8035C132.837 18.9492 132.983 20.2611 132.983 20.2611L132.473 20.4798C132.473 20.4798 132.473 20.9899 132.254 21.1357C131.744 21.2086 131.452 21.6459 131.234 22.5204C130.869 24.4154 127.663 22.5204 127.225 22.156C126.788 21.7916 125.112 21.3543 124.383 23.1035C124.383 29.1527 127.663 30.0273 130.14 30.3188C132.618 30.6103 133.857 28.5696 132.691 28.351C131.525 28.2052 131.962 26.9662 132.181 26.6747C132.327 26.4794 132.212 26.3168 132.12 26.187C132.075 26.123 132.035 26.0669 132.035 26.0188C132.035 25.9726 132.057 25.9265 132.08 25.878C132.13 25.7734 132.185 25.658 132.035 25.5086C132.108 25.1442 132.473 24.8527 132.473 24.8527C132.473 24.8527 132.327 24.051 132.327 23.8323C132.327 23.6299 132.327 23.6299 132.564 23.6324C132.754 23.6344 133.096 23.638 133.711 23.5408C134.157 23.4622 134.197 23.1198 134.249 22.6795C134.342 21.8954 134.47 20.8008 136.991 20.334C137.428 20.2611 137.866 20.2611 138.303 20.334C147.704 22.5204 142.092 29.8086 140.125 29.7357C139.978 29.7847 139.725 29.8301 139.419 29.8849C138.359 30.0746 136.667 30.3778 136.554 31.3391C136.699 41.3968 123.508 39.2833 121.978 29.5171Z" fill="white"/>
</svg>
