<svg width="68" height="67" viewBox="0 0 68 67" fill="none" xmlns="http://www.w3.org/2000/svg">
    <defs>
        <linearGradient id="paint0_linear" x1="-6.90694" y1="22.3604" x2="74.5833" y2="47.9185" gradientUnits="userSpaceOnUse">
            <stop stop-color="#FC95AE"/>
            <stop offset="0.723958" stop-color="#FB678B" stop-opacity="0"/>
        </linearGradient>
        <linearGradient id="paint1_linear" x1="0.511098" y1="7.30691e-08" x2="5.40942" y2="6.55919" gradientUnits="userSpaceOnUse">
            <stop stop-color="#FC95AE"/>
            <stop offset="1" stop-color="#FB678B"/>
        </linearGradient>
        <linearGradient id="paint2_linear" x1="0.329448" y1="4.71404e-08" x2="3.49037" y2="4.22902" gradientUnits="userSpaceOnUse">
            <stop stop-color="#FC95AE"/>
            <stop offset="1" stop-color="#FB678B"/>
        </linearGradient>
        <linearGradient id="paint3_linear" x1="1.17416" y1="1.68437e-07" x2="12.4766" y2="15.0831" gradientUnits="userSpaceOnUse">
            <stop stop-color="#FC95AE"/>
            <stop offset="0.723958" stop-color="#FB678B" stop-opacity="0"/>
        </linearGradient>
        <linearGradient id="paint4_linear" x1="8.50008" y1="-4.8" x2="89.3233" y2="56.807" gradientUnits="userSpaceOnUse">
            <stop offset="0.0001" stop-color="#FC95AE"/>
            <stop offset="0.9998" stop-color="#FB678B"/>
        </linearGradient>
        <linearGradient id="paint5_linear" x1="1.19632" y1="1.71024e-07" x2="12.6611" y2="15.3528" gradientUnits="userSpaceOnUse">
            <stop offset="0.0001" stop-color="#FC95AE"/>
            <stop offset="0.9998" stop-color="#FB678B"/>
        </linearGradient>
        <clipPath id="clip0">
            <rect width="42.7007" height="42.9734" fill="white" transform="matrix(0.89935 0.437228 -0.430046 0.902807 25.5559 0.866943)"/>
        </clipPath>
    </defs>
<path opacity="0.3" d="M51.4965 15.3437C60.6462 28.2223 57.7292 46.1558 44.9813 55.3993C32.2334 64.6428 14.4819 61.696 5.33216 48.8174C-3.81753 35.9387 -0.9006 18.0052 11.8473 8.76171C24.5952 -0.481796 42.3468 2.46504 51.4965 15.3437Z" fill="url(#paint0_linear)"/>
<ellipse opacity="0.8" rx="2.72586" ry="2.72599" transform="matrix(0.705129 -0.709079 0.70185 0.712325 4.72496 16.4325)" fill="url(#paint1_linear)"/>
<ellipse opacity="0.8" rx="1.75706" ry="1.75866" transform="matrix(-0.734677 0.678417 -0.670918 -0.741531 65.5126 43.7573)" fill="url(#paint2_linear)"/>
<ellipse opacity="0.3" rx="6.2622" ry="6.28389" transform="matrix(-0.81548 0.578785 -0.570933 -0.820997 59.3056 45.5599)" fill="url(#paint3_linear)"/>
<ellipse cx="37.2928" cy="28.7035" rx="28.4122" ry="28.7035" fill="url(#paint4_linear)"/>
<circle r="6.38037" transform="matrix(0.703491 0.710704 -0.703491 0.710704 32.8906 57.9309)" fill="url(#paint5_linear)"/>
<g clip-path="url(#clip0)">
<path d="M54.0985 33.7401C53.2906 33.7251 52.0066 34.71 52.0066 34.71L50.7851 33.1489C50.1486 32.3354 49.241 32.0419 48.392 32.1535C47.5266 32.641 46.8839 33.2476 46.8759 34.3389L46.0539 37.4245C45.0655 35.9666 43.457 34.825 41.8088 34.0238L43.9397 32.5277C44.1013 32.1859 44.1929 31.8047 44.195 31.4033C44.2009 30.2867 43.5121 29.2866 42.4736 28.9042L41.5129 28.5503C41.5863 27.6893 41.1406 26.5297 40.0158 26.0152L38.751 25.75C38.7574 25.6894 38.7628 25.629 38.767 25.5688L38.6779 24.2458C38.589 23.8132 38.445 23.4068 38.2611 23.0408C39.1408 21.6601 38.5108 20.5052 37.0493 20.2203C36.7351 16.7886 34.6982 13.6041 31.4005 12.0009C29.4652 11.06 27.3796 10.8022 25.4104 11.1319C22.1435 12.0526 20.1615 13.9901 18.9485 16.5365C16.5428 21.5869 18.6824 27.5732 23.6815 30.0035L27.8235 32.0172C27.8675 32.0386 28.9263 35.3044 29.1568 35.8412C32.6608 43.9995 41.9964 49.1666 48.6402 47.5015C50.2049 46.5757 51.1678 44.7867 50.9921 42.863L50.6341 38.9409C50.6341 38.9409 53.2785 40.4959 54.3989 39.2386C54.7583 38.7612 55.0682 38.2017 55.3381 37.6352C56.4068 35.3917 55.3366 34.0089 54.0985 33.7401Z" fill="#FFE9DD"/>
<path d="M35.4904 25.3723C35.4942 25.3742 35.4982 25.3761 35.5021 25.3779C36.5215 25.8487 37.8892 25.9138 38.7668 25.5686C38.7985 25.1114 38.7636 24.6664 38.6772 24.2459C38.6167 24.2814 38.5569 24.3133 38.4999 24.3382C38.0592 24.5298 36.9247 24.6061 36.0369 24.1961C35.7138 24.0469 35.3323 24.1905 35.1846 24.5169C35.0387 24.8393 35.1757 25.2193 35.4904 25.3723Z" fill="#E7B8B2"/>
<path opacity="0.2" d="M46.0537 37.4245L46.0728 34.7837C46.0834 33.3009 47.1777 32.313 48.3918 32.1534C47.7896 32.7368 47.3669 33.7019 47.359 34.7931L47.3107 41.4976C47.3081 41.8534 47.0345 42.1616 46.6825 42.1697C46.3182 42.178 46.0217 41.8809 46.0243 41.5154L46.0537 37.4245ZM29.5285 35.0605C29.1549 34.1907 29.3432 33.1781 30.0042 32.5051C30.1801 32.3261 30.327 32.1781 30.4145 32.093C30.4145 32.093 31.3231 31.2087 31.9812 30.8156C32.6393 30.4225 33.3921 30.2208 34.1566 30.2326L39.9266 30.3219C40.7959 30.3354 40.8158 29.036 39.9463 29.0226L38.7886 29.0048C39.3341 28.2675 39.6433 27.5547 39.8167 26.9637C39.9085 26.6509 39.9742 26.3337 40.0154 26.0152C39.6622 25.8537 39.2428 25.755 38.7506 25.7501C38.635 26.8263 38.1465 27.9578 37.1036 28.9787L37.1037 28.9788L34.1762 28.9335C33.1745 28.9181 32.189 29.1821 31.3266 29.6972C30.561 30.1544 29.6261 31.0561 29.522 31.1573C29.0106 31.6551 28.5383 31.692 28.0835 31.4709C27.1887 31.0359 24.7866 29.8681 23.9415 29.4572C18.9425 27.0267 17.1178 21.578 19.5235 16.5276C20.7365 13.9812 22.9113 12.08 25.4103 11.1318C22.2927 11.6539 19.467 13.6495 17.9927 16.7447C15.5869 21.7952 17.6893 27.8595 22.6885 30.2899L27.1721 32.4696C29.3732 42.5478 39.3829 49.4086 47.0394 48.0907C47.6199 47.9907 48.1581 47.7865 48.6399 47.5014C41.8981 48.5835 33.0325 43.2189 29.5285 35.0605ZM33.7673 34.1139C33.8089 34.4671 34.1389 34.7127 34.4897 34.6812L41.8086 34.0237C42.7582 33.9384 43.5519 33.3475 43.9396 32.5276L34.3489 33.3893C33.9885 33.4216 33.7241 33.7483 33.7673 34.1139ZM53.6769 40.0089C53.9378 39.795 54.1775 39.5323 54.3987 39.2386C53.7788 39.6371 52.8786 39.7191 52.0733 38.7258C51.1835 37.6284 50.4292 36.6981 50.4292 36.6981L50.6339 38.9409L51.1663 39.6308C51.8486 40.5148 53.0617 40.5132 53.6769 40.0089ZM53.3471 34.5396C53.5223 34.1717 53.7877 33.9072 54.0983 33.74C53.2896 33.5646 52.4094 33.8639 52.0064 34.7099L52.7894 35.7105C52.7893 35.7105 53.2548 34.7332 53.3471 34.5396Z" fill="#973E53"/>
<path d="M32.1882 22.5561C32.0723 22.4998 31.9609 22.432 31.8553 22.3531C31.5696 22.1398 31.5093 21.7329 31.7204 21.4444C31.9315 21.1558 32.3344 21.0948 32.6199 21.3081C32.7838 21.4306 32.9846 21.4809 33.1859 21.4503C33.3872 21.4199 33.5647 21.312 33.6857 21.1466C33.8968 20.858 34.2993 20.7966 34.5852 21.0103C34.8709 21.2236 34.9313 21.6304 34.7201 21.919C34.395 22.3636 33.9178 22.6535 33.3767 22.7355C32.9655 22.7978 32.5548 22.7343 32.1882 22.5561Z" fill="#685544"/>
<path d="M25.4262 28.3037C23.819 27.5223 23.1407 25.5657 23.9141 23.942C24.5531 22.6005 26.1533 22.0344 27.4812 22.6799C27.8012 22.8355 27.9358 23.2238 27.7818 23.5471C27.6278 23.8705 27.2435 24.0064 26.9234 23.8508C26.2346 23.516 25.4046 23.8097 25.0732 24.5055C24.6073 25.4835 25.0159 26.6621 25.984 27.1328C26.6728 27.4676 27.5028 27.174 27.8342 26.4781C27.9883 26.1548 28.3726 26.0188 28.6926 26.1744C29.0127 26.33 29.1473 26.7183 28.9933 27.0416C28.3542 28.383 26.754 28.9492 25.4262 28.3037Z" fill="#E7B8B2"/>
</g>
</svg>
