<svg width="49" height="48" viewBox="0 0 49 48" fill="none" xmlns="http://www.w3.org/2000/svg">
    <defs>
        <linearGradient id="paint0_linear" x1="5" y1="6.43311e-07" x2="48.125" y2="57.75" gradientUnits="userSpaceOnUse">
            <stop offset="0.0001" stop-color="#FC95AE"/>
            <stop offset="0.9998" stop-color="#FB678B"/>
        </linearGradient>
        <linearGradient id="paint1_linear" x1="1.25" y1="0.375" x2="42.5" y2="48" gradientUnits="userSpaceOnUse">
            <stop stop-color="#44BAF1"/>
            <stop offset="1" stop-color="#267CB8"/>
        </linearGradient>
    </defs>
<rect x="0.5" width="48" height="48" rx="16" fill="url(#paint0_linear)"/>
<mask id="mask0" style="mask-type:alpha" maskUnits="userSpaceOnUse" x="0" y="0" width="49" height="48">
<rect x="0.5" width="48" height="48" rx="16" fill="url(#paint1_linear)"/>
</mask>
<g mask="url(#mask0)">
<circle opacity="0.8" cx="7.25" cy="40.125" r="13.875" fill="#FC95AE"/>
<circle opacity="0.8" cx="52.25" cy="19.125" r="10.125" fill="#FC95AE"/>
</g>
<path fill-rule="evenodd" clip-rule="evenodd" d="M17.1446 11.5858C16.5588 12.1716 16.5588 13.1144 16.5588 15V15.1176H19.6175C20.7221 15.1176 21.6175 16.0131 21.6175 17.1176C21.6175 18.2222 20.7221 19.1176 19.6175 19.1176H16.5588V22.7647H19.6175C20.7221 22.7647 21.6175 23.6601 21.6175 24.7647C21.6175 25.8693 20.7221 26.7647 19.6175 26.7647H16.5588V30.4118H19.6175C20.7221 30.4118 21.6175 31.3072 21.6175 32.4118C21.6175 33.5163 20.7221 34.4118 19.6175 34.4118H16.5729C16.6077 35.4004 16.728 35.9976 17.1446 36.4142C17.7304 37 18.6732 37 20.5588 37H32.4412C34.3268 37 35.2696 37 35.8554 36.4142C36.4412 35.8284 36.4412 34.8856 36.4412 33V15C36.4412 13.1144 36.4412 12.1716 35.8554 11.5858C35.2696 11 34.3268 11 32.4412 11H20.5588C18.6732 11 17.7304 11 17.1446 11.5858ZM30.3234 21.1765C29.7711 21.1765 29.3234 20.7288 29.3234 20.1765V17.1176C29.3234 16.5654 29.7711 16.1176 30.3234 16.1176C30.8757 16.1176 31.3234 16.5654 31.3234 17.1176V20.1765C31.3234 20.7288 30.8757 21.1765 30.3234 21.1765ZM13.5 16.1176C12.9477 16.1176 12.5 16.5654 12.5 17.1176C12.5 17.6699 12.9477 18.1176 13.5 18.1176H19.6176C20.1699 18.1176 20.6176 17.6699 20.6176 17.1176C20.6176 16.5654 20.1699 16.1176 19.6176 16.1176H13.5ZM13.5 23.7647C12.9477 23.7647 12.5 24.2124 12.5 24.7647C12.5 25.317 12.9477 25.7647 13.5 25.7647H19.6176C20.1699 25.7647 20.6176 25.317 20.6176 24.7647C20.6176 24.2124 20.1699 23.7647 19.6176 23.7647H13.5ZM13.5 31.4118C12.9477 31.4118 12.5 31.8595 12.5 32.4118C12.5 32.9641 12.9477 33.4118 13.5 33.4118H19.6176C20.1699 33.4118 20.6176 32.9641 20.6176 32.4118C20.6176 31.8595 20.1699 31.4118 19.6176 31.4118H13.5Z" fill="white"/>
</svg>
