<svg width="49" height="48" viewBox="0 0 49 48" fill="none" xmlns="http://www.w3.org/2000/svg">
<rect x="0.5" width="48" height="48" rx="16" fill="url(#paint0_linear)"/>
<mask id="mask0" mask-type="alpha" maskUnits="userSpaceOnUse" x="0" y="0" width="49" height="48">
<rect x="0.5" width="48" height="48" rx="16" fill="url(#paint1_linear)"/>
</mask>
<g mask="url(#mask0)">
<circle opacity="0.8" cx="7.25" cy="40.125" r="13.875" fill="#5EC7F3"/>
<circle opacity="0.8" cx="52.25" cy="19.125" r="10.125" fill="#5EC7F3"/>
</g>
<path d="M16.2246 11.5601H17.036V15.0758H21.9038V11.5601H22.7152C23.1632 11.5601 23.5265 11.1969 23.5265 10.7488C23.5265 10.3008 23.1632 9.9375 22.7152 9.9375H16.2246C15.7766 9.9375 15.4133 10.3008 15.4133 10.7488C15.4133 11.1969 15.7766 11.5601 16.2246 11.5601Z" fill="white"/>
<path d="M24.8786 16.6984H14.0613C13.6133 16.6984 13.25 17.0616 13.25 17.5097C13.25 17.9577 13.6133 18.321 14.0613 18.321H15.4134V19.9434H18.3883C18.8363 19.9434 19.1996 20.3067 19.1996 20.7547C19.1996 21.2028 18.8363 21.566 18.3883 21.566H15.4134V23.1887H18.3883C18.8363 23.1887 19.1996 23.5519 19.1996 24C19.1996 24.448 18.8363 24.8113 18.3883 24.8113H15.4134V26.7178C15.4134 27.0023 15.4636 27.2751 15.5537 27.5291H23.3862C23.4763 27.2751 23.5265 27.0023 23.5265 26.7178V18.321H24.8786C25.3266 18.321 25.6899 17.9577 25.6899 17.5097C25.6899 17.0616 25.3266 16.6984 24.8786 16.6984Z" fill="white"/>
<path d="M16.4954 30.4903C16.4954 31.5342 17.3444 32.3835 18.3884 32.3835H18.6587V37.2511C18.6587 37.6992 19.022 38.0625 19.47 38.0625C19.9181 38.0625 20.2814 37.6992 20.2814 37.2511V32.3835H20.5517C21.5956 32.3835 22.4447 31.5342 22.4447 30.4903V29.1517H16.4954V30.4903Z" fill="white"/>
<path d="M28.3942 26.9476C28.3961 26.9478 28.3978 26.9481 28.3998 26.9485C28.4418 26.9569 28.4843 26.9635 28.5274 26.9678C28.5285 26.9678 28.5296 26.968 28.5304 26.968C28.5519 26.9702 28.5738 26.9719 28.5955 26.973C28.6184 26.9742 28.6414 26.9747 28.6648 26.9747H32.9915C33.0149 26.9747 33.0378 26.9742 33.0608 26.973C33.0825 26.9719 33.1044 26.9702 33.1258 26.968C33.1267 26.968 33.1277 26.968 33.1288 26.9678C33.1719 26.9635 33.2146 26.9569 33.2565 26.9485C33.2584 26.9481 33.2601 26.9478 33.2621 26.9476C33.8785 26.8219 34.3438 26.2756 34.3438 25.6226V23.4659C34.3438 22.7203 33.7371 22.1136 32.9915 22.1136H28.6648C27.9191 22.1136 27.3125 22.7203 27.3125 23.4659V25.6226C27.3125 26.2756 27.7777 26.8219 28.3942 26.9476Z" fill="white"/>
<path d="M34.5988 28.1239C34.1349 28.423 33.5834 28.5973 32.9916 28.5973H28.6649C28.0731 28.5973 27.5216 28.423 27.0577 28.1239C26.5513 28.5702 26.231 29.223 26.231 29.9495V31.3112C27.1159 31.3692 27.621 31.7041 28.033 31.9788C28.3984 32.2223 28.64 32.3832 29.2056 32.3832C29.7713 32.3832 30.0127 32.2223 30.3783 31.9788C30.8306 31.6771 31.3939 31.3016 32.4509 31.3016C33.5077 31.3016 34.0709 31.6771 34.5235 31.9788C34.8248 32.1796 35.0421 32.3238 35.4256 32.3684V29.9495C35.4256 29.223 35.1052 28.5702 34.5988 28.1239Z" fill="white"/>
<path d="M32.4509 32.9243C31.8853 32.9243 31.6437 33.0852 31.2782 33.329C30.8257 33.6307 30.2624 34.006 29.2056 34.006C28.1486 34.006 27.5856 33.6307 27.133 33.329C26.8318 33.1282 26.6144 32.9838 26.231 32.9391V37.2513C26.231 37.6993 26.5942 38.0626 27.0423 38.0626H34.6143C35.0623 38.0626 35.4256 37.6993 35.4256 37.2513V33.9966C34.5407 33.9386 34.0355 33.6037 33.6236 33.329C33.2579 33.0852 33.0165 32.9243 32.4509 32.9243Z" fill="white"/>
<defs>
<linearGradient id="paint0_linear" x1="5" y1="6.43311e-07" x2="48.125" y2="57.75" gradientUnits="userSpaceOnUse">
<stop stop-color="#5EC7F3"/>
<stop offset="1" stop-color="#34AEEF"/>
</linearGradient>
<linearGradient id="paint1_linear" x1="1.25" y1="0.375" x2="42.5" y2="48" gradientUnits="userSpaceOnUse">
<stop stop-color="#44BAF1"/>
<stop offset="1" stop-color="#267CB8"/>
</linearGradient>
</defs>
</svg>
