<svg width="21" height="23" viewBox="0 0 21 23" fill="none" xmlns="http://www.w3.org/2000/svg">
<path d="M16.5 9.33333H12.5V1.4C12.5 1.09942 12.3946 0.811149 12.2071 0.598608C12.0196 0.386067 11.7652 0.266663 11.5 0.266663H6.5C6.23478 0.266663 5.98043 0.386067 5.79289 0.598608C5.60536 0.811149 5.5 1.09942 5.5 1.4V7.06666H1.5C1.23478 7.06666 0.98043 7.18607 0.792893 7.39861C0.605357 7.61115 0.5 7.89942 0.5 8.2V21.8C0.5 22.1006 0.605357 22.3888 0.792893 22.6014C0.98043 22.8139 1.23478 22.9333 1.5 22.9333H16.5C16.7652 22.9333 17.0196 22.8139 17.2071 22.6014C17.3946 22.3888 17.5 22.1006 17.5 21.8V10.4667C17.5 10.1661 17.3946 9.87782 17.2071 9.66528C17.0196 9.45273 16.7652 9.33333 16.5 9.33333ZM5.5 20.6667H2.5V9.33333H5.5V20.6667ZM10.5 20.6667H7.5V2.53333H10.5V20.6667ZM15.5 20.6667H12.5V11.6H15.5V20.6667ZM19.5 2.53333H18.5V1.4C18.5 1.09942 18.3946 0.811149 18.2071 0.598608C18.0196 0.386067 17.7652 0.266663 17.5 0.266663C17.2348 0.266663 16.9804 0.386067 16.7929 0.598608C16.6054 0.811149 16.5 1.09942 16.5 1.4V2.53333H15.5C15.2348 2.53333 14.9804 2.65273 14.7929 2.86528C14.6054 3.07782 14.5 3.36608 14.5 3.66666C14.5 3.96724 14.6054 4.25551 14.7929 4.46805C14.9804 4.68059 15.2348 4.8 15.5 4.8H16.5V5.93333C16.5 6.23391 16.6054 6.52218 16.7929 6.73472C16.9804 6.94726 17.2348 7.06666 17.5 7.06666C17.7652 7.06666 18.0196 6.94726 18.2071 6.73472C18.3946 6.52218 18.5 6.23391 18.5 5.93333V4.8H19.5C19.7652 4.8 20.0196 4.68059 20.2071 4.46805C20.3946 4.25551 20.5 3.96724 20.5 3.66666C20.5 3.36608 20.3946 3.07782 20.2071 2.86528C20.0196 2.65273 19.7652 2.53333 19.5 2.53333Z" fill="#BDBDBD"/>
</svg>
