<svg height="512" viewBox="0 0 64 64" width="512" xmlns="http://www.w3.org/2000/svg"><g id="Layer_31" data-name="Layer 31"><path d="m2 19h60v34h-60z" fill="#78a0d4"/><path d="m15 48h-8v-24h50v24h-26" fill="#c0dafc"/><path d="m2 7h60v12h-60z" fill="#3b5892"/><path d="m57 13v-6h-55v8h53a2 2 0 0 0 2-2z" fill="#4c6cb5"/><path d="m34.757 30h8.485v2h-8.485z" fill="#f2f2f2" transform="matrix(.707 -.707 .707 .707 -10.497 36.657)"/><path d="m26 53 10.293-10.293a2.414 2.414 0 0 0 .707-1.707 2.414 2.414 0 0 0 -.707-1.707l-5.586-5.586a2.414 2.414 0 0 0 -1.707-.707 2.414 2.414 0 0 0 -1.707.707l-10.293 10.293" fill="#e2e7f6"/><path d="m20.464 43.172h7.071v5.657h-7.071z" fill="#c8cded" transform="matrix(.707 -.707 .707 .707 -25.497 30.444)"/><path d="m24.379 57.379-11.758-11.758a2.12 2.12 0 0 1 -.621-1.5 2.122 2.122 0 0 1 2.121-2.121 2.12 2.12 0 0 1 1.5.621l11.758 11.758a2.12 2.12 0 0 1 .621 1.5 2.122 2.122 0 0 1 -2.121 2.121 2.12 2.12 0 0 1 -1.5-.621z" fill="#9da1bf"/><path d="m14.275 50.422h4.95v5.657h-4.95z" fill="#c8cded" transform="matrix(.707 -.707 .707 .707 -32.747 27.441)"/><path d="m15.379 61.379-6.758-6.758a2.12 2.12 0 0 1 -.621-1.5 2.122 2.122 0 0 1 2.121-2.121 2.12 2.12 0 0 1 1.5.621l6.758 6.758a2.12 2.12 0 0 1 .621 1.5 2.122 2.122 0 0 1 -2.121 2.121 2.12 2.12 0 0 1 -1.5-.621z" fill="#9da1bf"/><path d="m36 39 3-3-5-5-3 3" fill="#e2e7f6"/><path d="m31 48-9-9 5.293-5.293a2.414 2.414 0 0 1 1.707-.707 2.414 2.414 0 0 1 1.707.707l5.586 5.586a2.414 2.414 0 0 1 .707 1.707 2.414 2.414 0 0 1 -.707 1.707z" fill="#78a0d4"/><path d="m36.293 42.707a2.414 2.414 0 0 0 0-3.414l-5.293-5.293-5 5 7 7z" fill="#86b1e0"/><path d="m25.5 37.136h2v12.728h-2z" fill="#686868" transform="matrix(.707 -.707 .707 .707 -22.997 31.479)"/><path d="m10 2h4v10h-4z" fill="#c8cded"/><path d="m18 2h4v10h-4z" fill="#c8cded"/><path d="m42 2h4v10h-4z" fill="#c8cded"/><path d="m50 2h4v10h-4z" fill="#c8cded"/><g fill="#e2e7f6"><path d="m52 9v-7h-2v8h1a1 1 0 0 0 1-1z"/><path d="m44 9v-7h-2v8h1a1 1 0 0 0 1-1z"/><path d="m20 9v-7h-2v8h1a1 1 0 0 0 1-1z"/><path d="m12 9v-7h-2v8h1a1 1 0 0 0 1-1z"/></g><path d="m26 11h12v4h-12z" fill="#c8cded"/><path d="m36 12v-1h-10v2h9a1 1 0 0 0 1-1z" fill="#e2e7f6"/><path d="m44 32-1.445 2.168a3.3 3.3 0 0 0 -.555 1.832 2 2 0 0 0 2 2 2 2 0 0 0 2-2 3.3 3.3 0 0 0 -.555-1.832z" fill="#86b1e0"/></g></svg>